<?xml version="1.0" encoding="UTF-8"?>
<svg id="Layer_1" data-name="Layer 1" xmlns="http://www.w3.org/2000/svg" viewBox="0 0 436.96 409.34">
  <defs>
    <style>
      .cls-1 {
        stroke: #fff;
        stroke-miterlimit: 10;
      }
    </style>
  </defs>
  <path class="cls-1" d="m147.88,75.32c0,6.98,3.35,12.74,10.06,17.3v-4.02c0-3.75,1.41-6.9,4.23-9.45,2.82-2.55,6.37-3.82,10.66-3.82,11.8,0,17.7,5.9,17.7,17.7,0,7.78-3.09,14.28-9.26,19.51-6.17,5.23-13.82,7.84-22.93,7.84-11.8,0-21.52-3.95-29.16-11.87-7.64-7.91-11.47-18.04-11.47-30.37,0-22.53,9.59-41.1,28.76-55.72C165.64,7.81,190.25.5,220.29.5s53.7,6.98,71.81,20.92c18.1,13.95,27.15,32.32,27.15,55.12,0,28.7-14.22,50.29-42.64,64.77-4.83,2.41-11,5.23-18.5,8.45-15.83,6.71-26.62,13.14-32.39,19.31-5.77,6.17-8.65,14.35-8.65,24.54,0,7.51-.67,12.61-2.01,15.29-2.15,4.02-6.44,6.03-12.87,6.03-11.26,0-16.9-6.97-16.9-20.92,0-12.87,3.22-23.87,9.65-32.99,8.05-10.99,22.79-22.39,44.25-34.2,19.31-10.46,31.78-18.91,37.41-25.34,5.63-6.44,8.45-15.15,8.45-26.15,0-14.75-6.04-26.61-18.1-35.6-12.07-8.98-28.03-13.48-47.87-13.48s-37.01,4.76-50.69,14.28c-13.68,9.52-20.52,21.12-20.52,34.8Zm57.93,209.19c-6.98,0-12.94-2.48-17.9-7.44-4.97-4.96-7.44-10.92-7.44-17.9s2.48-12.94,7.44-17.9,10.92-7.44,17.9-7.44,12.87,2.48,17.7,7.44c4.83,4.97,7.24,10.93,7.24,17.9s-2.42,12.94-7.24,17.9c-4.83,4.96-10.73,7.44-17.7,7.44Z"/>
  <g>
    <path class="cls-1" d="m18.91,359.82l9.45,31.05,10.37-33.07c.53-1.72,1.45-2.58,2.76-2.58h.31c.41,0,.94.06,1.6.18.82.21,1.35.31,1.6.31.65.08,1.55.12,2.7.12,1.23,0,2.19-.06,2.88-.18l2.15-.37c.12-.04.37-.06.74-.06,1.88,0,2.82.72,2.82,2.15,0,1.31-.66,1.96-1.96,1.96-.33,0-.81-.05-1.44-.15-.63-.1-1.12-.15-1.44-.15-2.09,0-3.13,1.53-3.13,4.6v24.6c0,3.07,1.02,4.6,3.07,4.6.41,0,.86-.06,1.35-.18.9-.08,1.43-.12,1.59-.12,1.31,0,1.96.66,1.96,1.96,0,1.47-.88,2.21-2.64,2.21.08,0-.23-.04-.92-.12-2.82-.33-5.22-.49-7.18-.49s-3.76.14-5.52.43c-.74.12-1.39.18-1.96.18-1.6,0-2.39-.68-2.39-2.06s.82-2.12,2.47-2.12c.41,0,.72.03.93.08.91.11,1.44.16,1.61.16,1.48,0,2.41-1.53,2.78-4.59.08-.65.12-2.74.12-6.25,0-1.35.04-3.31.12-5.88v-16.35c0-.24-.1-.37-.31-.37-.12,0-.25.12-.37.37l-11.29,34.98c-.49,1.55-1.64,2.33-3.44,2.33-1.06,0-1.85-.15-2.36-.46-.51-.31-.91-.93-1.2-1.87l-11.11-34.98c-.12-.24-.27-.37-.43-.37s-.25.12-.25.37l.37,28.38c.04,2.97.86,4.45,2.45,4.45h2.58c1.6,0,2.39.7,2.39,2.09s-.82,2.09-2.45,2.09c-.29,0-.72-.04-1.29-.12-.9-.12-1.86-.27-2.88-.43-.82-.12-1.86-.18-3.13-.18-2.25,0-3.7.06-4.36.18l-2.58.49c-.08,0-.21.02-.37.06h-.37c-1.88,0-2.82-.72-2.82-2.15,0-.57.18-1.05.55-1.44.37-.39.82-.58,1.35-.58.45,0,.98.06,1.6.18.61.12,1.06.18,1.35.18,2.09,0,3.13-1.53,3.13-4.6v-24.67c0-3.07-1.04-4.6-3.13-4.6-.33,0-.82.05-1.47.15-.65.1-1.15.15-1.47.15-1.27,0-1.9-.65-1.9-1.96,0-1.43.92-2.15,2.76-2.15.16,0,.43.02.8.06l2.15.25c1.06.12,2.06.18,3.01.18.78,0,1.83-.08,3.16-.24,1.33-.16,2.3-.25,2.91-.25,1.6,0,2.66,1,3.19,3.01l.43,1.6Z"/>
    <path class="cls-1" d="m69.53,371.6l7.06,20.74,7.49-20.43c.2-.57.31-1.02.31-1.35,0-.7-.47-1.04-1.41-1.04-.49,0-.88.04-1.17.12-.65.08-1.08.12-1.29.12-1.35,0-2.02-.65-2.02-1.96,0-1.39.88-2.09,2.64-2.09.25,0,.65.04,1.23.12l2.21.31c.57.08,1.19.12,1.84.12.7,0,1.72-.09,3.07-.28,1.35-.18,2.37-.28,3.07-.28,1.76,0,2.64.69,2.64,2.06s-.67,1.99-2.02,1.99c-.41,0-.72-.04-.92-.12-.53-.12-.9-.18-1.1-.18-.78,0-1.57,1.04-2.39,3.13l-8.35,20.86c-1.84,4.62-3.58,7.98-5.22,10.06-2.78,3.56-6.26,5.34-10.43,5.34-2.5,0-4.59-.63-6.29-1.9-1.7-1.27-2.55-2.8-2.55-4.6,0-1.27.37-2.3,1.1-3.1.74-.8,1.7-1.2,2.88-1.2.94,0,1.72.28,2.33.83.61.55.92,1.24.92,2.06,0,1.31-.59,2.15-1.78,2.52.61.9,1.78,1.35,3.5,1.35,2.17,0,4.12-.81,5.86-2.42,1.74-1.62,2.61-3.43,2.61-5.43,0-1.02-.55-2.92-1.66-5.71l-6.75-17.06-.74-1.96c-.7-1.84-1.49-2.76-2.39-2.76-.25,0-.69.05-1.32.15-.63.1-1.05.15-1.26.15-1.43,0-2.15-.65-2.15-1.96,0-1.39.94-2.09,2.82-2.09.61,0,1.08.02,1.41.07l2.45.36h.49c.29.04.53.06.74.06,1.47,0,3.05-.09,4.72-.28,1.27-.14,2.11-.21,2.52-.21,1.72,0,2.58.68,2.58,2.03s-.78,2.02-2.33,2.02c-.25,0-.63-.04-1.17-.12-.53-.08-.92-.12-1.17-.12-.57,0-.86.29-.86.86,0,.33.08.74.25,1.23Z"/>
    <path class="cls-1" d="m109.62,364.66c2.73,0,5.01.72,6.85,2.15v-.25c0-1.51.65-2.27,1.96-2.27s2.02.66,2.02,1.96c0,.25-.03.86-.1,1.84-.14.82-.2,1.64-.2,2.45,0,.49.05,1.21.15,2.15.1.94.15,1.66.15,2.15,0,1.55-.67,2.33-1.99,2.33s-1.95-.65-1.99-1.96v-2.02c-.04-1.23-.75-2.28-2.12-3.16-1.37-.88-2.98-1.32-4.82-1.32s-3.46.48-4.72,1.44c-1.27.96-1.9,2.16-1.9,3.59,0,2.62,1.8,4.17,5.4,4.66l3.56.49c6.95.94,10.43,3.83,10.43,8.65,0,2.95-1.12,5.33-3.37,7.15s-5.18,2.73-8.81,2.73c-3.39,0-6.32-.96-8.81-2.88v1.17c0,1.47-.7,2.21-2.09,2.21-1.51,0-2.27-.84-2.27-2.52,0,.29.12-.78.37-3.19.08-.57.12-1.14.12-1.72,0-.98-.08-1.9-.25-2.76-.16-.86-.25-1.53-.25-2.03,0-1.43.65-2.15,1.96-2.15.86,0,1.4.2,1.63.61.22.41.36,1.49.4,3.25.04,1.76.96,3.19,2.76,4.3,1.8,1.1,4.09,1.66,6.87,1.66,2,0,3.66-.51,4.97-1.53,1.31-1.02,1.96-2.31,1.96-3.86,0-2.78-2.21-4.4-6.63-4.85-4.21-.45-7.42-1.28-9.63-2.48-2.21-1.21-3.31-3.32-3.31-6.35,0-2.86,1.08-5.19,3.24-6.96,2.16-1.78,4.97-2.67,8.44-2.67Z"/>
    <path class="cls-1" d="m143.96,387.92v-3.93c.04-1.68.78-2.52,2.21-2.52s2.15.94,2.15,2.82c0,4.46-.57,7.57-1.71,9.33-1.54,2.37-4.08,3.56-7.62,3.56-3.25,0-5.57-1.04-6.95-3.13-1.02-1.51-1.52-4.09-1.52-7.73v-14.73c0-.86-.4-1.29-1.19-1.29h-2.01c-.67,0-1.22-.21-1.66-.64s-.66-.95-.66-1.56c0-.57.21-1.08.64-1.53.43-.45.91-.68,1.44-.68h2.39c.7,0,1.04-.39,1.04-1.17v-6.32c0-1.55.8-2.33,2.39-2.33,1.47,0,2.21.78,2.21,2.33v6.57c0,.61.37.92,1.1.92h6.69c1.55,0,2.33.72,2.33,2.15,0,1.51-.84,2.27-2.52,2.27h-6.75c-.57,0-.86.43-.86,1.29v15.09c0,4.3,1.43,6.44,4.29,6.44s4.42-1.74,4.54-5.22Z"/>
    <path class="cls-1" d="m179.3,378.35c0,1.55-.1,2.51-.31,2.85-.2.35-.8.52-1.78.52h-19.51c-.53,0-.88.07-1.04.21-.16.14-.25.38-.25.71,0,3.07.92,5.63,2.76,7.67,1.84,2.05,4.13,3.07,6.87,3.07,1.8,0,3.45-.49,4.94-1.47,1.49-.98,2.46-2.23,2.91-3.74l.55-1.78c.29-.98.96-1.47,2.02-1.47,1.51,0,2.27.78,2.27,2.33,0,2.66-1.35,5.02-4.05,7.09s-5.77,3.1-9.2,3.1c-4.3,0-7.71-1.44-10.25-4.33-2.54-2.88-3.8-6.76-3.8-11.63s1.35-9.04,4.05-12.15c2.7-3.11,6.22-4.66,10.55-4.66,3.84,0,7.01,1.29,9.51,3.86,2.49,2.58,3.74,5.85,3.74,9.82Zm-22.27-1.6c0,.57.45.86,1.35.86h14.66c.86,0,1.29-.29,1.29-.86,0-2.17-.82-4.05-2.45-5.64-1.64-1.6-3.56-2.39-5.77-2.39s-4.38.83-6.26,2.48c-1.88,1.66-2.82,3.51-2.82,5.55Z"/>
    <path class="cls-1" d="m193.11,367.46v1.69c2.13-2.99,4.97-4.48,8.53-4.48,2.86,0,5.18.81,6.96,2.42,1.78,1.62,2.67,3.69,2.67,6.23,0,1.8-.45,3.26-1.35,4.39s-2.09,1.69-3.56,1.69c-.94,0-1.74-.29-2.39-.86-.65-.57-.98-1.27-.98-2.09,0-.65.25-1.24.74-1.75.49-.51,1.06-.77,1.72-.77.12,0,.39.06.8.18.25-.49.37-.94.37-1.35,0-1.19-.52-2.19-1.56-3.01-1.04-.82-2.34-1.23-3.9-1.23-3.19,0-5.32,1.43-6.38,4.3-.65,1.76-.98,4.42-.98,7.98v4.05c0,2.74.02,4.28.06,4.6.2,2.33.84,3.5,1.9,3.5.53,0,1.08-.07,1.66-.21.45-.1.84-.16,1.17-.16,1.31,0,1.96.65,1.96,1.93,0,1.41-.84,2.12-2.51,2.12h-.24c-.61,0-1.54-.07-2.78-.21s-2.17-.21-2.78-.21c-1.63,0-2.91.04-3.85.12l-3.42.31c-1.67,0-2.51-.72-2.51-2.15,0-1.27.78-1.9,2.35-1.9.41,0,.72.02.93.06l.93.18c.41.08.7.12.87.12,1.03,0,1.59-.94,1.67-2.82v-3.13l-.18-13.93c-.12-2.41-.74-3.62-1.84-3.62-.33,0-.78.06-1.35.18-.57.12-1.02.18-1.35.18-1.35,0-2.02-.65-2.02-1.96,0-1.43.88-2.15,2.64-2.15.41,0,1.02.05,1.84.15.82.1,1.43.15,1.84.15.33,0,.86-.05,1.6-.15.33-.1.72-.15,1.17-.15,1.06,0,1.6.58,1.6,1.75Z"/>
    <path class="cls-1" d="m225.2,371.6l7.06,20.74,7.49-20.43c.2-.57.31-1.02.31-1.35,0-.7-.47-1.04-1.41-1.04-.49,0-.88.04-1.17.12-.66.08-1.08.12-1.29.12-1.35,0-2.02-.65-2.02-1.96,0-1.39.88-2.09,2.64-2.09.25,0,.65.04,1.23.12l2.21.31c.57.08,1.19.12,1.84.12.7,0,1.72-.09,3.07-.28,1.35-.18,2.37-.28,3.07-.28,1.76,0,2.64.69,2.64,2.06s-.68,1.99-2.03,1.99c-.41,0-.72-.04-.92-.12-.53-.12-.9-.18-1.1-.18-.78,0-1.58,1.04-2.39,3.13l-8.34,20.86c-1.84,4.62-3.58,7.98-5.22,10.06-2.78,3.56-6.26,5.34-10.43,5.34-2.5,0-4.59-.63-6.29-1.9-1.7-1.27-2.55-2.8-2.55-4.6,0-1.27.37-2.3,1.1-3.1s1.7-1.2,2.88-1.2c.94,0,1.72.28,2.33.83.61.55.92,1.24.92,2.06,0,1.31-.59,2.15-1.78,2.52.61.9,1.78,1.35,3.5,1.35,2.17,0,4.12-.81,5.86-2.42,1.74-1.62,2.61-3.43,2.61-5.43,0-1.02-.55-2.92-1.66-5.71l-6.75-17.06-.74-1.96c-.7-1.84-1.49-2.76-2.39-2.76-.25,0-.69.05-1.32.15-.63.1-1.05.15-1.26.15-1.43,0-2.15-.65-2.15-1.96,0-1.39.94-2.09,2.82-2.09.61,0,1.08.02,1.41.07l2.45.36h.49c.29.04.53.06.74.06,1.47,0,3.05-.09,4.72-.28,1.27-.14,2.11-.21,2.52-.21,1.72,0,2.58.68,2.58,2.03s-.78,2.02-2.33,2.02c-.25,0-.64-.04-1.17-.12-.53-.08-.92-.12-1.17-.12-.57,0-.86.29-.86.86,0,.33.08.74.25,1.23Z"/>
    <path class="cls-1" d="m274.53,363.62c0-3.07-1.04-4.6-3.13-4.6-.37,0-.8.04-1.29.12-.74.12-1.29.18-1.66.18-1.27,0-1.9-.65-1.9-1.96,0-1.43.92-2.15,2.76-2.15.2,0,.47.02.8.06l3.25.43c1.23.16,2.54.25,3.93.25,1.14,0,2.29-.06,3.44-.18l3.99-.43c.78-.08,1.8-.12,3.07-.12,3.72,0,6.83.53,9.33,1.59,3.27,1.39,5.86,3.8,7.76,7.24s2.85,7.42,2.85,11.97c0,4.01-.76,7.62-2.27,10.83-1.51,3.21-3.58,5.57-6.2,7.09-3.15,1.84-6.95,2.76-11.41,2.76-.9,0-1.82-.04-2.76-.12l-4.23-.37c-1.43-.12-2.93-.18-4.48-.18-1.35,0-2.45.06-3.31.18l-2.95.43c-.08,0-.22.02-.43.06h-.49c-1.76,0-2.64-.72-2.64-2.15,0-.57.18-1.05.55-1.44.37-.39.82-.58,1.35-.58.45,0,1,.06,1.66.18.29.08.72.12,1.29.12,2.09,0,3.13-1.53,3.13-4.6v-24.6Zm5.15-.63v25.86c0,1.88.92,3.02,2.76,3.42.61.16,2.33.24,5.15.24,4.91,0,8.47-1.32,10.68-3.97,2.66-3.18,3.99-7.38,3.99-12.59,0-4.07-.81-7.53-2.42-10.36-1.62-2.83-3.84-4.66-6.66-5.47-1.8-.53-3.97-.79-6.5-.79-3.23,0-5.21.18-5.92.55-.72.37-1.07,1.41-1.07,3.12Z"/>
    <path class="cls-1" d="m321.66,367.46v1.69c2.13-2.99,4.97-4.48,8.53-4.48,2.86,0,5.18.81,6.96,2.42,1.78,1.62,2.67,3.69,2.67,6.23,0,1.8-.45,3.26-1.35,4.39s-2.09,1.69-3.56,1.69c-.94,0-1.74-.29-2.39-.86-.65-.57-.98-1.27-.98-2.09,0-.65.25-1.24.74-1.75.49-.51,1.06-.77,1.72-.77.12,0,.39.06.8.18.25-.49.37-.94.37-1.35,0-1.19-.52-2.19-1.56-3.01-1.04-.82-2.34-1.23-3.9-1.23-3.19,0-5.32,1.43-6.38,4.3-.65,1.76-.98,4.42-.98,7.98v4.05c0,2.74.02,4.28.06,4.6.2,2.33.84,3.5,1.9,3.5.53,0,1.08-.07,1.66-.21.45-.1.84-.16,1.17-.16,1.31,0,1.96.65,1.96,1.93,0,1.41-.84,2.12-2.51,2.12h-.24c-.61,0-1.54-.07-2.78-.21s-2.17-.21-2.78-.21c-1.63,0-2.92.04-3.85.12l-3.43.31c-1.67,0-2.51-.72-2.51-2.15,0-1.27.78-1.9,2.35-1.9.41,0,.72.02.93.06l.93.18c.41.08.7.12.87.12,1.03,0,1.59-.94,1.67-2.82v-3.13l-.18-13.93c-.12-2.41-.74-3.62-1.84-3.62-.33,0-.78.06-1.35.18-.57.12-1.02.18-1.35.18-1.35,0-2.03-.65-2.03-1.96,0-1.43.88-2.15,2.64-2.15.41,0,1.02.05,1.84.15.82.1,1.43.15,1.84.15.33,0,.86-.05,1.6-.15.33-.1.72-.15,1.17-.15,1.06,0,1.6.58,1.6,1.75Z"/>
    <path class="cls-1" d="m352.46,378.59v7.98c0,2.05.02,3.25.06,3.62.2,1.84.76,2.76,1.66,2.76.2,0,.72-.1,1.53-.31.2-.08.51-.12.92-.12,1.55,0,2.33.68,2.33,2.03,0,.57-.26,1.06-.77,1.47-.51.41-1.16.61-1.94.61-.66,0-1.65-.09-2.99-.28-1.34-.18-2.33-.28-2.99-.28-1.07,0-2.26.08-3.57.25-1.6.2-2.67.31-3.2.31-1.64,0-2.46-.7-2.46-2.09s.7-2.03,2.11-2.03c.33,0,.81.06,1.45.18.64.12,1.12.18,1.46.18.99,0,1.59-1.31,1.8-3.93v-15.71c-.21-2.58-.82-3.87-1.86-3.87-.33,0-.8.07-1.39.21-.6.14-1.04.21-1.33.21-1.49,0-2.23-.65-2.23-1.96,0-1.39.9-2.09,2.7-2.09.78,0,1.33.02,1.66.06,1.31.16,2.15.25,2.52.25.33,0,.83-.05,1.5-.15.68-.1,1.18-.15,1.5-.15,1.19,0,1.78.8,1.78,2.39,0,.16-.02.41-.05.74-.03.33-.05.57-.05.74-.03.33-.07,1.6-.1,3.8-.03,1.68-.05,3.4-.05,5.15Zm-3.19-16.08c-.94,0-1.75-.34-2.42-1.01-.68-.67-1.01-1.48-1.01-2.42s.34-1.74,1.01-2.39c.68-.65,1.48-.98,2.42-.98s1.75.33,2.42.98c.68.66,1.01,1.45,1.01,2.39s-.34,1.75-1.01,2.42c-.67.68-1.48,1.01-2.42,1.01Z"/>
    <path class="cls-1" d="m370.93,367.58v1.75c2.45-3.11,5.73-4.66,9.82-4.66,2.21,0,4.3.56,6.26,1.69,1.96,1.13,3.29,2.53,3.99,4.2.57,1.39.86,3.21.86,5.46v11.66c0,1.76.02,2.8.06,3.13.2,1.39.76,2.09,1.66,2.09.37,0,.85-.05,1.44-.15.59-.1,1.01-.15,1.26-.15.53,0,.99.18,1.38.55.39.37.58.82.58,1.35,0,.61-.24,1.13-.74,1.53s-1.08.61-1.78.61c-.57,0-1.51-.08-2.82-.25-1.31-.16-2.54-.25-3.68-.25-1.06,0-1.94.04-2.64.12-2.05.25-3.13.37-3.25.37-1.64,0-2.45-.72-2.45-2.15,0-1.27.71-1.9,2.13-1.9.33,0,.71.04,1.13.12.79.16,1.29.24,1.5.24,1,0,1.54-1.12,1.63-3.37v-11.54c0-2.17-.1-3.66-.31-4.48-.37-1.55-1.16-2.76-2.38-3.62-1.35-.94-2.87-1.41-4.58-1.41-3.26,0-5.6,1.17-7.03,3.5-.98,1.6-1.47,4.32-1.47,8.16v8.16c0,1.8.12,3.03.37,3.68s.7.98,1.35.98c.33,0,.78-.07,1.35-.21.57-.14,1.04-.21,1.41-.21,1.27,0,1.9.69,1.9,2.06s-.82,1.99-2.45,1.99c-.33,0-1.39-.12-3.19-.37-.9-.12-1.9-.18-3.01-.18-.86,0-2,.08-3.44.25-1.8.2-2.82.31-3.07.31-1.72,0-2.58-.7-2.58-2.09,0-1.31.67-1.96,2-1.96.21,0,.59.06,1.16.18s1.11.18,1.66.18c1.25,0,1.9-1.19,1.94-3.56v-16.38c-.08-1.39-.26-2.34-.53-2.85-.27-.51-.74-.77-1.41-.77-.29,0-.72.05-1.28.15-.56.1-.99.15-1.28.15-1.5,0-2.25-.65-2.25-1.96s.92-2.03,2.76-2.03c.25,0,.45.02.61.06l2.27.25c.65,0,1.23-.05,1.72-.15,1.06-.1,1.61-.15,1.66-.15,1.19,0,1.78.62,1.78,1.87Z"/>
    <path class="cls-1" d="m410.2,380.86l10.49-9.82c.37-.33.55-.7.55-1.1s-.27-.61-.8-.61c-.41,0-1,.08-1.78.25-.78.16-1.37.24-1.78.24-1.43,0-2.15-.65-2.15-1.96,0-1.43.9-2.15,2.7-2.15.45,0,1.02.04,1.72.12,2.82.33,4.97.49,6.44.49.82,0,1.51-.04,2.09-.12l2.52-.37c.57-.08,1.04-.12,1.41-.12,2,0,3.01.71,3.01,2.12,0,1.33-.7,1.99-2.09,1.99-.33,0-.79-.05-1.38-.15-.59-.1-1.05-.15-1.38-.15-1.02,0-2.09.51-3.19,1.53l-6.44,5.89c-.45.41-.68.74-.68.98,0,.2.16.51.49.92l7.85,10.19c2,2.58,3.44,3.87,4.3,3.87.2,0,.54-.05,1.01-.15.47-.1.85-.15,1.13-.15,1.47,0,2.21.65,2.21,1.96,0,1.39-.94,2.09-2.82,2.09-.74,0-1.83-.08-3.28-.25-1.45-.16-2.55-.25-3.28-.25-.66,0-1.61.08-2.85.25-1.25.16-2.18.25-2.79.25-1.55,0-2.33-.7-2.33-2.09,0-1.31.74-1.96,2.21-1.96.41,0,.74.02.98.06.74.21,1.21.31,1.41.31.37,0,.55-.14.55-.43v-.18s-.06-.08-.06-.12l-.61-.86-.8-1.17-6.14-8.16c-.41-.53-.74-.8-.98-.8-.16,0-.47.21-.92.61l-4.54,4.05v1.41c0,1.96.02,3.07.06,3.31.2,1.43.78,2.15,1.72,2.15.41,0,.76-.03,1.04-.09.29-.06.68-.09,1.17-.09,1.39,0,2.09.68,2.09,2.02s-.78,2.03-2.33,2.03c-.7,0-1.75-.09-3.16-.28-1.41-.18-2.48-.28-3.22-.28-.94,0-2.03.08-3.25.25-1.56.2-2.6.31-3.13.31-1.59,0-2.39-.68-2.39-2.03s.78-2.02,2.33-2.02c.33,0,.72.04,1.17.12.65.12,1.1.18,1.35.18.98,0,1.53-.78,1.66-2.33l.18-2.39v-24.79c-.08-2.21-.23-3.61-.43-4.2-.21-.59-.64-.89-1.3-.89-.21,0-.6.04-1.18.12-.58.2-1.16.31-1.73.31-1.36,0-2.04-.63-2.04-1.9,0-1.39.8-2.09,2.41-2.09.82,0,1.4.02,1.73.06,1.03.12,1.71.18,2.04.18s.81-.04,1.45-.12c.64-.08,1.1-.12,1.39-.12h.43c1.32,0,1.97.84,1.97,2.51v23.63Z"/>
  </g>
</svg>