<?xml version="1.0" encoding="UTF-8"?>
<svg id="Layer_1" data-name="Layer 1" xmlns="http://www.w3.org/2000/svg" viewBox="0 0 426 426">
  <defs>
    <style>
      .cls-1 {
        fill: none;
        stroke: #000;
        stroke-miterlimit: 10;
      }

      .cls-2 {
        opacity: .85;
      }
    </style>
  </defs>
  <circle class="cls-1" cx="213" cy="213" r="212.5"/>
  <circle class="cls-1" cx="213.5" cy="212.5" r="156"/>
  <g class="cls-2">
    <path d="m16.39,209.56l17.38-2.16-20.81-5.61c-1.81-.48-2.67-1.44-2.57-2.91.1-1.54.98-2.4,2.62-2.59l21.98-2.58-16.6-4.59c-1.17-.32-2.07-.51-2.69-.55-1.11-.08-1.7.46-1.78,1.59-.02.24-.01.6,0,1.06.02.46.03.82.01,1.06-.08,1.16-.59,1.71-1.54,1.65-.92-.06-1.34-.66-1.26-1.8.03-.43.09-.88.17-1.33.42-2.2.66-3.65.7-4.35.04-.54.01-1.35-.08-2.43-.09-1.08-.11-1.89-.08-2.43.07-1,.59-1.47,1.56-1.4.89.06,1.3.58,1.24,1.55-.01.16-.06.4-.15.72-.09.32-.14.56-.15.72-.04.57.15,1,.56,1.28.41.29,1.37.66,2.86,1.11l19.04,5.86c1.46.45,2.15,1.34,2.06,2.67-.1,1.41-1.08,2.22-2.94,2.45l-21.74,2.64,21.72,6c1.44.4,2.12,1.22,2.03,2.46-.09,1.27-.88,2.03-2.4,2.28l-20.53,3.45c-1.04.17-1.76.43-2.15.77-.39.34-.61.9-.67,1.69l-.02.29.06.9c-.06.87-.54,1.27-1.45,1.21-.96-.06-1.41-.57-1.35-1.52.03-.38.1-.81.21-1.29.34-1.44.56-2.86.66-4.23.04-.65.01-2.15-.1-4.49-.03-.41-.03-.8,0-1.18.07-.97.54-1.43,1.44-1.37.97.07,1.42.69,1.34,1.88-.02.24-.07.61-.16,1.11-.09.5-.14.87-.16,1.11-.06.95.35,1.45,1.24,1.51.32.02.71,0,1.14-.04l1.31-.15Z"/>
    <path d="m16.01,169.24l7.64,2.09c-.73-1.31-1.18-2.44-1.35-3.41-.16-.97-.09-2.04.2-3.23.57-2.27,1.67-3.92,3.3-4.97,1.63-1.05,3.5-1.31,5.6-.78l6.58,1.66c1.55.39,2.41.59,2.57.6,1.34.23,2.08.05,2.23-.53.05-.21.06-.53,0-.96,0-.17.04-.38.1-.64.24-.97.81-1.35,1.71-1.12.89.22,1.18.97.86,2.23-.09.34-.25.83-.5,1.47-.41,1.07-.7,1.95-.87,2.63-.17.68-.28,1.22-.32,1.6-.12,1.14-.21,1.85-.28,2.11-.12.47-.36.83-.71,1.08-.36.25-.74.32-1.16.21-.34-.09-.6-.3-.76-.63-.17-.33-.2-.69-.11-1.05.07-.29.22-.61.46-.98.14-.22.23-.43.29-.64.2-.79-.55-1.41-2.26-1.87-.32-.08-.93-.26-1.83-.54l-1.69-.43-2.13-.54c-2.68-.67-4.55-.86-5.6-.57-1.56.42-2.58,1.6-3.06,3.52-.52,2.08-.2,3.78.99,5.09.81.9,2.28,1.64,4.43,2.21l2.84.71c.16.04.41.16.75.36.34.09.59.15.75.19,1.5.38,2.37.58,2.61.61,1.32.19,2.06-.04,2.23-.69.05-.22.07-.54.05-.96s0-.73.04-.92c.22-.86.75-1.19,1.59-.98.95.24,1.27.94.98,2.1-.09.37-.27.92-.54,1.64-.36.98-.63,1.83-.81,2.54-.11.45-.23,1.08-.35,1.9-.16,1.09-.28,1.77-.35,2.06-.27,1.09-.9,1.5-1.87,1.26-.81-.2-1.09-.81-.83-1.83.09-.35.19-.59.3-.74.22-.43.36-.73.41-.92.11-.43-.22-.82-.99-1.17-.76-.35-2.38-.85-4.84-1.5l-7.06-1.77c-3.94-.99-6.45-1.54-7.53-1.64-1.08-.1-1.69.13-1.83.71-.05.18-.08.47-.09.86-.01.39-.05.69-.1.9-.23.89-.76,1.23-1.6,1.02-.37-.09-.64-.33-.83-.71s-.22-.8-.11-1.24c.03-.13.18-.57.46-1.31.18-.49.34-1.02.49-1.6.06-.24.11-.57.15-1.01.04-.44.08-.75.13-.93.15-.6.66-.8,1.53-.58l.08.02Z"/>
    <path d="m41.98,136.06c.96.38,1.52.68,1.68.89.16.21.13.62-.11,1.22l-4.77,12.02c-.13.33-.17.56-.12.69.05.14.17.24.38.32,1.89.75,3.69.81,5.4.18,1.71-.63,2.9-1.79,3.57-3.48.44-1.11.54-2.24.3-3.4-.24-1.16-.77-2.06-1.59-2.71l-.96-.77c-.53-.42-.67-.95-.41-1.61.37-.93,1.03-1.21,1.99-.83,1.64.65,2.76,2.06,3.37,4.23.61,2.17.5,4.31-.34,6.43-1.05,2.65-2.77,4.4-5.17,5.25-2.4.86-5.09.69-8.09-.5-3.07-1.22-5.24-3.04-6.49-5.47-1.25-2.42-1.35-4.97-.29-7.64.94-2.37,2.51-4,4.71-4.91,2.2-.91,4.52-.87,6.96.1Zm-6.43,13.33c.35.14.64-.07.86-.62l3.59-9.03c.21-.53.14-.86-.21-1-1.34-.53-2.69-.49-4.08.13-1.38.62-2.34,1.61-2.88,2.97-.56,1.41-.56,2.9,0,4.46.56,1.56,1.47,2.6,2.73,3.1Z"/>
    <path d="m40.1,123.97l.98.53c-1.08-2.18-1.06-4.31.06-6.38.9-1.67,2.1-2.77,3.6-3.31,1.5-.53,2.99-.4,4.47.39,1.05.56,1.76,1.29,2.14,2.16.38.88.33,1.75-.13,2.61-.3.55-.71.93-1.25,1.13-.54.2-1.05.18-1.53-.08-.38-.2-.64-.53-.79-.98-.14-.45-.11-.86.09-1.24.04-.07.16-.21.36-.41-.21-.3-.43-.51-.67-.64-.69-.37-1.44-.38-2.25-.03-.8.35-1.45.98-1.94,1.89-1,1.86-.83,3.55.51,5.07.82.93,2.27,1.96,4.35,3.07l2.36,1.27c1.6.86,2.5,1.33,2.71,1.41,1.42.61,2.3.61,2.64-.01.17-.31.3-.65.4-1.03.08-.3.17-.54.27-.73.41-.76.99-.94,1.74-.54.82.44.97,1.15.45,2.13l-.08.14c-.19.36-.52.88-1,1.56-.47.68-.81,1.2-1,1.56-.51.95-.89,1.71-1.14,2.29l-.89,2.1c-.52.98-1.2,1.24-2.04.79-.74-.4-.86-1.05-.37-1.97.13-.24.24-.42.33-.52l.4-.49c.18-.21.29-.37.34-.47.32-.6-.05-1.22-1.12-1.86l-1.83-.98-8.19-4.26c-1.45-.68-2.34-.7-2.69-.06-.1.19-.21.47-.32.85-.11.37-.21.65-.32.85-.42.79-1.02.98-1.78.57-.84-.45-.98-1.19-.43-2.21.13-.24.35-.58.67-1.03.32-.45.54-.79.67-1.03.1-.19.24-.52.41-.98.04-.22.13-.47.28-.73.33-.62.84-.75,1.52-.38Z"/>
    <path d="m63.94,99.59c.85.59,1.33,1,1.44,1.24.11.24-.02.63-.39,1.17l-7.37,10.62c-.2.29-.29.51-.28.65.02.14.11.28.29.4,1.67,1.16,3.41,1.62,5.22,1.39s3.23-1.09,4.27-2.58c.68-.98,1.03-2.06,1.06-3.25.03-1.18-.28-2.18-.94-3l-.76-.97c-.43-.53-.44-1.08-.04-1.66.57-.82,1.28-.94,2.13-.36,1.45,1,2.22,2.63,2.33,4.88.1,2.25-.49,4.31-1.79,6.18-1.62,2.34-3.7,3.65-6.22,3.95-2.53.29-5.12-.48-7.77-2.32-2.72-1.88-4.41-4.15-5.08-6.79-.67-2.64-.19-5.15,1.45-7.51,1.45-2.09,3.35-3.33,5.7-3.72,2.34-.39,4.6.17,6.76,1.67Zm-9.28,11.52c.31.22.64.08.98-.41l5.54-7.98c.33-.47.33-.81.02-1.03-1.18-.82-2.51-1.08-4-.79-1.49.29-2.65,1.03-3.48,2.24-.87,1.25-1.2,2.7-1.01,4.35.19,1.65.84,2.86,1.96,3.63Z"/>
    <path d="m83.94,83.21c-.07-.08-.25-.26-.54-.56-.32-.29-.58-.55-.79-.77l-14.36-3.58c-.94-.23-1.5-.35-1.69-.35-.58-.01-1.08.19-1.51.6-.23.23-.37.43-.41.62-.06.06-.15.14-.26.25-.14.13-.24.23-.29.28-.9.86-1.68.95-2.33.27-.68-.7-.62-1.43.16-2.18.31-.3.74-.64,1.29-1.01,1.09-.74,2.04-1.51,2.87-2.3.61-.58,1.43-1.54,2.48-2.88.35-.45.68-.82.97-1.1.8-.77,1.52-.82,2.16-.16.62.65.45,1.43-.51,2.35l-.29.28-.73.7-.59.56c-.25.21-.3.4-.13.57.07.08.14.12.18.13.05.01.18.05.39.11l11.81,3.32-2.77-11.99c-.05-.25-.15-.45-.3-.61-.17-.18-.38-.14-.63.1l-.06.06-.44.59-.69.8c-.3.35-.54.61-.72.78-.8.77-1.54.81-2.2.11-.67-.69-.61-1.42.18-2.17.29-.28.67-.59,1.14-.92,1.25-.89,2.27-1.73,3.07-2.5.84-.81,1.7-1.78,2.56-2.91.33-.43.64-.78.91-1.04.74-.71,1.44-.73,2.1-.04.6.63.54,1.29-.19,1.98-.29.28-.54.48-.73.59-.35.26-.58.45-.7.56-.51.49-.69,1.12-.56,1.89l.21,1.1,2.92,14.61,1.18,1.23c1.91,2,3.19,3.16,3.82,3.49.63.33,1.29.18,1.95-.46.16-.15.37-.4.65-.76.28-.36.49-.61.65-.76.61-.58,1.21-.56,1.81.07.68.7.57,1.48-.31,2.32-.02.02-.08.08-.18.17-.1.06-.17.11-.23.17l-1.81,1.34c-.68.5-1.32,1.04-1.9,1.6-.63.6-1.18,1.21-1.68,1.83l-1.3,1.64s-.09.1-.15.2c-.1.09-.17.16-.21.2-.88.84-1.65.92-2.31.24-.62-.65-.62-1.27,0-1.87.16-.15.41-.35.76-.59.35-.24.6-.44.76-.59.82-.79.82-1.79,0-3-.15-.19-.97-1.07-2.46-2.62Z"/>
    <path d="m107,75.04c-2.28,1.71-4.69,2.28-7.23,1.73-2.54-.55-4.81-2.15-6.79-4.8-1.98-2.65-2.87-5.27-2.67-7.88.2-2.6,1.46-4.78,3.78-6.51,2.37-1.77,4.81-2.4,7.33-1.88,2.52.52,4.77,2.1,6.75,4.75,1.98,2.65,2.87,5.3,2.66,7.96-.21,2.66-1.49,4.87-3.83,6.62Zm-11.23-15.36c-1.52,1.14-2.32,2.56-2.39,4.27-.07,1.71.58,3.58,1.95,5.6l.32.42c1.53,2.04,3.15,3.32,4.88,3.84,1.73.52,3.36.2,4.9-.95,1.58-1.18,2.39-2.69,2.43-4.53.03-1.83-.72-3.78-2.27-5.85-3.25-4.34-6.52-5.28-9.82-2.81Z"/>
    <path d="m130.22,58.35l-.61-1.1c-.29,2.43-1.66,4.33-4.12,5.71-2.79,1.56-5.21,1.79-7.27.67-.9-.49-1.65-1.23-2.27-2.22-.3-.48-.9-1.52-1.78-3.1l-1.65-2.94c-1.81-3.24-3.07-4.67-3.76-4.28-.14.08-.36.23-.65.43-.29.21-.52.36-.69.45-.83.47-1.47.32-1.9-.45-.42-.75-.12-1.4.9-1.97.24-.13.6-.3,1.1-.5.5-.2.86-.36,1.1-.5.21-.12.56-.36,1.04-.72.33-.25.52-.38.56-.41.73-.41,1.35-.17,1.86.73l.42.75,1.29,2.31,1.36,2.68,1.29,2.31c1.15,2.06,2.14,3.44,2.98,4.16,1.38,1.19,3.1,1.2,5.15.05,1.02-.57,1.79-1.3,2.31-2.2.52-.9.72-1.81.61-2.74-.14-1.13-.93-2.99-2.37-5.57l-1.09-1.95c-.79-1.42-1.22-2.19-1.29-2.31-.75-1.07-1.38-1.46-1.88-1.19-.26.15-.47.27-.64.36l-.43.24c-.83.46-1.44.34-1.84-.37-.45-.8-.21-1.46.71-1.98.21-.12.55-.28,1.01-.48.46-.2.8-.36,1.02-.47.19-.11.46-.29.81-.55.35-.26.62-.44.81-.55.71-.4,1.28-.22,1.7.54.19.33.31.6.37.82.39.97,1.07,2.33,2.05,4.08l3.07,5.48c.81,1.45,1.27,2.25,1.39,2.4.82,1.19,1.5,1.63,2.05,1.33.17-.09.38-.25.66-.49.27-.23.49-.39.66-.49.8-.45,1.42-.28,1.86.5.45.8.18,1.48-.81,2.04-.21.12-.53.27-.96.45-.63.26-1.02.43-1.16.51-.07.04-.31.2-.71.49-.24.23-.47.4-.69.52-.66.37-1.18.21-1.57-.47Z"/>
    <path d="m136.08,35.67l.42,1.04c.56-2.36,1.94-3.99,4.12-4.87,1.76-.71,3.39-.79,4.88-.25,1.5.55,2.56,1.6,3.19,3.16.45,1.11.54,2.12.26,3.03s-.86,1.56-1.77,1.92c-.58.23-1.14.26-1.68.07-.54-.19-.92-.53-1.12-1.04-.16-.4-.16-.82.02-1.26.17-.44.46-.74.86-.9.08-.03.25-.06.54-.09.03-.36,0-.67-.11-.92-.3-.73-.87-1.21-1.71-1.46-.84-.24-1.74-.17-2.7.22-1.96.79-2.91,2.2-2.85,4.23.04,1.24.5,2.96,1.38,5.14l1.01,2.49c.68,1.68,1.08,2.62,1.18,2.81.71,1.38,1.39,1.94,2.04,1.67.33-.13.65-.31.96-.54.25-.18.48-.31.68-.39.8-.33,1.37-.09,1.69.7.35.87.01,1.51-1.01,1.92l-.15.06c-.38.15-.96.34-1.76.56-.8.22-1.39.41-1.76.56-1,.41-1.78.75-2.33,1.03l-2.03,1.04c-1.03.42-1.72.19-2.07-.69-.31-.78,0-1.36.97-1.75.25-.1.45-.17.59-.19l.62-.12c.27-.05.46-.1.56-.14.63-.26.74-.97.32-2.15l-.78-1.92-3.58-8.51c-.68-1.45-1.35-2.04-2.03-1.77-.2.08-.46.23-.78.45-.32.22-.58.37-.78.45-.83.34-1.41.1-1.73-.7-.36-.88,0-1.54,1.08-1.98.25-.1.64-.22,1.17-.36s.92-.26,1.17-.36c.2-.08.51-.25.94-.49.18-.14.4-.27.68-.38.65-.26,1.13-.04,1.42.68Z"/>
    <path d="m183.25,20.76c.54,2.71-.62,4.93-3.49,6.66,1.19.12,2.18.33,2.98.61,2.4.82,3.85,2.48,4.35,4.98.48,2.45-.07,4.58-1.67,6.4-1.6,1.82-3.98,3.05-7.15,3.68-1.14.23-2.61.45-4.39.66-1.78.22-3.08.41-3.91.57-.72.14-1.39.32-2.01.52l-1.83.61c-.05.01-.15.04-.27.09-.13.03-.23.04-.28.06-1.15.2-1.81-.16-2-1.1-.17-.85.16-1.36.98-1.52.21-.04.58-.07,1.1-.09.36-.02.64-.04.85-.09,1.36-.27,1.84-1.39,1.45-3.35l-3.18-16.03c-.4-1.99-1.27-2.86-2.63-2.59-.24.05-.51.13-.82.25-.46.17-.81.29-1.05.33-.82.16-1.32-.18-1.49-1.03-.19-.93.33-1.52,1.56-1.76l.52-.1,2.01-.11c.57-.03,1.34-.14,2.3-.33,1.01-.2,2.43-.56,4.26-1.09,1.23-.35,2.56-.67,4-.96,2.68-.53,4.89-.38,6.62.45,1.72.83,2.79,2.26,3.19,4.28Zm-14.93,4.75c.28,1.41.58,2.25.9,2.54.32.28,1.05.31,2.19.08l2.23-.44c4.71-.93,6.75-2.93,6.15-5.99-.55-2.79-2.77-3.8-6.65-3.03-2.71.54-4.35,1.04-4.9,1.51-.56.47-.69,1.42-.41,2.86l.49,2.47Zm1.61,8.09l.88,4.43c.34,1.73.85,2.73,1.51,3.02.66.28,2.3.17,4.9-.35,4.97-.99,7.09-3.34,6.35-7.06-.68-3.43-3.41-4.67-8.2-3.72l-3.31.66c-1.44.28-2.2.77-2.28,1.45-.04.34,0,.87.15,1.59Z"/>
    <path d="m209.09,27.68c.06,1.03.03,1.66-.09,1.9-.12.24-.51.38-1.16.41l-12.91.75c-.35.02-.58.08-.68.18-.1.1-.15.26-.14.48.12,2.03.83,3.69,2.12,4.97,1.3,1.28,2.85,1.87,4.66,1.76,1.19-.07,2.26-.46,3.21-1.16s1.54-1.57,1.78-2.59l.3-1.2c.15-.66.58-1.01,1.28-1.05,1-.06,1.53.43,1.59,1.45.1,1.76-.7,3.37-2.41,4.84s-3.69,2.27-5.97,2.4c-2.84.17-5.16-.66-6.95-2.47-1.79-1.81-2.78-4.32-2.96-7.54-.19-3.3.54-6.03,2.21-8.19,1.67-2.16,3.93-3.32,6.8-3.49,2.54-.15,4.69.58,6.44,2.19,1.75,1.61,2.7,3.73,2.85,6.35Zm-14.79-.2c.02.38.33.55.93.52l9.7-.57c.57-.03.84-.24.82-.62-.08-1.43-.7-2.65-1.84-3.64-1.14-.99-2.45-1.45-3.91-1.36-1.52.09-2.86.72-4.04,1.89-1.18,1.17-1.73,2.43-1.65,3.78Z"/>
    <path d="m231.19,28.83c-.06,1.03-.17,1.65-.32,1.87-.15.22-.55.31-1.2.27l-12.9-.8c-.35-.02-.59.01-.7.1-.12.09-.18.24-.19.46-.12,2.03.38,3.76,1.51,5.18,1.13,1.43,2.61,2.2,4.42,2.31,1.19.07,2.3-.18,3.33-.77,1.03-.59,1.72-1.37,2.08-2.36l.44-1.15c.23-.64.7-.93,1.4-.89,1,.06,1.47.61,1.41,1.63-.11,1.76-1.1,3.27-2.97,4.52s-3.94,1.81-6.21,1.67c-2.84-.18-5.04-1.27-6.6-3.28-1.56-2.01-2.24-4.63-2.04-7.85.2-3.3,1.26-5.92,3.18-7.87,1.91-1.95,4.3-2.83,7.17-2.65,2.54.16,4.59,1.14,6.13,2.95,1.54,1.81,2.24,4.02,2.07,6.65Zm-14.66-1.97c-.02.38.26.59.86.62l9.7.6c.57.04.86-.14.89-.52.09-1.43-.38-2.71-1.39-3.83-1.02-1.12-2.26-1.73-3.72-1.82-1.52-.09-2.93.37-4.24,1.39-1.31,1.02-2.01,2.21-2.09,3.56Z"/>
    <path d="m242.1,23.3l-.2,1.1c1.74-1.7,3.77-2.34,6.09-1.92,1.87.33,3.29,1.13,4.26,2.4.97,1.26,1.31,2.72,1.01,4.37-.21,1.17-.68,2.07-1.39,2.7-.72.63-1.56.86-2.52.68-.61-.11-1.1-.39-1.46-.84-.36-.45-.49-.94-.4-1.48.08-.43.31-.78.69-1.05.38-.28.78-.38,1.21-.3.08.01.25.09.5.21.22-.29.35-.57.4-.84.14-.77-.08-1.49-.67-2.14-.58-.66-1.38-1.07-2.4-1.26-2.08-.37-3.64.31-4.67,2.05-.63,1.07-1.16,2.77-1.58,5.09l-.47,2.64c-.32,1.79-.49,2.79-.5,3.01-.14,1.54.14,2.38.83,2.5.35.06.71.08,1.1.06.31-.02.57,0,.78.03.85.15,1.21.65,1.05,1.49-.17.92-.79,1.28-1.88,1.09l-.16-.03c-.4-.07-1-.23-1.79-.47s-1.39-.39-1.79-.47c-1.06-.19-1.91-.31-2.53-.37l-2.27-.2c-1.09-.2-1.55-.76-1.38-1.69.15-.83.74-1.15,1.76-.96.27.05.47.1.6.15l.58.23c.26.1.44.16.55.18.67.12,1.15-.43,1.42-1.64l.37-2.04,1.51-9.1c.2-1.59-.06-2.45-.78-2.58-.21-.04-.51-.05-.9-.04-.39.01-.69,0-.9-.04-.88-.16-1.24-.66-1.09-1.52.17-.93.83-1.3,1.97-1.09.27.05.66.15,1.18.32.52.16.92.27,1.18.32.21.04.57.07,1.06.09.23-.03.49-.02.78.04.69.12.97.57.84,1.33Z"/>
    <path d="m265.74,26.91c1.73.52,3.05,1.4,3.94,2.66l.05-.16c.29-.96.85-1.32,1.68-1.07.86.26,1.16.8.91,1.63-.05.16-.18.54-.41,1.15-.24.49-.44,1-.59,1.52-.09.31-.2.78-.31,1.39-.11.62-.22,1.08-.31,1.39-.29.99-.86,1.35-1.71,1.1-.82-.24-1.12-.79-.89-1.62l.38-1.29c.21-.79-.04-1.59-.75-2.41-.7-.82-1.64-1.4-2.81-1.75-1.2-.36-2.29-.35-3.27.02-.99.37-1.62,1.01-1.89,1.92-.5,1.66.35,2.99,2.55,3.98l2.17.99c4.24,1.91,5.9,4.4,4.99,7.47-.56,1.87-1.72,3.17-3.49,3.9-1.77.73-3.81.75-6.11.07-2.15-.64-3.83-1.81-5.05-3.5-.08.26-.15.51-.22.74-.28.94-.86,1.27-1.74,1.01-.96-.29-1.28-.96-.97-2.03-.05.18.22-.47.84-1.96.16-.35.29-.7.4-1.07.19-.62.31-1.22.37-1.8.06-.58.13-1.02.23-1.33.27-.91.82-1.24,1.65-.99.55.16.85.4.92.7.06.3-.06,1.02-.36,2.14-.31,1.13,0,2.21.94,3.25.93,1.04,2.28,1.83,4.05,2.35,1.27.38,2.42.37,3.45-.03,1.02-.4,1.68-1.1,1.98-2.08.53-1.77-.57-3.21-3.29-4.33-2.59-1.08-4.47-2.22-5.65-3.4-1.17-1.18-1.48-2.74-.9-4.66.54-1.82,1.67-3.09,3.38-3.81,1.71-.72,3.66-.75,5.87-.1Z"/>
    <path d="m302.21,34.09c2.7,1.34,4.38,3.46,5.06,6.36l.2-.41c.06-.12.13-.26.2-.41.02-.17.04-.27.06-.3.22-.57.32-.83.3-.78.42-.84,1.01-1.08,1.76-.71.8.4.95,1.1.44,2.13-.1.19-.41.76-.94,1.71-.75,1.14-1.24,1.94-1.47,2.41-.32.66-.61,1.34-.87,2.06l-.52,1.47-.18.36c-.54,1.09-1.25,1.42-2.12.99-.95-.47-1.15-1.22-.61-2.24l.64-1.3c.91-1.71,1.06-3.39.46-5.04-.6-1.65-1.82-2.93-3.66-3.84-2.4-1.19-4.73-1.2-7-.02-2.27,1.17-4.21,3.39-5.83,6.64-1.65,3.33-2.24,6.26-1.76,8.82.48,2.55,1.96,4.44,4.46,5.68,1.36.67,2.74.95,4.15.83,1.4-.12,2.59-.6,3.56-1.46.64-.56,1.26-1.43,1.85-2.62.55-1.12,1.29-1.45,2.22-.99,1,.49,1.22,1.3.66,2.42-1.29,2.6-3.24,4.28-5.86,5.04-2.62.76-5.34.44-8.19-.97-3.28-1.62-5.32-4.08-6.13-7.35-.81-3.28-.27-6.83,1.64-10.67,1.96-3.96,4.55-6.65,7.75-8.09,3.21-1.43,6.45-1.34,9.73.29Z"/>
    <path d="m308.48,71.23c-2.34-1.62-3.65-3.72-3.94-6.31-.29-2.59.51-5.24,2.4-7.96,1.88-2.72,4.09-4.4,6.62-5.03,2.53-.64,4.99-.13,7.38,1.52,2.43,1.68,3.8,3.8,4.11,6.35.31,2.55-.48,5.19-2.36,7.91-1.88,2.72-4.12,4.4-6.71,5.05-2.59.65-5.09.14-7.5-1.53Zm11-15.53c-1.56-1.08-3.17-1.38-4.81-.91-1.65.47-3.21,1.68-4.69,3.63l-.3.43c-1.45,2.1-2.15,4.04-2.09,5.84.05,1.8.87,3.25,2.46,4.35,1.62,1.13,3.31,1.41,5.07.86,1.75-.55,3.36-1.89,4.82-4,3.09-4.46,2.94-7.86-.45-10.2Z"/>
    <path d="m336.55,67.57l-.82.84c1.51-.15,2.73-.09,3.67.2.93.29,1.87.88,2.8,1.79,1.9,1.85,2.58,3.96,2.03,6.3,1.45-.17,2.68-.09,3.68.24,1,.33,2.04,1.02,3.1,2.06,1.11,1.08,1.87,2.28,2.29,3.6.46,1.47.41,2.86-.16,4.18-.37.89-1.23,2.02-2.58,3.4l-2.76,2.83-2.13,2.19c-.78.8-1.24,1.29-1.39,1.49-.59.79-.68,1.39-.27,1.78.13.13.37.29.7.49.33.2.57.36.71.49.67.66.72,1.27.16,1.86-.66.68-1.38.64-2.16-.12-.29-.28-.7-.75-1.22-1.39-.53-.65-.94-1.12-1.25-1.42-.33-.32-.84-.76-1.54-1.3-.7-.55-1.21-.98-1.54-1.3-.81-.8-.89-1.53-.23-2.21.57-.58,1.16-.57,1.78.04.08.08.25.28.53.63.08.15.21.32.41.51.33.32.7.36,1.11.12.41-.24,1.27-1.02,2.57-2.32l1.73-1.77,1.87-1.92c1.31-1.34,2.16-2.41,2.55-3.22.39-.81.48-1.66.26-2.56s-.69-1.69-1.4-2.39c-1.37-1.34-2.79-1.8-4.26-1.37-1.16.34-2.66,1.45-4.5,3.33l-2.02,2.07c-1.78,1.82-2.85,3.01-3.21,3.55-.36.54-.35.99.02,1.35.12.11.3.26.57.44.26.18.45.33.57.44.27.27.41.58.42.94,0,.36-.12.68-.38.94-.62.63-1.38.5-2.29-.39-.29-.28-.68-.74-1.18-1.38s-.89-1.1-1.18-1.38c-.41-.4-.89-.79-1.45-1.19-.56-.4-1.03-.77-1.39-1.13-.8-.78-.87-1.49-.23-2.15.59-.6,1.17-.62,1.75-.05.21.21.35.4.41.56.19.35.36.59.49.72.47.46,1.19.19,2.18-.78l1.43-1.29c.42-.43.83-.85,1.23-1.26.34-.35.52-.54.54-.56l2.37-2.43c1.66-1.7,2.58-3.1,2.77-4.21.19-1.11-.3-2.23-1.46-3.37-1.28-1.25-2.72-1.74-4.31-1.46-1.31.21-2.88,1.26-4.73,3.15l-3.8,3.89c-.76.78-1.2,1.25-1.31,1.4-.57.74-.68,1.28-.33,1.62.1.09.35.24.77.43.04.04.11.08.21.13.08.08.14.14.2.2.76.74.82,1.43.2,2.07-.61.62-1.34.5-2.22-.35-.33-.32-.71-.75-1.14-1.28-.58-.72-1.11-1.31-1.57-1.76-.23-.23-.69-.61-1.37-1.16-.91-.74-1.45-1.19-1.63-1.36-.78-.76-.84-1.47-.2-2.13.59-.6,1.26-.54,2.01.2.04.04.1.1.18.17.06.1.11.16.15.2l.6.87s.03.09.09.14c.53.52,1.28.33,2.25-.59l1.62-1.66,4.34-4.45c1.61-1.65,2.57-2.72,2.88-3.21.31-.49.27-.93-.12-1.31-.08-.08-.4-.29-.96-.65-.23-.15-.41-.28-.52-.4-.72-.7-.78-1.36-.17-1.98.64-.66,1.36-.6,2.16.18.21.21.49.51.82.91.33.4.63.73.9,1,.1.09.2.2.32.31.12.11.18.18.2.2l.81.56.09.09c.47.45.42.96-.13,1.52Z"/>
    <path d="m365,110.99c-.83.61-1.38.93-1.65.95-.27.03-.59-.22-.97-.75l-7.64-10.43c-.21-.28-.38-.44-.52-.47-.14-.03-.3.02-.47.14-1.64,1.2-2.65,2.69-3.02,4.48-.37,1.79-.02,3.41,1.05,4.88.7.96,1.61,1.65,2.72,2.06,1.11.41,2.16.45,3.14.09l1.17-.4c.64-.23,1.16-.06,1.58.51.59.81.47,1.52-.36,2.13-1.42,1.04-3.21,1.24-5.37.61-2.16-.64-3.91-1.87-5.26-3.71-1.68-2.3-2.25-4.69-1.7-7.17.55-2.48,2.12-4.68,4.73-6.58,2.67-1.95,5.36-2.82,8.08-2.59,2.72.23,4.93,1.5,6.62,3.82,1.5,2.06,2.06,4.26,1.66,6.6-.4,2.34-1.66,4.29-3.79,5.84Zm-7.86-12.53c-.31.22-.28.58.07,1.06l5.74,7.84c.34.46.66.58.96.35,1.16-.85,1.84-2.02,2.06-3.52.21-1.5-.11-2.84-.98-4.02-.9-1.23-2.16-2.02-3.78-2.37-1.62-.36-2.98-.14-4.07.66Z"/>
    <path d="m372.01,137.56c-1.84.87-2.46,1.93-1.87,3.18.09.2.26.47.51.84.25.36.42.64.51.84.15.32.17.65.04.99-.12.34-.34.59-.66.74-.86.41-1.55.06-2.07-1.04-.02-.05-.06-.12-.11-.22-.03-.13-.06-.23-.09-.27l-.6-1.92c-.23-.73-.55-1.53-.95-2.38-.44-.93-.88-1.73-1.32-2.39l-1.13-1.71c-.04-.07-.09-.15-.16-.24-.06-.12-.1-.21-.12-.26-.51-1.08-.34-1.82.52-2.23.78-.37,1.36-.17,1.73.62.09.2.2.5.33.92.12.42.23.73.33.92.58,1.22,1.79,1.4,3.63.53l2.57-1.22,3.23-1.54,3.12-1.48,5.99-2.84c1.74-.83,2.18-2.13,1.33-3.92l-.54-1.14c-.84-1.76-2.11-2.24-3.83-1.42-.61.29-1.02.5-1.23.63l-1.29.79c-.21.13-.51.29-.9.47-1.54.73-2.54.62-2.99-.33-.43-.91-.08-1.63,1.04-2.16.32-.15.88-.39,1.69-.71,1.21-.49,1.97-.8,2.29-.95.61-.29,1.24-.61,1.88-.97,1.26-.7,1.79-1,1.59-.91,1.03-.49,1.76-.27,2.2.66.16.34.5,1.15,1.02,2.44.06.12.48,1.15,1.28,3.08l1.99,4.18c.23.49.88,1.79,1.93,3.89.22.46.63,1.24,1.23,2.34.54.97.94,1.74,1.21,2.3.58,1.22.37,2.07-.63,2.55l-.07.03c-.25.12-.71.3-1.4.55-.69.25-1.43.52-2.23.81l-.4.19c-.37.17-.93.48-1.67.93-.98.59-1.6.94-1.84,1.05-1,.48-1.73.24-2.19-.72-.44-.93-.05-1.69,1.18-2.27.44-.21,1.12-.49,2.03-.83.91-.34,1.58-.62,2.03-.83,1.7-.81,2.09-2.18,1.17-4.11l-.49-1.03c-.43-.91-.93-1.46-1.49-1.68-.57-.21-1.3-.13-2.21.24l-2.64,1.07-12.49,5.93Z"/>
    <path d="m392.36,151.34l-1.06.34c2.32.73,3.84,2.22,4.57,4.46.58,1.8.55,3.43-.1,4.88-.65,1.45-1.78,2.44-3.38,2.96-1.13.37-2.15.38-3.04.05s-1.49-.97-1.79-1.9c-.19-.59-.17-1.15.05-1.68.23-.53.6-.88,1.11-1.05.41-.13.83-.1,1.25.11.42.2.7.51.83.93.03.08.04.26.05.54.36.05.67.04.93-.04.75-.24,1.27-.78,1.58-1.6.3-.82.29-1.73-.02-2.71-.65-2.01-1.99-3.06-4.01-3.14-1.24-.05-2.99.29-5.23,1.01l-2.55.83c-1.73.56-2.69.89-2.89.98-1.43.61-2.03,1.24-1.81,1.91.11.33.26.67.47,1,.16.26.27.5.34.7.27.83,0,1.37-.82,1.63-.89.29-1.5-.09-1.85-1.15l-.05-.15c-.12-.39-.27-.99-.43-1.8-.16-.81-.31-1.41-.43-1.8-.33-1.03-.62-1.83-.87-2.4l-.89-2.1c-.34-1.05-.06-1.73.84-2.02.8-.26,1.36.11,1.68,1.09.08.26.14.46.15.6l.07.62c.03.28.07.47.1.57.21.65.92.81,2.12.48l1.97-.64,8.74-2.96c1.5-.57,2.13-1.2,1.91-1.9-.07-.21-.2-.48-.39-.81-.19-.34-.33-.61-.39-.81-.27-.85,0-1.41.83-1.68.9-.29,1.53.11,1.89,1.22.08.26.18.65.28,1.19.1.54.2.93.28,1.19.07.21.21.53.42.97.13.19.24.42.34.7.22.67-.04,1.12-.78,1.36Z"/>
    <path d="m382.41,186.61l1.24-.23c-2.21-1.05-3.57-2.96-4.09-5.73-.58-3.14-.02-5.51,1.7-7.1.75-.69,1.7-1.17,2.83-1.44.55-.13,1.72-.36,3.51-.69l3.32-.62c3.65-.68,5.4-1.41,5.26-2.19-.03-.16-.1-.41-.2-.75-.11-.34-.18-.61-.21-.8-.18-.94.17-1.49,1.04-1.65.84-.16,1.37.34,1.58,1.48.05.27.09.67.12,1.2.03.53.07.93.12,1.2.04.24.16.65.35,1.22.13.39.2.61.21.66.15.83-.28,1.33-1.29,1.52l-.84.16-2.6.48-2.98.43-2.6.48c-2.32.43-3.95.93-4.89,1.49-1.57.92-2.13,2.55-1.7,4.87.21,1.15.66,2.11,1.34,2.89.68.78,1.48,1.27,2.4,1.46,1.12.23,3.13.08,6.03-.46l2.2-.41c1.6-.3,2.46-.46,2.6-.48,1.25-.37,1.83-.84,1.72-1.4-.05-.29-.1-.53-.13-.72l-.09-.48c-.17-.93.14-1.47.94-1.62.9-.17,1.45.27,1.65,1.31.04.24.08.61.12,1.11.04.5.08.87.12,1.11.04.21.12.53.26.94.13.42.22.73.26.94.15.8-.2,1.28-1.06,1.44-.37.07-.67.1-.9.08-1.04.06-2.55.27-4.52.64l-6.17,1.15c-1.63.3-2.54.49-2.72.55-1.39.4-2.03.9-1.91,1.51.03.19.12.45.25.78.13.33.21.59.25.78.17.9-.19,1.44-1.07,1.6-.91.17-1.46-.31-1.67-1.43-.04-.24-.08-.59-.11-1.05-.04-.68-.08-1.1-.11-1.26-.01-.08-.09-.35-.24-.82-.14-.3-.23-.58-.28-.82-.14-.75.18-1.19.95-1.33Z"/>
    <path d="m395.49,212.17c-1.03.06-1.66.02-1.9-.1-.24-.12-.38-.51-.41-1.16l-.7-12.91c-.02-.35-.08-.58-.18-.68-.1-.1-.26-.15-.47-.14-2.03.11-3.69.81-4.98,2.1-1.29,1.29-1.88,2.84-1.78,4.66.06,1.19.45,2.26,1.15,3.21.7.95,1.56,1.55,2.58,1.79l1.2.3c.66.15,1.01.58,1.05,1.29.05,1-.43,1.53-1.46,1.59-1.76.1-3.37-.71-4.83-2.42-1.46-1.71-2.26-3.7-2.38-5.98-.16-2.84.67-5.15,2.49-6.94,1.82-1.78,4.33-2.76,7.56-2.94,3.3-.18,6.03.57,8.18,2.24,2.15,1.67,3.31,3.94,3.47,6.81.14,2.54-.6,4.69-2.21,6.43-1.62,1.74-3.74,2.69-6.36,2.83Zm.25-14.79c-.38.02-.55.33-.52.92l.53,9.7c.03.57.24.84.62.82,1.43-.08,2.65-.69,3.65-1.83,1-1.14,1.46-2.44,1.38-3.9-.08-1.52-.71-2.87-1.87-4.05-1.16-1.19-2.42-1.74-3.78-1.67Z"/>
  </g>
  <polygon points="38.82 252.83 45.83 267.76 61.5 270.15 50.16 281.77 52.84 298.18 38.82 290.44 24.81 298.18 27.48 281.77 16.15 270.15 31.82 267.76 38.82 252.83"/>
  <polygon points="385.77 252.83 392.78 267.76 408.45 270.15 397.11 281.77 399.78 298.18 385.77 290.44 371.75 298.18 374.43 281.77 363.09 270.15 378.76 267.76 385.77 252.83"/>
  <g>
    <path d="m92.15,342.76l-6.38,25.25,10.84-13c1.4-1.68,2.16-2.61,2.28-2.8.74-1.28.67-2.29-.21-3.02-.17-.14-.45-.33-.84-.57-.39-.23-.67-.42-.84-.57-.28-.23-.44-.54-.47-.91-.03-.37.07-.7.3-.98.65-.77,1.45-.76,2.42.05.19.16.32.29.39.38l1.29,1.41c.57.62,1.14,1.17,1.7,1.64.56.47,1.35,1.03,2.37,1.68.36.23.77.49,1.25.79.04.04.13.09.25.16.09.07.16.13.23.19.92.77,1.08,1.53.46,2.27-.6.72-1.34.71-2.21-.01-.15-.13-.27-.23-.36-.3l-.33-.27c-.66-.55-1.2-.76-1.63-.65-.43.12-1.06.63-1.89,1.53l-1.53,1.84-2.74,3.29-7.17,8.6c-1.24,1.48-2.27,2.38-3.11,2.7-.84.32-1.66.14-2.49-.54-1.06-.88-1.33-2.38-.81-4.5l6.17-24.66-12.51,15c-1.34,1.61-1.47,2.88-.37,3.79.17.14.44.34.81.6.37.26.64.46.81.6.69.57.74,1.2.17,1.89-.61.73-1.4.69-2.37-.11-.04-.04-.11-.09-.19-.16-.09-.11-.16-.18-.2-.22l-1.16-1.3c-.64-.72-1.28-1.35-1.93-1.88-.56-.47-1.33-1.01-2.3-1.64l-1.74-1.12s-.13-.09-.25-.16c-.11-.09-.19-.16-.26-.22-.93-.77-1.07-1.53-.45-2.28.55-.67,1.18-.71,1.87-.14.11.09.38.35.82.79.18.26.38.48.6.66,1.1.91,2.32.57,3.66-1.05l1.88-2.26,2.37-2.84,2.31-2.77,4.25-5.1c1.35-1.61,1.46-2.88.35-3.81-.15-.12-.38-.28-.69-.47-.46-.27-.78-.49-.98-.65-.68-.57-.73-1.21-.14-1.92.63-.75,1.4-.74,2.33.02.13.11.29.26.49.46.98,1,1.77,1.74,2.34,2.23.32.27.83.64,1.53,1.11.7.47,1.21.84,1.53,1.11.67.56.92,1.15.76,1.78l-.29,1.07Z"/>
    <path d="m106.94,371.23l-2.96,4.59c-.76,1.18-1.19,1.88-1.31,2.11-.57,1.13-.59,1.87-.07,2.2.12.08.45.21,1,.39.15.03.34.12.57.27.89.58,1.09,1.25.59,2.03-.21.33-.54.52-.99.56-.45.04-.89-.08-1.34-.37-.38-.24-.92-.67-1.61-1.27-.7-.6-1.24-1.02-1.62-1.27-.61-.4-1.33-.79-2.15-1.18-1-.48-1.65-.81-1.96-1.01-.94-.61-1.16-1.31-.64-2.11.5-.78,1.16-.91,1.96-.38.19.12.45.34.77.65.32.31.58.52.77.65.57.37,1.4-.16,2.49-1.59.06-.09.72-1.12,1.98-3.07l1.87-2.89c1.26-1.95,1.92-2.98,1.98-3.07.84-1.56.96-2.53.37-2.91-.19-.12-.49-.25-.88-.39s-.68-.26-.85-.37c-.85-.55-1.04-1.2-.55-1.96.52-.8,1.29-.87,2.33-.2.45.29.76.51.93.65.69.58,1.14.94,1.36,1.07.19.12.49.28.92.47.43.19.73.35.92.47.68.44.73,1.12.14,2.04-.06.09-.16.23-.3.4-.14.18-.24.31-.3.41-.14.18-.63.89-1.47,2.15-.64.95-1.29,1.94-1.94,2.95Zm4.12-10.43c-.54-.35-.88-.84-1.02-1.48-.14-.64-.03-1.23.32-1.77.35-.54.84-.87,1.47-1,.63-.13,1.22-.02,1.76.34.54.35.88.84,1.03,1.46.15.63.04,1.21-.31,1.75-.35.54-.84.88-1.48,1.02-.64.14-1.23.03-1.77-.32Z"/>
    <path d="m124.8,379.38c.52-.99,1.43-1.24,2.75-.75.33-.93.27-1.83-.19-2.7-.45-.87-1.23-1.59-2.35-2.17-1.71-.89-3.45-.92-5.2-.1-1.75.83-3.22,2.37-4.39,4.63-1.21,2.34-1.67,4.42-1.38,6.26.29,1.84,1.31,3.21,3.05,4.11,1.09.57,2.2.75,3.33.55,1.13-.2,2.13-.77,2.99-1.71.7-.74,1.11-1.16,1.22-1.26.53-.35,1.06-.4,1.58-.13.42.22.7.54.83.95s.09.83-.13,1.26c-.32.62-.91,1.26-1.76,1.93-.85.66-1.69,1.14-2.54,1.43-2.28.8-4.59.6-6.92-.61-2.54-1.32-4.12-3.27-4.74-5.87-.62-2.6-.18-5.35,1.33-8.26,1.6-3.08,3.68-5.13,6.24-6.15,2.56-1.02,5.17-.84,7.83.54,1.99,1.03,3.36,2.43,4.12,4.2.76,1.76.7,3.48-.16,5.14-.48.92-1.13,1.54-1.95,1.88-.82.33-1.63.29-2.42-.12-.62-.32-1.04-.78-1.26-1.36s-.18-1.15.1-1.7Z"/>
    <path d="m138.27,401.08c-2.75-1.03-4.6-2.8-5.55-5.32-.94-2.52-.82-5.38.38-8.58,1.19-3.2,2.98-5.44,5.35-6.72,2.38-1.28,4.97-1.4,7.77-.35,2.86,1.07,4.77,2.84,5.73,5.32.96,2.48.84,5.32-.36,8.52-1.19,3.2-3.01,5.45-5.44,6.76-2.43,1.3-5.06,1.43-7.89.37Zm7.07-18.34c-1.84-.68-3.52-.58-5.05.31s-2.79,2.5-3.77,4.82l-.19.51c-.92,2.47-1.12,4.59-.61,6.38.51,1.79,1.7,3.03,3.56,3.73,1.91.71,3.68.57,5.29-.42,1.61-1,2.88-2.74,3.81-5.23,1.96-5.25.94-8.61-3.04-10.1Z"/>
    <path d="m192.99,391.55c-.44,2.82-2.36,4.56-5.75,5.22,1.1.54,2,1.1,2.67,1.65,2.04,1.65,2.85,3.78,2.44,6.38-.4,2.54-1.7,4.42-3.9,5.61-2.2,1.2-4.95,1.54-8.24,1.02-1.19-.19-2.69-.49-4.49-.92-1.8-.42-3.13-.71-3.99-.84-.75-.12-1.46-.19-2.14-.21l-1.99-.06c-.06,0-.15-.01-.3,0-.14-.02-.24-.04-.29-.05-1.19-.21-1.7-.81-1.55-1.77.14-.88.64-1.26,1.49-1.12.22.03.59.14,1.1.3.35.11.64.19.86.22,1.41.22,2.28-.69,2.6-2.74l2.63-16.68c.33-2.07-.22-3.22-1.63-3.44-.25-.04-.54-.06-.88-.05-.51,0-.89-.01-1.14-.05-.86-.14-1.22-.65-1.08-1.53.15-.97.87-1.35,2.14-1.15l.54.08,1.99.61c.57.17,1.35.34,2.34.5,1.05.17,2.56.32,4.52.46,1.32.09,2.72.26,4.22.49,2.79.44,4.88,1.37,6.26,2.79,1.38,1.42,1.9,3.19,1.57,5.29Zm-17.5,7.7l-.73,4.6c-.28,1.8-.15,2.95.39,3.46.54.51,2.17.98,4.88,1.41,5.17.81,8.06-.71,8.67-4.59.56-3.57-1.65-5.75-6.62-6.53l-3.44-.54c-1.49-.24-2.4-.04-2.73.59-.16.31-.3.85-.42,1.59Zm1.33-8.42c-.23,1.47-.24,2.39-.03,2.78.21.39.91.68,2.1.86l2.32.37c4.9.77,7.59-.43,8.1-3.61.46-2.9-1.33-4.67-5.37-5.31-2.82-.44-4.59-.54-5.29-.28-.71.26-1.18,1.13-1.41,2.62l-.4,2.57Z"/>
    <path d="m204.98,393.64l-.02,1.15c1.5-2.01,3.46-3,5.9-2.95,1.96.04,3.54.62,4.73,1.75,1.2,1.13,1.78,2.56,1.74,4.3-.02,1.23-.35,2.23-.98,2.98-.63.76-1.45,1.13-2.46,1.11-.64-.01-1.19-.22-1.63-.62-.44-.4-.65-.88-.64-1.44,0-.45.18-.84.53-1.19.34-.34.74-.51,1.19-.5.08,0,.26.05.54.14.18-.33.27-.64.27-.92.02-.81-.33-1.5-1.03-2.08-.7-.57-1.59-.87-2.65-.89-2.18-.04-3.66.91-4.43,2.85-.47,1.19-.73,3.01-.78,5.45l-.06,2.77c-.04,1.88-.04,2.93-.02,3.15.11,1.6.53,2.41,1.25,2.42.36,0,.74-.03,1.14-.12.31-.07.57-.1.8-.09.9.02,1.34.47,1.32,1.35-.02.97-.6,1.44-1.75,1.41h-.17c-.42-.01-1.05-.07-1.9-.19-.85-.12-1.48-.18-1.9-.19-1.12-.02-1.99-.01-2.64.03l-2.35.16c-1.14-.02-1.71-.53-1.69-1.5.02-.87.56-1.29,1.64-1.27.28,0,.49.02.63.05l.63.14c.28.06.48.09.59.1.71.01,1.1-.62,1.18-1.91l.04-2.14.07-9.54c-.05-1.65-.45-2.49-1.21-2.5-.22,0-.53.03-.93.11-.39.08-.7.11-.93.11-.92-.02-1.38-.47-1.36-1.37.02-.98.63-1.46,1.84-1.43.28,0,.7.05,1.26.13.56.08.98.12,1.26.13.22,0,.59-.02,1.09-.08.23-.07.49-.1.8-.09.73.02,1.08.42,1.07,1.22Z"/>
    <path d="m239.58,399.32c.11,1.06.1,1.71-.01,1.96-.12.25-.51.41-1.18.48l-13.29,1.33c-.36.04-.59.11-.7.22-.1.11-.14.27-.12.5.21,2.09,1.01,3.77,2.4,5.04,1.39,1.27,3.02,1.81,4.89,1.62,1.23-.12,2.31-.57,3.26-1.34s1.53-1.68,1.73-2.75l.26-1.25c.13-.69.55-1.07,1.28-1.14,1.03-.1,1.6.37,1.7,1.43.18,1.81-.58,3.51-2.28,5.1-1.7,1.59-3.72,2.5-6.06,2.74-2.92.29-5.35-.46-7.27-2.25s-3.05-4.35-3.38-7.66c-.34-3.4.31-6.25,1.93-8.55s3.92-3.6,6.87-3.89c2.62-.26,4.87.4,6.74,1.99,1.87,1.59,2.95,3.73,3.22,6.43Zm-15.28.43c.04.39.36.55.98.49l9.99-1c.59-.06.86-.28.82-.67-.15-1.48-.83-2.7-2.05-3.68-1.22-.98-2.59-1.39-4.09-1.24-1.56.16-2.93.86-4.09,2.12-1.17,1.26-1.68,2.58-1.55,3.97Z"/>
    <path d="m249,394.7l6.35,12.13-.46-15.74c-.06-1.67.05-2.81.33-3.44.28-.63.84-1.05,1.69-1.26.88-.22,1.59-.11,2.13.32.55.43,1.18,1.39,1.91,2.85l6.94,14.11-.12-13.71c0-.87-.09-1.6-.24-2.2l-.02-.08c-.19-.76-.61-1.06-1.26-.9-.25.06-.61.21-1.06.43-.46.22-.81.36-1.06.43-1.05.26-1.68-.07-1.92-1-.25-.99.32-1.66,1.7-2.01.2-.05.41-.09.65-.11l1.8-.2c.47-.05,1.18-.2,2.14-.44.76-.19,1.48-.42,2.17-.7l1.35-.54c.1-.06.26-.12.45-.16,1.21-.31,1.94.03,2.19,1,.24.95-.11,1.54-1.04,1.77-.31.08-.56.09-.76.03-.48.01-.74.03-.8.04-.76.19-1.16,1.97-1.18,5.33l-.12,11.69c0,1.42-.16,2.45-.48,3.09-.32.64-.87,1.06-1.66,1.26-1.5.38-2.8-.56-3.9-2.8l-6.98-14.28.43,15.63c.04,1.49-.1,2.58-.43,3.28-.34.7-.91,1.15-1.73,1.36-1.33.34-2.44-.32-3.33-1.96l-7.92-14.26c-.48-.84-.99-1.2-1.53-1.06-.17.04-.41.17-.72.37-.43.19-.73.31-.9.35-.93.23-1.51-.11-1.75-1.02-.25-1,.26-1.66,1.53-1.99.23-.06.39-.08.48-.07l1.89-.18c.41-.04.94-.14,1.59-.3.79-.2,1.68-.49,2.66-.87,1.23-.48,1.95-.74,2.14-.79,1.24-.31,1.99.02,2.23.99.24.95-.16,1.55-1.21,1.81-.2.05-.56.11-1.08.17-.4-.04-.77-.02-1.11.07-.73.19-.99.7-.78,1.55.14.57.42,1.24.82,2.01Z"/>
    <path d="m293.26,364.77c2.77-1.41,5.57-1.5,8.4-.27l-.22-.42c-.07-.13-.14-.27-.21-.42-.13-.13-.2-.2-.21-.23-.34-.53-.49-.78-.46-.73-.44-.87-.28-1.5.5-1.89.82-.42,1.5-.1,2.04.94.1.2.38.81.84,1.83.49,1.32.85,2.22,1.09,2.7.34.67.74,1.34,1.18,1.99l.9,1.34.19.37c.57,1.12.41,1.91-.49,2.37-.97.5-1.72.21-2.23-.87l-.68-1.34c-.86-1.81-2.16-2.97-3.89-3.49s-3.55-.29-5.44.67c-2.46,1.26-3.91,3.19-4.34,5.79-.43,2.61.21,5.58,1.91,8.92,1.74,3.42,3.81,5.72,6.22,6.89,2.41,1.18,4.89,1.11,7.46-.2,1.4-.71,2.48-1.69,3.25-2.93.77-1.24,1.09-2.52.99-3.85-.07-.88-.42-1.93-1.04-3.15-.59-1.15-.4-1.96.55-2.45,1.02-.52,1.83-.21,2.41.94,1.36,2.67,1.55,5.32.57,7.96-.98,2.64-2.93,4.7-5.85,6.18-3.37,1.72-6.66,1.9-9.88.55-3.22-1.35-5.83-3.99-7.84-7.93-2.07-4.07-2.71-7.87-1.93-11.42.79-3.54,2.87-6.17,6.23-7.89Z"/>
    <path d="m330.17,377.11c-2.41,1.68-4.92,2.19-7.53,1.53-2.61-.66-4.88-2.39-6.84-5.2-1.95-2.81-2.77-5.55-2.47-8.23.3-2.68,1.68-4.88,4.14-6.59,2.51-1.74,5.05-2.3,7.63-1.67,2.58.63,4.85,2.34,6.8,5.15,1.95,2.8,2.77,5.58,2.46,8.32-.31,2.74-1.71,4.97-4.19,6.7Zm-11.05-16.26c-1.61,1.12-2.48,2.56-2.62,4.33s.47,3.72,1.81,5.85l.31.45c1.5,2.16,3.14,3.54,4.9,4.14,1.76.6,3.46.33,5.09-.8,1.68-1.17,2.57-2.7,2.67-4.59.1-1.89-.61-3.93-2.13-6.12-3.19-4.6-6.54-5.68-10.04-3.25Z"/>
    <path d="m345.84,365.09c-.56.47-1.19.67-1.91.6-.72-.07-1.31-.38-1.78-.94-.47-.56-.68-1.19-.63-1.92.05-.72.35-1.32.91-1.79.56-.47,1.19-.67,1.91-.6.72.07,1.31.38,1.78.94.47.56.68,1.19.63,1.92-.05.72-.35,1.32-.91,1.79Z"/>
  </g>
  <g>
    <path d="m212.6,223.95c-.09.21-.13.31-.12.28-.05.15,0,.25.14.29.13.04.21-.01.25-.15.01-.03.02-.07.03-.11.17.24.42.41.73.5.33.1.62.1.88,0,.25-.11.42-.29.5-.56.13-.44-.11-.8-.72-1.07l-.31-.14c-.32-.14-.44-.33-.37-.57.04-.13.13-.22.27-.28.14-.05.3-.05.47,0,.17.05.3.13.4.25.1.12.14.23.11.35l-.06.18c-.03.12.01.2.13.23.12.04.2-.02.25-.16.01-.04.03-.11.04-.2.02-.09.03-.16.04-.2.02-.07.05-.15.09-.22.03-.09.05-.14.06-.17.04-.12,0-.2-.13-.23-.12-.04-.2.02-.24.15v.02c-.14-.18-.32-.31-.57-.38-.32-.09-.6-.09-.84.01-.25.1-.41.29-.49.55-.08.28-.04.5.13.67.17.17.44.33.81.49.39.16.55.37.47.62-.04.14-.14.24-.28.3-.15.06-.31.06-.5,0-.25-.08-.45-.19-.58-.34-.13-.15-.18-.31-.14-.47.04-.16.06-.26.05-.31,0-.04-.05-.08-.13-.1-.12-.04-.2.01-.24.14-.01.04-.02.11-.03.19,0,.08-.03.17-.05.26-.02.05-.03.1-.06.15Z"/>
    <polygon points="182.84 256.41 181.84 254.27 180.83 256.41 178.57 256.76 180.21 258.43 179.82 260.79 181.84 259.68 183.85 260.79 183.47 258.43 185.1 256.76 182.84 256.41"/>
    <path d="m181.59,240.05c.43.17.82.2,1.16.07.34-.12.59-.37.74-.76.12-.3.14-.61.05-.92-.09-.31-.25-.51-.49-.61-.14-.05-.23-.01-.29.12-.04.09-.02.17.06.23l.14.11c.12.09.19.22.23.39.03.17.02.33-.04.49-.1.24-.27.41-.51.5-.25.09-.5.08-.78-.03-.03-.01-.05-.03-.05-.05,0-.02,0-.05.02-.1l.69-1.73c.03-.09.04-.15.02-.18-.02-.03-.1-.07-.24-.13-.35-.14-.69-.14-1-.01-.32.13-.54.37-.68.71-.15.38-.14.75.04,1.1.18.35.49.61.93.79Zm-.61-1.75c.08-.2.22-.34.41-.43.2-.09.39-.1.59-.02.05.02.06.07.03.14l-.52,1.3c-.03.08-.07.11-.12.09-.18-.07-.31-.22-.39-.45-.08-.22-.08-.44,0-.64Z"/>
    <path d="m178.28,243.3c.12.03.2-.02.23-.15,0-.03.01-.07.01-.13,0-.06,0-.1.01-.12.02-.08.11-.12.26-.1.16.01.52.09,1.08.24l1.02.26c.35.09.59.16.7.22.11.05.16.11.14.17,0,.03-.03.07-.06.13-.02.02-.03.06-.04.11-.04.15,0,.23.12.26.14.04.23-.03.27-.18.01-.04.03-.14.05-.3.02-.12.03-.21.05-.27.03-.1.06-.22.12-.37.04-.1.06-.18.08-.24.04-.17,0-.27-.14-.3-.12-.03-.2.02-.23.14,0,.03,0,.07,0,.13,0,.06,0,.11,0,.14-.02.09-.13.13-.32.1-.03,0-.16-.03-.38-.09-.02,0-.06-.01-.11-.03-.05-.03-.09-.05-.11-.05l-.41-.1c-.31-.08-.52-.19-.64-.32-.17-.19-.22-.43-.14-.73.07-.28.22-.45.44-.51.15-.04.42-.02.81.08l.31.08.24.06c.13.04.22.07.26.08.24.07.35.16.32.27,0,.03-.02.06-.04.09-.03.05-.06.1-.07.14-.01.05,0,.1.02.15.02.05.06.08.11.09.06.02.12,0,.17-.03.05-.04.09-.09.1-.16,0-.04.02-.14.04-.3,0-.05.02-.13.05-.23.02-.1.07-.22.13-.38.04-.09.06-.16.07-.21.05-.18,0-.29-.12-.32-.13-.03-.21.02-.25.16,0,.04-.01.07-.01.09,0,.06,0,.11,0,.14-.02.08-.13.11-.32.08-.02,0-.15-.03-.37-.09l-.95-.24c-.3-.08-.57-.04-.81.11-.23.15-.39.39-.48.72-.04.17-.05.33-.03.46.02.14.09.3.19.49l-1.1-.3h-.01c-.13-.03-.2,0-.22.08,0,.03-.01.07-.02.13,0,.06-.01.11-.02.15-.02.08-.04.16-.07.23-.04.11-.06.17-.07.19-.02.06-.01.12.02.18.03.05.07.09.12.1Z"/>
    <path d="m181.71,247.77c.01-.18-.09-.3-.29-.35l-3.12-.86,3.13-.38c.27-.03.41-.15.42-.35.01-.19-.09-.32-.3-.38l-2.74-.84c-.21-.07-.35-.12-.41-.16-.06-.04-.09-.1-.08-.18,0-.02,0-.06.02-.1.01-.05.02-.08.02-.1,0-.14-.05-.21-.18-.22-.14,0-.22.06-.22.2,0,.08,0,.19.01.35.01.16.02.27.01.35,0,.1-.04.31-.1.63-.01.07-.02.13-.02.19-.01.16.05.25.18.26.14,0,.21-.07.22-.24,0-.03,0-.09,0-.15,0-.07,0-.12,0-.15.01-.16.1-.24.26-.23.09,0,.22.03.39.08l2.39.66-3.16.37c-.24.03-.36.15-.38.37-.01.21.11.35.37.42l2.99.81-2.5.31-.19.02c-.06,0-.12,0-.16,0-.13,0-.19-.08-.18-.22,0-.04,0-.09.02-.16.01-.07.02-.12.02-.16.01-.17-.05-.26-.19-.27-.13,0-.2.06-.21.2,0,.05,0,.11,0,.17.02.34.02.55.01.65-.01.2-.04.4-.09.61-.02.07-.03.13-.03.19,0,.14.06.21.19.22.13,0,.2-.05.21-.17v-.13s0-.04,0-.04c0-.11.04-.19.1-.24.06-.05.16-.09.31-.11l2.95-.5c.22-.04.33-.15.34-.33Z"/>
    <path d="m194.43,271.31c-.38-.2-.76-.22-1.13-.08-.37.15-.67.44-.9.88-.22.42-.28.81-.19,1.19.09.37.32.65.68.84.34.17.67.2,1,.09.12-.04.24-.11.37-.21.12-.1.21-.19.25-.28.03-.06.04-.12.02-.18s-.06-.11-.12-.14c-.08-.04-.15-.03-.23.02-.02.01-.08.07-.18.18-.12.14-.27.22-.43.25-.16.03-.32,0-.48-.08-.25-.13-.4-.33-.44-.59-.04-.26.02-.56.2-.9.17-.33.38-.55.63-.67.25-.12.5-.11.75.01.16.08.27.19.34.31.06.12.07.25.03.39-.19-.07-.32-.04-.4.11-.04.08-.05.16-.01.24.03.08.09.15.18.2.11.06.23.07.35.02.12-.05.21-.14.28-.27.12-.24.13-.49.02-.74-.11-.25-.31-.46-.59-.6Z"/>
    <path d="m192.19,270.15s-.07-.04-.13-.07c-.06-.03-.11-.05-.13-.07-.03-.02-.1-.07-.2-.15-.03-.02-.07-.05-.13-.09-.15-.1-.26-.09-.33.03-.07.11-.04.2.08.28.02.02.06.03.12.05.06.02.1.04.13.06.09.05.07.19-.05.42,0,.01-.1.16-.28.44l-.27.42c-.18.28-.28.43-.28.44-.16.21-.28.28-.36.23-.03-.02-.06-.05-.11-.09-.05-.04-.08-.08-.11-.09-.12-.07-.21-.06-.28.06-.07.12-.04.22.09.3.04.03.14.08.28.15.12.06.22.11.31.17.05.04.13.1.23.18.1.09.18.15.23.18.06.04.13.06.19.05.06,0,.11-.03.14-.08.07-.11.04-.21-.09-.29-.03-.02-.06-.03-.08-.04-.08-.03-.13-.05-.14-.06-.07-.05-.07-.15.01-.32.02-.03.08-.13.19-.3l.43-.66c.09-.15.19-.29.28-.42.12-.18.19-.28.21-.31,0-.01.02-.03.04-.06.02-.03.03-.04.04-.06.08-.13.08-.23-.02-.29Z"/>
    <path d="m192.13,269.33c-.05.08-.07.16-.05.25.02.09.07.16.15.21.08.05.16.07.25.05.09-.02.16-.07.21-.15.05-.08.06-.16.04-.25-.02-.09-.07-.16-.15-.21-.08-.05-.16-.07-.25-.05-.09.02-.16.07-.21.14Z"/>
    <path d="m190.53,269.23l.22-.26c.12-.13.21-.2.27-.22.06-.02.14.01.23.09l.05.04s.03.03.05.04c.13.1.23.11.32,0,.09-.11.07-.22-.07-.33,0,0-.02-.02-.03-.03-.02-.01-.03-.02-.04-.02-.07-.04-.13-.08-.18-.11-.15-.09-.26-.17-.34-.24-.08-.07-.16-.15-.24-.24l-.19-.2s-.03-.03-.06-.05c-.14-.12-.26-.12-.35,0-.03.04-.05.09-.04.14,0,.05.03.1.07.13.02.02.07.05.12.08.06.03.1.06.12.08.13.11.14.25.03.43-.02.03-.13.16-.33.4l-1.56,1.87.92-3.63.04-.15c.02-.09-.01-.18-.11-.26-.05-.04-.12-.09-.22-.16-.1-.07-.17-.12-.22-.16-.08-.07-.2-.18-.34-.32-.03-.03-.05-.05-.07-.07-.13-.11-.24-.11-.33,0-.08.1-.08.19.02.28.03.02.07.05.14.09.05.03.08.05.1.07.16.13.14.32-.05.55l-.61.73-.33.4-.34.41-.27.32c-.19.23-.37.28-.53.15-.03-.03-.06-.06-.09-.1-.06-.06-.1-.1-.12-.11-.1-.08-.19-.08-.27.02-.09.11-.07.22.06.33,0,0,.02.02.04.03.02,0,.03.02.04.02l.25.16c.14.09.25.17.33.24.09.08.19.17.28.27l.17.19s.02.02.03.03c.01.01.02.02.03.02.14.12.25.12.34.02.08-.1.07-.19-.02-.27-.02-.02-.06-.05-.12-.09-.05-.04-.09-.07-.12-.09-.16-.13-.14-.31.05-.55l1.8-2.16-.89,3.55c-.07.3-.04.52.12.65.12.1.24.12.36.08.12-.05.27-.18.45-.39l1.03-1.24.39-.47Z"/>
    <path d="m206.96,270.9c12.39,0,22.44-10.05,22.44-22.44s-10.05-22.44-22.44-22.44-22.44,10.05-22.44,22.44,10.05,22.44,22.44,22.44Zm-5.61-7.94c0-.43.02-14.89.1-15.87.07-.98.69-2.07,1.41-2.93.19-4.62.95-9.19,1.07-9.89-.28-.08-.45-.9.04-1.36.1-.15.1-.33-.05-.41-.06-.14-.19-.54.38-.7.26-.03.85-.05,1.46-.05.76,0,1.61,0,1.94.05.58.17.45.56.38.7-.15.08-.15.26-.05.41.49.46.32,1.28.04,1.36.12.69.88,5.26,1.07,9.89.71.86,1.33,1.95,1.41,2.93s.1,15.44.1,15.87.02.79-.19,1.6c-1.25.94-7.38.92-8.9,0-.21-.81-.19-1.17-.19-1.6Z"/>
    <path d="m195.15,223.55s.07-.03.11-.06c.05-.03.08-.05.11-.06.1-.04.19.04.29.25l.51,1.22.11.28c.06.17.04.27-.05.31-.01,0-.04.01-.08.02l-.09.02s-.05.01-.08.03c-.14.06-.18.14-.14.25.05.13.15.16.3.1l.29-.15c.08-.04.19-.09.34-.15.05-.02.14-.05.25-.08.12-.03.2-.06.25-.08h.02c.15-.07.2-.16.15-.29-.05-.11-.13-.15-.24-.1-.03.01-.06.03-.1.06-.05.03-.09.06-.14.08-.09.04-.19-.04-.29-.24-.02-.03-.07-.16-.17-.4l-.15-.36c-.13-.31-.19-.56-.2-.74,0-.29.13-.49.41-.61.14-.06.27-.07.39-.03.12.03.2.1.25.21.01.04.02.08.02.13-.04,0-.07,0-.08.01-.06.02-.1.07-.12.13-.03.06-.03.12,0,.18.03.07.08.12.16.15.08.03.16.02.24,0,.13-.05.21-.14.25-.28.04-.13.03-.28-.04-.44-.09-.22-.24-.38-.46-.45-.21-.08-.45-.07-.7.04-.31.13-.51.36-.59.7l-.06-.15c-.04-.1-.11-.14-.2-.1-.04.02-.07.03-.1.06-.06.04-.11.06-.14.07-.04.01-.09.03-.17.05-.08.02-.13.04-.17.05-.16.06-.21.16-.16.28.05.12.13.15.25.1Z"/>
    <path d="m199.31,220.98s.09-.02.15-.05c.04-.02.08-.03.12-.04.19-.04.32.09.38.37l.46,2.31c.06.28-.01.44-.21.48-.03,0-.07.01-.12.01-.07,0-.13,0-.16.01-.12.02-.17.1-.14.22.03.13.12.19.29.16,0,0,.02,0,.04,0,.02,0,.03-.01.04-.01l.26-.09c.09-.03.19-.05.29-.08.12-.02.31-.05.56-.08.26-.03.47-.06.63-.1.46-.09.8-.27,1.03-.53.23-.26.31-.57.24-.92-.07-.36-.28-.6-.63-.72-.12-.04-.26-.07-.43-.09.41-.25.58-.57.5-.96-.06-.29-.21-.5-.46-.62-.25-.12-.57-.14-.95-.06-.21.04-.4.09-.57.14-.26.08-.47.13-.61.16-.14.03-.25.04-.33.05l-.29.02h-.07c-.18.05-.25.13-.22.27.02.12.1.17.21.15Zm3.35,1.76c.11.54-.2.87-.91,1.02-.37.07-.61.09-.71.05-.1-.04-.17-.19-.22-.43l-.13-.64c-.02-.1-.03-.18-.02-.23.01-.1.12-.17.33-.21l.48-.09c.69-.14,1.08.04,1.18.53Zm-2.21-1.93c.08-.07.32-.14.7-.22.56-.11.88.03.96.44.09.44-.21.73-.88.86l-.32.06c-.16.03-.27.03-.32-.01-.05-.04-.09-.16-.13-.36l-.07-.36c-.04-.21-.02-.34.06-.41Z"/>
    <path d="m191.7,225.38s.06-.04.1-.07c.04-.03.07-.05.09-.06.1-.06.28.15.54.62l.24.42c.13.23.21.38.26.45.09.14.2.25.33.32.3.16.64.13,1.05-.1.35-.2.55-.47.59-.82l.09.16c.06.1.13.12.23.07.03-.02.06-.04.1-.08.06-.04.09-.06.1-.07.02-.01.08-.04.17-.07.06-.03.11-.05.14-.06.14-.08.18-.18.12-.29-.06-.11-.15-.14-.27-.07-.02.01-.06.04-.09.07-.04.03-.07.06-.09.07-.08.04-.18-.02-.29-.19-.02-.02-.08-.14-.2-.34l-.44-.79c-.14-.25-.24-.45-.3-.59,0-.03-.03-.07-.05-.12-.06-.11-.14-.14-.24-.08-.03.02-.07.04-.12.08-.05.04-.09.06-.12.08-.03.02-.08.04-.15.07-.07.03-.12.05-.15.07-.13.07-.17.17-.1.28.06.1.15.12.26.05l.06-.03s.05-.03.09-.05c.07-.04.16.02.27.17,0,.02.07.13.19.33l.16.28c.21.37.32.64.34.8.02.13-.01.26-.09.39-.08.13-.19.23-.33.32-.3.17-.54.16-.74,0-.12-.1-.26-.3-.43-.6l-.19-.33-.2-.39-.19-.33-.06-.11c-.07-.13-.16-.16-.27-.11,0,0-.03.02-.08.06-.07.05-.12.09-.15.1-.03.02-.09.04-.16.07-.07.03-.12.05-.16.07-.15.08-.19.18-.13.28.06.11.15.13.27.06Z"/>
    <path d="m197.28,272.57c-.4-.15-.78-.13-1.12.05-.34.18-.6.51-.77.97-.17.46-.19.87-.05,1.23.14.36.4.62.8.77.41.15.79.13,1.14-.05.35-.19.61-.51.78-.97.17-.46.19-.87.05-1.23-.14-.36-.41-.61-.82-.77Zm.31,1.83c-.13.36-.32.61-.55.75-.23.14-.49.16-.76.06-.27-.1-.44-.28-.51-.54-.07-.26-.04-.56.09-.92l.03-.07c.14-.33.32-.57.54-.69.22-.13.46-.14.73-.05.57.21.72.7.44,1.45Z"/>
    <path d="m205.12,223.78c.33-.02.61-.13.86-.35.25-.21.36-.44.35-.7,0-.15-.08-.22-.23-.21-.1,0-.16.06-.18.15l-.04.17c-.03.15-.12.27-.26.37s-.29.16-.46.17c-.26.02-.48-.07-.67-.25-.19-.18-.29-.42-.31-.71,0-.03,0-.05.02-.07.01-.01.05-.02.1-.03l1.86-.11c.09,0,.15-.03.17-.06.02-.03.02-.13.01-.27-.02-.38-.16-.68-.41-.91-.25-.23-.56-.34-.93-.32-.41.02-.74.19-.98.5-.24.31-.35.7-.32,1.18.03.46.17.82.43,1.09.26.26.59.38,1,.35Zm-.68-2.46c.17-.17.36-.26.58-.27.21-.01.4.05.56.2.16.14.25.32.26.52,0,.05-.04.08-.12.09l-1.4.08c-.09,0-.13-.02-.13-.07-.01-.19.07-.38.24-.54Z"/>
    <path d="m181.83,236.57s.03-.07.05-.12c.02-.05.03-.09.05-.12.05-.09.18-.09.39,0l1.18.61.26.14c.15.09.21.18.16.27,0,.01-.02.04-.05.07l-.06.07s-.03.04-.05.08c-.07.13-.05.23.05.28.12.06.22.03.29-.11l.13-.3c.04-.08.09-.19.16-.33.03-.05.08-.13.14-.22.07-.1.12-.17.14-.22v-.02c.09-.14.06-.24-.05-.31-.11-.06-.19-.03-.25.08-.01.03-.03.06-.04.11-.01.05-.03.1-.06.15-.05.09-.17.09-.38,0-.03-.01-.16-.08-.39-.2l-.34-.18c-.3-.16-.51-.31-.63-.44-.19-.22-.22-.46-.07-.73.07-.13.16-.22.28-.27.12-.05.22-.05.32,0,.03.02.07.05.1.09-.03.03-.05.05-.05.06-.03.05-.03.11-.01.18.02.06.06.11.11.14.07.04.14.04.22.01.08-.03.14-.08.18-.16.07-.12.07-.25.02-.38-.05-.13-.16-.23-.31-.31-.21-.11-.43-.13-.64-.06-.22.08-.39.24-.52.48-.16.3-.16.6,0,.92l-.14-.08c-.1-.05-.17-.03-.22.06-.02.04-.03.07-.04.1-.02.07-.04.11-.06.14-.02.03-.05.08-.1.15-.05.06-.08.11-.1.15-.08.15-.06.25.06.32.11.06.2.03.26-.08Z"/>
    <path d="m208.08,223.78c.33.02.62-.06.89-.24.27-.18.41-.4.43-.65,0-.15-.06-.23-.2-.24-.1,0-.17.04-.2.13l-.06.17c-.05.14-.15.25-.3.34-.15.08-.31.12-.48.11-.26-.02-.47-.13-.64-.33-.16-.21-.24-.45-.22-.75,0-.03.01-.05.03-.07.02-.01.05-.02.1-.01l1.86.11c.09,0,.15,0,.17-.04.02-.03.04-.12.05-.27.02-.38-.08-.7-.3-.96-.22-.26-.52-.4-.88-.42-.41-.03-.76.1-1.03.38-.28.28-.43.66-.46,1.13-.03.46.07.84.29,1.13.22.29.54.45.95.47Zm-.38-2.53c.19-.15.39-.21.61-.2.21.01.39.1.53.26.15.16.21.35.2.55,0,.05-.05.08-.13.07l-1.39-.09c-.09,0-.13-.04-.12-.09.01-.19.11-.36.3-.51Z"/>
    <path d="m209.82,223.85l.33.03c.09,0,.21.03.36.05.06.01.14.03.26.07.11.03.2.06.26.07h.02c.16.03.25-.02.27-.15.02-.12-.03-.19-.15-.21-.03,0-.07,0-.11,0-.06,0-.11,0-.16,0-.1-.02-.14-.14-.12-.36,0-.03.03-.18.07-.43l.07-.38c.06-.33.14-.58.23-.73.15-.25.37-.35.67-.3.15.03.26.09.34.18.08.09.12.2.1.31,0,.04-.03.08-.06.12-.04-.02-.06-.03-.07-.03-.06-.01-.12,0-.17.04-.05.04-.09.09-.1.15-.01.08,0,.15.06.21.05.06.12.11.21.12.14.02.26,0,.36-.1.1-.09.17-.22.2-.39.04-.24,0-.45-.15-.63-.14-.18-.34-.3-.61-.34-.33-.06-.63.03-.88.28l.03-.16c.02-.11-.02-.17-.12-.19-.04,0-.08,0-.11,0-.07,0-.12,0-.15-.01-.04,0-.1-.02-.17-.05-.07-.02-.13-.04-.17-.05-.16-.03-.26.02-.28.16-.02.12.03.2.16.22.03,0,.07,0,.13,0,.06,0,.1,0,.13,0,.1.02.14.14.11.37l-.22,1.31-.05.29c-.04.18-.11.25-.2.24-.02,0-.04-.01-.08-.03l-.08-.03s-.05-.01-.09-.02c-.15-.03-.23.02-.25.14-.02.13.04.22.2.24Z"/>
    <path d="m190.6,228.94c.37.08.71,0,1.04-.25.34-.25.52-.57.55-.95.03-.38-.1-.76-.38-1.15-.28-.38-.61-.61-.97-.68-.36-.07-.71.02-1.05.27-.33.25-.52.56-.54.94-.03.37.1.75.38,1.13.28.38.61.61.98.69Zm-.58-2.46c.47-.35.95-.22,1.41.4.22.3.33.58.33.84,0,.26-.12.48-.35.65-.22.17-.46.21-.7.14-.25-.07-.48-.26-.7-.55l-.05-.06c-.2-.29-.29-.56-.28-.8.01-.25.12-.45.34-.61Z"/>
    <path d="m184.18,234.58c.38.26.75.38,1.12.33.36-.04.66-.23.9-.57.19-.27.27-.57.26-.89-.02-.32-.13-.56-.33-.7-.12-.08-.22-.07-.31.05-.06.08-.06.16,0,.24l.11.14c.09.12.14.26.13.43,0,.17-.06.33-.15.47-.15.21-.35.34-.61.37s-.51-.03-.75-.2c-.03-.02-.04-.04-.04-.06,0-.02.01-.05.04-.09l1.06-1.53c.05-.08.07-.13.06-.17-.02-.03-.08-.09-.21-.18-.31-.22-.63-.3-.97-.24-.34.06-.61.23-.82.53-.24.34-.3.7-.21,1.08s.34.71.73.98Zm-.2-1.84c.12-.17.29-.28.5-.32.21-.04.41,0,.58.11.04.03.04.08,0,.15l-.8,1.15c-.05.07-.1.09-.14.06-.16-.11-.25-.29-.28-.52-.03-.24.02-.45.15-.63Z"/>
    <path d="m185.47,229.37s.02-.02.04-.04c.02-.02.03-.03.04-.04,0-.03.03-.06.06-.09.06-.06.13-.09.22-.09.03,0,.11.02.24.05l2.07.52s.07.07.11.11c.04.04.07.07.08.08.21.22.33.35.35.38.12.17.12.32,0,.43-.02.02-.06.05-.11.08-.05.03-.09.06-.11.08-.09.09-.09.18,0,.27.09.1.21.09.33-.03,0,0,.02-.01.03-.03,0-.01.02-.02.02-.03l.19-.24c.07-.09.15-.18.24-.26.08-.08.18-.16.27-.23l.26-.19s.02-.02.03-.02c.01-.01.02-.02.03-.02.13-.12.14-.23.04-.33-.09-.09-.17-.09-.26,0-.02.02-.05.06-.09.11-.04.05-.07.09-.09.11-.1.09-.19.11-.28.07-.09-.05-.27-.21-.55-.5l-.17-.18-.42-2.1-.03-.16c-.02-.11,0-.2.08-.27.02-.02.05-.04.1-.08.03-.02.06-.04.11-.08.1-.1.11-.19.03-.28-.09-.1-.2-.1-.3,0-.04.04-.08.09-.13.15-.12.16-.25.3-.37.42-.12.11-.26.23-.44.36-.07.05-.12.09-.16.13-.11.11-.12.21-.03.31.1.1.2.09.32-.02.03-.02.06-.06.1-.11l.1-.12.06-.09h0s.07-.05.09-.02c.02.02.04.05.04.09l.4,1.72-1.7-.48s-.05-.01-.06-.02c0,0-.02,0-.03-.02-.02-.03-.02-.05.02-.08l.08-.08.11-.1.04-.04c.14-.13.16-.24.07-.34-.09-.1-.2-.09-.31.02-.04.04-.09.09-.14.16-.15.19-.27.33-.36.41-.12.11-.26.22-.41.33-.08.05-.14.1-.18.15-.11.11-.12.21-.02.31.09.1.21.09.34-.04Z"/>
    <path d="m204.01,274.22c.05-.3-.03-.56-.23-.76-.2-.2-.5-.34-.9-.4-.21-.03-.42-.06-.61-.07-.28-.02-.5-.04-.65-.07-.14-.02-.26-.05-.34-.07l-.29-.09h-.08c-.18-.04-.29.01-.31.15-.02.13.03.2.15.22.04,0,.09,0,.16,0,.05,0,.09,0,.13,0,.2.03.28.2.23.5l-.38,2.4c-.05.29-.17.43-.37.39-.03,0-.07-.02-.12-.03-.07-.02-.13-.04-.16-.04-.12-.02-.19.03-.22.16-.02.14.05.22.22.26,0,0,.02,0,.04,0,.02,0,.03,0,.04,0h.29c.1.01.2.02.31.04.12.02.31.06.57.12.26.06.47.11.65.13.47.07.87.03,1.18-.15.32-.17.5-.44.56-.81.06-.37-.06-.68-.35-.92-.1-.08-.23-.16-.38-.24.49-.09.76-.34.83-.75Zm-.62,1.81c-.09.56-.5.78-1.25.66-.39-.06-.62-.13-.7-.2-.08-.07-.1-.24-.06-.5l.1-.66c.02-.11.04-.18.06-.23.05-.09.18-.12.39-.08l.5.08c.72.11,1.03.43.95.94Zm-1.08-1.34l-.33-.05c-.17-.03-.27-.07-.3-.12-.03-.06-.03-.19,0-.4l.06-.37c.03-.21.1-.34.2-.38.1-.04.36-.02.76.04.58.09.84.35.77.76-.07.46-.46.63-1.16.52Z"/>
    <path d="m223.01,269.24c-.37-.09-.74,0-1.1.24-.35.25-.55.56-.6.95-.04.39.08.78.36,1.18.28.4.61.65.98.75.38.1.74.02,1.08-.22.36-.25.56-.57.6-.96.04-.39-.07-.79-.35-1.2-.28-.4-.61-.65-.98-.74Zm.51,2.57c-.23.16-.48.2-.73.12-.25-.09-.49-.28-.7-.6l-.04-.06c-.19-.31-.28-.59-.26-.84.02-.25.15-.46.38-.62.5-.35.98-.19,1.44.47.22.31.32.61.31.88-.01.27-.14.49-.38.66Z"/>
    <path d="m232.7,245.78c-.46.03-.83.17-1.09.42-.26.26-.38.59-.36,1,.02.33.13.61.34.86.21.25.44.36.7.35.15,0,.22-.08.21-.23,0-.1-.06-.16-.15-.19l-.17-.04c-.15-.04-.27-.12-.37-.26-.1-.14-.16-.29-.17-.46-.01-.26.07-.48.26-.67.18-.19.42-.29.72-.3.03,0,.05,0,.07.02.01.01.02.05.03.1l.1,1.86c0,.09.02.15.06.17.03.02.12.02.27.01.38-.02.68-.16.91-.41.23-.25.34-.56.32-.93-.02-.41-.19-.74-.5-.98-.31-.24-.7-.35-1.18-.32Zm1.09,1.89c-.14.16-.32.25-.52.26-.05,0-.08-.04-.09-.12l-.08-1.4c0-.09.02-.13.07-.13.19-.01.38.07.54.24.17.17.26.36.27.58.01.21-.05.4-.2.56Z"/>
    <polygon points="232.75 256.41 231.74 254.27 230.73 256.41 228.48 256.76 230.11 258.43 229.72 260.79 231.74 259.68 233.75 260.79 233.37 258.43 235 256.76 232.75 256.41"/>
    <path d="m225.78,269.75c-.1-.01-.2.02-.28.09-.08.07-.12.15-.13.26,0,.1.02.2.09.28.07.08.15.13.26.14.1.01.2-.02.28-.09.08-.07.12-.15.13-.26,0-.1-.02-.2-.09-.28-.07-.08-.15-.12-.26-.14Z"/>
    <path d="m233.18,241.93s.02.07.03.11c.02.05.02.09.03.11.02.11-.23.22-.76.31l-.48.09c-.26.05-.42.08-.5.1-.16.04-.3.11-.41.21-.25.23-.33.57-.24,1.02.07.4.27.67.59.82l-.18.03c-.11.02-.16.08-.14.19,0,.03.02.07.04.12.02.07.03.11.03.12,0,.02,0,.08.02.18,0,.07,0,.12.02.15.03.16.11.23.24.21.13-.02.18-.1.15-.23,0-.03-.02-.06-.04-.11-.02-.05-.03-.09-.04-.11-.02-.09.08-.16.28-.22.03,0,.16-.04.39-.08l.89-.17c.28-.05.5-.08.65-.09.03,0,.08,0,.13-.01.12-.02.17-.09.15-.21,0-.03-.02-.08-.04-.14-.02-.06-.03-.11-.04-.14,0-.03-.01-.09-.02-.16,0-.07-.01-.13-.02-.16-.03-.15-.11-.21-.24-.19-.11.02-.16.1-.14.23v.07s.02.06.03.1c.02.08-.07.15-.25.2-.02,0-.14.03-.37.07l-.32.06c-.42.08-.71.1-.87.07-.13-.03-.25-.1-.35-.21s-.16-.25-.19-.42c-.06-.33.02-.57.24-.7.14-.08.37-.15.7-.21l.37-.07.43-.06.37-.07.12-.02c.15-.03.21-.1.19-.22,0,0-.01-.04-.03-.1-.03-.08-.04-.14-.05-.18,0-.04-.01-.1-.02-.17,0-.08-.01-.13-.02-.17-.03-.16-.11-.24-.23-.21-.12.02-.17.1-.15.24Z"/>
    <path d="m222.57,228.98s-.01-.02-.01-.02l-.09-.12s-.01-.02-.02-.03c-.01-.01-.02-.02-.03-.03-.11-.11-.2-.11-.29-.03-.09.09-.08.2.03.31.03.02.1.09.23.2.1.08.16.13.2.17.07.07.14.15.23.25.06.08.12.14.16.18.13.12.23.14.32.05.09-.09.08-.19-.03-.3,0,0-.02-.02-.03-.03-.02,0-.03-.01-.03-.02-.06-.03-.1-.05-.11-.06-.05-.05-.03-.13.05-.23.02-.02.08-.09.19-.2l.55-.56c.27-.27.49-.42.68-.45.23-.04.44.03.62.21.17.16.24.32.21.48-.03.16-.16.36-.4.6l-.34.35s-.03.03-.08.08c-.06.06-.12.12-.18.18l-.21.19c-.14.14-.25.18-.31.11-.02-.02-.04-.05-.07-.1,0-.02-.03-.05-.06-.08-.08-.08-.17-.08-.25,0-.09.09-.08.2.03.31.05.05.12.11.2.16.08.06.15.11.21.17.04.04.1.11.17.2s.13.16.17.2c.13.13.24.15.33.06.04-.04.06-.08.05-.14,0-.05-.02-.1-.06-.14-.02-.02-.04-.04-.08-.06-.04-.03-.06-.05-.08-.06-.05-.05-.05-.12,0-.19.05-.08.21-.25.46-.51l.29-.3c.26-.27.48-.43.65-.48.21-.06.42,0,.61.2.1.1.17.21.2.34s.02.25-.04.37c-.06.12-.18.27-.37.46l-.27.28-.25.26c-.19.19-.31.3-.37.33-.06.04-.11.03-.16-.02-.03-.03-.05-.05-.06-.07-.04-.05-.06-.08-.08-.09-.09-.09-.17-.09-.26,0-.1.1-.08.2.03.32.05.05.12.11.22.19.1.08.17.14.22.19.04.04.1.11.18.2.08.09.13.16.18.2.11.11.22.11.31.02.08-.08.07-.17-.02-.27-.02-.02-.05-.04-.1-.07-.05-.03-.08-.05-.1-.07-.06-.06-.05-.14.04-.26.02-.03.09-.1.2-.21l.31-.31.4-.41c.19-.2.32-.36.37-.49.08-.19.09-.39.02-.6-.06-.19-.17-.36-.33-.52-.15-.15-.3-.25-.45-.3-.14-.05-.32-.06-.53-.03.08-.34-.02-.64-.29-.91-.13-.13-.27-.22-.4-.26-.13-.04-.31-.05-.53-.03l.12-.12c.08-.08.09-.15.02-.22h-.01s-.12-.09-.12-.09c0,0-.01-.01-.03-.03-.02-.02-.03-.03-.05-.04-.04-.04-.08-.09-.13-.14-.05-.06-.09-.1-.12-.13-.11-.11-.22-.12-.31-.03-.09.09-.08.18.02.29.02.02.04.04.08.06.08.05.13.08.14.09.06.05.06.12.02.19-.04.07-.18.22-.41.46l-.62.64-.23.24c-.14.13-.25.16-.32.08Z"/>
    <path d="m239.04,313.29c0-2.98-.17-103.55-.66-110.34-.5-6.79-4.8-14.41-9.77-20.38-1.33-32.14-6.61-63.92-7.44-68.73,1.96-.53,3.12-6.23-.27-9.44-.71-1.07-.71-2.32.36-2.85.45-.98,1.34-3.74-2.67-4.9-2.23-.29-8.17-.39-13.46-.33-4.27,0-8.39.12-10.16.35-4.01,1.16-3.12,3.92-2.67,4.9,1.07.53,1.07,1.78.36,2.85-3.38,3.21-2.23,8.91-.27,9.44-.83,4.8-6.12,36.59-7.44,68.73-4.97,5.96-9.28,13.59-9.77,20.38-.5,6.79-.66,107.36-.66,110.34s-.17,5.47,1.33,11.1c10.58,6.35,53.21,6.55,61.89-.02,1.49-5.63,1.33-8.12,1.33-11.1Zm-32.16-34.18c-16.88,0-30.56-13.68-30.56-30.56s13.68-30.56,30.56-30.56,30.56,13.68,30.56,30.56-13.68,30.56-30.56,30.56Z"/>
    <path d="m232.53,239.72l.15-.05c.11-.03.14-.1.11-.2-.01-.04-.03-.07-.05-.1-.03-.06-.05-.11-.06-.14-.01-.04-.03-.09-.04-.17-.01-.08-.03-.13-.04-.17-.05-.16-.14-.22-.27-.18-.12.04-.16.12-.12.24,0,.03.03.07.06.12.03.05.05.09.06.12.03.1-.06.19-.27.27l-1.26.43-.28.09c-.17.05-.27.03-.31-.07,0-.02,0-.04-.01-.08v-.09s-.02-.05-.03-.09c-.05-.14-.13-.19-.24-.16-.13.04-.17.14-.12.29l.13.3c.03.08.08.2.12.35.02.06.04.14.06.26.02.12.04.2.06.26v.02c.06.15.14.21.27.16.12-.04.16-.12.12-.23,0-.03-.03-.06-.05-.1-.03-.05-.05-.1-.07-.14-.03-.1.06-.19.26-.28.03-.01.17-.06.42-.14l.37-.12c.32-.1.57-.15.75-.15.29.01.48.16.58.45.05.14.05.27,0,.39-.04.12-.12.2-.23.23-.04.01-.08.01-.13,0,0-.04,0-.07,0-.08-.02-.06-.06-.1-.12-.13-.06-.03-.12-.03-.18-.02-.07.02-.13.07-.16.15-.03.08-.04.16,0,.24.04.13.13.22.26.27.13.05.27.05.44,0,.23-.07.39-.22.49-.43.09-.21.1-.44.01-.7-.1-.32-.32-.54-.66-.64Z"/>
    <path d="m229.03,237.17s-.03-.07-.05-.13c-.02-.06-.03-.1-.05-.13-.05-.11-.14-.14-.25-.09-.12.06-.15.17-.07.32,0,0,0,.02.02.04.01.01.02.02.02.03l.16.25c.06.1.13.21.19.34.06.12.1.24.14.34l.09.28s0,.02.01.04c0,.01.01.02.02.03.08.16.17.21.3.15.05-.02.08-.06.1-.11.02-.05.02-.1,0-.14-.01-.03-.04-.07-.07-.12-.04-.05-.06-.09-.07-.12-.09-.18,0-.33.27-.46l1.8-.85.38-.15c.13-.05.24-.06.32-.03.08.03.15.11.21.24l.07.15c.13.28.08.48-.17.59-.06.03-.16.07-.29.12-.13.05-.23.09-.29.12-.18.08-.23.19-.17.33.07.14.17.17.31.1.04-.02.12-.07.26-.15.11-.06.19-.11.24-.13l.06-.03c.11-.04.22-.08.32-.12.1-.04.17-.06.2-.08h.01c.14-.07.17-.2.09-.37-.04-.08-.1-.19-.17-.33-.09-.16-.14-.27-.18-.34-.15-.3-.24-.49-.28-.56l-.29-.6c-.11-.28-.18-.42-.18-.44-.07-.18-.12-.3-.15-.35-.06-.13-.17-.17-.32-.09.03-.01-.05.03-.23.13-.09.05-.18.1-.27.14-.05.02-.16.07-.33.14-.12.05-.2.08-.24.1-.16.08-.21.18-.15.31.07.14.21.15.43.05.06-.03.1-.05.13-.07l.19-.11s.09-.05.18-.09c.25-.12.43-.05.55.2l.08.16c.12.26.06.45-.19.56l-.86.41-.45.21-.46.22-.37.18c-.26.13-.44.1-.52-.08Z"/>
    <path d="m226.94,231.9c-.37.27-.6.59-.68.95-.08.36,0,.7.24,1.03.19.26.45.44.76.53.31.09.57.06.77-.09.12-.09.14-.19.05-.31-.06-.08-.14-.11-.23-.07l-.17.06c-.14.05-.29.05-.45-.01-.16-.06-.29-.16-.39-.3-.15-.21-.2-.44-.15-.7.05-.26.2-.47.43-.64.03-.02.05-.03.07-.02.02,0,.05.03.08.07l1.1,1.5c.06.08.1.11.14.11.04,0,.12-.05.24-.14.31-.22.49-.5.54-.84.06-.34-.02-.65-.24-.95-.24-.33-.56-.52-.95-.55-.39-.03-.78.09-1.16.37Zm1.81.41c.12.17.17.36.14.58-.03.22-.13.38-.3.51-.04.03-.09.02-.14-.05l-.83-1.13c-.05-.07-.05-.12-.01-.15.16-.12.35-.15.59-.1.23.05.41.17.54.34Z"/>
    <path d="m206.58,274.26c-.35,0-.63.13-.85.42v-.17c0-.11-.05-.17-.15-.18-.04,0-.08,0-.12.01-.07,0-.13.01-.16.01-.04,0-.1,0-.18-.02-.08-.01-.14-.02-.18-.02-.17,0-.26.07-.26.21,0,.13.06.19.2.2.03,0,.08,0,.13-.02.06-.01.1-.02.13-.02.11,0,.17.12.17.36v1.37s-.02.31-.02.31c-.01.19-.07.28-.17.27-.02,0-.04,0-.09-.01l-.09-.02s-.05,0-.09,0c-.15,0-.23.06-.24.18,0,.14.08.21.24.22l.34-.02c.09,0,.22,0,.38,0,.06,0,.15.01.27.03.12.02.21.03.27.03h.02c.16,0,.25-.06.25-.2,0-.13-.06-.19-.19-.19-.03,0-.07,0-.11.01-.06.01-.11.02-.16.02-.1,0-.16-.12-.18-.35,0-.03,0-.18,0-.45v-.4c.01-.35.05-.61.12-.78.11-.28.32-.42.64-.41.15,0,.28.05.38.13.1.08.15.18.15.3,0,.04-.01.08-.04.13-.04-.01-.07-.02-.08-.02-.06,0-.12.02-.17.07-.05.05-.07.11-.08.17,0,.08.03.15.09.21.06.06.14.09.23.09.15,0,.26-.05.35-.16.09-.11.14-.25.14-.43,0-.25-.08-.46-.25-.62-.17-.16-.4-.25-.68-.25Z"/>
    <path d="m210.5,276.01c-.1.01-.17.07-.18.16l-.04.18c-.03.15-.11.28-.25.39s-.29.18-.47.19c-.27.03-.5-.05-.7-.23-.2-.18-.32-.42-.35-.72,0-.03,0-.06.02-.07.01-.02.05-.03.1-.03l1.91-.19c.1,0,.15-.03.17-.07.02-.04.02-.13,0-.28-.04-.39-.19-.7-.46-.93-.27-.23-.59-.32-.97-.29-.42.04-.75.23-.99.56-.23.33-.33.74-.28,1.23.05.48.21.84.49,1.1.28.26.63.37,1.05.32.34-.03.63-.16.87-.39.24-.23.35-.47.33-.73-.02-.15-.1-.22-.24-.21Zm-1.76-1.18c.17-.18.36-.28.59-.3.22-.02.41.04.59.18.18.14.27.32.3.53,0,.06-.03.09-.12.1l-1.44.14c-.09,0-.14-.01-.14-.07-.02-.2.05-.39.22-.57Z"/>
    <path d="m220.4,226.09c-.27.39-.39.77-.34,1.14.04.37.23.67.57.91.35.24.71.31,1.08.22.37-.09.69-.33.97-.73.27-.39.38-.77.34-1.14-.04-.37-.24-.67-.59-.91-.34-.24-.7-.31-1.06-.22-.36.09-.68.33-.95.72Zm1.11-.31c.24-.07.47-.02.69.13.49.34.51.83.06,1.47-.21.3-.44.5-.69.58-.25.08-.49.04-.73-.12-.23-.16-.35-.37-.35-.63,0-.26.09-.54.3-.84l.04-.06c.21-.28.44-.45.67-.52Z"/>
    <path d="m217.85,226.52c.41.2.8.25,1.18.14.38-.11.66-.35.84-.72.08-.16.05-.28-.1-.35-.13-.07-.24-.02-.32.14-.08.17-.17.3-.27.38-.14.12-.31.19-.51.21-.2.02-.4-.02-.6-.12-.36-.18-.57-.45-.64-.82-.07-.37.02-.79.25-1.27.23-.47.51-.79.84-.96.33-.17.66-.17,1.01,0,.26.13.44.32.53.55.09.24.06.48-.07.72l-.09.19c-.08.15-.05.25.09.32.13.06.23.01.31-.14l.03-.05.07-.21c.04-.1.08-.2.12-.3.03-.07.1-.18.21-.35.08-.14.12-.22.14-.25.07-.15.05-.25-.06-.31-.11-.05-.19-.02-.25.1,0,0-.01.03-.04.11,0,0,0,.02,0,.04-.01.02-.02.04-.03.06l-.03.06c-.1-.42-.34-.72-.73-.92-.47-.23-.94-.25-1.4-.04-.46.21-.83.59-1.12,1.16-.27.55-.35,1.06-.24,1.53.12.47.41.82.88,1.06Z"/>
    <path d="m215.44,272.91s-.05.02-.07.02l-.19.08c-.1.04-.2.07-.31.1-.14.03-.24.06-.31.06l-.26.03s-.06,0-.09.02c-.2.05-.28.15-.24.29.03.13.13.18.28.14.04,0,.09-.03.15-.06.07-.03.12-.05.15-.06.09-.02.15.02.18.13h0c.02.1.03.2.03.33l.02,1.97-1-2.03c-.11-.21-.2-.35-.28-.41-.08-.06-.18-.08-.31-.05-.12.03-.2.09-.24.18-.04.09-.06.25-.05.49l.07,2.26-.91-1.74c-.06-.11-.1-.21-.12-.29-.03-.12,0-.2.11-.22.05-.01.1-.02.16,0,.08,0,.13-.02.16-.02.15-.04.21-.12.17-.26-.04-.14-.14-.19-.32-.14-.03,0-.13.05-.31.11-.14.06-.27.1-.38.13-.09.02-.17.04-.23.04l-.27.03s-.04,0-.07.01c-.18.05-.26.14-.22.29.03.13.12.18.25.15.02,0,.07-.02.13-.05.04-.03.08-.05.1-.05.08-.02.15.03.22.15l1.14,2.05c.13.24.29.33.48.28.12-.03.2-.09.25-.2.05-.1.07-.26.06-.47l-.06-2.25,1,2.05c.16.32.35.46.56.4.11-.03.19-.09.24-.18.05-.09.07-.24.07-.44l.02-1.68c0-.48.06-.74.17-.77,0,0,.05,0,.12,0,.03,0,.06,0,.11,0,.13-.03.18-.12.15-.25-.04-.14-.14-.19-.32-.14Z"/>
    <path d="m220.77,272.04c-.14.07-.16.19-.08.35.09.18.14.33.15.45.02.19-.03.38-.14.55-.11.18-.27.32-.47.42-.37.19-.73.2-1.07.03-.35-.17-.64-.5-.89-.99-.24-.48-.34-.91-.28-1.28.06-.37.27-.65.62-.83.27-.14.53-.17.78-.1s.44.24.56.5l.1.19c.07.15.18.2.32.13.13-.07.15-.18.07-.34l-.03-.05-.13-.19c-.06-.09-.12-.19-.17-.29-.03-.07-.09-.2-.16-.39-.07-.15-.11-.24-.12-.26-.08-.15-.17-.2-.29-.14-.11.06-.14.15-.07.27,0,0,.02.03.07.1,0,0,.01.01.03.03.01.02.02.04.03.06l.03.06c-.41-.18-.81-.16-1.21.04-.48.25-.78.62-.9,1.13-.11.51-.02,1.06.28,1.64.29.57.66.95,1.13,1.14.46.19.94.17,1.42-.08.42-.21.7-.51.84-.89.14-.38.11-.76-.08-1.14-.08-.17-.2-.21-.35-.14Z"/>
  </g>
</svg>