<?xml version="1.0" encoding="utf-8"?>
<!-- Generator: Adobe Illustrator 27.5.0, SVG Export Plug-In . SVG Version: 6.00 Build 0)  -->
<svg version="1.1" id="Layer_1" xmlns="http://www.w3.org/2000/svg" xmlns:xlink="http://www.w3.org/1999/xlink" x="0px" y="0px"
	 viewBox="0 0 453.5 453.5" style="enable-background:new 0 0 453.5 453.5;" xml:space="preserve">
<style type="text/css">
	.st0{fill:none;stroke:#FFFFFF;stroke-miterlimit:10;}
	.st1{opacity:0.85;}
	.st2{fill:#FFFFFF;}
</style>
<circle class="st0" cx="226.8" cy="226.8" r="212.5"/>
<circle class="st0" cx="227.3" cy="226.3" r="156"/>
<g class="st1">
	<path class="st2" d="M30.2,223.3l17.4-2.2l-20.8-5.6c-1.8-0.5-2.7-1.4-2.6-2.9c0.1-1.5,1-2.4,2.6-2.6l22-2.6l-16.6-4.6
		c-1.2-0.3-2.1-0.5-2.7-0.6c-1.1-0.1-1.7,0.5-1.8,1.6c0,0.2,0,0.6,0,1.1c0,0.5,0,0.8,0,1.1c-0.1,1.2-0.6,1.7-1.5,1.6
		c-0.9-0.1-1.3-0.7-1.3-1.8c0-0.4,0.1-0.9,0.2-1.3c0.4-2.2,0.7-3.6,0.7-4.4c0-0.5,0-1.4-0.1-2.4c-0.1-1.1-0.1-1.9-0.1-2.4
		c0.1-1,0.6-1.5,1.6-1.4c0.9,0.1,1.3,0.6,1.2,1.6c0,0.2-0.1,0.4-0.1,0.7s-0.1,0.6-0.1,0.7c0,0.6,0.1,1,0.6,1.3
		c0.4,0.3,1.4,0.7,2.9,1.1l19,5.9c1.5,0.4,2.2,1.3,2.1,2.7c-0.1,1.4-1.1,2.2-2.9,2.4L28,213l21.7,6c1.4,0.4,2.1,1.2,2,2.5
		c-0.1,1.3-0.9,2-2.4,2.3l-20.5,3.4c-1,0.2-1.8,0.4-2.1,0.8c-0.4,0.3-0.6,0.9-0.7,1.7l0,0.3l0.1,0.9c-0.1,0.9-0.5,1.3-1.5,1.2
		c-1-0.1-1.4-0.6-1.4-1.5c0-0.4,0.1-0.8,0.2-1.3c0.3-1.4,0.6-2.9,0.7-4.2c0-0.6,0-2.1-0.1-4.5c0-0.4,0-0.8,0-1.2
		c0.1-1,0.5-1.4,1.4-1.4c1,0.1,1.4,0.7,1.3,1.9c0,0.2-0.1,0.6-0.2,1.1s-0.1,0.9-0.2,1.1c-0.1,0.9,0.4,1.4,1.2,1.5c0.3,0,0.7,0,1.1,0
		L30.2,223.3z"/>
	<path class="st2" d="M29.8,183l7.6,2.1c-0.7-1.3-1.2-2.4-1.3-3.4c-0.2-1-0.1-2,0.2-3.2c0.6-2.3,1.7-3.9,3.3-5s3.5-1.3,5.6-0.8
		l6.6,1.7c1.5,0.4,2.4,0.6,2.6,0.6c1.3,0.2,2.1,0.1,2.2-0.5c0-0.2,0.1-0.5,0-1c0-0.2,0-0.4,0.1-0.6c0.2-1,0.8-1.4,1.7-1.1
		c0.9,0.2,1.2,1,0.9,2.2c-0.1,0.3-0.2,0.8-0.5,1.5c-0.4,1.1-0.7,1.9-0.9,2.6c-0.2,0.7-0.3,1.2-0.3,1.6c-0.1,1.1-0.2,1.9-0.3,2.1
		c-0.1,0.5-0.4,0.8-0.7,1.1c-0.4,0.2-0.7,0.3-1.2,0.2c-0.3-0.1-0.6-0.3-0.8-0.6c-0.2-0.3-0.2-0.7-0.1-1.1c0.1-0.3,0.2-0.6,0.5-1
		c0.1-0.2,0.2-0.4,0.3-0.6c0.2-0.8-0.5-1.4-2.3-1.9c-0.3-0.1-0.9-0.3-1.8-0.5l-1.7-0.4l-2.1-0.5c-2.7-0.7-4.5-0.9-5.6-0.6
		c-1.6,0.4-2.6,1.6-3.1,3.5c-0.5,2.1-0.2,3.8,1,5.1c0.8,0.9,2.3,1.6,4.4,2.2l2.8,0.7c0.2,0,0.4,0.2,0.8,0.4c0.3,0.1,0.6,0.1,0.8,0.2
		c1.5,0.4,2.4,0.6,2.6,0.6c1.3,0.2,2.1,0,2.2-0.7c0-0.2,0.1-0.5,0-1s0-0.7,0-0.9c0.2-0.9,0.8-1.2,1.6-1c1,0.2,1.3,0.9,1,2.1
		c-0.1,0.4-0.3,0.9-0.5,1.6c-0.4,1-0.6,1.8-0.8,2.5c-0.1,0.4-0.2,1.1-0.3,1.9c-0.2,1.1-0.3,1.8-0.3,2.1c-0.3,1.1-0.9,1.5-1.9,1.3
		c-0.8-0.2-1.1-0.8-0.8-1.8c0.1-0.4,0.2-0.6,0.3-0.7c0.2-0.4,0.4-0.7,0.4-0.9c0.1-0.4-0.2-0.8-1-1.2c-0.8-0.4-2.4-0.9-4.8-1.5
		l-7.1-1.8c-3.9-1-6.5-1.5-7.5-1.6s-1.7,0.1-1.8,0.7c0,0.2-0.1,0.5-0.1,0.9s0,0.7-0.1,0.9c-0.2,0.9-0.8,1.2-1.6,1
		c-0.4-0.1-0.6-0.3-0.8-0.7s-0.2-0.8-0.1-1.2c0-0.1,0.2-0.6,0.5-1.3c0.2-0.5,0.3-1,0.5-1.6c0.1-0.2,0.1-0.6,0.1-1
		c0-0.4,0.1-0.8,0.1-0.9C28.3,183,28.8,182.8,29.8,183L29.8,183z"/>
	<path class="st2" d="M55.8,149.8c1,0.4,1.5,0.7,1.7,0.9s0.1,0.6-0.1,1.2l-4.8,12c-0.1,0.3-0.2,0.6-0.1,0.7c0,0.1,0.2,0.2,0.4,0.3
		c1.9,0.8,3.7,0.8,5.4,0.2c1.7-0.6,2.9-1.8,3.6-3.5c0.4-1.1,0.5-2.2,0.3-3.4c-0.2-1.2-0.8-2.1-1.6-2.7l-1-0.8
		c-0.5-0.4-0.7-0.9-0.4-1.6c0.4-0.9,1-1.2,2-0.8c1.6,0.6,2.8,2.1,3.4,4.2s0.5,4.3-0.3,6.4c-1,2.6-2.8,4.4-5.2,5.2
		c-2.4,0.9-5.1,0.7-8.1-0.5c-3.1-1.2-5.2-3-6.5-5.5c-1.2-2.4-1.3-5-0.3-7.6c0.9-2.4,2.5-4,4.7-4.9C51,148.8,53.3,148.9,55.8,149.8z
		 M49.3,163.2c0.3,0.1,0.6-0.1,0.9-0.6l3.6-9c0.2-0.5,0.1-0.9-0.2-1c-1.3-0.5-2.7-0.5-4.1,0.1c-1.4,0.6-2.3,1.6-2.9,3
		c-0.6,1.4-0.6,2.9,0,4.5C47.2,161.6,48.1,162.7,49.3,163.2z"/>
	<path class="st2" d="M53.9,137.7l1,0.5c-1.1-2.2-1.1-4.3,0.1-6.4c0.9-1.7,2.1-2.8,3.6-3.3c1.5-0.5,3-0.4,4.5,0.4
		c1,0.6,1.8,1.3,2.1,2.2c0.4,0.9,0.3,1.8-0.1,2.6c-0.3,0.6-0.7,0.9-1.2,1.1c-0.5,0.2-1,0.2-1.5-0.1c-0.4-0.2-0.6-0.5-0.8-1
		c-0.1-0.4-0.1-0.9,0.1-1.2c0-0.1,0.2-0.2,0.4-0.4c-0.2-0.3-0.4-0.5-0.7-0.6c-0.7-0.4-1.4-0.4-2.2,0c-0.8,0.4-1.5,1-1.9,1.9
		c-1,1.9-0.8,3.6,0.5,5.1c0.8,0.9,2.3,2,4.3,3.1l2.4,1.3c1.6,0.9,2.5,1.3,2.7,1.4c1.4,0.6,2.3,0.6,2.6,0c0.2-0.3,0.3-0.6,0.4-1
		c0.1-0.3,0.2-0.5,0.3-0.7c0.4-0.8,1-0.9,1.7-0.5c0.8,0.4,1,1.1,0.4,2.1l-0.1,0.1c-0.2,0.4-0.5,0.9-1,1.6c-0.5,0.7-0.8,1.2-1,1.6
		c-0.5,0.9-0.9,1.7-1.1,2.3l-0.9,2.1c-0.5,1-1.2,1.2-2,0.8c-0.7-0.4-0.9-1.1-0.4-2c0.1-0.2,0.2-0.4,0.3-0.5l0.4-0.5
		c0.2-0.2,0.3-0.4,0.3-0.5c0.3-0.6-0.1-1.2-1.1-1.9l-1.8-1l-8.2-4.3c-1.5-0.7-2.3-0.7-2.7-0.1c-0.1,0.2-0.2,0.5-0.3,0.9
		c-0.1,0.4-0.2,0.6-0.3,0.9c-0.4,0.8-1,1-1.8,0.6c-0.8-0.4-1-1.2-0.4-2.2c0.1-0.2,0.3-0.6,0.7-1s0.5-0.8,0.7-1
		c0.1-0.2,0.2-0.5,0.4-1c0-0.2,0.1-0.5,0.3-0.7C52.7,137.5,53.2,137.4,53.9,137.7z"/>
	<path class="st2" d="M77.7,113.4c0.8,0.6,1.3,1,1.4,1.2s0,0.6-0.4,1.2l-7.4,10.6c-0.2,0.3-0.3,0.5-0.3,0.7c0,0.1,0.1,0.3,0.3,0.4
		c1.7,1.2,3.4,1.6,5.2,1.4s3.2-1.1,4.3-2.6c0.7-1,1-2.1,1.1-3.2c0-1.2-0.3-2.2-0.9-3l-0.8-1c-0.4-0.5-0.4-1.1,0-1.7
		c0.6-0.8,1.3-0.9,2.1-0.4c1.4,1,2.2,2.6,2.3,4.9c0.1,2.2-0.5,4.3-1.8,6.2c-1.6,2.3-3.7,3.6-6.2,3.9c-2.5,0.3-5.1-0.5-7.8-2.3
		c-2.7-1.9-4.4-4.2-5.1-6.8c-0.7-2.6-0.2-5.2,1.4-7.5c1.4-2.1,3.3-3.3,5.7-3.7C73.3,111.3,75.6,111.9,77.7,113.4z M68.4,124.9
		c0.3,0.2,0.6,0.1,1-0.4l5.5-8c0.3-0.5,0.3-0.8,0-1c-1.2-0.8-2.5-1.1-4-0.8s-2.7,1-3.5,2.2c-0.9,1.2-1.2,2.7-1,4.3
		C66.7,122.9,67.3,124.1,68.4,124.9z"/>
	<path class="st2" d="M97.7,97c-0.1-0.1-0.2-0.3-0.5-0.6c-0.3-0.3-0.6-0.6-0.8-0.8L82,92.1c-0.9-0.2-1.5-0.3-1.7-0.3
		c-0.6,0-1.1,0.2-1.5,0.6c-0.2,0.2-0.4,0.4-0.4,0.6c-0.1,0.1-0.2,0.1-0.3,0.2c-0.1,0.1-0.2,0.2-0.3,0.3c-0.9,0.9-1.7,0.9-2.3,0.3
		c-0.7-0.7-0.6-1.4,0.2-2.2c0.3-0.3,0.7-0.6,1.3-1c1.1-0.7,2-1.5,2.9-2.3c0.6-0.6,1.4-1.5,2.5-2.9c0.3-0.4,0.7-0.8,1-1.1
		c0.8-0.8,1.5-0.8,2.2-0.2c0.6,0.7,0.4,1.4-0.5,2.3l-0.3,0.3l-0.7,0.7L83.3,88c-0.2,0.2-0.3,0.4-0.1,0.6c0.1,0.1,0.1,0.1,0.2,0.1
		c0.1,0,0.2,0.1,0.4,0.1l11.8,3.3l-2.8-12c-0.1-0.2-0.2-0.4-0.3-0.6c-0.2-0.2-0.4-0.1-0.6,0.1l-0.1,0.1l-0.4,0.6l-0.7,0.8
		c-0.3,0.3-0.5,0.6-0.7,0.8c-0.8,0.8-1.5,0.8-2.2,0.1c-0.7-0.7-0.6-1.4,0.2-2.2c0.3-0.3,0.7-0.6,1.1-0.9c1.2-0.9,2.3-1.7,3.1-2.5
		c0.8-0.8,1.7-1.8,2.6-2.9c0.3-0.4,0.6-0.8,0.9-1c0.7-0.7,1.4-0.7,2.1,0c0.6,0.6,0.5,1.3-0.2,2c-0.3,0.3-0.5,0.5-0.7,0.6
		c-0.3,0.3-0.6,0.4-0.7,0.6c-0.5,0.5-0.7,1.1-0.6,1.9l0.2,1.1l2.9,14.6l1.2,1.2c1.9,2,3.2,3.2,3.8,3.5c0.6,0.3,1.3,0.2,1.9-0.5
		c0.2-0.2,0.4-0.4,0.7-0.8s0.5-0.6,0.7-0.8c0.6-0.6,1.2-0.6,1.8,0.1c0.7,0.7,0.6,1.5-0.3,2.3c0,0-0.1,0.1-0.2,0.2
		c-0.1,0.1-0.2,0.1-0.2,0.2l-1.8,1.3c-0.7,0.5-1.3,1-1.9,1.6c-0.6,0.6-1.2,1.2-1.7,1.8l-1.3,1.6c0,0-0.1,0.1-0.2,0.2
		c-0.1,0.1-0.2,0.2-0.2,0.2c-0.9,0.8-1.7,0.9-2.3,0.2c-0.6-0.7-0.6-1.3,0-1.9c0.2-0.2,0.4-0.3,0.8-0.6s0.6-0.4,0.8-0.6
		c0.8-0.8,0.8-1.8,0-3C100,99.4,99.2,98.5,97.7,97z"/>
	<path class="st2" d="M120.8,88.8c-2.3,1.7-4.7,2.3-7.2,1.7c-2.5-0.6-4.8-2.2-6.8-4.8s-2.9-5.3-2.7-7.9c0.2-2.6,1.5-4.8,3.8-6.5
		c2.4-1.8,4.8-2.4,7.3-1.9c2.5,0.5,4.8,2.1,6.8,4.8s2.9,5.3,2.7,8C124.4,84.8,123.1,87.1,120.8,88.8z M109.5,73.4
		c-1.5,1.1-2.3,2.6-2.4,4.3s0.6,3.6,1.9,5.6l0.3,0.4c1.5,2,3.2,3.3,4.9,3.8c1.7,0.5,3.4,0.2,4.9-0.9c1.6-1.2,2.4-2.7,2.4-4.5
		c0-1.8-0.7-3.8-2.3-5.8C116.1,71.9,112.8,71,109.5,73.4z"/>
	<path class="st2" d="M144,72.1l-0.6-1.1c-0.3,2.4-1.7,4.3-4.1,5.7c-2.8,1.6-5.2,1.8-7.3,0.7c-0.9-0.5-1.6-1.2-2.3-2.2
		c-0.3-0.5-0.9-1.5-1.8-3.1l-1.7-2.9c-1.8-3.2-3.1-4.7-3.8-4.3c-0.1,0.1-0.4,0.2-0.7,0.4c-0.3,0.2-0.5,0.4-0.7,0.4
		c-0.8,0.5-1.5,0.3-1.9-0.4c-0.4-0.8-0.1-1.4,0.9-2c0.2-0.1,0.6-0.3,1.1-0.5s0.9-0.4,1.1-0.5c0.2-0.1,0.6-0.4,1-0.7
		c0.3-0.2,0.5-0.4,0.6-0.4c0.7-0.4,1.3-0.2,1.9,0.7l0.4,0.8l1.3,2.3l1.4,2.7l1.3,2.3c1.1,2.1,2.1,3.4,3,4.2c1.4,1.2,3.1,1.2,5.1,0.1
		c1-0.6,1.8-1.3,2.3-2.2c0.5-0.9,0.7-1.8,0.6-2.7c-0.1-1.1-0.9-3-2.4-5.6l-1.1-2c-0.8-1.4-1.2-2.2-1.3-2.3c-0.8-1.1-1.4-1.5-1.9-1.2
		c-0.3,0.2-0.5,0.3-0.6,0.4l-0.4,0.2c-0.8,0.5-1.4,0.3-1.8-0.4c-0.4-0.8-0.2-1.5,0.7-2c0.2-0.1,0.6-0.3,1-0.5c0.5-0.2,0.8-0.4,1-0.5
		c0.2-0.1,0.5-0.3,0.8-0.5c0.4-0.3,0.6-0.4,0.8-0.5c0.7-0.4,1.3-0.2,1.7,0.5c0.2,0.3,0.3,0.6,0.4,0.8c0.4,1,1.1,2.3,2.1,4.1l3.1,5.5
		c0.8,1.4,1.3,2.2,1.4,2.4c0.8,1.2,1.5,1.6,2.1,1.3c0.2-0.1,0.4-0.2,0.7-0.5c0.3-0.2,0.5-0.4,0.7-0.5c0.8-0.4,1.4-0.3,1.9,0.5
		c0.4,0.8,0.2,1.5-0.8,2c-0.2,0.1-0.5,0.3-1,0.4c-0.6,0.3-1,0.4-1.2,0.5c-0.1,0-0.3,0.2-0.7,0.5c-0.2,0.2-0.5,0.4-0.7,0.5
		C144.9,73,144.4,72.8,144,72.1z"/>
	<path class="st2" d="M149.9,49.4l0.4,1c0.6-2.4,1.9-4,4.1-4.9c1.8-0.7,3.4-0.8,4.9-0.2c1.5,0.5,2.6,1.6,3.2,3.2
		c0.4,1.1,0.5,2.1,0.3,3s-0.9,1.6-1.8,1.9c-0.6,0.2-1.1,0.3-1.7,0.1s-0.9-0.5-1.1-1c-0.2-0.4-0.2-0.8,0-1.3c0.2-0.4,0.5-0.7,0.9-0.9
		c0.1,0,0.2-0.1,0.5-0.1c0-0.4,0-0.7-0.1-0.9c-0.3-0.7-0.9-1.2-1.7-1.5c-0.8-0.2-1.7-0.2-2.7,0.2c-2,0.8-2.9,2.2-2.9,4.2
		c0,1.2,0.5,3,1.4,5.1l1,2.5c0.7,1.7,1.1,2.6,1.2,2.8c0.7,1.4,1.4,1.9,2,1.7c0.3-0.1,0.6-0.3,1-0.5c0.2-0.2,0.5-0.3,0.7-0.4
		c0.8-0.3,1.4-0.1,1.7,0.7c0.4,0.9,0,1.5-1,1.9l-0.1,0.1c-0.4,0.2-1,0.3-1.8,0.6c-0.8,0.2-1.4,0.4-1.8,0.6c-1,0.4-1.8,0.8-2.3,1
		l-2,1c-1,0.4-1.7,0.2-2.1-0.7c-0.3-0.8,0-1.4,1-1.8c0.2-0.1,0.4-0.2,0.6-0.2l0.6-0.1c0.3-0.1,0.5-0.1,0.6-0.1
		c0.6-0.3,0.7-1,0.3-2.2l-0.8-1.9l-3.6-8.5c-0.7-1.5-1.4-2-2-1.8c-0.2,0.1-0.5,0.2-0.8,0.5c-0.3,0.2-0.6,0.4-0.8,0.5
		c-0.8,0.3-1.4,0.1-1.7-0.7c-0.4-0.9,0-1.5,1.1-2c0.2-0.1,0.6-0.2,1.2-0.4s0.9-0.3,1.2-0.4c0.2-0.1,0.5-0.2,0.9-0.5
		c0.2-0.1,0.4-0.3,0.7-0.4C149.1,48.5,149.6,48.7,149.9,49.4z"/>
	<path class="st2" d="M197,34.5c0.5,2.7-0.6,4.9-3.5,6.7c1.2,0.1,2.2,0.3,3,0.6c2.4,0.8,3.9,2.5,4.4,5c0.5,2.5-0.1,4.6-1.7,6.4
		c-1.6,1.8-4,3-7.1,3.7c-1.1,0.2-2.6,0.5-4.4,0.7c-1.8,0.2-3.1,0.4-3.9,0.6c-0.7,0.1-1.4,0.3-2,0.5l-1.8,0.6c-0.1,0-0.1,0-0.3,0.1
		c-0.1,0-0.2,0-0.3,0.1c-1.1,0.2-1.8-0.2-2-1.1c-0.2-0.8,0.2-1.4,1-1.5c0.2,0,0.6-0.1,1.1-0.1c0.4,0,0.6,0,0.9-0.1
		c1.4-0.3,1.8-1.4,1.4-3.3l-3.2-16c-0.4-2-1.3-2.9-2.6-2.6c-0.2,0-0.5,0.1-0.8,0.2c-0.5,0.2-0.8,0.3-1.1,0.3c-0.8,0.2-1.3-0.2-1.5-1
		c-0.2-0.9,0.3-1.5,1.6-1.8l0.5-0.1l2-0.1c0.6,0,1.3-0.1,2.3-0.3c1-0.2,2.4-0.6,4.3-1.1c1.2-0.4,2.6-0.7,4-1
		c2.7-0.5,4.9-0.4,6.6,0.5C195.6,31.1,196.6,32.5,197,34.5z M182.1,39.3c0.3,1.4,0.6,2.2,0.9,2.5c0.3,0.3,1.1,0.3,2.2,0.1l2.2-0.4
		c4.7-0.9,6.8-2.9,6.1-6c-0.6-2.8-2.8-3.8-6.6-3c-2.7,0.5-4.4,1-4.9,1.5c-0.6,0.5-0.7,1.4-0.4,2.9L182.1,39.3z M183.7,47.4l0.9,4.4
		c0.3,1.7,0.9,2.7,1.5,3c0.7,0.3,2.3,0.2,4.9-0.3c5-1,7.1-3.3,6.4-7.1c-0.7-3.4-3.4-4.7-8.2-3.7l-3.3,0.7c-1.4,0.3-2.2,0.8-2.3,1.5
		C183.5,46.1,183.6,46.7,183.7,47.4z"/>
	<path class="st2" d="M222.9,41.5c0.1,1,0,1.7-0.1,1.9s-0.5,0.4-1.2,0.4l-12.9,0.8c-0.4,0-0.6,0.1-0.7,0.2c-0.1,0.1-0.1,0.3-0.1,0.5
		c0.1,2,0.8,3.7,2.1,5c1.3,1.3,2.9,1.9,4.7,1.8c1.2-0.1,2.3-0.5,3.2-1.2s1.5-1.6,1.8-2.6L220,47c0.1-0.7,0.6-1,1.3-1
		c1-0.1,1.5,0.4,1.6,1.5c0.1,1.8-0.7,3.4-2.4,4.8s-3.7,2.3-6,2.4c-2.8,0.2-5.2-0.7-6.9-2.5s-2.8-4.3-3-7.5c-0.2-3.3,0.5-6,2.2-8.2
		c1.7-2.2,3.9-3.3,6.8-3.5c2.5-0.2,4.7,0.6,6.4,2.2C221.8,36.7,222.7,38.8,222.9,41.5z M208.1,41.3c0,0.4,0.3,0.5,0.9,0.5l9.7-0.6
		c0.6,0,0.8-0.2,0.8-0.6c-0.1-1.4-0.7-2.7-1.8-3.6c-1.1-1-2.4-1.5-3.9-1.4c-1.5,0.1-2.9,0.7-4,1.9C208.5,38.6,208,39.9,208.1,41.3z"
		/>
	<path class="st2" d="M245,42.6c-0.1,1-0.2,1.7-0.3,1.9c-0.1,0.2-0.6,0.3-1.2,0.3l-12.9-0.8c-0.4,0-0.6,0-0.7,0.1
		c-0.1,0.1-0.2,0.2-0.2,0.5c-0.1,2,0.4,3.8,1.5,5.2c1.1,1.4,2.6,2.2,4.4,2.3c1.2,0.1,2.3-0.2,3.3-0.8s1.7-1.4,2.1-2.4l0.4-1.2
		c0.2-0.6,0.7-0.9,1.4-0.9c1,0.1,1.5,0.6,1.4,1.6c-0.1,1.8-1.1,3.3-3,4.5s-3.9,1.8-6.2,1.7c-2.8-0.2-5-1.3-6.6-3.3
		c-1.6-2-2.2-4.6-2-7.8c0.2-3.3,1.3-5.9,3.2-7.9c1.9-2,4.3-2.8,7.2-2.7c2.5,0.2,4.6,1.1,6.1,3C244.4,37.8,245.1,40,245,42.6z
		 M230.3,40.6c0,0.4,0.3,0.6,0.9,0.6l9.7,0.6c0.6,0,0.9-0.1,0.9-0.5c0.1-1.4-0.4-2.7-1.4-3.8c-1-1.1-2.3-1.7-3.7-1.8
		c-1.5-0.1-2.9,0.4-4.2,1.4C231.1,38.1,230.4,39.3,230.3,40.6z"/>
	<path class="st2" d="M255.9,37.1l-0.2,1.1c1.7-1.7,3.8-2.3,6.1-1.9c1.9,0.3,3.3,1.1,4.3,2.4c1,1.3,1.3,2.7,1,4.4
		c-0.2,1.2-0.7,2.1-1.4,2.7c-0.7,0.6-1.6,0.9-2.5,0.7c-0.6-0.1-1.1-0.4-1.5-0.8s-0.5-0.9-0.4-1.5c0.1-0.4,0.3-0.8,0.7-1
		c0.4-0.3,0.8-0.4,1.2-0.3c0.1,0,0.2,0.1,0.5,0.2c0.2-0.3,0.4-0.6,0.4-0.8c0.1-0.8-0.1-1.5-0.7-2.1c-0.6-0.7-1.4-1.1-2.4-1.3
		c-2.1-0.4-3.6,0.3-4.7,2c-0.6,1.1-1.2,2.8-1.6,5.1l-0.5,2.6c-0.3,1.8-0.5,2.8-0.5,3c-0.1,1.5,0.1,2.4,0.8,2.5
		c0.4,0.1,0.7,0.1,1.1,0.1c0.3,0,0.6,0,0.8,0c0.9,0.2,1.2,0.7,1,1.5c-0.2,0.9-0.8,1.3-1.9,1.1l-0.2,0c-0.4-0.1-1-0.2-1.8-0.5
		s-1.4-0.4-1.8-0.5c-1.1-0.2-1.9-0.3-2.5-0.4l-2.3-0.2c-1.1-0.2-1.6-0.8-1.4-1.7c0.1-0.8,0.7-1.2,1.8-1c0.3,0,0.5,0.1,0.6,0.2
		l0.6,0.2c0.3,0.1,0.4,0.2,0.6,0.2c0.7,0.1,1.1-0.4,1.4-1.6l0.4-2l1.5-9.1c0.2-1.6-0.1-2.5-0.8-2.6c-0.2,0-0.5,0-0.9,0s-0.7,0-0.9,0
		c-0.9-0.2-1.2-0.7-1.1-1.5c0.2-0.9,0.8-1.3,2-1.1c0.3,0,0.7,0.2,1.2,0.3c0.5,0.2,0.9,0.3,1.2,0.3c0.2,0,0.6,0.1,1.1,0.1
		c0.2,0,0.5,0,0.8,0C255.7,35.9,256,36.3,255.9,37.1z"/>
	<path class="st2" d="M279.5,40.7c1.7,0.5,3,1.4,3.9,2.7l0-0.2c0.3-1,0.9-1.3,1.7-1.1c0.9,0.3,1.2,0.8,0.9,1.6
		c0,0.2-0.2,0.5-0.4,1.2c-0.2,0.5-0.4,1-0.6,1.5c-0.1,0.3-0.2,0.8-0.3,1.4c-0.1,0.6-0.2,1.1-0.3,1.4c-0.3,1-0.9,1.3-1.7,1.1
		c-0.8-0.2-1.1-0.8-0.9-1.6l0.4-1.3c0.2-0.8,0-1.6-0.8-2.4c-0.7-0.8-1.6-1.4-2.8-1.8c-1.2-0.4-2.3-0.3-3.3,0c-1,0.4-1.6,1-1.9,1.9
		c-0.5,1.7,0.4,3,2.5,4l2.2,1c4.2,1.9,5.9,4.4,5,7.5c-0.6,1.9-1.7,3.2-3.5,3.9s-3.8,0.8-6.1,0.1c-2.1-0.6-3.8-1.8-5-3.5
		c-0.1,0.3-0.1,0.5-0.2,0.7c-0.3,0.9-0.9,1.3-1.7,1c-1-0.3-1.3-1-1-2c0,0.2,0.2-0.5,0.8-2c0.2-0.3,0.3-0.7,0.4-1.1
		c0.2-0.6,0.3-1.2,0.4-1.8c0.1-0.6,0.1-1,0.2-1.3c0.3-0.9,0.8-1.2,1.6-1c0.5,0.2,0.9,0.4,0.9,0.7c0.1,0.3-0.1,1-0.4,2.1
		c-0.3,1.1,0,2.2,0.9,3.2s2.3,1.8,4,2.3c1.3,0.4,2.4,0.4,3.5,0c1-0.4,1.7-1.1,2-2.1c0.5-1.8-0.6-3.2-3.3-4.3
		c-2.6-1.1-4.5-2.2-5.6-3.4c-1.2-1.2-1.5-2.7-0.9-4.7c0.5-1.8,1.7-3.1,3.4-3.8C275.4,40.1,277.3,40,279.5,40.7z"/>
	<path class="st2" d="M316,47.9c2.7,1.3,4.4,3.5,5.1,6.4l0.2-0.4c0.1-0.1,0.1-0.3,0.2-0.4c0-0.2,0-0.3,0.1-0.3
		c0.2-0.6,0.3-0.8,0.3-0.8c0.4-0.8,1-1.1,1.8-0.7c0.8,0.4,1,1.1,0.4,2.1c-0.1,0.2-0.4,0.8-0.9,1.7c-0.8,1.1-1.2,1.9-1.5,2.4
		c-0.3,0.7-0.6,1.3-0.9,2.1l-0.5,1.5l-0.2,0.4c-0.5,1.1-1.2,1.4-2.1,1c-1-0.5-1.1-1.2-0.6-2.2l0.6-1.3c0.9-1.7,1.1-3.4,0.5-5
		s-1.8-2.9-3.7-3.8c-2.4-1.2-4.7-1.2-7,0c-2.3,1.2-4.2,3.4-5.8,6.6c-1.6,3.3-2.2,6.3-1.8,8.8c0.5,2.6,2,4.4,4.5,5.7
		c1.4,0.7,2.7,0.9,4.1,0.8c1.4-0.1,2.6-0.6,3.6-1.5c0.6-0.6,1.3-1.4,1.9-2.6c0.5-1.1,1.3-1.4,2.2-1c1,0.5,1.2,1.3,0.7,2.4
		c-1.3,2.6-3.2,4.3-5.9,5s-5.3,0.4-8.2-1c-3.3-1.6-5.3-4.1-6.1-7.3c-0.8-3.3-0.3-6.8,1.6-10.7c2-4,4.5-6.7,7.8-8.1
		C309.5,46.1,312.7,46.2,316,47.9z"/>
	<path class="st2" d="M322.2,85c-2.3-1.6-3.6-3.7-3.9-6.3s0.5-5.2,2.4-8c1.9-2.7,4.1-4.4,6.6-5c2.5-0.6,5-0.1,7.4,1.5
		c2.4,1.7,3.8,3.8,4.1,6.3c0.3,2.6-0.5,5.2-2.4,7.9c-1.9,2.7-4.1,4.4-6.7,5.1C327.1,87.2,324.7,86.7,322.2,85z M333.2,69.5
		c-1.6-1.1-3.2-1.4-4.8-0.9c-1.6,0.5-3.2,1.7-4.7,3.6l-0.3,0.4c-1.5,2.1-2.1,4-2.1,5.8c0,1.8,0.9,3.2,2.5,4.3
		c1.6,1.1,3.3,1.4,5.1,0.9c1.8-0.6,3.4-1.9,4.8-4C336.8,75.2,336.6,71.8,333.2,69.5z"/>
	<path class="st2" d="M350.3,81.3l-0.8,0.8c1.5-0.2,2.7-0.1,3.7,0.2c0.9,0.3,1.9,0.9,2.8,1.8c1.9,1.8,2.6,4,2,6.3
		c1.5-0.2,2.7-0.1,3.7,0.2c1,0.3,2,1,3.1,2.1c1.1,1.1,1.9,2.3,2.3,3.6c0.5,1.5,0.4,2.9-0.2,4.2c-0.4,0.9-1.2,2-2.6,3.4l-2.8,2.8
		l-2.1,2.2c-0.8,0.8-1.2,1.3-1.4,1.5c-0.6,0.8-0.7,1.4-0.3,1.8c0.1,0.1,0.4,0.3,0.7,0.5c0.3,0.2,0.6,0.4,0.7,0.5
		c0.7,0.7,0.7,1.3,0.2,1.9c-0.7,0.7-1.4,0.6-2.2-0.1c-0.3-0.3-0.7-0.8-1.2-1.4c-0.5-0.7-0.9-1.1-1.2-1.4c-0.3-0.3-0.8-0.8-1.5-1.3
		c-0.7-0.6-1.2-1-1.5-1.3c-0.8-0.8-0.9-1.5-0.2-2.2c0.6-0.6,1.2-0.6,1.8,0c0.1,0.1,0.2,0.3,0.5,0.6c0.1,0.2,0.2,0.3,0.4,0.5
		c0.3,0.3,0.7,0.4,1.1,0.1c0.4-0.2,1.3-1,2.6-2.3l1.7-1.8l1.9-1.9c1.3-1.3,2.2-2.4,2.5-3.2c0.4-0.8,0.5-1.7,0.3-2.6
		s-0.7-1.7-1.4-2.4c-1.4-1.3-2.8-1.8-4.3-1.4c-1.2,0.3-2.7,1.4-4.5,3.3l-2,2.1c-1.8,1.8-2.9,3-3.2,3.6s-0.4,1,0,1.3
		c0.1,0.1,0.3,0.3,0.6,0.4c0.3,0.2,0.5,0.3,0.6,0.4c0.3,0.3,0.4,0.6,0.4,0.9s-0.1,0.7-0.4,0.9c-0.6,0.6-1.4,0.5-2.3-0.4
		c-0.3-0.3-0.7-0.7-1.2-1.4s-0.9-1.1-1.2-1.4c-0.4-0.4-0.9-0.8-1.5-1.2s-1-0.8-1.4-1.1c-0.8-0.8-0.9-1.5-0.2-2.2
		c0.6-0.6,1.2-0.6,1.8-0.1c0.2,0.2,0.4,0.4,0.4,0.6c0.2,0.3,0.4,0.6,0.5,0.7c0.5,0.5,1.2,0.2,2.2-0.8l1.4-1.3
		c0.4-0.4,0.8-0.8,1.2-1.3c0.3-0.3,0.5-0.5,0.5-0.6l2.4-2.4c1.7-1.7,2.6-3.1,2.8-4.2s-0.3-2.2-1.5-3.4c-1.3-1.2-2.7-1.7-4.3-1.5
		c-1.3,0.2-2.9,1.3-4.7,3.2l-3.8,3.9c-0.8,0.8-1.2,1.2-1.3,1.4c-0.6,0.7-0.7,1.3-0.3,1.6c0.1,0.1,0.4,0.2,0.8,0.4
		c0,0,0.1,0.1,0.2,0.1c0.1,0.1,0.1,0.1,0.2,0.2c0.8,0.7,0.8,1.4,0.2,2.1c-0.6,0.6-1.3,0.5-2.2-0.3c-0.3-0.3-0.7-0.8-1.1-1.3
		c-0.6-0.7-1.1-1.3-1.6-1.8c-0.2-0.2-0.7-0.6-1.4-1.2c-0.9-0.7-1.5-1.2-1.6-1.4c-0.8-0.8-0.8-1.5-0.2-2.1c0.6-0.6,1.3-0.5,2,0.2
		c0,0,0.1,0.1,0.2,0.2c0.1,0.1,0.1,0.2,0.1,0.2l0.6,0.9c0,0,0,0.1,0.1,0.1c0.5,0.5,1.3,0.3,2.2-0.6l1.6-1.7l4.3-4.4
		c1.6-1.7,2.6-2.7,2.9-3.2s0.3-0.9-0.1-1.3c-0.1-0.1-0.4-0.3-1-0.7c-0.2-0.2-0.4-0.3-0.5-0.4c-0.7-0.7-0.8-1.4-0.2-2
		c0.6-0.7,1.4-0.6,2.2,0.2c0.2,0.2,0.5,0.5,0.8,0.9c0.3,0.4,0.6,0.7,0.9,1c0.1,0.1,0.2,0.2,0.3,0.3s0.2,0.2,0.2,0.2l0.8,0.6l0.1,0.1
		C350.9,80.3,350.9,80.8,350.3,81.3z"/>
	<path class="st2" d="M378.8,124.8c-0.8,0.6-1.4,0.9-1.6,0.9c-0.3,0-0.6-0.2-1-0.8l-7.6-10.4c-0.2-0.3-0.4-0.4-0.5-0.5
		c-0.1,0-0.3,0-0.5,0.1c-1.6,1.2-2.6,2.7-3,4.5s0,3.4,1,4.9c0.7,1,1.6,1.7,2.7,2.1c1.1,0.4,2.2,0.4,3.1,0.1l1.2-0.4
		c0.6-0.2,1.2-0.1,1.6,0.5c0.6,0.8,0.5,1.5-0.4,2.1c-1.4,1-3.2,1.2-5.4,0.6c-2.2-0.6-3.9-1.9-5.3-3.7c-1.7-2.3-2.2-4.7-1.7-7.2
		c0.5-2.5,2.1-4.7,4.7-6.6c2.7-1.9,5.4-2.8,8.1-2.6s4.9,1.5,6.6,3.8c1.5,2.1,2.1,4.3,1.7,6.6C382.1,121.3,380.9,123.2,378.8,124.8z
		 M370.9,112.2c-0.3,0.2-0.3,0.6,0.1,1.1l5.7,7.8c0.3,0.5,0.7,0.6,1,0.3c1.2-0.8,1.8-2,2.1-3.5c0.2-1.5-0.1-2.8-1-4
		c-0.9-1.2-2.2-2-3.8-2.4C373.4,111.2,372,111.4,370.9,112.2z"/>
	<path class="st2" d="M385.8,151.3c-1.8,0.9-2.5,1.9-1.9,3.2c0.1,0.2,0.3,0.5,0.5,0.8c0.2,0.4,0.4,0.6,0.5,0.8c0.1,0.3,0.2,0.6,0,1
		c-0.1,0.3-0.3,0.6-0.7,0.7c-0.9,0.4-1.5,0.1-2.1-1c0-0.1-0.1-0.1-0.1-0.2c0-0.1-0.1-0.2-0.1-0.3l-0.6-1.9c-0.2-0.7-0.5-1.5-1-2.4
		c-0.4-0.9-0.9-1.7-1.3-2.4L378,148c0-0.1-0.1-0.1-0.2-0.2c-0.1-0.1-0.1-0.2-0.1-0.3c-0.5-1.1-0.3-1.8,0.5-2.2
		c0.8-0.4,1.4-0.2,1.7,0.6c0.1,0.2,0.2,0.5,0.3,0.9c0.1,0.4,0.2,0.7,0.3,0.9c0.6,1.2,1.8,1.4,3.6,0.5l2.6-1.2l3.2-1.5l3.1-1.5l6-2.8
		c1.7-0.8,2.2-2.1,1.3-3.9l-0.5-1.1c-0.8-1.8-2.1-2.2-3.8-1.4c-0.6,0.3-1,0.5-1.2,0.6l-1.3,0.8c-0.2,0.1-0.5,0.3-0.9,0.5
		c-1.5,0.7-2.5,0.6-3-0.3c-0.4-0.9-0.1-1.6,1-2.2c0.3-0.1,0.9-0.4,1.7-0.7c1.2-0.5,2-0.8,2.3-0.9c0.6-0.3,1.2-0.6,1.9-1
		c1.3-0.7,1.8-1,1.6-0.9c1-0.5,1.8-0.3,2.2,0.7c0.2,0.3,0.5,1.1,1,2.4c0.1,0.1,0.5,1.1,1.3,3.1l2,4.2c0.2,0.5,0.9,1.8,1.9,3.9
		c0.2,0.5,0.6,1.2,1.2,2.3c0.5,1,0.9,1.7,1.2,2.3c0.6,1.2,0.4,2.1-0.6,2.6l-0.1,0c-0.2,0.1-0.7,0.3-1.4,0.6s-1.4,0.5-2.2,0.8
		l-0.4,0.2c-0.4,0.2-0.9,0.5-1.7,0.9c-1,0.6-1.6,0.9-1.8,1.1c-1,0.5-1.7,0.2-2.2-0.7c-0.4-0.9,0-1.7,1.2-2.3c0.4-0.2,1.1-0.5,2-0.8
		s1.6-0.6,2-0.8c1.7-0.8,2.1-2.2,1.2-4.1l-0.5-1c-0.4-0.9-0.9-1.5-1.5-1.7c-0.6-0.2-1.3-0.1-2.2,0.2l-2.6,1.1L385.8,151.3z"/>
	<path class="st2" d="M406.1,165.1l-1.1,0.3c2.3,0.7,3.8,2.2,4.6,4.5c0.6,1.8,0.5,3.4-0.1,4.9c-0.6,1.4-1.8,2.4-3.4,3
		c-1.1,0.4-2.1,0.4-3,0.1s-1.5-1-1.8-1.9c-0.2-0.6-0.2-1.1,0-1.7c0.2-0.5,0.6-0.9,1.1-1.1c0.4-0.1,0.8-0.1,1.2,0.1
		c0.4,0.2,0.7,0.5,0.8,0.9c0,0.1,0,0.3,0,0.5c0.4,0.1,0.7,0,0.9,0c0.8-0.2,1.3-0.8,1.6-1.6c0.3-0.8,0.3-1.7,0-2.7
		c-0.6-2-2-3.1-4-3.1c-1.2-0.1-3,0.3-5.2,1l-2.5,0.8c-1.7,0.6-2.7,0.9-2.9,1c-1.4,0.6-2,1.2-1.8,1.9c0.1,0.3,0.3,0.7,0.5,1
		c0.2,0.3,0.3,0.5,0.3,0.7c0.3,0.8,0,1.4-0.8,1.6c-0.9,0.3-1.5-0.1-1.9-1.1l0-0.1c-0.1-0.4-0.3-1-0.4-1.8s-0.3-1.4-0.4-1.8
		c-0.3-1-0.6-1.8-0.9-2.4l-0.9-2.1c-0.3-1.1-0.1-1.7,0.8-2c0.8-0.3,1.4,0.1,1.7,1.1c0.1,0.3,0.1,0.5,0.1,0.6l0.1,0.6
		c0,0.3,0.1,0.5,0.1,0.6c0.2,0.6,0.9,0.8,2.1,0.5l2-0.6l8.7-3c1.5-0.6,2.1-1.2,1.9-1.9c-0.1-0.2-0.2-0.5-0.4-0.8
		c-0.2-0.3-0.3-0.6-0.4-0.8c-0.3-0.9,0-1.4,0.8-1.7c0.9-0.3,1.5,0.1,1.9,1.2c0.1,0.3,0.2,0.6,0.3,1.2c0.1,0.5,0.2,0.9,0.3,1.2
		c0.1,0.2,0.2,0.5,0.4,1c0.1,0.2,0.2,0.4,0.3,0.7C407.1,164.4,406.9,164.9,406.1,165.1z"/>
	<path class="st2" d="M396.2,200.4l1.2-0.2c-2.2-1.1-3.6-3-4.1-5.7c-0.6-3.1,0-5.5,1.7-7.1c0.8-0.7,1.7-1.2,2.8-1.4
		c0.5-0.1,1.7-0.4,3.5-0.7l3.3-0.6c3.6-0.7,5.4-1.4,5.3-2.2c0-0.2-0.1-0.4-0.2-0.8c-0.1-0.3-0.2-0.6-0.2-0.8c-0.2-0.9,0.2-1.5,1-1.6
		c0.8-0.2,1.4,0.3,1.6,1.5c0,0.3,0.1,0.7,0.1,1.2s0.1,0.9,0.1,1.2c0,0.2,0.2,0.6,0.4,1.2c0.1,0.4,0.2,0.6,0.2,0.7
		c0.1,0.8-0.3,1.3-1.3,1.5l-0.8,0.2l-2.6,0.5l-3,0.4l-2.6,0.5c-2.3,0.4-4,0.9-4.9,1.5c-1.6,0.9-2.1,2.6-1.7,4.9
		c0.2,1.1,0.7,2.1,1.3,2.9s1.5,1.3,2.4,1.5c1.1,0.2,3.1,0.1,6-0.5l2.2-0.4c1.6-0.3,2.5-0.5,2.6-0.5c1.2-0.4,1.8-0.8,1.7-1.4
		c0-0.3-0.1-0.5-0.1-0.7l-0.1-0.5c-0.2-0.9,0.1-1.5,0.9-1.6c0.9-0.2,1.5,0.3,1.6,1.3c0,0.2,0.1,0.6,0.1,1.1s0.1,0.9,0.1,1.1
		c0,0.2,0.1,0.5,0.3,0.9c0.1,0.4,0.2,0.7,0.3,0.9c0.1,0.8-0.2,1.3-1.1,1.4c-0.4,0.1-0.7,0.1-0.9,0.1c-1,0.1-2.5,0.3-4.5,0.6
		l-6.2,1.1c-1.6,0.3-2.5,0.5-2.7,0.6c-1.4,0.4-2,0.9-1.9,1.5c0,0.2,0.1,0.4,0.2,0.8s0.2,0.6,0.2,0.8c0.2,0.9-0.2,1.4-1.1,1.6
		c-0.9,0.2-1.5-0.3-1.7-1.4c0-0.2-0.1-0.6-0.1-1.1c0-0.7-0.1-1.1-0.1-1.3c0-0.1-0.1-0.4-0.2-0.8c-0.1-0.3-0.2-0.6-0.3-0.8
		C395.1,201,395.4,200.5,396.2,200.4z"/>
	<path class="st2" d="M409.3,225.9c-1,0.1-1.7,0-1.9-0.1c-0.2-0.1-0.4-0.5-0.4-1.2l-0.7-12.9c0-0.4-0.1-0.6-0.2-0.7
		c-0.1-0.1-0.3-0.1-0.5-0.1c-2,0.1-3.7,0.8-5,2.1c-1.3,1.3-1.9,2.8-1.8,4.7c0.1,1.2,0.5,2.3,1.1,3.2c0.7,0.9,1.6,1.6,2.6,1.8
		l1.2,0.3c0.7,0.1,1,0.6,1,1.3c0,1-0.4,1.5-1.5,1.6c-1.8,0.1-3.4-0.7-4.8-2.4c-1.5-1.7-2.3-3.7-2.4-6c-0.2-2.8,0.7-5.1,2.5-6.9
		c1.8-1.8,4.3-2.8,7.6-2.9c3.3-0.2,6,0.6,8.2,2.2s3.3,3.9,3.5,6.8c0.1,2.5-0.6,4.7-2.2,6.4C414,224.9,411.9,225.8,409.3,225.9z
		 M409.5,211.1c-0.4,0-0.5,0.3-0.5,0.9l0.5,9.7c0,0.6,0.2,0.8,0.6,0.8c1.4-0.1,2.6-0.7,3.6-1.8s1.5-2.4,1.4-3.9
		c-0.1-1.5-0.7-2.9-1.9-4.1C412.1,211.6,410.9,211.1,409.5,211.1z"/>
</g>
<polygon class="st2" points="52.6,266.6 59.6,281.5 75.3,283.9 63.9,295.5 66.6,312 52.6,304.2 38.6,312 41.3,295.5 29.9,283.9 
	45.6,281.5 "/>
<polygon class="st2" points="399.5,266.6 406.5,281.5 422.2,283.9 410.9,295.5 413.6,312 399.5,304.2 385.5,312 388.2,295.5 
	376.9,283.9 392.5,281.5 "/>
<g>
	<path class="st2" d="M105.9,356.5l-6.4,25.2l10.8-13c1.4-1.7,2.2-2.6,2.3-2.8c0.7-1.3,0.7-2.3-0.2-3c-0.2-0.1-0.4-0.3-0.8-0.6
		c-0.4-0.2-0.7-0.4-0.8-0.6c-0.3-0.2-0.4-0.5-0.5-0.9s0.1-0.7,0.3-1c0.7-0.8,1.4-0.8,2.4,0c0.2,0.2,0.3,0.3,0.4,0.4l1.3,1.4
		c0.6,0.6,1.1,1.2,1.7,1.6s1.3,1,2.4,1.7c0.4,0.2,0.8,0.5,1.2,0.8c0,0,0.1,0.1,0.2,0.2c0.1,0.1,0.2,0.1,0.2,0.2
		c0.9,0.8,1.1,1.5,0.5,2.3c-0.6,0.7-1.3,0.7-2.2,0c-0.2-0.1-0.3-0.2-0.4-0.3l-0.3-0.3c-0.7-0.5-1.2-0.8-1.6-0.6
		c-0.4,0.1-1.1,0.6-1.9,1.5l-1.5,1.8l-2.7,3.3l-7.2,8.6c-1.2,1.5-2.3,2.4-3.1,2.7c-0.8,0.3-1.7,0.1-2.5-0.5
		c-1.1-0.9-1.3-2.4-0.8-4.5l6.2-24.7l-12.5,15c-1.3,1.6-1.5,2.9-0.4,3.8c0.2,0.1,0.4,0.3,0.8,0.6c0.4,0.3,0.6,0.5,0.8,0.6
		c0.7,0.6,0.7,1.2,0.2,1.9c-0.6,0.7-1.4,0.7-2.4-0.1c0,0-0.1-0.1-0.2-0.2c-0.1-0.1-0.2-0.2-0.2-0.2l-1.2-1.3
		c-0.6-0.7-1.3-1.4-1.9-1.9c-0.6-0.5-1.3-1-2.3-1.6l-1.7-1.1c0,0-0.1-0.1-0.2-0.2c-0.1-0.1-0.2-0.2-0.3-0.2
		c-0.9-0.8-1.1-1.5-0.4-2.3c0.6-0.7,1.2-0.7,1.9-0.1c0.1,0.1,0.4,0.4,0.8,0.8c0.2,0.3,0.4,0.5,0.6,0.7c1.1,0.9,2.3,0.6,3.7-1
		l1.9-2.3l2.4-2.8l2.3-2.8l4.2-5.1c1.3-1.6,1.5-2.9,0.3-3.8c-0.2-0.1-0.4-0.3-0.7-0.5c-0.5-0.3-0.8-0.5-1-0.6
		c-0.7-0.6-0.7-1.2-0.1-1.9c0.6-0.8,1.4-0.7,2.3,0c0.1,0.1,0.3,0.3,0.5,0.5c1,1,1.8,1.7,2.3,2.2c0.3,0.3,0.8,0.6,1.5,1.1
		c0.7,0.5,1.2,0.8,1.5,1.1c0.7,0.6,0.9,1.1,0.8,1.8L105.9,356.5z"/>
	<path class="st2" d="M120.7,385l-3,4.6c-0.8,1.2-1.2,1.9-1.3,2.1c-0.6,1.1-0.6,1.9-0.1,2.2c0.1,0.1,0.4,0.2,1,0.4
		c0.2,0,0.3,0.1,0.6,0.3c0.9,0.6,1.1,1.2,0.6,2c-0.2,0.3-0.5,0.5-1,0.6s-0.9-0.1-1.3-0.4c-0.4-0.2-0.9-0.7-1.6-1.3
		c-0.7-0.6-1.2-1-1.6-1.3c-0.6-0.4-1.3-0.8-2.2-1.2c-1-0.5-1.7-0.8-2-1c-0.9-0.6-1.2-1.3-0.6-2.1c0.5-0.8,1.2-0.9,2-0.4
		c0.2,0.1,0.4,0.3,0.8,0.6s0.6,0.5,0.8,0.6c0.6,0.4,1.4-0.2,2.5-1.6c0.1-0.1,0.7-1.1,2-3.1l1.9-2.9c1.3-2,1.9-3,2-3.1
		c0.8-1.6,1-2.5,0.4-2.9c-0.2-0.1-0.5-0.2-0.9-0.4c-0.4-0.1-0.7-0.3-0.8-0.4c-0.8-0.5-1-1.2-0.6-2c0.5-0.8,1.3-0.9,2.3-0.2
		c0.4,0.3,0.8,0.5,0.9,0.6c0.7,0.6,1.1,0.9,1.4,1.1c0.2,0.1,0.5,0.3,0.9,0.5s0.7,0.4,0.9,0.5c0.7,0.4,0.7,1.1,0.1,2
		c-0.1,0.1-0.2,0.2-0.3,0.4c-0.1,0.2-0.2,0.3-0.3,0.4c-0.1,0.2-0.6,0.9-1.5,2.1C122,383,121.4,384,120.7,385z M124.8,374.6
		c-0.5-0.4-0.9-0.8-1-1.5s0-1.2,0.3-1.8c0.3-0.5,0.8-0.9,1.5-1c0.6-0.1,1.2,0,1.8,0.3c0.5,0.4,0.9,0.8,1,1.5c0.1,0.6,0,1.2-0.3,1.8
		c-0.3,0.5-0.8,0.9-1.5,1C126,375,125.4,374.9,124.8,374.6z"/>
	<path class="st2" d="M138.6,393.1c0.5-1,1.4-1.2,2.8-0.8c0.3-0.9,0.3-1.8-0.2-2.7c-0.4-0.9-1.2-1.6-2.4-2.2
		c-1.7-0.9-3.4-0.9-5.2-0.1c-1.8,0.8-3.2,2.4-4.4,4.6c-1.2,2.3-1.7,4.4-1.4,6.3s1.3,3.2,3,4.1c1.1,0.6,2.2,0.8,3.3,0.5
		s2.1-0.8,3-1.7c0.7-0.7,1.1-1.2,1.2-1.3c0.5-0.4,1.1-0.4,1.6-0.1c0.4,0.2,0.7,0.5,0.8,1s0.1,0.8-0.1,1.3c-0.3,0.6-0.9,1.3-1.8,1.9
		c-0.9,0.7-1.7,1.1-2.5,1.4c-2.3,0.8-4.6,0.6-6.9-0.6c-2.5-1.3-4.1-3.3-4.7-5.9c-0.6-2.6-0.2-5.4,1.3-8.3c1.6-3.1,3.7-5.1,6.2-6.1
		s5.2-0.8,7.8,0.5c2,1,3.4,2.4,4.1,4.2c0.8,1.8,0.7,3.5-0.2,5.1c-0.5,0.9-1.1,1.5-1.9,1.9c-0.8,0.3-1.6,0.3-2.4-0.1
		c-0.6-0.3-1-0.8-1.3-1.4S138.3,393.7,138.6,393.1z"/>
	<path class="st2" d="M152,414.9c-2.8-1-4.6-2.8-5.6-5.3c-0.9-2.5-0.8-5.4,0.4-8.6c1.2-3.2,3-5.4,5.4-6.7c2.4-1.3,5-1.4,7.8-0.4
		c2.9,1.1,4.8,2.8,5.7,5.3c1,2.5,0.8,5.3-0.4,8.5c-1.2,3.2-3,5.5-5.4,6.8C157.5,415.8,154.9,415.9,152,414.9z M159.1,396.5
		c-1.8-0.7-3.5-0.6-5.1,0.3c-1.5,0.9-2.8,2.5-3.8,4.8l-0.2,0.5c-0.9,2.5-1.1,4.6-0.6,6.4s1.7,3,3.6,3.7c1.9,0.7,3.7,0.6,5.3-0.4
		c1.6-1,2.9-2.7,3.8-5.2C164.1,401.4,163.1,398,159.1,396.5z"/>
	<path class="st2" d="M206.8,405.3c-0.4,2.8-2.4,4.6-5.8,5.2c1.1,0.5,2,1.1,2.7,1.6c2,1.6,2.9,3.8,2.4,6.4c-0.4,2.5-1.7,4.4-3.9,5.6
		c-2.2,1.2-4.9,1.5-8.2,1c-1.2-0.2-2.7-0.5-4.5-0.9c-1.8-0.4-3.1-0.7-4-0.8c-0.8-0.1-1.5-0.2-2.1-0.2l-2-0.1c-0.1,0-0.1,0-0.3,0
		c-0.1,0-0.2,0-0.3,0c-1.2-0.2-1.7-0.8-1.6-1.8c0.1-0.9,0.6-1.3,1.5-1.1c0.2,0,0.6,0.1,1.1,0.3c0.4,0.1,0.6,0.2,0.9,0.2
		c1.4,0.2,2.3-0.7,2.6-2.7l2.6-16.7c0.3-2.1-0.2-3.2-1.6-3.4c-0.2,0-0.5-0.1-0.9,0c-0.5,0-0.9,0-1.1,0c-0.9-0.1-1.2-0.6-1.1-1.5
		c0.1-1,0.9-1.4,2.1-1.1l0.5,0.1l2,0.6c0.6,0.2,1.4,0.3,2.3,0.5c1.1,0.2,2.6,0.3,4.5,0.5c1.3,0.1,2.7,0.3,4.2,0.5
		c2.8,0.4,4.9,1.4,6.3,2.8C206.6,401.5,207.1,403.2,206.8,405.3z M189.3,413l-0.7,4.6c-0.3,1.8-0.1,3,0.4,3.5c0.5,0.5,2.2,1,4.9,1.4
		c5.2,0.8,8.1-0.7,8.7-4.6c0.6-3.6-1.6-5.8-6.6-6.5l-3.4-0.5c-1.5-0.2-2.4,0-2.7,0.6C189.5,411.8,189.4,412.3,189.3,413z
		 M190.6,404.6c-0.2,1.5-0.2,2.4,0,2.8c0.2,0.4,0.9,0.7,2.1,0.9l2.3,0.4c4.9,0.8,7.6-0.4,8.1-3.6c0.5-2.9-1.3-4.7-5.4-5.3
		c-2.8-0.4-4.6-0.5-5.3-0.3c-0.7,0.3-1.2,1.1-1.4,2.6L190.6,404.6z"/>
	<path class="st2" d="M218.8,407.4l0,1.1c1.5-2,3.5-3,5.9-3c2,0,3.5,0.6,4.7,1.8c1.2,1.1,1.8,2.6,1.7,4.3c0,1.2-0.4,2.2-1,3
		c-0.6,0.8-1.4,1.1-2.5,1.1c-0.6,0-1.2-0.2-1.6-0.6s-0.6-0.9-0.6-1.4c0-0.5,0.2-0.8,0.5-1.2c0.3-0.3,0.7-0.5,1.2-0.5
		c0.1,0,0.3,0,0.5,0.1c0.2-0.3,0.3-0.6,0.3-0.9c0-0.8-0.3-1.5-1-2.1c-0.7-0.6-1.6-0.9-2.6-0.9c-2.2,0-3.7,0.9-4.4,2.9
		c-0.5,1.2-0.7,3-0.8,5.5l-0.1,2.8c0,1.9,0,2.9,0,3.1c0.1,1.6,0.5,2.4,1.2,2.4c0.4,0,0.7,0,1.1-0.1c0.3-0.1,0.6-0.1,0.8-0.1
		c0.9,0,1.3,0.5,1.3,1.4c0,1-0.6,1.4-1.8,1.4h-0.2c-0.4,0-1.1-0.1-1.9-0.2c-0.9-0.1-1.5-0.2-1.9-0.2c-1.1,0-2,0-2.6,0l-2.4,0.2
		c-1.1,0-1.7-0.5-1.7-1.5c0-0.9,0.6-1.3,1.6-1.3c0.3,0,0.5,0,0.6,0l0.6,0.1c0.3,0.1,0.5,0.1,0.6,0.1c0.7,0,1.1-0.6,1.2-1.9l0-2.1
		l0.1-9.5c-0.1-1.6-0.4-2.5-1.2-2.5c-0.2,0-0.5,0-0.9,0.1c-0.4,0.1-0.7,0.1-0.9,0.1c-0.9,0-1.4-0.5-1.4-1.4c0-1,0.6-1.5,1.8-1.4
		c0.3,0,0.7,0,1.3,0.1c0.6,0.1,1,0.1,1.3,0.1c0.2,0,0.6,0,1.1-0.1c0.2-0.1,0.5-0.1,0.8-0.1C218.4,406.2,218.8,406.6,218.8,407.4z"/>
	<path class="st2" d="M253.4,413.1c0.1,1.1,0.1,1.7,0,2c-0.1,0.2-0.5,0.4-1.2,0.5l-13.3,1.3c-0.4,0-0.6,0.1-0.7,0.2
		c-0.1,0.1-0.1,0.3-0.1,0.5c0.2,2.1,1,3.8,2.4,5c1.4,1.3,3,1.8,4.9,1.6c1.2-0.1,2.3-0.6,3.3-1.3s1.5-1.7,1.7-2.8l0.3-1.2
		c0.1-0.7,0.6-1.1,1.3-1.1c1-0.1,1.6,0.4,1.7,1.4c0.2,1.8-0.6,3.5-2.3,5.1s-3.7,2.5-6.1,2.7c-2.9,0.3-5.4-0.5-7.3-2.2
		s-3.1-4.4-3.4-7.7c-0.3-3.4,0.3-6.2,1.9-8.5c1.6-2.3,3.9-3.6,6.9-3.9c2.6-0.3,4.9,0.4,6.7,2C252,408.2,253.1,410.4,253.4,413.1z
		 M238.1,413.5c0,0.4,0.4,0.5,1,0.5l10-1c0.6-0.1,0.9-0.3,0.8-0.7c-0.1-1.5-0.8-2.7-2.1-3.7c-1.2-1-2.6-1.4-4.1-1.2
		c-1.6,0.2-2.9,0.9-4.1,2.1C238.4,410.8,237.9,412.1,238.1,413.5z"/>
	<path class="st2" d="M262.8,408.5l6.4,12.1l-0.5-15.7c-0.1-1.7,0-2.8,0.3-3.4s0.8-1,1.7-1.3c0.9-0.2,1.6-0.1,2.1,0.3
		c0.5,0.4,1.2,1.4,1.9,2.9l6.9,14.1l-0.1-13.7c0-0.9-0.1-1.6-0.2-2.2l0-0.1c-0.2-0.8-0.6-1.1-1.3-0.9c-0.2,0.1-0.6,0.2-1.1,0.4
		c-0.5,0.2-0.8,0.4-1.1,0.4c-1,0.3-1.7-0.1-1.9-1c-0.2-1,0.3-1.7,1.7-2c0.2,0,0.4-0.1,0.6-0.1l1.8-0.2c0.5,0,1.2-0.2,2.1-0.4
		c0.8-0.2,1.5-0.4,2.2-0.7l1.4-0.5c0.1-0.1,0.3-0.1,0.5-0.2c1.2-0.3,1.9,0,2.2,1c0.2,1-0.1,1.5-1,1.8c-0.3,0.1-0.6,0.1-0.8,0
		c-0.5,0-0.7,0-0.8,0c-0.8,0.2-1.2,2-1.2,5.3l-0.1,11.7c0,1.4-0.2,2.5-0.5,3.1c-0.3,0.6-0.9,1.1-1.7,1.3c-1.5,0.4-2.8-0.6-3.9-2.8
		l-7-14.3l0.4,15.6c0,1.5-0.1,2.6-0.4,3.3c-0.3,0.7-0.9,1.1-1.7,1.4c-1.3,0.3-2.4-0.3-3.3-2l-7.9-14.3c-0.5-0.8-1-1.2-1.5-1.1
		c-0.2,0-0.4,0.2-0.7,0.4c-0.4,0.2-0.7,0.3-0.9,0.4c-0.9,0.2-1.5-0.1-1.8-1c-0.2-1,0.3-1.7,1.5-2c0.2-0.1,0.4-0.1,0.5-0.1l1.9-0.2
		c0.4,0,0.9-0.1,1.6-0.3c0.8-0.2,1.7-0.5,2.7-0.9c1.2-0.5,2-0.7,2.1-0.8c1.2-0.3,2,0,2.2,1c0.2,1-0.2,1.5-1.2,1.8
		c-0.2,0-0.6,0.1-1.1,0.2c-0.4,0-0.8,0-1.1,0.1c-0.7,0.2-1,0.7-0.8,1.5C262.1,407,262.4,407.7,262.8,408.5z"/>
	<path class="st2" d="M307,378.5c2.8-1.4,5.6-1.5,8.4-0.3l-0.2-0.4c-0.1-0.1-0.1-0.3-0.2-0.4c-0.1-0.1-0.2-0.2-0.2-0.2
		c-0.3-0.5-0.5-0.8-0.5-0.7c-0.4-0.9-0.3-1.5,0.5-1.9c0.8-0.4,1.5-0.1,2,0.9c0.1,0.2,0.4,0.8,0.8,1.8c0.5,1.3,0.9,2.2,1.1,2.7
		c0.3,0.7,0.7,1.3,1.2,2l0.9,1.3l0.2,0.4c0.6,1.1,0.4,1.9-0.5,2.4c-1,0.5-1.7,0.2-2.2-0.9l-0.7-1.3c-0.9-1.8-2.2-3-3.9-3.5
		c-1.7-0.5-3.5-0.3-5.4,0.7c-2.5,1.3-3.9,3.2-4.3,5.8c-0.4,2.6,0.2,5.6,1.9,8.9c1.7,3.4,3.8,5.7,6.2,6.9c2.4,1.2,4.9,1.1,7.5-0.2
		c1.4-0.7,2.5-1.7,3.2-2.9s1.1-2.5,1-3.9c-0.1-0.9-0.4-1.9-1-3.1c-0.6-1.1-0.4-2,0.5-2.5c1-0.5,1.8-0.2,2.4,0.9
		c1.4,2.7,1.5,5.3,0.6,8c-1,2.6-2.9,4.7-5.9,6.2c-3.4,1.7-6.7,1.9-9.9,0.5s-5.8-4-7.8-7.9c-2.1-4.1-2.7-7.9-1.9-11.4
		C301.6,382.9,303.7,380.3,307,378.5z"/>
	<path class="st2" d="M343.9,390.9c-2.4,1.7-4.9,2.2-7.5,1.5s-4.9-2.4-6.8-5.2c-2-2.8-2.8-5.5-2.5-8.2c0.3-2.7,1.7-4.9,4.1-6.6
		c2.5-1.7,5-2.3,7.6-1.7c2.6,0.6,4.9,2.3,6.8,5.1c2,2.8,2.8,5.6,2.5,8.3C347.8,386.9,346.4,389.1,343.9,390.9z M332.9,374.6
		c-1.6,1.1-2.5,2.6-2.6,4.3s0.5,3.7,1.8,5.9l0.3,0.5c1.5,2.2,3.1,3.5,4.9,4.1c1.8,0.6,3.5,0.3,5.1-0.8c1.7-1.2,2.6-2.7,2.7-4.6
		c0.1-1.9-0.6-3.9-2.1-6.1C339.7,373.3,336.4,372.2,332.9,374.6z"/>
	<path class="st2" d="M359.6,378.9c-0.6,0.5-1.2,0.7-1.9,0.6s-1.3-0.4-1.8-0.9s-0.7-1.2-0.6-1.9c0-0.7,0.4-1.3,0.9-1.8
		s1.2-0.7,1.9-0.6s1.3,0.4,1.8,0.9s0.7,1.2,0.6,1.9C360.5,377.8,360.2,378.4,359.6,378.9z"/>
</g>
<path class="st2" d="M226.4,237.7c-0.1,0.2-0.1,0.3-0.1,0.3c-0.1,0.1,0,0.2,0.1,0.3c0.1,0,0.2,0,0.2-0.1c0,0,0-0.1,0-0.1
	c0.2,0.2,0.4,0.4,0.7,0.5c0.3,0.1,0.6,0.1,0.9,0c0.2-0.1,0.4-0.3,0.5-0.6c0.1-0.4-0.1-0.8-0.7-1.1l-0.3-0.1
	c-0.3-0.1-0.4-0.3-0.4-0.6c0-0.1,0.1-0.2,0.3-0.3c0.1-0.1,0.3-0.1,0.5,0s0.3,0.1,0.4,0.2c0.1,0.1,0.1,0.2,0.1,0.4l-0.1,0.2
	c0,0.1,0,0.2,0.1,0.2c0.1,0,0.2,0,0.2-0.2c0,0,0-0.1,0-0.2c0-0.1,0-0.2,0-0.2c0-0.1,0.1-0.1,0.1-0.2c0-0.1,0.1-0.1,0.1-0.2
	c0-0.1,0-0.2-0.1-0.2c-0.1,0-0.2,0-0.2,0.1l0,0c-0.1-0.2-0.3-0.3-0.6-0.4c-0.3-0.1-0.6-0.1-0.8,0c-0.2,0.1-0.4,0.3-0.5,0.6
	c-0.1,0.3,0,0.5,0.1,0.7s0.4,0.3,0.8,0.5c0.4,0.2,0.6,0.4,0.5,0.6c0,0.1-0.1,0.2-0.3,0.3c-0.1,0.1-0.3,0.1-0.5,0
	c-0.2-0.1-0.4-0.2-0.6-0.3s-0.2-0.3-0.1-0.5s0.1-0.3,0.1-0.3c0,0-0.1-0.1-0.1-0.1c-0.1,0-0.2,0-0.2,0.1c0,0,0,0.1,0,0.2
	s0,0.2-0.1,0.3C226.4,237.6,226.4,237.7,226.4,237.7z"/>
<polygon class="st2" points="196.6,270.2 195.6,268 194.6,270.2 192.4,270.5 194,272.2 193.6,274.6 195.6,273.5 197.6,274.6 
	197.2,272.2 198.9,270.5 "/>
<path class="st2" d="M195.4,253.8c0.4,0.2,0.8,0.2,1.2,0.1c0.3-0.1,0.6-0.4,0.7-0.8c0.1-0.3,0.1-0.6,0.1-0.9s-0.2-0.5-0.5-0.6
	c-0.1-0.1-0.2,0-0.3,0.1c0,0.1,0,0.2,0.1,0.2l0.1,0.1c0.1,0.1,0.2,0.2,0.2,0.4c0,0.2,0,0.3,0,0.5c-0.1,0.2-0.3,0.4-0.5,0.5
	c-0.2,0.1-0.5,0.1-0.8,0c0,0-0.1,0-0.1-0.1c0,0,0-0.1,0-0.1l0.7-1.7c0-0.1,0-0.1,0-0.2c0,0-0.1-0.1-0.2-0.1c-0.4-0.1-0.7-0.1-1,0
	c-0.3,0.1-0.5,0.4-0.7,0.7c-0.1,0.4-0.1,0.8,0,1.1C194.6,253.4,194.9,253.6,195.4,253.8z M194.7,252.1c0.1-0.2,0.2-0.3,0.4-0.4
	c0.2-0.1,0.4-0.1,0.6,0c0.1,0,0.1,0.1,0,0.1l-0.5,1.3c0,0.1-0.1,0.1-0.1,0.1c-0.2-0.1-0.3-0.2-0.4-0.4
	C194.7,252.5,194.7,252.3,194.7,252.1z"/>
<path class="st2" d="M192.1,257.1c0.1,0,0.2,0,0.2-0.1c0,0,0-0.1,0-0.1s0-0.1,0-0.1c0-0.1,0.1-0.1,0.3-0.1c0.2,0,0.5,0.1,1.1,0.2
	l1,0.3c0.4,0.1,0.6,0.2,0.7,0.2c0.1,0,0.2,0.1,0.1,0.2c0,0,0,0.1-0.1,0.1c0,0,0,0.1,0,0.1c0,0.1,0,0.2,0.1,0.3c0.1,0,0.2,0,0.3-0.2
	c0,0,0-0.1,0.1-0.3c0-0.1,0-0.2,0.1-0.3c0-0.1,0.1-0.2,0.1-0.4c0-0.1,0.1-0.2,0.1-0.2c0-0.2,0-0.3-0.1-0.3c-0.1,0-0.2,0-0.2,0.1
	c0,0,0,0.1,0,0.1s0,0.1,0,0.1c0,0.1-0.1,0.1-0.3,0.1c0,0-0.2,0-0.4-0.1c0,0-0.1,0-0.1,0c-0.1,0-0.1,0-0.1,0l-0.4-0.1
	c-0.3-0.1-0.5-0.2-0.6-0.3c-0.2-0.2-0.2-0.4-0.1-0.7c0.1-0.3,0.2-0.4,0.4-0.5c0.1,0,0.4,0,0.8,0.1l0.3,0.1l0.2,0.1
	c0.1,0,0.2,0.1,0.3,0.1c0.2,0.1,0.4,0.2,0.3,0.3c0,0,0,0.1,0,0.1c0,0.1-0.1,0.1-0.1,0.1c0,0.1,0,0.1,0,0.1c0,0.1,0.1,0.1,0.1,0.1
	c0.1,0,0.1,0,0.2,0c0.1,0,0.1-0.1,0.1-0.2c0,0,0-0.1,0-0.3c0-0.1,0-0.1,0.1-0.2c0-0.1,0.1-0.2,0.1-0.4c0-0.1,0.1-0.2,0.1-0.2
	c0.1-0.2,0-0.3-0.1-0.3c-0.1,0-0.2,0-0.2,0.2c0,0,0,0.1,0,0.1c0,0.1,0,0.1,0,0.1c0,0.1-0.1,0.1-0.3,0.1c0,0-0.1,0-0.4-0.1l-0.9-0.2
	c-0.3-0.1-0.6,0-0.8,0.1c-0.2,0.1-0.4,0.4-0.5,0.7c0,0.2-0.1,0.3,0,0.5c0,0.1,0.1,0.3,0.2,0.5l-1.1-0.3h0c-0.1,0-0.2,0-0.2,0.1
	c0,0,0,0.1,0,0.1c0,0.1,0,0.1,0,0.1c0,0.1,0,0.2-0.1,0.2c0,0.1-0.1,0.2-0.1,0.2c0,0.1,0,0.1,0,0.2C192,257,192,257.1,192.1,257.1z"
	/>
<path class="st2" d="M195.5,261.5c0-0.2-0.1-0.3-0.3-0.4l-3.1-0.9l3.1-0.4c0.3,0,0.4-0.1,0.4-0.4c0-0.2-0.1-0.3-0.3-0.4l-2.7-0.8
	c-0.2-0.1-0.4-0.1-0.4-0.2s-0.1-0.1-0.1-0.2c0,0,0-0.1,0-0.1c0,0,0-0.1,0-0.1c0-0.1-0.1-0.2-0.2-0.2c-0.1,0-0.2,0.1-0.2,0.2
	c0,0.1,0,0.2,0,0.4s0,0.3,0,0.4c0,0.1,0,0.3-0.1,0.6c0,0.1,0,0.1,0,0.2c0,0.2,0.1,0.2,0.2,0.3c0.1,0,0.2-0.1,0.2-0.2
	c0,0,0-0.1,0-0.1c0-0.1,0-0.1,0-0.1c0-0.2,0.1-0.2,0.3-0.2c0.1,0,0.2,0,0.4,0.1l2.4,0.7l-3.2,0.4c-0.2,0-0.4,0.1-0.4,0.4
	c0,0.2,0.1,0.4,0.4,0.4l3,0.8l-2.5,0.3l-0.2,0c-0.1,0-0.1,0-0.2,0c-0.1,0-0.2-0.1-0.2-0.2c0,0,0-0.1,0-0.2c0-0.1,0-0.1,0-0.2
	c0-0.2-0.1-0.3-0.2-0.3c-0.1,0-0.2,0.1-0.2,0.2c0,0,0,0.1,0,0.2c0,0.3,0,0.5,0,0.6c0,0.2,0,0.4-0.1,0.6c0,0.1,0,0.1,0,0.2
	c0,0.1,0.1,0.2,0.2,0.2s0.2,0,0.2-0.2l0-0.1v0c0-0.1,0-0.2,0.1-0.2c0.1,0,0.2-0.1,0.3-0.1l2.9-0.5
	C195.4,261.8,195.5,261.7,195.5,261.5z"/>
<path class="st2" d="M208.2,285.1c-0.4-0.2-0.8-0.2-1.1-0.1c-0.4,0.1-0.7,0.4-0.9,0.9c-0.2,0.4-0.3,0.8-0.2,1.2
	c0.1,0.4,0.3,0.6,0.7,0.8c0.3,0.2,0.7,0.2,1,0.1c0.1,0,0.2-0.1,0.4-0.2c0.1-0.1,0.2-0.2,0.2-0.3c0-0.1,0-0.1,0-0.2s-0.1-0.1-0.1-0.1
	c-0.1,0-0.1,0-0.2,0c0,0-0.1,0.1-0.2,0.2c-0.1,0.1-0.3,0.2-0.4,0.2c-0.2,0-0.3,0-0.5-0.1c-0.2-0.1-0.4-0.3-0.4-0.6
	c0-0.3,0-0.6,0.2-0.9c0.2-0.3,0.4-0.5,0.6-0.7c0.2-0.1,0.5-0.1,0.8,0c0.2,0.1,0.3,0.2,0.3,0.3c0.1,0.1,0.1,0.2,0,0.4
	c-0.2-0.1-0.3,0-0.4,0.1c0,0.1-0.1,0.2,0,0.2c0,0.1,0.1,0.1,0.2,0.2c0.1,0.1,0.2,0.1,0.4,0c0.1,0,0.2-0.1,0.3-0.3
	c0.1-0.2,0.1-0.5,0-0.7C208.7,285.4,208.5,285.2,208.2,285.1z"/>
<path class="st2" d="M206,283.9c0,0-0.1,0-0.1-0.1s-0.1,0-0.1-0.1c0,0-0.1-0.1-0.2-0.1c0,0-0.1,0-0.1-0.1c-0.1-0.1-0.3-0.1-0.3,0
	c-0.1,0.1,0,0.2,0.1,0.3c0,0,0.1,0,0.1,0s0.1,0,0.1,0.1c0.1,0,0.1,0.2-0.1,0.4c0,0-0.1,0.2-0.3,0.4l-0.3,0.4
	c-0.2,0.3-0.3,0.4-0.3,0.4c-0.2,0.2-0.3,0.3-0.4,0.2c0,0-0.1,0-0.1-0.1s-0.1-0.1-0.1-0.1c-0.1-0.1-0.2-0.1-0.3,0.1
	c-0.1,0.1,0,0.2,0.1,0.3c0,0,0.1,0.1,0.3,0.1c0.1,0.1,0.2,0.1,0.3,0.2c0.1,0,0.1,0.1,0.2,0.2c0.1,0.1,0.2,0.1,0.2,0.2
	c0.1,0,0.1,0.1,0.2,0s0.1,0,0.1-0.1c0.1-0.1,0-0.2-0.1-0.3c0,0-0.1,0-0.1,0c-0.1,0-0.1,0-0.1-0.1c-0.1,0-0.1-0.1,0-0.3
	c0,0,0.1-0.1,0.2-0.3l0.4-0.7c0.1-0.1,0.2-0.3,0.3-0.4c0.1-0.2,0.2-0.3,0.2-0.3c0,0,0,0,0-0.1c0,0,0,0,0-0.1
	C206.1,284.1,206.1,284,206,283.9z"/>
<path class="st2" d="M205.9,283.1c-0.1,0.1-0.1,0.2-0.1,0.2s0.1,0.2,0.1,0.2c0.1,0,0.2,0.1,0.2,0c0.1,0,0.2-0.1,0.2-0.1
	s0.1-0.2,0-0.2s-0.1-0.2-0.1-0.2c-0.1,0-0.2-0.1-0.2,0C206,283,205.9,283,205.9,283.1z"/>
<path class="st2" d="M204.3,283l0.2-0.3c0.1-0.1,0.2-0.2,0.3-0.2s0.1,0,0.2,0.1l0.1,0c0,0,0,0,0.1,0c0.1,0.1,0.2,0.1,0.3,0
	c0.1-0.1,0.1-0.2-0.1-0.3c0,0,0,0,0,0c0,0,0,0,0,0c-0.1,0-0.1-0.1-0.2-0.1c-0.1-0.1-0.3-0.2-0.3-0.2c-0.1-0.1-0.2-0.1-0.2-0.2
	l-0.2-0.2c0,0,0,0-0.1,0c-0.1-0.1-0.3-0.1-0.4,0c0,0-0.1,0.1,0,0.1c0,0,0,0.1,0.1,0.1c0,0,0.1,0,0.1,0.1c0.1,0,0.1,0.1,0.1,0.1
	c0.1,0.1,0.1,0.2,0,0.4c0,0-0.1,0.2-0.3,0.4l-1.6,1.9l0.9-3.6l0-0.1c0-0.1,0-0.2-0.1-0.3c-0.1,0-0.1-0.1-0.2-0.2s-0.2-0.1-0.2-0.2
	c-0.1-0.1-0.2-0.2-0.3-0.3c0,0-0.1,0-0.1-0.1c-0.1-0.1-0.2-0.1-0.3,0c-0.1,0.1-0.1,0.2,0,0.3c0,0,0.1,0,0.1,0.1c0.1,0,0.1,0,0.1,0.1
	c0.2,0.1,0.1,0.3-0.1,0.5l-0.6,0.7l-0.3,0.4l-0.3,0.4l-0.3,0.3c-0.2,0.2-0.4,0.3-0.5,0.1c0,0-0.1-0.1-0.1-0.1
	c-0.1-0.1-0.1-0.1-0.1-0.1c-0.1-0.1-0.2-0.1-0.3,0c-0.1,0.1-0.1,0.2,0.1,0.3c0,0,0,0,0,0c0,0,0,0,0,0l0.2,0.2
	c0.1,0.1,0.2,0.2,0.3,0.2c0.1,0.1,0.2,0.2,0.3,0.3l0.2,0.2c0,0,0,0,0,0s0,0,0,0c0.1,0.1,0.2,0.1,0.3,0c0.1-0.1,0.1-0.2,0-0.3
	c0,0-0.1,0-0.1-0.1c-0.1,0-0.1-0.1-0.1-0.1c-0.2-0.1-0.1-0.3,0.1-0.5l1.8-2.2l-0.9,3.5c-0.1,0.3,0,0.5,0.1,0.6
	c0.1,0.1,0.2,0.1,0.4,0.1c0.1,0,0.3-0.2,0.4-0.4l1-1.2L204.3,283z"/>
<path class="st2" d="M220.7,284.7c12.4,0,22.4-10,22.4-22.4c0-12.4-10.1-22.4-22.4-22.4s-22.4,10.1-22.4,22.4
	C198.3,274.6,208.3,284.7,220.7,284.7z M215.1,276.7c0-0.4,0-14.9,0.1-15.9c0.1-1,0.7-2.1,1.4-2.9c0.2-4.6,0.9-9.2,1.1-9.9
	c-0.3-0.1-0.4-0.9,0-1.4c0.1-0.1,0.1-0.3-0.1-0.4c-0.1-0.1-0.2-0.5,0.4-0.7c0.3,0,0.9-0.1,1.5-0.1c0.8,0,1.6,0,1.9,0.1
	c0.6,0.2,0.4,0.6,0.4,0.7c-0.1,0.1-0.1,0.3-0.1,0.4c0.5,0.5,0.3,1.3,0,1.4c0.1,0.7,0.9,5.3,1.1,9.9c0.7,0.9,1.3,2,1.4,2.9
	s0.1,15.4,0.1,15.9s0,0.8-0.2,1.6c-1.2,0.9-7.4,0.9-8.9,0C215.1,277.5,215.1,277.2,215.1,276.7z"/>
<path class="st2" d="M208.9,237.3c0,0,0.1,0,0.1-0.1c0.1,0,0.1-0.1,0.1-0.1c0.1,0,0.2,0,0.3,0.2l0.5,1.2l0.1,0.3
	c0.1,0.2,0,0.3-0.1,0.3c0,0,0,0-0.1,0l-0.1,0c0,0-0.1,0-0.1,0c-0.1,0.1-0.2,0.1-0.1,0.2c0.1,0.1,0.1,0.2,0.3,0.1l0.3-0.1
	c0.1,0,0.2-0.1,0.3-0.1c0.1,0,0.1-0.1,0.2-0.1c0.1,0,0.2-0.1,0.2-0.1l0,0c0.1-0.1,0.2-0.1,0.1-0.3c-0.1-0.1-0.1-0.1-0.2-0.1
	c0,0-0.1,0-0.1,0.1c-0.1,0-0.1,0.1-0.1,0.1c-0.1,0-0.2,0-0.3-0.2c0,0-0.1-0.2-0.2-0.4l-0.1-0.4c-0.1-0.3-0.2-0.6-0.2-0.7
	c0-0.3,0.1-0.5,0.4-0.6c0.1-0.1,0.3-0.1,0.4,0c0.1,0,0.2,0.1,0.2,0.2c0,0,0,0.1,0,0.1c0,0-0.1,0-0.1,0c-0.1,0-0.1,0.1-0.1,0.1
	c0,0.1,0,0.1,0,0.2c0,0.1,0.1,0.1,0.2,0.1s0.2,0,0.2,0c0.1-0.1,0.2-0.1,0.2-0.3c0-0.1,0-0.3,0-0.4c-0.1-0.2-0.2-0.4-0.5-0.4
	c-0.2-0.1-0.4-0.1-0.7,0c-0.3,0.1-0.5,0.4-0.6,0.7l-0.1-0.1c0-0.1-0.1-0.1-0.2-0.1c0,0-0.1,0-0.1,0.1c-0.1,0-0.1,0.1-0.1,0.1
	c0,0-0.1,0-0.2,0.1s-0.1,0-0.2,0.1c-0.2,0.1-0.2,0.2-0.2,0.3C208.7,237.3,208.8,237.4,208.9,237.3z"/>
<path class="st2" d="M213.1,234.8c0,0,0.1,0,0.1-0.1c0,0,0.1,0,0.1,0c0.2,0,0.3,0.1,0.4,0.4l0.5,2.3c0.1,0.3,0,0.4-0.2,0.5
	c0,0-0.1,0-0.1,0c-0.1,0-0.1,0-0.2,0c-0.1,0-0.2,0.1-0.1,0.2c0,0.1,0.1,0.2,0.3,0.2c0,0,0,0,0,0c0,0,0,0,0,0l0.3-0.1
	c0.1,0,0.2-0.1,0.3-0.1c0.1,0,0.3-0.1,0.6-0.1c0.3,0,0.5-0.1,0.6-0.1c0.5-0.1,0.8-0.3,1-0.5s0.3-0.6,0.2-0.9
	c-0.1-0.4-0.3-0.6-0.6-0.7c-0.1,0-0.3-0.1-0.4-0.1c0.4-0.2,0.6-0.6,0.5-1c-0.1-0.3-0.2-0.5-0.5-0.6s-0.6-0.1-0.9-0.1
	c-0.2,0-0.4,0.1-0.6,0.1c-0.3,0.1-0.5,0.1-0.6,0.2s-0.2,0-0.3,0.1l-0.3,0l-0.1,0c-0.2,0-0.2,0.1-0.2,0.2
	C212.9,234.7,213,234.8,213.1,234.8z M216.4,236.5c0.1,0.5-0.2,0.9-0.9,1c-0.4,0.1-0.6,0.1-0.7,0.1s-0.2-0.2-0.2-0.4l-0.1-0.6
	c0-0.1,0-0.2,0-0.2c0-0.1,0.1-0.2,0.3-0.2l0.5-0.1C215.9,235.8,216.3,236,216.4,236.5z M214.2,234.6c0.1-0.1,0.3-0.1,0.7-0.2
	c0.6-0.1,0.9,0,1,0.4c0.1,0.4-0.2,0.7-0.9,0.9l-0.3,0.1c-0.2,0-0.3,0-0.3,0s-0.1-0.2-0.1-0.4l-0.1-0.4
	C214.1,234.8,214.1,234.6,214.2,234.6z"/>
<path class="st2" d="M205.5,239.1c0,0,0.1,0,0.1-0.1c0,0,0.1-0.1,0.1-0.1c0.1-0.1,0.3,0.1,0.5,0.6l0.2,0.4c0.1,0.2,0.2,0.4,0.3,0.4
	c0.1,0.1,0.2,0.2,0.3,0.3c0.3,0.2,0.6,0.1,1.1-0.1c0.4-0.2,0.6-0.5,0.6-0.8l0.1,0.2c0.1,0.1,0.1,0.1,0.2,0.1c0,0,0.1,0,0.1-0.1
	c0.1,0,0.1-0.1,0.1-0.1c0,0,0.1,0,0.2-0.1c0.1,0,0.1-0.1,0.1-0.1c0.1-0.1,0.2-0.2,0.1-0.3s-0.1-0.1-0.3-0.1c0,0-0.1,0-0.1,0.1
	c0,0-0.1,0.1-0.1,0.1c-0.1,0-0.2,0-0.3-0.2c0,0-0.1-0.1-0.2-0.3l-0.4-0.8c-0.1-0.2-0.2-0.4-0.3-0.6c0,0,0-0.1-0.1-0.1
	c-0.1-0.1-0.1-0.1-0.2-0.1c0,0-0.1,0-0.1,0.1c-0.1,0-0.1,0.1-0.1,0.1s-0.1,0-0.1,0.1c-0.1,0-0.1,0.1-0.1,0.1
	c-0.1,0.1-0.2,0.2-0.1,0.3c0.1,0.1,0.1,0.1,0.3,0.1l0.1,0c0,0,0.1,0,0.1-0.1c0.1,0,0.2,0,0.3,0.2c0,0,0.1,0.1,0.2,0.3l0.2,0.3
	c0.2,0.4,0.3,0.6,0.3,0.8c0,0.1,0,0.3-0.1,0.4s-0.2,0.2-0.3,0.3c-0.3,0.2-0.5,0.2-0.7,0c-0.1-0.1-0.3-0.3-0.4-0.6l-0.2-0.3l-0.2-0.4
	l-0.2-0.3l-0.1-0.1c-0.1-0.1-0.2-0.2-0.3-0.1c0,0,0,0-0.1,0.1c-0.1,0.1-0.1,0.1-0.1,0.1c0,0-0.1,0-0.2,0.1c-0.1,0-0.1,0.1-0.2,0.1
	c-0.1,0.1-0.2,0.2-0.1,0.3C205.3,239.2,205.4,239.2,205.5,239.1z"/>
<path class="st2" d="M211.1,286.4c-0.4-0.1-0.8-0.1-1.1,0s-0.6,0.5-0.8,1s-0.2,0.9-0.1,1.2c0.1,0.4,0.4,0.6,0.8,0.8
	c0.4,0.1,0.8,0.1,1.1,0c0.4-0.2,0.6-0.5,0.8-1s0.2-0.9,0.1-1.2C211.7,286.8,211.5,286.5,211.1,286.4z M211.4,288.2
	c-0.1,0.4-0.3,0.6-0.6,0.8s-0.5,0.2-0.8,0.1c-0.3-0.1-0.4-0.3-0.5-0.5c-0.1-0.3,0-0.6,0.1-0.9l0-0.1c0.1-0.3,0.3-0.6,0.5-0.7
	c0.2-0.1,0.5-0.1,0.7,0C211.5,286.9,211.6,287.4,211.4,288.2z"/>
<path class="st2" d="M218.9,237.6c0.3,0,0.6-0.1,0.9-0.4c0.2-0.2,0.4-0.4,0.4-0.7c0-0.1-0.1-0.2-0.2-0.2c-0.1,0-0.2,0.1-0.2,0.1
	l0,0.2c0,0.1-0.1,0.3-0.3,0.4s-0.3,0.2-0.5,0.2c-0.3,0-0.5-0.1-0.7-0.2s-0.3-0.4-0.3-0.7c0,0,0-0.1,0-0.1c0,0,0.1,0,0.1,0l1.9-0.1
	c0.1,0,0.1,0,0.2-0.1s0-0.1,0-0.3c0-0.4-0.2-0.7-0.4-0.9c-0.2-0.2-0.6-0.3-0.9-0.3c-0.4,0-0.7,0.2-1,0.5c-0.2,0.3-0.4,0.7-0.3,1.2
	c0,0.5,0.2,0.8,0.4,1.1C218.1,237.4,218.5,237.6,218.9,237.6z M218.2,235.1c0.2-0.2,0.4-0.3,0.6-0.3c0.2,0,0.4,0.1,0.6,0.2
	c0.2,0.1,0.2,0.3,0.3,0.5c0,0.1,0,0.1-0.1,0.1l-1.4,0.1c-0.1,0-0.1,0-0.1-0.1C218,235.4,218,235.2,218.2,235.1z"/>
<path class="st2" d="M195.6,250.3c0,0,0-0.1,0.1-0.1c0-0.1,0-0.1,0.1-0.1c0.1-0.1,0.2-0.1,0.4,0l1.2,0.6l0.3,0.1
	c0.1,0.1,0.2,0.2,0.2,0.3c0,0,0,0-0.1,0.1l-0.1,0.1c0,0,0,0-0.1,0.1c-0.1,0.1-0.1,0.2,0.1,0.3c0.1,0.1,0.2,0,0.3-0.1l0.1-0.3
	c0-0.1,0.1-0.2,0.2-0.3c0-0.1,0.1-0.1,0.1-0.2c0.1-0.1,0.1-0.2,0.1-0.2l0,0c0.1-0.1,0.1-0.2-0.1-0.3c-0.1-0.1-0.2,0-0.2,0.1
	c0,0,0,0.1,0,0.1s0,0.1-0.1,0.1c-0.1,0.1-0.2,0.1-0.4,0c0,0-0.2-0.1-0.4-0.2l-0.3-0.2c-0.3-0.2-0.5-0.3-0.6-0.4
	c-0.2-0.2-0.2-0.5-0.1-0.7c0.1-0.1,0.2-0.2,0.3-0.3s0.2-0.1,0.3,0c0,0,0.1,0.1,0.1,0.1c0,0-0.1,0.1-0.1,0.1c0,0.1,0,0.1,0,0.2
	c0,0.1,0.1,0.1,0.1,0.1c0.1,0,0.1,0,0.2,0s0.1-0.1,0.2-0.2c0.1-0.1,0.1-0.2,0-0.4s-0.2-0.2-0.3-0.3c-0.2-0.1-0.4-0.1-0.6-0.1
	c-0.2,0.1-0.4,0.2-0.5,0.5c-0.2,0.3-0.2,0.6,0,0.9l-0.1-0.1c-0.1-0.1-0.2,0-0.2,0.1c0,0,0,0.1,0,0.1c0,0.1,0,0.1-0.1,0.1
	s-0.1,0.1-0.1,0.1c-0.1,0.1-0.1,0.1-0.1,0.1c-0.1,0.1-0.1,0.2,0.1,0.3C195.4,250.5,195.5,250.4,195.6,250.3z"/>
<path class="st2" d="M221.9,237.6c0.3,0,0.6-0.1,0.9-0.2c0.3-0.2,0.4-0.4,0.4-0.6c0-0.1-0.1-0.2-0.2-0.2c-0.1,0-0.2,0-0.2,0.1
	l-0.1,0.2c-0.1,0.1-0.1,0.2-0.3,0.3c-0.1,0.1-0.3,0.1-0.5,0.1c-0.3,0-0.5-0.1-0.6-0.3c-0.2-0.2-0.2-0.4-0.2-0.8c0,0,0-0.1,0-0.1
	c0,0,0.1,0,0.1,0l1.9,0.1c0.1,0,0.1,0,0.2,0s0-0.1,0.1-0.3c0-0.4-0.1-0.7-0.3-1c-0.2-0.3-0.5-0.4-0.9-0.4c-0.4,0-0.8,0.1-1,0.4
	c-0.3,0.3-0.4,0.7-0.5,1.1c0,0.5,0.1,0.8,0.3,1.1C221.1,237.4,221.4,237.5,221.9,237.6z M221.5,235c0.2-0.1,0.4-0.2,0.6-0.2
	c0.2,0,0.4,0.1,0.5,0.3c0.1,0.2,0.2,0.4,0.2,0.6c0,0.1-0.1,0.1-0.1,0.1l-1.4-0.1c-0.1,0-0.1,0-0.1-0.1
	C221.2,235.3,221.3,235.2,221.5,235z"/>
<path class="st2" d="M223.6,237.6l0.3,0c0.1,0,0.2,0,0.4,0.1c0.1,0,0.1,0,0.3,0.1c0.1,0,0.2,0.1,0.3,0.1h0c0.2,0,0.2,0,0.3-0.2
	c0-0.1,0-0.2-0.1-0.2c0,0-0.1,0-0.1,0c-0.1,0-0.1,0-0.2,0c-0.1,0-0.1-0.1-0.1-0.4c0,0,0-0.2,0.1-0.4l0.1-0.4
	c0.1-0.3,0.1-0.6,0.2-0.7c0.1-0.2,0.4-0.4,0.7-0.3c0.1,0,0.3,0.1,0.3,0.2s0.1,0.2,0.1,0.3c0,0,0,0.1-0.1,0.1c0,0-0.1,0-0.1,0
	c-0.1,0-0.1,0-0.2,0s-0.1,0.1-0.1,0.1c0,0.1,0,0.1,0.1,0.2c0.1,0.1,0.1,0.1,0.2,0.1c0.1,0,0.3,0,0.4-0.1c0.1-0.1,0.2-0.2,0.2-0.4
	c0-0.2,0-0.4-0.1-0.6c-0.1-0.2-0.3-0.3-0.6-0.3c-0.3-0.1-0.6,0-0.9,0.3l0-0.2c0-0.1,0-0.2-0.1-0.2c0,0-0.1,0-0.1,0
	c-0.1,0-0.1,0-0.1,0c0,0-0.1,0-0.2-0.1c-0.1,0-0.1,0-0.2-0.1c-0.2,0-0.3,0-0.3,0.2c0,0.1,0,0.2,0.2,0.2c0,0,0.1,0,0.1,0s0.1,0,0.1,0
	c0.1,0,0.1,0.1,0.1,0.4l-0.2,1.3l-0.1,0.3c0,0.2-0.1,0.2-0.2,0.2c0,0,0,0-0.1,0l-0.1,0c0,0-0.1,0-0.1,0c-0.1,0-0.2,0-0.2,0.1
	C223.4,237.5,223.4,237.6,223.6,237.6z"/>
<path class="st2" d="M204.4,242.7c0.4,0.1,0.7,0,1-0.2c0.3-0.2,0.5-0.6,0.6-0.9c0-0.4-0.1-0.8-0.4-1.1c-0.3-0.4-0.6-0.6-1-0.7
	c-0.4-0.1-0.7,0-1.1,0.3c-0.3,0.2-0.5,0.6-0.5,0.9c0,0.4,0.1,0.8,0.4,1.1C203.7,242.4,204,242.6,204.4,242.7z M203.8,240.3
	c0.5-0.4,0.9-0.2,1.4,0.4c0.2,0.3,0.3,0.6,0.3,0.8s-0.1,0.5-0.4,0.6c-0.2,0.2-0.5,0.2-0.7,0.1c-0.2-0.1-0.5-0.3-0.7-0.6l-0.1-0.1
	c-0.2-0.3-0.3-0.6-0.3-0.8C203.5,240.6,203.6,240.4,203.8,240.3z"/>
<path class="st2" d="M197.9,248.4c0.4,0.3,0.8,0.4,1.1,0.3c0.4,0,0.7-0.2,0.9-0.6c0.2-0.3,0.3-0.6,0.3-0.9c0-0.3-0.1-0.6-0.3-0.7
	c-0.1-0.1-0.2-0.1-0.3,0.1c-0.1,0.1-0.1,0.2,0,0.2l0.1,0.1c0.1,0.1,0.1,0.3,0.1,0.4c0,0.2-0.1,0.3-0.1,0.5c-0.1,0.2-0.4,0.3-0.6,0.4
	s-0.5,0-0.8-0.2c0,0,0,0,0-0.1s0-0.1,0-0.1l1.1-1.5c0.1-0.1,0.1-0.1,0.1-0.2c0,0-0.1-0.1-0.2-0.2c-0.3-0.2-0.6-0.3-1-0.2
	s-0.6,0.2-0.8,0.5c-0.2,0.3-0.3,0.7-0.2,1.1S197.6,248.1,197.9,248.4z M197.8,246.5c0.1-0.2,0.3-0.3,0.5-0.3c0.2,0,0.4,0,0.6,0.1
	c0,0,0,0.1,0,0.1l-0.8,1.1c-0.1,0.1-0.1,0.1-0.1,0.1c-0.2-0.1-0.2-0.3-0.3-0.5C197.6,246.9,197.6,246.7,197.8,246.5z"/>
<path class="st2" d="M199.2,243.1C199.2,243.1,199.3,243.1,199.2,243.1C199.3,243.1,199.3,243.1,199.2,243.1
	c0.1-0.1,0.1-0.1,0.1-0.2c0.1-0.1,0.1-0.1,0.2-0.1c0,0,0.1,0,0.2,0.1l2.1,0.5c0,0,0.1,0.1,0.1,0.1s0.1,0.1,0.1,0.1
	c0.2,0.2,0.3,0.4,0.4,0.4c0.1,0.2,0.1,0.3,0,0.4c0,0-0.1,0.1-0.1,0.1s-0.1,0.1-0.1,0.1c-0.1,0.1-0.1,0.2,0,0.3
	c0.1,0.1,0.2,0.1,0.3,0c0,0,0,0,0,0c0,0,0,0,0,0l0.2-0.2c0.1-0.1,0.1-0.2,0.2-0.3c0.1-0.1,0.2-0.2,0.3-0.2l0.3-0.2c0,0,0,0,0,0
	c0,0,0,0,0,0c0.1-0.1,0.1-0.2,0-0.3c-0.1-0.1-0.2-0.1-0.3,0c0,0-0.1,0.1-0.1,0.1s-0.1,0.1-0.1,0.1c-0.1,0.1-0.2,0.1-0.3,0.1
	c-0.1-0.1-0.3-0.2-0.6-0.5l-0.2-0.2l-0.4-2.1l0-0.2c0-0.1,0-0.2,0.1-0.3c0,0,0.1,0,0.1-0.1c0,0,0.1,0,0.1-0.1c0.1-0.1,0.1-0.2,0-0.3
	c-0.1-0.1-0.2-0.1-0.3,0c0,0-0.1,0.1-0.1,0.1c-0.1,0.2-0.2,0.3-0.4,0.4c-0.1,0.1-0.3,0.2-0.4,0.4c-0.1,0.1-0.1,0.1-0.2,0.1
	c-0.1,0.1-0.1,0.2,0,0.3c0.1,0.1,0.2,0.1,0.3,0c0,0,0.1-0.1,0.1-0.1l0.1-0.1l0.1-0.1l0,0c0,0,0.1,0,0.1,0c0,0,0,0.1,0,0.1l0.4,1.7
	l-1.7-0.5c0,0-0.1,0-0.1,0c0,0,0,0,0,0c0,0,0-0.1,0-0.1l0.1-0.1l0.1-0.1l0,0c0.1-0.1,0.2-0.2,0.1-0.3c-0.1-0.1-0.2-0.1-0.3,0
	c0,0-0.1,0.1-0.1,0.2c-0.1,0.2-0.3,0.3-0.4,0.4c-0.1,0.1-0.3,0.2-0.4,0.3c-0.1,0.1-0.1,0.1-0.2,0.1c-0.1,0.1-0.1,0.2,0,0.3
	C199,243.3,199.1,243.3,199.2,243.1z"/>
<path class="st2" d="M217.8,288c0.1-0.3,0-0.6-0.2-0.8s-0.5-0.3-0.9-0.4c-0.2,0-0.4-0.1-0.6-0.1c-0.3,0-0.5,0-0.6-0.1
	c-0.1,0-0.3,0-0.3-0.1l-0.3-0.1l-0.1,0c-0.2,0-0.3,0-0.3,0.2c0,0.1,0,0.2,0.1,0.2c0,0,0.1,0,0.2,0c0.1,0,0.1,0,0.1,0
	c0.2,0,0.3,0.2,0.2,0.5l-0.4,2.4c-0.1,0.3-0.2,0.4-0.4,0.4c0,0-0.1,0-0.1,0c-0.1,0-0.1,0-0.2,0c-0.1,0-0.2,0-0.2,0.2
	c0,0.1,0.1,0.2,0.2,0.3c0,0,0,0,0,0c0,0,0,0,0,0l0.3,0c0.1,0,0.2,0,0.3,0c0.1,0,0.3,0.1,0.6,0.1c0.3,0.1,0.5,0.1,0.6,0.1
	c0.5,0.1,0.9,0,1.2-0.1c0.3-0.2,0.5-0.4,0.6-0.8s-0.1-0.7-0.4-0.9c-0.1-0.1-0.2-0.2-0.4-0.2C217.4,288.6,217.7,288.4,217.8,288z
	 M217.2,289.8c-0.1,0.6-0.5,0.8-1.2,0.7c-0.4-0.1-0.6-0.1-0.7-0.2s-0.1-0.2-0.1-0.5l0.1-0.7c0-0.1,0-0.2,0.1-0.2
	c0.1-0.1,0.2-0.1,0.4-0.1l0.5,0.1C216.9,289,217.2,289.3,217.2,289.8z M216.1,288.5l-0.3,0c-0.2,0-0.3-0.1-0.3-0.1
	c0-0.1,0-0.2,0-0.4l0.1-0.4c0-0.2,0.1-0.3,0.2-0.4c0.1,0,0.4,0,0.8,0c0.6,0.1,0.8,0.4,0.8,0.8C217.2,288.4,216.8,288.6,216.1,288.5z
	"/>
<path class="st2" d="M236.8,283c-0.4-0.1-0.7,0-1.1,0.2c-0.4,0.2-0.6,0.6-0.6,1c0,0.4,0.1,0.8,0.4,1.2s0.6,0.6,1,0.8
	c0.4,0.1,0.7,0,1.1-0.2c0.4-0.2,0.6-0.6,0.6-1c0-0.4-0.1-0.8-0.4-1.2C237.5,283.4,237.2,283.1,236.8,283z M237.3,285.6
	c-0.2,0.2-0.5,0.2-0.7,0.1c-0.2-0.1-0.5-0.3-0.7-0.6l0-0.1c-0.2-0.3-0.3-0.6-0.3-0.8s0.1-0.5,0.4-0.6c0.5-0.4,1-0.2,1.4,0.5
	c0.2,0.3,0.3,0.6,0.3,0.9C237.7,285.2,237.5,285.4,237.3,285.6z"/>
<path class="st2" d="M246.5,259.6c-0.5,0-0.8,0.2-1.1,0.4c-0.3,0.3-0.4,0.6-0.4,1c0,0.3,0.1,0.6,0.3,0.9c0.2,0.2,0.4,0.4,0.7,0.4
	c0.1,0,0.2-0.1,0.2-0.2c0-0.1-0.1-0.2-0.1-0.2l-0.2,0c-0.1,0-0.3-0.1-0.4-0.3c-0.1-0.1-0.2-0.3-0.2-0.5c0-0.3,0.1-0.5,0.3-0.7
	c0.2-0.2,0.4-0.3,0.7-0.3c0,0,0.1,0,0.1,0c0,0,0,0,0,0.1l0.1,1.9c0,0.1,0,0.1,0.1,0.2c0,0,0.1,0,0.3,0c0.4,0,0.7-0.2,0.9-0.4
	c0.2-0.2,0.3-0.6,0.3-0.9c0-0.4-0.2-0.7-0.5-1C247.3,259.6,246.9,259.5,246.5,259.6z M247.6,261.5c-0.1,0.2-0.3,0.2-0.5,0.3
	c-0.1,0-0.1,0-0.1-0.1l-0.1-1.4c0-0.1,0-0.1,0.1-0.1c0.2,0,0.4,0.1,0.5,0.2c0.2,0.2,0.3,0.4,0.3,0.6
	C247.8,261.1,247.7,261.3,247.6,261.5z"/>
<polygon class="st2" points="246.5,270.2 245.5,268 244.5,270.2 242.2,270.5 243.9,272.2 243.5,274.6 245.5,273.5 247.5,274.6 
	247.1,272.2 248.8,270.5 "/>
<path class="st2" d="M239.6,283.5c-0.1,0-0.2,0-0.3,0.1s-0.1,0.1-0.1,0.3c0,0.1,0,0.2,0.1,0.3c0.1,0.1,0.1,0.1,0.3,0.1
	c0.1,0,0.2,0,0.3-0.1s0.1-0.1,0.1-0.3c0-0.1,0-0.2-0.1-0.3C239.7,283.6,239.7,283.5,239.6,283.5z"/>
<path class="st2" d="M246.9,255.7c0,0,0,0.1,0,0.1c0,0.1,0,0.1,0,0.1c0,0.1-0.2,0.2-0.8,0.3l-0.5,0.1c-0.3,0-0.4,0.1-0.5,0.1
	c-0.2,0-0.3,0.1-0.4,0.2c-0.2,0.2-0.3,0.6-0.2,1c0.1,0.4,0.3,0.7,0.6,0.8l-0.2,0c-0.1,0-0.2,0.1-0.1,0.2c0,0,0,0.1,0,0.1
	c0,0.1,0,0.1,0,0.1c0,0,0,0.1,0,0.2c0,0.1,0,0.1,0,0.1c0,0.2,0.1,0.2,0.2,0.2c0.1,0,0.2-0.1,0.1-0.2c0,0,0-0.1,0-0.1
	c0,0,0-0.1,0-0.1c0-0.1,0.1-0.2,0.3-0.2c0,0,0.2,0,0.4-0.1l0.9-0.2c0.3,0,0.5-0.1,0.6-0.1c0,0,0.1,0,0.1,0c0.1,0,0.2-0.1,0.1-0.2
	c0,0,0-0.1,0-0.1c0-0.1,0-0.1,0-0.1c0,0,0-0.1,0-0.2c0-0.1,0-0.1,0-0.2c0-0.1-0.1-0.2-0.2-0.2c-0.1,0-0.2,0.1-0.1,0.2l0,0.1
	c0,0,0,0.1,0,0.1c0,0.1-0.1,0.1-0.2,0.2c0,0-0.1,0-0.4,0.1l-0.3,0.1c-0.4,0.1-0.7,0.1-0.9,0.1c-0.1,0-0.2-0.1-0.4-0.2
	s-0.2-0.2-0.2-0.4c-0.1-0.3,0-0.6,0.2-0.7c0.1-0.1,0.4-0.1,0.7-0.2l0.4-0.1l0.4-0.1l0.4-0.1l0.1,0c0.1,0,0.2-0.1,0.2-0.2
	c0,0,0,0,0-0.1c0-0.1,0-0.1-0.1-0.2c0,0,0-0.1,0-0.2c0-0.1,0-0.1,0-0.2c0-0.2-0.1-0.2-0.2-0.2C247,255.5,246.9,255.6,246.9,255.7z"
	/>
<path class="st2" d="M236.4,242.8C236.3,242.8,236.3,242.7,236.4,242.8l-0.1-0.1c0,0,0,0,0,0c0,0,0,0,0,0c-0.1-0.1-0.2-0.1-0.3,0
	c-0.1,0.1-0.1,0.2,0,0.3c0,0,0.1,0.1,0.2,0.2c0.1,0.1,0.2,0.1,0.2,0.2c0.1,0.1,0.1,0.1,0.2,0.2c0.1,0.1,0.1,0.1,0.2,0.2
	c0.1,0.1,0.2,0.1,0.3,0.1c0.1-0.1,0.1-0.2,0-0.3c0,0,0,0,0,0c0,0,0,0,0,0c-0.1,0-0.1-0.1-0.1-0.1c-0.1-0.1,0-0.1,0.1-0.2
	c0,0,0.1-0.1,0.2-0.2l0.6-0.6c0.3-0.3,0.5-0.4,0.7-0.4c0.2,0,0.4,0,0.6,0.2c0.2,0.2,0.2,0.3,0.2,0.5c0,0.2-0.2,0.4-0.4,0.6l-0.3,0.4
	c0,0,0,0-0.1,0.1c-0.1,0.1-0.1,0.1-0.2,0.2l-0.2,0.2c-0.1,0.1-0.2,0.2-0.3,0.1c0,0,0-0.1-0.1-0.1c0,0,0-0.1-0.1-0.1
	c-0.1-0.1-0.2-0.1-0.2,0c-0.1,0.1-0.1,0.2,0,0.3c0.1,0.1,0.1,0.1,0.2,0.2c0.1,0.1,0.1,0.1,0.2,0.2c0,0,0.1,0.1,0.2,0.2
	s0.1,0.2,0.2,0.2c0.1,0.1,0.2,0.1,0.3,0.1c0,0,0.1-0.1,0.1-0.1c0-0.1,0-0.1-0.1-0.1c0,0,0,0-0.1-0.1c0,0-0.1-0.1-0.1-0.1
	c-0.1-0.1-0.1-0.1,0-0.2c0.1-0.1,0.2-0.2,0.5-0.5l0.3-0.3c0.3-0.3,0.5-0.4,0.6-0.5c0.2-0.1,0.4,0,0.6,0.2c0.1,0.1,0.2,0.2,0.2,0.3
	s0,0.2,0,0.4s-0.2,0.3-0.4,0.5l-0.3,0.3l-0.2,0.3c-0.2,0.2-0.3,0.3-0.4,0.3c-0.1,0-0.1,0-0.2,0c0,0-0.1-0.1-0.1-0.1
	c0-0.1-0.1-0.1-0.1-0.1c-0.1-0.1-0.2-0.1-0.3,0c-0.1,0.1-0.1,0.2,0,0.3c0.1,0.1,0.1,0.1,0.2,0.2s0.2,0.1,0.2,0.2
	c0,0,0.1,0.1,0.2,0.2c0.1,0.1,0.1,0.2,0.2,0.2c0.1,0.1,0.2,0.1,0.3,0c0.1-0.1,0.1-0.2,0-0.3c0,0-0.1,0-0.1-0.1
	c-0.1,0-0.1-0.1-0.1-0.1c-0.1-0.1-0.1-0.1,0-0.3c0,0,0.1-0.1,0.2-0.2l0.3-0.3l0.4-0.4c0.2-0.2,0.3-0.4,0.4-0.5
	c0.1-0.2,0.1-0.4,0-0.6c-0.1-0.2-0.2-0.4-0.3-0.5c-0.1-0.1-0.3-0.2-0.4-0.3c-0.1-0.1-0.3-0.1-0.5,0c0.1-0.3,0-0.6-0.3-0.9
	c-0.1-0.1-0.3-0.2-0.4-0.3c-0.1,0-0.3-0.1-0.5,0l0.1-0.1c0.1-0.1,0.1-0.1,0-0.2l0,0l-0.1-0.1c0,0,0,0,0,0s0,0-0.1,0
	c0,0-0.1-0.1-0.1-0.1c-0.1-0.1-0.1-0.1-0.1-0.1c-0.1-0.1-0.2-0.1-0.3,0s-0.1,0.2,0,0.3c0,0,0,0,0.1,0.1c0.1,0.1,0.1,0.1,0.1,0.1
	c0.1,0.1,0.1,0.1,0,0.2s-0.2,0.2-0.4,0.5l-0.6,0.6l-0.2,0.2C236.5,242.8,236.4,242.8,236.4,242.8z"/>
<path class="st2" d="M252.8,327.1c0-3-0.2-103.6-0.7-110.3c-0.5-6.8-4.8-14.4-9.8-20.4c-1.3-32.1-6.6-63.9-7.4-68.7
	c2-0.5,3.1-6.2-0.3-9.4c-0.7-1.1-0.7-2.3,0.4-2.8c0.4-1,1.3-3.7-2.7-4.9c-2.2-0.3-8.2-0.4-13.5-0.3c-4.3,0-8.4,0.1-10.2,0.3
	c-4,1.2-3.1,3.9-2.7,4.9c1.1,0.5,1.1,1.8,0.4,2.8c-3.4,3.2-2.2,8.9-0.3,9.4c-0.8,4.8-6.1,36.6-7.4,68.7c-5,6-9.3,13.6-9.8,20.4
	c-0.5,6.8-0.7,107.4-0.7,110.3s-0.2,5.5,1.3,11.1c10.6,6.4,53.2,6.5,61.9,0C253,332.5,252.8,330,252.8,327.1z M220.7,292.9
	c-16.9,0-30.6-13.7-30.6-30.6s13.7-30.6,30.6-30.6s30.6,13.7,30.6,30.6C251.2,279.2,237.5,292.9,220.7,292.9z"/>
<path class="st2" d="M246.3,253.5l0.1-0.1c0.1,0,0.1-0.1,0.1-0.2c0,0,0-0.1-0.1-0.1c0-0.1-0.1-0.1-0.1-0.1c0,0,0-0.1,0-0.2
	s0-0.1,0-0.2c-0.1-0.2-0.1-0.2-0.3-0.2c-0.1,0-0.2,0.1-0.1,0.2c0,0,0,0.1,0.1,0.1c0,0.1,0.1,0.1,0.1,0.1c0,0.1-0.1,0.2-0.3,0.3
	l-1.3,0.4l-0.3,0.1c-0.2,0.1-0.3,0-0.3-0.1c0,0,0,0,0-0.1l0-0.1c0,0,0-0.1,0-0.1c-0.1-0.1-0.1-0.2-0.2-0.2c-0.1,0-0.2,0.1-0.1,0.3
	l0.1,0.3c0,0.1,0.1,0.2,0.1,0.4c0,0.1,0,0.1,0.1,0.3s0,0.2,0.1,0.3l0,0c0.1,0.1,0.1,0.2,0.3,0.2c0.1,0,0.2-0.1,0.1-0.2
	c0,0,0-0.1-0.1-0.1c0-0.1-0.1-0.1-0.1-0.1c0-0.1,0.1-0.2,0.3-0.3c0,0,0.2-0.1,0.4-0.1l0.4-0.1c0.3-0.1,0.6-0.1,0.8-0.1
	c0.3,0,0.5,0.2,0.6,0.4c0.1,0.1,0.1,0.3,0,0.4c0,0.1-0.1,0.2-0.2,0.2c0,0-0.1,0-0.1,0c0,0,0-0.1,0-0.1c0-0.1-0.1-0.1-0.1-0.1
	s-0.1,0-0.2,0c-0.1,0-0.1,0.1-0.2,0.1c0,0.1,0,0.2,0,0.2c0,0.1,0.1,0.2,0.3,0.3c0.1,0.1,0.3,0.1,0.4,0c0.2-0.1,0.4-0.2,0.5-0.4
	c0.1-0.2,0.1-0.4,0-0.7C246.9,253.8,246.6,253.6,246.3,253.5z"/>
<path class="st2" d="M242.8,250.9c0,0,0-0.1-0.1-0.1s0-0.1-0.1-0.1c-0.1-0.1-0.1-0.1-0.2-0.1c-0.1,0.1-0.1,0.2-0.1,0.3c0,0,0,0,0,0
	c0,0,0,0,0,0l0.2,0.2c0.1,0.1,0.1,0.2,0.2,0.3c0.1,0.1,0.1,0.2,0.1,0.3l0.1,0.3c0,0,0,0,0,0c0,0,0,0,0,0c0.1,0.2,0.2,0.2,0.3,0.1
	c0.1,0,0.1-0.1,0.1-0.1s0-0.1,0-0.1c0,0,0-0.1-0.1-0.1c0-0.1-0.1-0.1-0.1-0.1c-0.1-0.2,0-0.3,0.3-0.5l1.8-0.9l0.4-0.1
	c0.1-0.1,0.2-0.1,0.3,0s0.1,0.1,0.2,0.2l0.1,0.1c0.1,0.3,0.1,0.5-0.2,0.6c-0.1,0-0.2,0.1-0.3,0.1c-0.1,0.1-0.2,0.1-0.3,0.1
	c-0.2,0.1-0.2,0.2-0.2,0.3c0.1,0.1,0.2,0.2,0.3,0.1c0,0,0.1-0.1,0.3-0.1c0.1-0.1,0.2-0.1,0.2-0.1l0.1,0c0.1,0,0.2-0.1,0.3-0.1
	s0.2-0.1,0.2-0.1h0c0.1-0.1,0.2-0.2,0.1-0.4c0-0.1-0.1-0.2-0.2-0.3c-0.1-0.2-0.1-0.3-0.2-0.3c-0.1-0.3-0.2-0.5-0.3-0.6l-0.3-0.6
	c-0.1-0.3-0.2-0.4-0.2-0.4c-0.1-0.2-0.1-0.3-0.1-0.4c-0.1-0.1-0.2-0.2-0.3-0.1c0,0-0.1,0-0.2,0.1c-0.1,0.1-0.2,0.1-0.3,0.1
	c-0.1,0-0.2,0.1-0.3,0.1c-0.1,0.1-0.2,0.1-0.2,0.1c-0.2,0.1-0.2,0.2-0.1,0.3c0.1,0.1,0.2,0.1,0.4,0.1c0.1,0,0.1-0.1,0.1-0.1l0.2-0.1
	c0,0,0.1-0.1,0.2-0.1c0.2-0.1,0.4-0.1,0.6,0.2l0.1,0.2c0.1,0.3,0.1,0.4-0.2,0.6l-0.9,0.4l-0.4,0.2l-0.5,0.2l-0.4,0.2
	C243.1,251.1,242.9,251.1,242.8,250.9z"/>
<path class="st2" d="M240.7,245.7c-0.4,0.3-0.6,0.6-0.7,0.9c-0.1,0.4,0,0.7,0.2,1c0.2,0.3,0.4,0.4,0.8,0.5s0.6,0.1,0.8-0.1
	c0.1-0.1,0.1-0.2,0.1-0.3c-0.1-0.1-0.1-0.1-0.2-0.1l-0.2,0.1c-0.1,0.1-0.3,0.1-0.4,0s-0.3-0.2-0.4-0.3c-0.1-0.2-0.2-0.4-0.1-0.7
	s0.2-0.5,0.4-0.6c0,0,0.1,0,0.1,0c0,0,0.1,0,0.1,0.1l1.1,1.5c0.1,0.1,0.1,0.1,0.1,0.1s0.1-0.1,0.2-0.1c0.3-0.2,0.5-0.5,0.5-0.8
	c0.1-0.3,0-0.6-0.2-0.9c-0.2-0.3-0.6-0.5-0.9-0.6C241.5,245.3,241.1,245.4,240.7,245.7z M242.5,246.1c0.1,0.2,0.2,0.4,0.1,0.6
	s-0.1,0.4-0.3,0.5c0,0-0.1,0-0.1-0.1l-0.8-1.1c-0.1-0.1-0.1-0.1,0-0.1c0.2-0.1,0.4-0.1,0.6-0.1C242.2,245.8,242.4,245.9,242.5,246.1
	z"/>
<path class="st2" d="M220.4,288c-0.4,0-0.6,0.1-0.9,0.4v-0.2c0-0.1-0.1-0.2-0.1-0.2c0,0-0.1,0-0.1,0c-0.1,0-0.1,0-0.2,0
	c0,0-0.1,0-0.2,0c-0.1,0-0.1,0-0.2,0c-0.2,0-0.3,0.1-0.3,0.2c0,0.1,0.1,0.2,0.2,0.2c0,0,0.1,0,0.1,0c0.1,0,0.1,0,0.1,0
	c0.1,0,0.2,0.1,0.2,0.4l0,1.4l0,0.3c0,0.2-0.1,0.3-0.2,0.3c0,0,0,0-0.1,0l-0.1,0c0,0-0.1,0-0.1,0c-0.1,0-0.2,0.1-0.2,0.2
	c0,0.1,0.1,0.2,0.2,0.2l0.3,0c0.1,0,0.2,0,0.4,0c0.1,0,0.1,0,0.3,0c0.1,0,0.2,0,0.3,0h0c0.2,0,0.2-0.1,0.2-0.2
	c0-0.1-0.1-0.2-0.2-0.2c0,0-0.1,0-0.1,0c-0.1,0-0.1,0-0.2,0c-0.1,0-0.2-0.1-0.2-0.4c0,0,0-0.2,0-0.5l0-0.4c0-0.4,0-0.6,0.1-0.8
	c0.1-0.3,0.3-0.4,0.6-0.4c0.1,0,0.3,0,0.4,0.1c0.1,0.1,0.1,0.2,0.1,0.3c0,0,0,0.1,0,0.1c0,0-0.1,0-0.1,0c-0.1,0-0.1,0-0.2,0.1
	c-0.1,0-0.1,0.1-0.1,0.2c0,0.1,0,0.1,0.1,0.2s0.1,0.1,0.2,0.1c0.1,0,0.3,0,0.4-0.2c0.1-0.1,0.1-0.2,0.1-0.4c0-0.2-0.1-0.5-0.2-0.6
	C220.9,288.1,220.6,288,220.4,288z"/>
<path class="st2" d="M224.3,289.8c-0.1,0-0.2,0.1-0.2,0.2l0,0.2c0,0.1-0.1,0.3-0.2,0.4s-0.3,0.2-0.5,0.2c-0.3,0-0.5,0-0.7-0.2
	c-0.2-0.2-0.3-0.4-0.4-0.7c0,0,0-0.1,0-0.1c0,0,0.1,0,0.1,0l1.9-0.2c0.1,0,0.1,0,0.2-0.1s0-0.1,0-0.3c0-0.4-0.2-0.7-0.5-0.9
	c-0.3-0.2-0.6-0.3-1-0.3c-0.4,0-0.8,0.2-1,0.6c-0.2,0.3-0.3,0.7-0.3,1.2c0.1,0.5,0.2,0.8,0.5,1.1s0.6,0.4,1.1,0.3
	c0.3,0,0.6-0.2,0.9-0.4c0.2-0.2,0.4-0.5,0.3-0.7C224.5,289.8,224.4,289.8,224.3,289.8z M222.5,288.6c0.2-0.2,0.4-0.3,0.6-0.3
	c0.2,0,0.4,0,0.6,0.2c0.2,0.1,0.3,0.3,0.3,0.5c0,0.1,0,0.1-0.1,0.1l-1.4,0.1c-0.1,0-0.1,0-0.1-0.1
	C222.3,289,222.3,288.8,222.5,288.6z"/>
<path class="st2" d="M234.2,239.9c-0.3,0.4-0.4,0.8-0.3,1.1c0,0.4,0.2,0.7,0.6,0.9c0.4,0.2,0.7,0.3,1.1,0.2s0.7-0.3,1-0.7
	c0.3-0.4,0.4-0.8,0.3-1.1c0-0.4-0.2-0.7-0.6-0.9c-0.3-0.2-0.7-0.3-1.1-0.2C234.8,239.2,234.4,239.5,234.2,239.9z M235.3,239.6
	c0.2-0.1,0.5,0,0.7,0.1c0.5,0.3,0.5,0.8,0.1,1.5c-0.2,0.3-0.4,0.5-0.7,0.6s-0.5,0-0.7-0.1c-0.2-0.2-0.4-0.4-0.4-0.6
	c0-0.3,0.1-0.5,0.3-0.8l0-0.1C234.8,239.8,235.1,239.6,235.3,239.6z"/>
<path class="st2" d="M231.6,240.3c0.4,0.2,0.8,0.2,1.2,0.1c0.4-0.1,0.7-0.4,0.8-0.7c0.1-0.2,0.1-0.3-0.1-0.4c-0.1-0.1-0.2,0-0.3,0.1
	c-0.1,0.2-0.2,0.3-0.3,0.4c-0.1,0.1-0.3,0.2-0.5,0.2s-0.4,0-0.6-0.1c-0.4-0.2-0.6-0.4-0.6-0.8c-0.1-0.4,0-0.8,0.2-1.3
	c0.2-0.5,0.5-0.8,0.8-1c0.3-0.2,0.7-0.2,1,0c0.3,0.1,0.4,0.3,0.5,0.6c0.1,0.2,0.1,0.5-0.1,0.7l-0.1,0.2c-0.1,0.1-0.1,0.2,0.1,0.3
	c0.1,0.1,0.2,0,0.3-0.1l0-0.1l0.1-0.2c0-0.1,0.1-0.2,0.1-0.3c0-0.1,0.1-0.2,0.2-0.4c0.1-0.1,0.1-0.2,0.1-0.2
	c0.1-0.1,0.1-0.2-0.1-0.3c-0.1-0.1-0.2,0-0.2,0.1c0,0,0,0,0,0.1c0,0,0,0,0,0c0,0,0,0,0,0.1l0,0.1c-0.1-0.4-0.3-0.7-0.7-0.9
	c-0.5-0.2-0.9-0.2-1.4,0c-0.5,0.2-0.8,0.6-1.1,1.2c-0.3,0.6-0.4,1.1-0.2,1.5C230.9,239.7,231.1,240.1,231.6,240.3z"/>
<path class="st2" d="M229.2,286.7C229.2,286.7,229.2,286.7,229.2,286.7l-0.3,0.1c-0.1,0-0.2,0.1-0.3,0.1c-0.1,0-0.2,0.1-0.3,0.1
	l-0.3,0c0,0-0.1,0-0.1,0c-0.2,0-0.3,0.1-0.2,0.3c0,0.1,0.1,0.2,0.3,0.1c0,0,0.1,0,0.1-0.1c0.1,0,0.1,0,0.1-0.1c0.1,0,0.1,0,0.2,0.1
	v0c0,0.1,0,0.2,0,0.3l0,2l-1-2c-0.1-0.2-0.2-0.4-0.3-0.4s-0.2-0.1-0.3,0c-0.1,0-0.2,0.1-0.2,0.2c0,0.1-0.1,0.2-0.1,0.5l0.1,2.3
	l-0.9-1.7c-0.1-0.1-0.1-0.2-0.1-0.3c0-0.1,0-0.2,0.1-0.2c0.1,0,0.1,0,0.2,0c0.1,0,0.1,0,0.2,0c0.1,0,0.2-0.1,0.2-0.3
	c0-0.1-0.1-0.2-0.3-0.1c0,0-0.1,0-0.3,0.1c-0.1,0.1-0.3,0.1-0.4,0.1c-0.1,0-0.2,0-0.2,0l-0.3,0c0,0,0,0-0.1,0
	c-0.2,0-0.3,0.1-0.2,0.3c0,0.1,0.1,0.2,0.2,0.1c0,0,0.1,0,0.1,0c0,0,0.1,0,0.1,0c0.1,0,0.1,0,0.2,0.1l1.1,2c0.1,0.2,0.3,0.3,0.5,0.3
	c0.1,0,0.2-0.1,0.2-0.2c0.1-0.1,0.1-0.3,0.1-0.5l-0.1-2.2l1,2c0.2,0.3,0.4,0.5,0.6,0.4c0.1,0,0.2-0.1,0.2-0.2s0.1-0.2,0.1-0.4l0-1.7
	c0-0.5,0.1-0.7,0.2-0.8c0,0,0.1,0,0.1,0c0,0,0.1,0,0.1,0c0.1,0,0.2-0.1,0.1-0.2C229.5,286.7,229.4,286.6,229.2,286.7z"/>
<path class="st2" d="M234.6,285.8c-0.1,0.1-0.2,0.2-0.1,0.4c0.1,0.2,0.1,0.3,0.1,0.5c0,0.2,0,0.4-0.1,0.5c-0.1,0.2-0.3,0.3-0.5,0.4
	c-0.4,0.2-0.7,0.2-1.1,0c-0.4-0.2-0.6-0.5-0.9-1c-0.2-0.5-0.3-0.9-0.3-1.3s0.3-0.6,0.6-0.8c0.3-0.1,0.5-0.2,0.8-0.1s0.4,0.2,0.6,0.5
	l0.1,0.2c0.1,0.1,0.2,0.2,0.3,0.1c0.1-0.1,0.1-0.2,0.1-0.3l0,0l-0.1-0.2c-0.1-0.1-0.1-0.2-0.2-0.3c0-0.1-0.1-0.2-0.2-0.4
	c-0.1-0.1-0.1-0.2-0.1-0.3c-0.1-0.1-0.2-0.2-0.3-0.1c-0.1,0.1-0.1,0.1-0.1,0.3c0,0,0,0,0.1,0.1c0,0,0,0,0,0c0,0,0,0,0,0.1l0,0.1
	c-0.4-0.2-0.8-0.2-1.2,0c-0.5,0.2-0.8,0.6-0.9,1.1c-0.1,0.5,0,1.1,0.3,1.6c0.3,0.6,0.7,1,1.1,1.1c0.5,0.2,0.9,0.2,1.4-0.1
	c0.4-0.2,0.7-0.5,0.8-0.9s0.1-0.8-0.1-1.1C234.8,285.8,234.7,285.7,234.6,285.8z"/>
</svg>
