<?xml version="1.0" encoding="UTF-8"?>
<svg id="Layer_1" data-name="Layer 1" xmlns="http://www.w3.org/2000/svg" viewBox="0 0 447.13 473.98">
  <defs>
    <style>
      .cls-1 {
        stroke-width: .6px;
      }

      .cls-1, .cls-2, .cls-3 {
        fill: #3164bc;
      }

      .cls-1, .cls-3, .cls-4, .cls-5 {
        stroke: #fff;
        stroke-miterlimit: 10;
      }

      .cls-6, .cls-4 {
        fill: #ba3232;
      }

      .cls-7, .cls-5 {
        fill: #32ba59;
      }
    </style>
  </defs>
  <path class="cls-2" d="m234.08,233.51c-.16.39-.23.56-.22.51-.08.28,0,.46.25.53.23.07.38-.02.45-.26.02-.06.04-.13.06-.19.32.44.75.75,1.31.92.6.18,1.13.17,1.59-.02.46-.19.76-.53.91-1.02.24-.8-.19-1.46-1.29-1.96l-.56-.26c-.57-.26-.79-.61-.66-1.05.07-.24.23-.41.49-.5.26-.1.54-.1.85,0,.3.09.55.24.73.46.18.21.25.43.19.63l-.1.34c-.06.22.02.36.23.43.22.07.37-.03.44-.29.02-.08.05-.2.08-.37.03-.16.06-.28.08-.37.04-.14.09-.27.15-.4.06-.16.1-.26.11-.3.06-.22-.01-.36-.24-.43-.22-.06-.36.03-.44.28v.04c-.24-.33-.58-.56-1.03-.7-.57-.17-1.08-.16-1.52.03-.44.19-.74.52-.88,1-.15.5-.07.91.23,1.22.3.31.79.61,1.46.89.71.29.99.67.85,1.14-.08.26-.25.44-.51.55-.27.11-.56.11-.89,0-.46-.14-.81-.34-1.05-.62-.24-.27-.32-.56-.24-.85.08-.3.11-.48.09-.56-.02-.08-.1-.14-.24-.18-.22-.06-.36.02-.43.26-.02.08-.04.2-.06.35-.02.15-.05.31-.1.47-.03.1-.06.19-.1.28Z"/>
  <polygon class="cls-2" points="180.41 292.77 178.59 288.85 176.77 292.77 172.7 293.39 175.65 296.45 174.95 300.75 178.59 298.72 182.22 300.75 181.53 296.45 184.47 293.39 180.41 292.77"/>
  <path class="cls-2" d="m178.14,262.89c.78.31,1.48.36,2.1.13.62-.22,1.07-.68,1.34-1.38.22-.56.25-1.12.09-1.69-.16-.57-.45-.94-.87-1.11-.25-.1-.42-.03-.52.22-.07.17-.03.31.11.42l.25.2c.21.17.35.41.41.71.06.3.04.6-.08.89-.17.44-.48.75-.93.91-.44.17-.91.15-1.4-.05-.05-.02-.08-.05-.1-.09-.01-.04,0-.1.03-.18l1.24-3.15c.06-.16.07-.27.03-.32-.04-.06-.19-.13-.44-.23-.63-.25-1.24-.26-1.81-.03-.57.24-.98.67-1.22,1.29-.28.7-.25,1.37.08,2.01.33.64.89,1.11,1.68,1.44Zm-1.11-3.19c.14-.36.39-.62.75-.78.36-.16.71-.17,1.06-.03.09.04.11.12.06.26l-.93,2.37c-.06.15-.13.2-.22.16-.33-.13-.56-.4-.71-.81-.15-.41-.15-.8,0-1.17Z"/>
  <path class="cls-2" d="m172.18,268.83c.22.06.36-.03.42-.27.01-.06.02-.13.03-.24,0-.1.01-.18.02-.23.04-.15.2-.21.48-.19.28.03.93.17,1.95.43l1.83.47c.64.17,1.06.3,1.26.39.2.09.28.19.26.31-.01.05-.05.13-.11.24-.03.04-.06.1-.08.19-.07.27,0,.43.22.48.25.06.42-.05.49-.33.02-.08.05-.26.09-.54.03-.21.06-.38.09-.5.05-.19.12-.41.21-.67.07-.19.12-.33.14-.43.08-.31,0-.49-.25-.55-.22-.06-.35.03-.41.26-.01.05-.02.13-.01.24,0,.11,0,.19-.01.25-.04.17-.24.23-.58.18-.06,0-.29-.06-.68-.16-.04-.01-.11-.03-.19-.05-.09-.05-.15-.08-.19-.09l-.74-.19c-.56-.15-.94-.34-1.15-.58-.31-.34-.39-.79-.26-1.34.13-.51.39-.81.8-.92.27-.08.76-.03,1.45.15l.55.14.44.11c.24.07.39.12.48.14.44.12.64.28.59.49-.01.06-.04.11-.07.17-.06.09-.1.18-.12.26-.02.1-.01.19.03.28.04.09.11.14.2.17.11.03.21,0,.3-.06.09-.06.15-.16.18-.28.02-.07.04-.25.07-.55.01-.1.04-.24.08-.42.04-.18.12-.41.23-.69.06-.17.11-.3.13-.39.08-.33,0-.53-.22-.59-.23-.06-.38.04-.44.29-.02.07-.03.13-.03.17.01.11.01.2,0,.25-.04.15-.23.2-.58.14-.04,0-.27-.06-.67-.16l-1.71-.43c-.55-.14-1.03-.07-1.45.2-.42.28-.71.71-.86,1.31-.08.31-.1.59-.05.85.04.25.16.55.35.89l-1.98-.55h-.02c-.23-.06-.36-.01-.4.15-.01.05-.02.13-.03.24-.01.11-.02.2-.04.27-.04.15-.08.29-.13.42-.07.19-.11.31-.12.34-.03.12-.02.23.03.33.05.1.12.16.21.19Z"/>
  <path class="cls-2" d="m178.36,276.98c.02-.33-.15-.54-.53-.65l-5.63-1.58,5.64-.69c.48-.06.74-.27.76-.64.02-.35-.16-.58-.53-.7l-4.94-1.54c-.39-.12-.63-.22-.74-.29-.11-.08-.16-.19-.15-.34,0-.04.02-.11.04-.19.02-.08.04-.15.04-.19.02-.26-.09-.39-.32-.41-.25-.02-.39.11-.41.37,0,.14,0,.35.02.64.02.28.03.5.02.64-.01.18-.07.57-.18,1.14-.02.12-.04.24-.05.35-.02.3.09.46.33.47.25.02.38-.13.4-.43,0-.06,0-.16,0-.28,0-.12,0-.21,0-.28.02-.3.17-.44.46-.42.16.01.39.06.7.14l4.31,1.21-5.7.68c-.43.05-.65.28-.68.68-.03.38.2.64.67.76l5.4,1.47-4.51.57-.34.04c-.11.01-.21.02-.3.01-.23-.02-.34-.15-.32-.4,0-.06.02-.16.04-.29.02-.13.04-.23.04-.29.02-.31-.09-.48-.35-.49-.23-.02-.36.1-.37.36,0,.1,0,.2,0,.31.03.62.04,1.01.03,1.18-.02.36-.08.73-.17,1.11-.03.13-.05.24-.05.34-.02.25.1.38.35.4.23.02.36-.09.38-.32l-.02-.24v-.07c.02-.21.08-.35.18-.44.1-.09.29-.16.56-.2l5.33-.91c.39-.07.6-.27.62-.6Z"/>
  <path class="cls-2" d="m201.3,319.96c-.69-.36-1.37-.41-2.03-.14-.67.27-1.21.81-1.62,1.62-.39.76-.51,1.49-.34,2.17.16.68.57,1.19,1.23,1.54.61.32,1.2.37,1.8.16.22-.08.44-.2.66-.37.22-.17.37-.34.46-.51.06-.11.07-.22.03-.33s-.11-.19-.22-.25c-.14-.07-.27-.06-.41.03-.03.03-.14.14-.32.33-.22.25-.48.4-.78.45-.29.05-.58,0-.87-.14-.45-.24-.72-.6-.79-1.08-.08-.48.04-1.03.36-1.64.3-.59.68-1,1.14-1.22.45-.22.9-.21,1.35.03.29.15.49.34.61.57.12.23.13.46.05.71-.34-.13-.58-.06-.71.2-.07.14-.08.29-.03.45.06.15.16.27.33.36.21.11.42.12.63.03.21-.09.38-.25.5-.49.22-.44.24-.89.04-1.35-.2-.46-.55-.83-1.07-1.1Z"/>
  <path class="cls-2" d="m197.26,317.85s-.13-.07-.24-.12c-.11-.05-.19-.09-.24-.12-.05-.04-.17-.13-.35-.28-.05-.04-.13-.09-.24-.17-.27-.18-.47-.16-.6.05-.13.2-.08.37.14.51.04.03.12.06.22.1.1.04.18.07.23.1.15.1.12.36-.09.76-.02.02-.19.29-.51.81l-.48.76c-.33.51-.5.78-.51.81-.28.38-.5.51-.65.42-.05-.03-.12-.09-.2-.17-.08-.08-.15-.14-.2-.17-.21-.14-.38-.1-.51.1-.13.21-.08.39.17.55.08.05.25.14.51.27.21.1.4.21.56.31.1.06.24.17.42.33.18.16.32.27.42.33.12.08.23.11.35.1.12-.01.2-.06.26-.15.13-.2.08-.38-.15-.53-.06-.04-.11-.06-.15-.07-.14-.05-.23-.08-.26-.1-.13-.09-.13-.28.02-.58.03-.06.14-.24.34-.55l.77-1.2c.17-.27.34-.52.5-.77.22-.33.34-.52.38-.57.02-.02.04-.06.08-.11.04-.05.06-.08.08-.11.15-.24.14-.42-.04-.53Z"/>
  <path class="cls-2" d="m197.15,316.34c-.09.14-.12.3-.08.46.04.17.12.3.26.39.14.09.29.12.46.08.17-.04.29-.13.38-.27.09-.14.12-.3.08-.46-.04-.16-.13-.29-.27-.38-.14-.09-.29-.12-.46-.09-.16.03-.29.12-.38.26Z"/>
  <path class="cls-2" d="m194.26,316.16l.4-.48c.22-.24.38-.37.49-.4.11-.03.25.03.42.17l.08.07s.05.05.09.08c.23.19.42.19.57,0,.16-.19.12-.39-.12-.6-.02-.01-.04-.03-.06-.05-.03-.02-.05-.03-.06-.04-.12-.08-.23-.15-.32-.21-.27-.17-.47-.32-.62-.44-.15-.12-.29-.27-.44-.43l-.33-.37s-.05-.06-.1-.1c-.25-.21-.46-.22-.63-.01-.06.07-.09.16-.08.26,0,.1.05.18.12.24.04.04.12.09.22.15.1.06.17.11.22.15.23.19.25.46.06.79-.03.05-.23.3-.59.74l-2.81,3.41,1.65-6.63.08-.28c.04-.17-.02-.32-.2-.47-.08-.07-.22-.17-.4-.29-.18-.12-.31-.22-.4-.29-.15-.13-.35-.32-.61-.59-.05-.05-.09-.09-.13-.12-.24-.2-.44-.2-.6,0-.15.19-.14.35.04.5.05.04.13.1.25.17.08.05.14.09.18.12.29.24.26.58-.09,1l-1.1,1.34-.6.73-.61.75-.49.59c-.35.42-.67.52-.95.27-.06-.05-.11-.11-.15-.17-.11-.11-.18-.18-.21-.21-.18-.15-.34-.14-.48.04-.16.2-.12.4.12.6.02.01.04.03.07.06.03.02.05.03.07.04l.45.3c.25.16.45.31.6.43.17.14.33.31.5.49l.3.34s.03.03.05.06c.02.02.04.03.05.04.25.21.46.22.61.03.15-.18.13-.35-.04-.5-.04-.04-.12-.09-.21-.16-.1-.07-.17-.12-.21-.16-.28-.24-.25-.57.1-1l3.25-3.94-1.6,6.47c-.13.56-.07.95.21,1.18.21.18.43.23.64.14.22-.08.49-.32.81-.71l1.86-2.26.71-.86Z"/>
  <path class="cls-2" d="m223.9,319.22c22.35,0,40.47-18.34,40.47-40.96s-18.12-40.96-40.47-40.96-40.47,18.34-40.47,40.96,18.12,40.96,40.47,40.96Zm-10.12-14.49c0-.78.04-27.19.17-28.97.13-1.78,1.25-3.78,2.54-5.35.34-8.44,1.72-16.78,1.93-18.05-.51-.14-.81-1.64.07-2.48.18-.28.18-.61-.09-.75-.12-.26-.35-.98.69-1.29.46-.06,1.53-.09,2.64-.09,1.37-.02,2.91.01,3.49.09,1.04.3.81,1.03.69,1.29-.28.14-.28.47-.09.75.88.84.58,2.34.07,2.48.22,1.26,1.59,9.61,1.93,18.05,1.29,1.57,2.41,3.57,2.54,5.35s.17,28.19.17,28.97.04,1.44-.34,2.91c-2.25,1.72-13.31,1.67-16.06,0-.39-1.48-.34-2.13-.34-2.91Z"/>
  <path class="cls-2" d="m202.59,232.78c.05-.02.12-.06.2-.12.08-.06.15-.1.2-.12.18-.07.35.08.53.46l.93,2.23.2.5c.11.31.08.5-.08.56-.03.01-.07.02-.15.04l-.16.03s-.09.02-.15.05c-.25.1-.33.26-.25.46.09.23.27.29.54.18l.53-.27c.14-.07.35-.17.61-.27.1-.04.25-.09.46-.15.21-.06.36-.11.46-.15l.04-.02c.27-.11.35-.28.26-.51-.08-.21-.23-.27-.44-.18-.05.02-.11.06-.18.1-.08.06-.17.11-.25.14-.17.07-.35-.08-.53-.44-.03-.05-.13-.3-.31-.74l-.26-.65c-.23-.57-.35-1.02-.36-1.35-.02-.53.23-.9.74-1.11.25-.1.48-.12.7-.06.22.06.37.19.44.38.03.07.04.15.03.24-.07,0-.12.01-.14.02-.1.04-.18.12-.22.24-.05.11-.05.22,0,.33.05.13.15.22.29.27.14.05.29.04.44-.02.23-.1.39-.26.46-.5.07-.24.05-.51-.07-.8-.16-.41-.44-.69-.83-.83-.39-.14-.81-.12-1.27.06-.57.23-.92.66-1.07,1.28l-.11-.27c-.08-.19-.2-.25-.37-.18-.07.03-.13.06-.18.1-.11.06-.19.11-.24.13-.07.03-.17.06-.3.1-.14.04-.24.07-.3.1-.28.12-.37.29-.28.52.08.21.23.27.45.18Z"/>
  <path class="cls-2" d="m210.1,228.09c.06-.01.15-.04.27-.09.08-.03.15-.05.21-.06.35-.07.58.16.68.68l.83,4.21c.1.52-.02.81-.38.88-.06.01-.13.02-.22.02-.13,0-.23.01-.29.02-.21.04-.3.18-.25.4.05.24.22.34.52.29.01,0,.04,0,.07-.01.03-.01.06-.02.07-.02l.47-.16c.16-.05.34-.1.52-.14.21-.04.55-.09,1.01-.15.46-.06.84-.11,1.14-.17.82-.16,1.44-.49,1.85-.97.42-.48.56-1.04.43-1.68-.13-.66-.5-1.09-1.13-1.31-.21-.07-.47-.13-.77-.16.74-.45,1.04-1.04.9-1.75-.1-.53-.38-.9-.83-1.12-.45-.22-1.02-.26-1.72-.12-.37.07-.72.16-1.04.25-.47.14-.84.23-1.1.29-.25.05-.45.08-.6.09l-.52.03-.13.03c-.32.06-.45.22-.4.46.04.22.17.31.39.27Zm6.04,3.21c.19.98-.36,1.6-1.65,1.85-.68.14-1.1.17-1.27.09-.17-.07-.3-.34-.39-.79l-.23-1.16c-.04-.19-.05-.33-.04-.42.02-.18.22-.31.59-.38l.86-.17c1.24-.25,1.95.08,2.13.98Zm-3.98-3.53c.14-.12.57-.26,1.27-.4,1.01-.2,1.58.06,1.73.8.16.8-.37,1.33-1.59,1.57l-.58.12c-.3.06-.49.05-.57-.02-.08-.07-.16-.3-.23-.67l-.13-.65c-.07-.38-.04-.63.11-.75Z"/>
  <path class="cls-2" d="m196.38,236.11s.1-.06.18-.12c.08-.05.13-.09.17-.11.18-.1.5.27.98,1.12l.43.77c.23.42.38.69.46.81.16.26.36.45.59.58.53.29,1.16.24,1.89-.18.64-.36.99-.86,1.07-1.5l.16.29c.1.18.24.22.41.12.06-.03.11-.08.18-.14.1-.08.16-.12.18-.13.04-.02.14-.07.3-.13.11-.05.19-.09.25-.12.26-.15.33-.32.21-.54-.11-.2-.27-.25-.48-.13-.04.02-.1.07-.17.13-.07.06-.13.1-.17.13-.14.08-.32-.04-.53-.35-.03-.04-.15-.25-.36-.63l-.8-1.44c-.25-.46-.43-.82-.53-1.07-.02-.06-.05-.13-.09-.22-.11-.2-.26-.25-.44-.14-.05.03-.12.08-.21.14-.09.07-.16.12-.21.14-.06.03-.14.07-.26.12-.12.05-.21.09-.26.12-.24.14-.3.31-.18.52.1.19.26.22.48.1l.11-.06s.1-.06.17-.09c.13-.07.29.03.49.31.02.03.13.23.33.61l.28.51c.37.68.58,1.16.62,1.46.03.24-.02.48-.16.72-.14.24-.34.43-.6.58-.53.3-.98.3-1.34-.01-.22-.19-.47-.55-.77-1.09l-.33-.61-.35-.7-.33-.61-.11-.2c-.13-.24-.29-.3-.48-.19-.01,0-.06.04-.15.11-.12.1-.21.16-.27.19-.06.03-.16.08-.28.13-.13.05-.22.1-.28.13-.26.15-.34.32-.23.52.11.2.28.24.49.12Z"/>
  <path class="cls-2" d="m206.45,322.26c-.73-.27-1.4-.24-2.02.09-.62.34-1.08.92-1.39,1.76-.31.84-.34,1.59-.1,2.25.24.66.72,1.13,1.44,1.4.73.28,1.42.24,2.05-.1.63-.34,1.1-.93,1.41-1.77.31-.84.34-1.59.09-2.24-.25-.65-.74-1.12-1.49-1.4Zm.56,3.34c-.24.65-.57,1.11-.99,1.37-.42.26-.88.3-1.37.11-.48-.18-.79-.51-.92-.98-.13-.47-.08-1.03.16-1.68l.05-.13c.26-.61.58-1.03.98-1.27.4-.23.83-.26,1.31-.08,1.03.39,1.3,1.27.79,2.65Z"/>
  <path class="cls-2" d="m220.58,233.18c.59-.03,1.11-.25,1.55-.63.44-.39.65-.81.62-1.27-.02-.27-.15-.4-.41-.38-.18.01-.29.1-.33.28l-.08.31c-.06.27-.22.49-.46.68s-.52.29-.83.31c-.47.03-.87-.13-1.21-.46-.34-.34-.52-.77-.55-1.3,0-.06,0-.1.04-.13.03-.03.09-.04.18-.05l3.35-.2c.17,0,.27-.05.3-.11.03-.06.04-.23.02-.5-.04-.69-.29-1.24-.74-1.67-.45-.42-1.01-.61-1.67-.58-.74.04-1.33.35-1.76.92-.43.57-.62,1.28-.57,2.15.05.85.3,1.51.77,1.98.46.48,1.06.69,1.8.65Zm-1.23-4.5c.31-.31.66-.47,1.05-.5.38-.02.72.1,1.01.36.3.26.46.58.48.96,0,.1-.07.15-.21.16l-2.52.15c-.15,0-.23-.04-.24-.14-.02-.36.12-.69.43-.99Z"/>
  <path class="cls-2" d="m178.57,256.53c.03-.05.05-.12.08-.22.03-.1.06-.17.08-.22.09-.17.32-.16.7.02l2.12,1.12.47.26c.28.17.38.33.29.49-.01.03-.04.07-.09.12l-.1.13s-.05.07-.08.14c-.13.24-.1.41.1.52.22.12.39.05.53-.21l.23-.55c.06-.15.16-.35.29-.6.05-.09.14-.23.26-.41.12-.18.21-.32.26-.41l.02-.04c.14-.26.1-.44-.12-.56-.2-.11-.35-.06-.45.14-.03.05-.05.11-.07.19-.03.1-.06.19-.1.27-.09.16-.31.16-.68,0-.05-.02-.29-.14-.7-.37l-.61-.33c-.54-.29-.91-.56-1.13-.81-.35-.4-.39-.84-.13-1.33.13-.24.29-.4.5-.5.21-.09.4-.09.58,0,.06.03.12.09.17.17-.05.05-.08.09-.09.11-.05.1-.06.21-.02.33.04.12.11.2.2.26.12.07.26.07.4.02.14-.05.25-.15.32-.3.12-.23.13-.45.03-.68-.1-.23-.28-.42-.55-.57-.38-.21-.77-.24-1.16-.1-.39.14-.7.43-.93.87-.29.55-.29,1.1-.01,1.68l-.26-.14c-.18-.1-.31-.06-.39.1-.04.07-.06.13-.07.19-.04.12-.08.21-.11.26-.03.06-.09.15-.17.27-.08.12-.14.21-.17.27-.14.27-.11.46.11.58.2.11.35.06.46-.15Z"/>
  <path class="cls-2" d="m225.92,233.2c.59.04,1.13-.11,1.61-.44.49-.33.74-.73.77-1.19.02-.27-.11-.41-.36-.43-.18-.01-.3.07-.36.23l-.11.3c-.09.26-.27.46-.54.62-.27.15-.55.22-.86.2-.47-.03-.85-.23-1.15-.61-.29-.37-.42-.83-.39-1.36,0-.06.02-.1.05-.12.03-.02.09-.03.18-.03l3.35.21c.17.01.27-.01.31-.07.04-.06.07-.22.08-.49.04-.69-.14-1.27-.54-1.74-.4-.47-.93-.73-1.59-.77-.74-.05-1.36.19-1.86.7-.5.51-.77,1.2-.82,2.07-.05.85.12,1.53.53,2.06.4.53.98.81,1.71.86Zm-.69-4.62c.34-.27.71-.39,1.1-.36.38.02.7.18.96.48.26.29.38.63.36,1.01,0,.1-.08.14-.23.14l-2.52-.16c-.15,0-.23-.06-.22-.16.02-.35.2-.67.54-.93Z"/>
  <path class="cls-2" d="m229.05,233.33l.59.05c.16.01.38.05.66.1.1.02.26.06.46.12.21.06.36.1.46.12h.04c.28.06.45-.04.49-.28.04-.22-.05-.35-.27-.39-.06-.01-.12-.01-.2,0-.1,0-.2,0-.29-.02-.18-.03-.25-.25-.22-.66,0-.06.05-.32.13-.79l.12-.69c.11-.61.24-1.05.41-1.34.27-.46.67-.64,1.21-.54.26.05.47.16.62.33.15.17.21.36.17.56-.01.07-.05.14-.1.22-.07-.03-.11-.05-.13-.06-.11-.02-.22,0-.31.08-.1.07-.16.16-.18.28-.02.14,0,.27.1.39.09.12.22.19.38.22.25.05.47-.01.65-.18.19-.16.31-.4.36-.71.08-.43-.01-.82-.26-1.15-.25-.33-.62-.54-1.1-.63-.6-.11-1.13.06-1.58.5l.05-.29c.04-.2-.04-.32-.22-.35-.08-.01-.14-.02-.2,0-.13,0-.22-.01-.27-.02-.07-.01-.17-.04-.31-.08-.13-.04-.24-.07-.31-.08-.3-.05-.47.04-.51.29-.04.22.05.36.28.4.06.01.13.01.23.01.1,0,.18,0,.23.01.19.03.25.26.2.68l-.39,2.39-.09.54c-.07.32-.19.46-.37.43-.03,0-.08-.02-.14-.05l-.15-.06s-.09-.03-.16-.04c-.27-.05-.42.04-.46.25-.04.25.08.39.36.44Z"/>
  <path class="cls-2" d="m194.4,242.62c.66.14,1.29,0,1.88-.45.61-.46.94-1.04.99-1.74.05-.7-.18-1.4-.69-2.09-.51-.7-1.1-1.11-1.75-1.25-.65-.14-1.29.03-1.9.49-.6.46-.93,1.03-.98,1.71-.05.68.18,1.37.69,2.07.51.7,1.1,1.12,1.76,1.26Zm-1.04-4.49c.86-.65,1.7-.4,2.55.74.4.54.6,1.05.59,1.53,0,.48-.22.88-.63,1.19-.4.3-.82.39-1.27.25-.45-.14-.87-.47-1.27-1.01l-.08-.11c-.36-.53-.53-1.02-.51-1.47.02-.45.23-.82.62-1.12Z"/>
  <path class="cls-2" d="m182.82,252.9c.69.48,1.36.69,2.02.61.66-.08,1.19-.42,1.61-1.04.34-.49.49-1.03.46-1.62-.03-.59-.23-1.02-.6-1.28-.22-.15-.4-.12-.55.09-.1.15-.1.3,0,.44l.2.26c.17.21.25.48.24.79,0,.31-.1.59-.28.85-.27.39-.64.62-1.11.68s-.92-.06-1.35-.37c-.05-.03-.07-.07-.08-.1,0-.04.02-.09.07-.17l1.91-2.79c.1-.14.13-.24.1-.31-.03-.06-.15-.17-.37-.33-.56-.39-1.15-.54-1.75-.44-.61.1-1.1.43-1.48.98-.43.62-.55,1.28-.38,1.97s.61,1.29,1.32,1.78Zm-.37-3.36c.22-.32.52-.51.9-.59.39-.08.73,0,1.04.21.08.06.08.15,0,.27l-1.44,2.1c-.09.13-.17.16-.25.11-.29-.2-.46-.52-.51-.95-.05-.43.04-.81.26-1.14Z"/>
  <path class="cls-2" d="m185.14,243.39s.04-.04.08-.07c.03-.03.05-.05.07-.07.01-.05.05-.1.11-.16.11-.11.24-.16.39-.16.05,0,.2.03.44.09l3.73.94c.05.06.12.12.21.2.07.08.12.13.14.15.39.41.6.64.64.69.21.32.21.58,0,.79-.04.04-.11.09-.2.15-.09.06-.16.11-.2.15-.16.16-.16.32,0,.49.17.18.37.16.6-.06.01,0,.03-.03.05-.05.02-.02.03-.04.04-.05l.34-.43c.13-.16.27-.32.44-.48.15-.15.32-.29.49-.42l.47-.35s.04-.03.06-.04c.03-.02.04-.04.05-.04.23-.22.25-.43.08-.61-.16-.16-.31-.17-.47-.02-.04.04-.1.11-.17.2-.07.09-.13.16-.17.2-.17.17-.34.21-.51.12-.16-.09-.5-.39-.99-.92l-.31-.32-.76-3.84-.05-.29c-.04-.2.01-.37.14-.5.03-.03.09-.08.18-.15.05-.03.11-.08.19-.15.19-.18.2-.36.05-.52-.17-.18-.35-.18-.54.01-.07.07-.15.16-.24.27-.22.3-.45.55-.66.76-.21.2-.47.42-.8.66-.12.09-.22.17-.3.24-.2.2-.22.39-.05.57.17.18.36.17.57-.03.05-.04.11-.11.19-.2l.18-.21.12-.16h.02c.07-.08.12-.09.16-.04.04.04.06.09.08.16l.72,3.15-3.06-.87c-.05-.02-.09-.03-.1-.03-.01,0-.03-.01-.05-.04-.04-.05-.03-.1.03-.15l.15-.15.19-.18.08-.07c.25-.24.29-.45.13-.62-.17-.17-.35-.16-.56.04-.08.07-.16.17-.25.29-.27.35-.49.6-.64.76-.21.21-.46.41-.74.6-.14.1-.25.19-.33.26-.2.2-.22.39-.04.57.17.18.37.16.61-.07Z"/>
  <path class="cls-2" d="m218.58,325.27c.09-.55-.05-1.01-.41-1.39-.36-.37-.9-.62-1.62-.73-.39-.06-.75-.1-1.09-.13-.51-.04-.9-.08-1.17-.12-.26-.04-.46-.08-.61-.13l-.52-.16-.14-.02c-.33-.05-.51.05-.55.3-.04.23.06.37.28.4.06.01.16.01.3.01.09,0,.16,0,.23.01.37.06.51.36.42.9l-.68,4.38c-.08.54-.31.78-.67.72-.06,0-.13-.03-.22-.06-.13-.04-.23-.07-.29-.08-.22-.04-.35.06-.39.3-.04.25.09.41.4.47.01,0,.04,0,.08.01.04,0,.06,0,.08,0l.52.02c.18,0,.36.02.55.05.22.04.57.11,1.04.22.47.11.86.19,1.16.24.85.14,1.57.05,2.14-.27.57-.31.91-.81,1.01-1.47.11-.68-.1-1.24-.63-1.68-.18-.15-.41-.29-.69-.43.88-.17,1.38-.63,1.49-1.37Zm-1.11,3.31c-.16,1.02-.91,1.42-2.25,1.2-.7-.11-1.13-.24-1.27-.37-.14-.13-.17-.44-.1-.91l.19-1.21c.03-.2.07-.34.11-.42.08-.17.32-.22.71-.15l.89.14c1.29.21,1.86.78,1.72,1.71Zm-1.95-2.44l-.6-.1c-.31-.05-.49-.12-.54-.23-.05-.1-.05-.34,0-.73l.11-.68c.06-.39.18-.62.37-.69.18-.07.64-.04,1.37.07,1.05.17,1.51.63,1.39,1.39-.13.84-.83,1.15-2.1.95Z"/>
  <path class="cls-2" d="m252.86,316.18c-.67-.16-1.33-.02-1.98.44-.64.45-1,1.03-1.07,1.73-.08.7.14,1.42.64,2.16.51.74,1.1,1.19,1.77,1.36.68.17,1.33.04,1.95-.4.64-.45,1.01-1.04,1.09-1.76.08-.72-.13-1.45-.64-2.18-.51-.74-1.09-1.19-1.76-1.35Zm.91,4.69c-.42.3-.86.37-1.32.21-.46-.16-.88-.52-1.27-1.09l-.08-.12c-.35-.56-.51-1.07-.47-1.54.04-.46.26-.84.68-1.14.91-.64,1.77-.35,2.6.85.39.57.58,1.11.55,1.61-.03.5-.26.9-.69,1.2Z"/>
  <path class="cls-2" d="m270.32,273.36c-.84.05-1.49.3-1.96.77-.47.47-.69,1.07-.65,1.82.03.6.24,1.12.62,1.57.38.45.8.66,1.25.64.27-.01.39-.15.38-.42,0-.18-.1-.3-.27-.34l-.31-.08c-.26-.06-.49-.22-.67-.47-.18-.25-.28-.53-.3-.84-.03-.48.13-.88.46-1.22.33-.34.76-.52,1.29-.55.06,0,.1,0,.12.04.03.03.04.09.05.18l.18,3.39c0,.17.04.27.11.3.06.03.23.04.49.03.68-.04,1.23-.29,1.65-.74.42-.46.61-1.02.57-1.69-.04-.75-.34-1.35-.9-1.79-.56-.44-1.27-.64-2.12-.59Zm1.97,3.45c-.26.3-.57.46-.95.48-.1,0-.15-.07-.16-.22l-.14-2.55c0-.16.04-.24.13-.24.35-.02.68.13.98.44.3.31.46.67.49,1.06.02.38-.1.73-.36,1.02Z"/>
  <polygon class="cls-2" points="270.41 292.77 268.6 288.85 266.78 292.77 262.71 293.39 265.65 296.45 264.96 300.75 268.6 298.72 272.23 300.75 271.54 296.45 274.48 293.39 270.41 292.77"/>
  <path class="cls-2" d="m257.85,317.1c-.19-.02-.35.03-.5.16-.14.12-.22.28-.24.47-.01.19.04.36.16.5.12.15.28.23.46.25.19.02.35-.03.5-.16.14-.12.22-.28.24-.47.01-.19-.04-.36-.16-.5-.12-.15-.28-.23-.46-.25Z"/>
  <path class="cls-2" d="m271.19,266.33s.03.12.05.21c.03.09.04.16.05.2.04.21-.42.4-1.36.57l-.86.16c-.46.09-.77.15-.91.18-.29.07-.54.2-.74.38-.45.42-.59,1.04-.44,1.86.13.73.49,1.23,1.06,1.51l-.32.06c-.2.04-.28.15-.25.35.01.06.04.13.07.21.04.12.06.2.06.22,0,.04.02.15.03.33,0,.12.02.21.03.28.05.29.2.42.43.37.23-.04.32-.18.28-.42,0-.05-.03-.12-.06-.21-.03-.09-.06-.16-.06-.21-.03-.16.14-.29.5-.4.05-.02.28-.06.7-.14l1.6-.3c.51-.1.9-.15,1.17-.17.06,0,.14,0,.23-.02.22-.04.31-.17.27-.38-.01-.06-.03-.14-.07-.25-.03-.11-.06-.19-.07-.25-.01-.06-.02-.16-.03-.29-.01-.13-.02-.23-.03-.29-.05-.27-.19-.39-.43-.34-.21.04-.29.18-.24.43l.02.13s.02.11.03.19c.03.15-.12.27-.45.37-.03,0-.26.05-.67.13l-.57.11c-.75.14-1.28.18-1.57.12-.24-.05-.45-.18-.62-.38s-.29-.46-.35-.76c-.11-.61.04-1.03.44-1.28.24-.15.67-.28,1.27-.39l.67-.13.77-.11.67-.13.22-.04c.26-.05.37-.18.33-.4,0-.01-.02-.07-.05-.17-.05-.15-.08-.26-.09-.32-.01-.07-.02-.17-.03-.31,0-.14-.02-.24-.03-.31-.06-.3-.19-.43-.41-.39-.22.04-.31.19-.27.43Z"/>
  <path class="cls-2" d="m252.06,242.69s-.02-.03-.02-.04l-.16-.23s-.02-.03-.04-.05c-.02-.02-.04-.04-.05-.05-.19-.19-.37-.21-.52-.05-.17.17-.15.36.05.56.05.04.19.16.42.36.18.14.29.25.35.31.12.12.26.27.41.46.11.14.21.25.3.34.23.22.42.25.58.09.16-.17.14-.35-.05-.54-.02-.01-.03-.03-.05-.05-.03-.01-.05-.02-.06-.03-.11-.05-.17-.09-.2-.11-.09-.09-.06-.23.09-.43.03-.04.14-.16.34-.37l.98-1.02c.48-.5.89-.77,1.23-.83.41-.07.79.06,1.12.38.3.3.43.59.38.88-.05.29-.29.66-.72,1.1l-.61.64s-.05.05-.14.15c-.1.11-.21.22-.32.33l-.37.34c-.26.26-.45.32-.57.21-.04-.03-.08-.1-.13-.19-.02-.04-.05-.09-.11-.15-.15-.15-.3-.14-.45.01-.17.17-.15.36.06.57.1.09.22.19.36.3.15.1.27.21.38.31.08.07.18.2.31.36s.23.29.31.36c.24.23.43.27.59.1.07-.07.1-.15.1-.25,0-.1-.04-.18-.11-.25-.03-.03-.08-.07-.15-.12-.07-.05-.12-.09-.15-.12-.1-.09-.1-.21,0-.35.09-.14.37-.45.83-.93l.52-.54c.48-.49.87-.79,1.17-.88.38-.11.75,0,1.11.36.19.18.31.39.36.63s.03.46-.07.67c-.1.21-.32.49-.66.85l-.49.5-.45.47c-.34.34-.56.54-.67.61-.11.06-.2.05-.29-.03-.05-.05-.09-.09-.11-.13-.07-.09-.12-.14-.14-.16-.16-.16-.32-.16-.46,0-.17.18-.15.37.06.58.09.08.22.2.4.34.18.14.31.26.4.34.08.08.19.2.33.37.14.17.24.29.32.37.2.2.39.21.56.03.15-.15.13-.32-.04-.49-.04-.03-.1-.08-.18-.13-.09-.05-.15-.09-.18-.13-.1-.1-.08-.26.07-.47.04-.05.16-.18.36-.39l.55-.57.72-.74c.35-.36.57-.66.67-.89.15-.34.16-.71.04-1.1-.11-.35-.31-.66-.59-.94-.28-.27-.54-.45-.8-.54-.26-.09-.58-.11-.96-.06.14-.62-.03-1.17-.53-1.65-.24-.24-.48-.4-.73-.47-.24-.08-.56-.09-.95-.05l.21-.22c.14-.15.15-.28.03-.4l-.02-.02-.21-.15s-.02-.02-.05-.05c-.03-.03-.06-.06-.08-.08-.07-.07-.15-.16-.23-.26-.09-.1-.16-.18-.21-.24-.21-.2-.39-.22-.56-.05-.16.16-.14.34.04.52.03.03.08.06.14.1.15.09.23.15.25.17.1.1.11.21.03.34-.08.13-.33.41-.75.84l-1.13,1.17-.42.44c-.25.24-.45.29-.58.15Z"/>
  <path class="cls-3" d="m281.77,396.58c0-5.44-.3-189.02-1.2-201.42-.9-12.4-8.67-26.31-17.63-37.2-2.39-58.67-11.93-116.69-13.42-125.46,3.53-.98,5.62-11.38-.48-17.23-1.28-1.95-1.28-4.23.64-5.2.8-1.79,2.41-6.83-4.82-8.94-4.03-.52-14.74-.71-24.27-.6-7.7.01-15.13.22-18.33.63-7.23,2.11-5.62,7.15-4.82,8.94,1.93.98,1.93,3.25.64,5.2-6.1,5.85-4.02,16.26-.48,17.23-1.49,8.77-11.03,66.79-13.42,125.46-8.96,10.89-16.73,24.8-17.63,37.2-.9,12.4-1.2,195.97-1.2,201.42s-.3,9.98,2.39,20.26c19.08,11.59,95.98,11.96,111.64-.03,2.69-10.28,2.39-14.82,2.39-20.26Zm-58-62.4c-30.45,0-55.13-24.98-55.13-55.79s24.68-55.79,55.13-55.79,55.13,24.98,55.13,55.79-24.68,55.79-55.13,55.79Z"/>
  <path class="cls-2" d="m270.03,262.29l.28-.09c.19-.06.26-.18.2-.36-.02-.07-.05-.14-.09-.18-.06-.12-.09-.2-.11-.26-.02-.07-.05-.17-.07-.31-.03-.14-.05-.25-.07-.31-.09-.29-.26-.4-.49-.32-.21.07-.29.22-.21.44.02.05.05.13.1.21.05.09.08.16.1.21.06.18-.11.35-.49.5l-2.27.78-.51.17c-.31.09-.5.05-.55-.12,0-.03-.02-.08-.03-.15l-.02-.16s-.02-.09-.04-.16c-.08-.26-.23-.36-.44-.29-.23.08-.31.25-.22.53l.23.55c.06.15.14.36.22.63.03.1.07.26.11.47.04.21.08.37.11.47v.04c.1.28.26.38.49.3.21-.07.28-.21.21-.43-.02-.05-.05-.12-.09-.18-.05-.09-.09-.17-.12-.26-.06-.18.1-.34.47-.5.05-.02.3-.11.75-.26l.66-.22c.58-.19,1.03-.28,1.36-.27.52.02.87.3,1.04.83.08.26.08.49,0,.71-.08.22-.21.36-.41.42-.07.02-.15.03-.24.01,0-.07,0-.12-.01-.14-.03-.11-.11-.19-.22-.24-.11-.05-.22-.06-.33-.03-.13.04-.23.14-.29.27-.06.14-.06.29-.01.44.08.24.23.41.46.5.23.09.49.08.79-.01.41-.14.71-.39.88-.78.17-.38.18-.81.03-1.28-.19-.59-.58-.98-1.18-1.17Z"/>
  <path class="cls-2" d="m263.71,257.63c-.02-.05-.05-.13-.08-.24-.03-.11-.06-.19-.09-.24-.1-.21-.25-.26-.45-.16-.22.11-.27.3-.13.58,0,.01.02.04.03.07.02.02.03.04.04.06l.29.45c.11.17.23.38.34.63.11.22.19.43.25.63l.16.5s.01.04.02.07c.01.03.02.04.03.06.14.29.31.38.54.27.08-.04.14-.1.17-.19.03-.09.03-.18-.01-.26-.02-.05-.07-.12-.13-.22-.06-.1-.11-.17-.13-.22-.15-.33,0-.61.48-.84l3.24-1.56.68-.28c.23-.1.43-.12.57-.06.15.06.28.2.39.44l.13.27c.24.51.14.87-.3,1.08-.11.06-.29.13-.53.22-.24.09-.41.16-.53.22-.32.15-.42.35-.31.6.12.25.31.31.57.19.06-.03.22-.12.48-.28.19-.12.34-.2.43-.24l.1-.05c.21-.08.4-.15.58-.21.18-.07.3-.11.36-.15h.02c.26-.13.31-.36.16-.68-.07-.15-.17-.35-.31-.6-.16-.29-.26-.49-.32-.61-.27-.55-.44-.89-.5-1.02l-.52-1.1c-.21-.51-.32-.78-.33-.81-.13-.34-.22-.55-.27-.64-.11-.24-.31-.3-.57-.17.05-.02-.09.05-.41.24-.17.09-.33.18-.49.25-.08.04-.28.12-.59.25-.21.08-.36.15-.44.19-.29.14-.38.33-.27.57.12.25.38.28.78.09.1-.05.18-.09.23-.12l.33-.21c.05-.03.16-.09.32-.17.44-.21.78-.09.99.37l.14.3c.22.47.1.81-.35,1.03l-1.55.75-.81.39-.84.4-.67.32c-.48.23-.79.18-.94-.14Z"/>
  <path class="cls-2" d="m259.94,248.02c-.68.5-1.08,1.08-1.23,1.73-.14.65,0,1.28.44,1.88.35.48.8.81,1.36.97.56.17,1.03.11,1.39-.16.22-.16.25-.35.09-.56-.11-.15-.24-.19-.41-.13l-.3.11c-.26.09-.53.08-.81-.02-.29-.11-.52-.29-.71-.54-.28-.38-.37-.81-.27-1.28.1-.47.36-.86.78-1.18.05-.03.09-.05.12-.04.04,0,.08.05.14.12l1.98,2.74c.1.14.18.2.25.2.07,0,.21-.09.43-.25.55-.41.88-.92.98-1.53.1-.62-.04-1.19-.43-1.73-.44-.61-1.01-.94-1.72-1-.71-.06-1.4.17-2.1.68Zm3.26.75c.22.31.31.66.25,1.06-.06.39-.23.7-.53.92-.08.06-.16.03-.25-.09l-1.49-2.06c-.09-.13-.1-.22-.02-.28.28-.21.64-.27,1.06-.17.42.09.75.3.98.62Z"/>
  <path class="cls-2" d="m223.22,325.34c-.63-.01-1.14.25-1.53.77v-.3c.01-.21-.08-.32-.27-.32-.08,0-.15,0-.21.02-.13.02-.23.02-.28.02-.07,0-.18-.01-.33-.03-.14-.02-.25-.03-.33-.03-.31,0-.47.12-.48.38,0,.24.11.36.35.36.06,0,.14,0,.24-.03.1-.02.18-.03.24-.03.2,0,.3.22.31.66l-.02,2.5v.56c-.03.34-.13.5-.32.5-.03,0-.08,0-.15-.03l-.16-.04s-.09-.01-.16-.01c-.28,0-.42.11-.42.33,0,.26.14.39.44.39l.61-.04c.17-.01.39-.01.68,0,.11,0,.27.02.49.05.22.03.38.05.49.05h.04c.3,0,.45-.12.45-.37,0-.23-.11-.35-.34-.35-.06,0-.13,0-.21.02-.1.02-.2.03-.3.03-.19,0-.3-.22-.33-.64,0-.06,0-.33,0-.83v-.73c.03-.64.09-1.12.22-1.43.2-.51.58-.76,1.15-.75.28,0,.51.08.69.23.18.15.27.33.27.55,0,.07-.02.15-.07.24-.07-.02-.12-.04-.14-.04-.12,0-.22.04-.31.13-.09.09-.13.19-.14.31,0,.15.05.27.17.38.11.11.25.16.42.16.26,0,.47-.09.64-.29.16-.2.25-.46.26-.78,0-.46-.14-.83-.45-1.13-.31-.3-.72-.45-1.23-.46Z"/>
  <path class="cls-2" d="m230.29,328.53c-.19.02-.3.12-.33.3l-.07.33c-.05.28-.2.52-.45.72s-.53.32-.85.35c-.48.05-.91-.09-1.27-.43-.36-.33-.57-.77-.62-1.32,0-.06,0-.1.03-.13.03-.03.09-.05.18-.06l3.45-.35c.17-.02.27-.06.31-.12.03-.07.03-.24,0-.52-.07-.71-.35-1.27-.83-1.69-.49-.42-1.07-.59-1.75-.52-.77.08-1.36.42-1.78,1.02-.42.6-.59,1.35-.5,2.24.09.87.38,1.54.88,2.01.5.47,1.13.67,1.89.59.61-.06,1.13-.3,1.57-.72.44-.42.64-.86.59-1.34-.03-.28-.17-.4-.44-.38Zm-3.18-2.16c.3-.33.66-.51,1.06-.56.39-.04.74.07,1.06.33.32.26.49.58.53.97.01.1-.06.16-.21.18l-2.59.26c-.16.02-.24-.03-.25-.13-.04-.37.1-.71.4-1.04Z"/>
  <path class="cls-2" d="m248.14,237.42c-.49.71-.7,1.41-.62,2.09.07.68.41,1.23,1.02,1.66.62.44,1.27.57,1.94.4.67-.17,1.25-.61,1.74-1.32.49-.71.69-1.41.61-2.08-.08-.67-.43-1.23-1.07-1.67-.62-.43-1.26-.57-1.91-.4-.66.17-1.23.61-1.72,1.32Zm2.01-.57c.43-.12.84-.05,1.25.24.88.62.92,1.51.12,2.68-.38.56-.8.91-1.25,1.05-.45.14-.89.07-1.31-.23-.41-.29-.62-.67-.64-1.14-.01-.47.17-.98.54-1.53l.08-.11c.38-.51.79-.83,1.22-.95Z"/>
  <path class="cls-2" d="m243.55,238.19c.74.37,1.44.46,2.12.26.68-.2,1.18-.64,1.52-1.32.14-.29.09-.5-.17-.63-.24-.12-.43-.03-.57.26-.15.31-.31.54-.48.69-.25.22-.56.35-.92.38-.36.03-.72-.04-1.08-.22-.65-.33-1.03-.82-1.16-1.49-.12-.67.03-1.44.46-2.31.42-.85.92-1.44,1.51-1.74.59-.31,1.19-.31,1.82,0,.48.24.79.58.95,1.01.16.43.12.87-.12,1.32l-.17.34c-.14.27-.09.46.16.59.23.11.41.03.55-.26l.05-.1.13-.39c.07-.19.14-.37.23-.54.06-.12.19-.33.38-.63.14-.25.22-.4.24-.45.13-.27.09-.45-.12-.56-.2-.1-.35-.04-.46.19,0-.01-.02.06-.08.21,0,0,0,.03-.01.08-.02.04-.04.08-.05.11l-.05.11c-.18-.76-.61-1.32-1.31-1.67-.85-.43-1.69-.45-2.52-.08-.83.38-1.5,1.09-2.01,2.12-.49,1.01-.64,1.94-.42,2.8.21.86.74,1.5,1.59,1.93Z"/>
  <path class="cls-2" d="m239.2,322.88c-.05.01-.09.03-.12.04l-.35.14c-.18.07-.36.13-.56.18-.25.06-.43.1-.56.12l-.47.05c-.06,0-.12.02-.17.03-.36.09-.51.27-.44.53.06.24.23.33.5.26.07-.02.16-.05.28-.11.12-.06.21-.1.28-.11.17-.04.28.04.33.24v.02c.04.16.07.35.07.58l.03,3.6-1.8-3.71c-.19-.39-.35-.63-.5-.75-.14-.11-.33-.14-.55-.08-.22.06-.37.17-.44.33-.07.16-.1.47-.08.9l.12,4.13-1.65-3.19c-.11-.2-.18-.38-.21-.53-.06-.22.01-.36.2-.41.09-.02.18-.03.29-.02.14-.02.23-.03.28-.04.27-.07.38-.23.31-.48-.06-.26-.26-.34-.58-.26-.05.01-.24.08-.56.21-.26.1-.49.18-.69.23-.17.04-.31.07-.41.08l-.49.05s-.07,0-.12.02c-.33.08-.46.26-.4.52.06.24.21.33.45.27.04-.01.12-.04.23-.09.08-.05.14-.09.19-.1.14-.04.27.06.4.28l2.06,3.74c.23.43.52.6.86.51.21-.05.36-.17.45-.36.09-.18.12-.47.11-.86l-.11-4.1,1.81,3.75c.29.59.62.83,1.01.74.21-.05.35-.16.43-.33.08-.17.12-.44.12-.81l.03-3.07c0-.88.11-1.35.31-1.4.01,0,.08,0,.21-.01.05.01.12.01.2,0,.24-.06.33-.22.27-.47-.06-.26-.25-.34-.57-.26Z"/>
  <path class="cls-2" d="m248.82,321.28c-.25.13-.29.34-.14.64.16.32.25.6.27.83.03.35-.06.69-.26,1.01-.2.33-.48.58-.84.77-.67.34-1.31.36-1.94.05-.62-.31-1.16-.91-1.61-1.81-.44-.88-.61-1.66-.5-2.34.11-.68.49-1.19,1.13-1.52.49-.25.96-.31,1.41-.18s.79.44,1.01.92l.18.35c.13.28.33.36.58.23.23-.12.28-.33.13-.62l-.05-.1-.23-.35c-.11-.17-.22-.35-.31-.52-.06-.12-.16-.36-.28-.71-.12-.27-.19-.43-.22-.48-.14-.27-.31-.36-.53-.25-.2.1-.24.27-.13.5,0-.01.03.05.12.19,0,0,.02.03.05.06.02.04.04.08.06.11l.06.11c-.73-.32-1.46-.3-2.18.07-.87.45-1.41,1.14-1.62,2.07-.2.93-.04,1.93.5,3,.52,1.04,1.2,1.73,2.03,2.08.83.35,1.69.31,2.56-.15.76-.39,1.26-.93,1.52-1.62.25-.69.21-1.39-.15-2.09-.15-.3-.36-.38-.63-.25Z"/>
  <path class="cls-6" d="m398.92,233.51c-.16.39-.23.56-.22.51-.08.28,0,.46.25.53.23.07.38-.02.45-.26.02-.06.04-.13.06-.19.32.44.75.75,1.31.92.6.18,1.13.17,1.59-.02.46-.19.76-.53.91-1.02.24-.8-.19-1.46-1.29-1.96l-.56-.26c-.57-.26-.79-.61-.66-1.05.07-.24.23-.41.49-.5.26-.1.54-.1.85,0,.3.09.55.24.73.46.18.21.25.43.19.63l-.1.34c-.06.22.02.36.23.43.22.07.37-.03.44-.29.02-.08.05-.2.08-.37.03-.16.06-.28.08-.37.04-.14.09-.27.15-.4.06-.16.1-.26.11-.3.06-.22-.01-.36-.24-.43-.22-.06-.36.03-.44.28v.04c-.24-.33-.58-.56-1.03-.7-.57-.17-1.08-.16-1.52.03-.44.19-.74.52-.88,1-.15.5-.07.91.23,1.22.3.31.79.61,1.46.89.71.29.99.67.85,1.14-.08.26-.25.44-.51.55-.27.11-.56.11-.89,0-.46-.14-.81-.34-1.05-.62-.24-.27-.32-.56-.24-.85.08-.3.11-.48.09-.56-.02-.08-.1-.14-.24-.18-.22-.06-.36.02-.43.26-.02.08-.04.2-.06.35-.02.15-.05.31-.1.47-.03.1-.06.19-.1.28Z"/>
  <polygon class="cls-6" points="345.25 292.77 343.43 288.85 341.61 292.77 337.55 293.39 340.49 296.45 339.79 300.75 343.43 298.72 347.07 300.75 346.37 296.45 349.31 293.39 345.25 292.77"/>
  <path class="cls-6" d="m342.98,262.89c.78.31,1.48.36,2.1.13.62-.22,1.07-.68,1.34-1.38.22-.56.25-1.12.09-1.69-.16-.57-.45-.94-.87-1.11-.25-.1-.42-.03-.52.22-.07.17-.03.31.11.42l.25.2c.21.17.35.41.41.71.06.3.04.6-.08.89-.17.44-.48.75-.93.91-.44.17-.91.15-1.4-.05-.05-.02-.08-.05-.1-.09-.01-.04,0-.1.03-.18l1.24-3.15c.06-.16.07-.27.03-.32-.04-.06-.19-.13-.44-.23-.63-.25-1.24-.26-1.81-.03-.57.24-.98.67-1.22,1.29-.28.7-.25,1.37.08,2.01.33.64.89,1.11,1.68,1.44Zm-1.11-3.19c.14-.36.39-.62.75-.78.36-.16.71-.17,1.06-.03.09.04.11.12.06.26l-.93,2.37c-.06.15-.13.2-.22.16-.33-.13-.56-.4-.71-.81-.15-.41-.15-.8,0-1.17Z"/>
  <path class="cls-6" d="m337.02,268.83c.22.06.36-.03.42-.27.01-.06.02-.13.03-.24,0-.1.01-.18.02-.23.04-.15.2-.21.48-.19.28.03.93.17,1.95.43l1.83.47c.64.17,1.06.3,1.26.39.2.09.28.19.26.31-.01.05-.05.13-.11.24-.03.04-.06.1-.08.19-.07.27,0,.43.22.48.25.06.42-.05.49-.33.02-.08.05-.26.09-.54.03-.21.06-.38.09-.5.05-.19.12-.41.21-.67.07-.19.12-.33.14-.43.08-.31,0-.49-.25-.55-.22-.06-.35.03-.41.26-.01.05-.02.13-.01.24,0,.11,0,.19-.01.25-.04.17-.24.23-.58.18-.06,0-.29-.06-.68-.16-.04-.01-.11-.03-.19-.05-.09-.05-.15-.08-.19-.09l-.74-.19c-.56-.15-.94-.34-1.15-.58-.31-.34-.39-.79-.26-1.34.13-.51.39-.81.8-.92.27-.08.76-.03,1.45.15l.55.14.44.11c.24.07.39.12.48.14.44.12.64.28.59.49-.01.06-.04.11-.07.17-.06.09-.1.18-.12.26-.02.1-.01.19.03.28.04.09.11.14.2.17.11.03.21,0,.3-.06.09-.06.15-.16.18-.28.02-.07.04-.25.07-.55.01-.1.04-.24.08-.42.04-.18.12-.41.23-.69.06-.17.11-.3.13-.39.08-.33,0-.53-.22-.59-.23-.06-.38.04-.44.29-.02.07-.03.13-.03.17.01.11.01.2,0,.25-.04.15-.23.2-.58.14-.04,0-.27-.06-.67-.16l-1.71-.43c-.55-.14-1.03-.07-1.45.2-.42.28-.71.71-.86,1.31-.08.31-.1.59-.05.85.04.25.16.55.35.89l-1.98-.55h-.02c-.23-.06-.36-.01-.4.15-.01.05-.02.13-.03.24-.01.11-.02.2-.04.27-.04.15-.08.29-.13.42-.07.19-.11.31-.12.34-.03.12-.02.23.03.33.05.1.12.16.21.19Z"/>
  <path class="cls-6" d="m343.2,276.98c.02-.33-.15-.54-.53-.65l-5.63-1.58,5.64-.69c.48-.06.74-.27.76-.64.02-.35-.16-.58-.53-.7l-4.94-1.54c-.39-.12-.63-.22-.74-.29-.11-.08-.16-.19-.15-.34,0-.04.02-.11.04-.19.02-.08.04-.15.04-.19.02-.26-.09-.39-.32-.41-.25-.02-.39.11-.41.37,0,.14,0,.35.02.64.02.28.03.5.02.64-.01.18-.07.57-.18,1.14-.02.12-.04.24-.05.35-.02.3.09.46.33.47.25.02.38-.13.4-.43,0-.06,0-.16,0-.28,0-.12,0-.21,0-.28.02-.3.17-.44.46-.42.16.01.39.06.7.14l4.31,1.21-5.7.68c-.43.05-.65.28-.68.68-.03.38.2.64.67.76l5.4,1.47-4.51.57-.34.04c-.11.01-.21.02-.3.01-.23-.02-.34-.15-.32-.4,0-.06.02-.16.04-.29.02-.13.04-.23.04-.29.02-.31-.09-.48-.35-.49-.23-.02-.36.1-.37.36,0,.1,0,.2,0,.31.03.62.04,1.01.03,1.18-.02.36-.08.73-.17,1.11-.03.13-.05.24-.05.34-.02.25.1.38.35.4.23.02.36-.09.38-.32l-.02-.24v-.07c.02-.21.08-.35.18-.44.1-.09.29-.16.56-.2l5.33-.91c.39-.07.6-.27.62-.6Z"/>
  <path class="cls-6" d="m366.14,319.96c-.69-.36-1.37-.41-2.03-.14-.67.27-1.21.81-1.62,1.62-.39.76-.51,1.49-.34,2.17.16.68.57,1.19,1.23,1.54.61.32,1.2.37,1.8.16.22-.08.44-.2.66-.37.22-.17.37-.34.46-.51.06-.11.07-.22.03-.33s-.11-.19-.22-.25c-.14-.07-.27-.06-.41.03-.03.03-.14.14-.32.33-.22.25-.48.4-.78.45-.29.05-.58,0-.87-.14-.45-.24-.72-.6-.79-1.08-.08-.48.04-1.03.36-1.64.3-.59.68-1,1.14-1.22.45-.22.9-.21,1.35.03.29.15.49.34.61.57.12.23.13.46.05.71-.34-.13-.58-.06-.71.2-.07.14-.08.29-.03.45.06.15.16.27.33.36.21.11.42.12.63.03.21-.09.38-.25.5-.49.22-.44.24-.89.04-1.35-.2-.46-.55-.83-1.07-1.1Z"/>
  <path class="cls-6" d="m362.11,317.85s-.13-.07-.24-.12c-.11-.05-.19-.09-.24-.12-.05-.04-.17-.13-.35-.28-.05-.04-.13-.09-.24-.17-.27-.18-.47-.16-.6.05-.13.2-.08.37.14.51.04.03.12.06.22.1.1.04.18.07.23.1.15.1.12.36-.09.76-.02.02-.19.29-.51.81l-.48.76c-.33.51-.5.78-.51.81-.28.38-.5.51-.65.42-.05-.03-.12-.09-.2-.17-.08-.08-.15-.14-.2-.17-.21-.14-.38-.1-.51.1-.13.21-.08.39.17.55.08.05.25.14.51.27.21.1.4.21.56.31.1.06.24.17.42.33.18.16.32.27.42.33.12.08.23.11.35.1.12-.01.2-.06.26-.15.13-.2.08-.38-.15-.53-.06-.04-.11-.06-.15-.07-.14-.05-.23-.08-.26-.1-.13-.09-.13-.28.02-.58.03-.06.14-.24.34-.55l.77-1.2c.17-.27.34-.52.5-.77.22-.33.34-.52.38-.57.02-.02.04-.06.08-.11.04-.05.06-.08.08-.11.15-.24.14-.42-.04-.53Z"/>
  <path class="cls-6" d="m361.99,316.34c-.09.14-.12.3-.08.46.04.17.12.3.26.39.14.09.29.12.46.08.17-.04.29-.13.38-.27.09-.14.12-.3.08-.46-.04-.16-.13-.29-.27-.38-.14-.09-.29-.12-.46-.09-.16.03-.29.12-.38.26Z"/>
  <path class="cls-6" d="m359.1,316.16l.4-.48c.22-.24.38-.37.49-.4.11-.03.25.03.42.17l.08.07s.05.05.09.08c.23.19.42.19.57,0,.16-.19.12-.39-.12-.6-.02-.01-.04-.03-.06-.05-.03-.02-.05-.03-.06-.04-.12-.08-.23-.15-.32-.21-.27-.17-.47-.32-.62-.44-.15-.12-.29-.27-.44-.43l-.33-.37s-.05-.06-.1-.1c-.25-.21-.46-.22-.63-.01-.06.07-.09.16-.08.26,0,.1.05.18.12.24.04.04.12.09.22.15.1.06.17.11.22.15.23.19.25.46.06.79-.03.05-.23.3-.59.74l-2.81,3.41,1.65-6.63.08-.28c.04-.17-.02-.32-.2-.47-.08-.07-.22-.17-.4-.29-.18-.12-.31-.22-.4-.29-.15-.13-.35-.32-.61-.59-.05-.05-.09-.09-.13-.12-.24-.2-.44-.2-.6,0-.15.19-.14.35.04.5.05.04.13.1.25.17.08.05.14.09.18.12.29.24.26.58-.09,1l-1.1,1.34-.6.73-.61.75-.49.59c-.35.42-.67.52-.95.27-.06-.05-.11-.11-.15-.17-.11-.11-.18-.18-.21-.21-.18-.15-.34-.14-.48.04-.16.2-.12.4.12.6.02.01.04.03.07.06.03.02.05.03.07.04l.45.3c.25.16.45.31.6.43.17.14.33.31.5.49l.3.34s.03.03.05.06c.02.02.04.03.05.04.25.21.46.22.61.03.15-.18.13-.35-.04-.5-.04-.04-.12-.09-.21-.16-.1-.07-.17-.12-.21-.16-.28-.24-.25-.57.1-1l3.25-3.94-1.6,6.47c-.13.56-.07.95.21,1.18.21.18.43.23.64.14.22-.08.49-.32.81-.71l1.86-2.26.71-.86Z"/>
  <path class="cls-6" d="m388.75,319.22c22.35,0,40.47-18.34,40.47-40.96s-18.12-40.96-40.47-40.96-40.47,18.34-40.47,40.96,18.12,40.96,40.47,40.96Zm-10.12-14.49c0-.78.04-27.19.17-28.97.13-1.78,1.25-3.78,2.54-5.35.34-8.44,1.72-16.78,1.93-18.05-.51-.14-.81-1.64.07-2.48.18-.28.18-.61-.09-.75-.12-.26-.35-.98.69-1.29.46-.06,1.53-.09,2.64-.09,1.37-.02,2.91.01,3.49.09,1.04.3.81,1.03.69,1.29-.28.14-.28.47-.09.75.88.84.58,2.34.07,2.48.22,1.26,1.59,9.61,1.93,18.05,1.29,1.57,2.41,3.57,2.54,5.35s.17,28.19.17,28.97.04,1.44-.34,2.91c-2.25,1.72-13.31,1.67-16.06,0-.39-1.48-.34-2.13-.34-2.91Z"/>
  <path class="cls-6" d="m367.43,232.78c.05-.02.12-.06.2-.12.08-.06.15-.1.2-.12.18-.07.35.08.53.46l.93,2.23.2.5c.11.31.08.5-.08.56-.03.01-.07.02-.15.04l-.16.03s-.09.02-.15.05c-.25.1-.33.26-.25.46.09.23.27.29.54.18l.53-.27c.14-.07.35-.17.61-.27.1-.04.25-.09.46-.15.21-.06.36-.11.46-.15l.04-.02c.27-.11.35-.28.26-.51-.08-.21-.23-.27-.44-.18-.05.02-.11.06-.18.1-.08.06-.17.11-.25.14-.17.07-.35-.08-.53-.44-.03-.05-.13-.3-.31-.74l-.26-.65c-.23-.57-.35-1.02-.36-1.35-.02-.53.23-.9.74-1.11.25-.1.48-.12.7-.06.22.06.37.19.44.38.03.07.04.15.03.24-.07,0-.12.01-.14.02-.1.04-.18.12-.22.24-.05.11-.05.22,0,.33.05.13.15.22.29.27.14.05.29.04.44-.02.23-.1.39-.26.46-.5.07-.24.05-.51-.07-.8-.16-.41-.44-.69-.83-.83-.39-.14-.81-.12-1.27.06-.57.23-.92.66-1.07,1.28l-.11-.27c-.08-.19-.2-.25-.37-.18-.07.03-.13.06-.18.1-.11.06-.19.11-.24.13-.07.03-.17.06-.3.1-.14.04-.24.07-.3.1-.28.12-.37.29-.28.52.08.21.23.27.45.18Z"/>
  <path class="cls-6" d="m374.94,228.09c.06-.01.15-.04.27-.09.08-.03.15-.05.21-.06.35-.07.58.16.68.68l.83,4.21c.1.52-.02.81-.38.88-.06.01-.13.02-.22.02-.13,0-.23.01-.29.02-.21.04-.3.18-.25.4.05.24.22.34.52.29.01,0,.04,0,.07-.01.03-.01.06-.02.07-.02l.47-.16c.16-.05.34-.1.52-.14.21-.04.55-.09,1.01-.15.46-.06.84-.11,1.14-.17.82-.16,1.44-.49,1.85-.97.42-.48.56-1.04.43-1.68-.13-.66-.5-1.09-1.13-1.31-.21-.07-.47-.13-.77-.16.74-.45,1.04-1.04.9-1.75-.1-.53-.38-.9-.83-1.12-.45-.22-1.02-.26-1.72-.12-.37.07-.72.16-1.04.25-.47.14-.84.23-1.1.29-.25.05-.45.08-.6.09l-.52.03-.13.03c-.32.06-.45.22-.4.46.04.22.17.31.39.27Zm6.04,3.21c.19.98-.36,1.6-1.65,1.85-.68.14-1.1.17-1.27.09-.17-.07-.3-.34-.39-.79l-.23-1.16c-.04-.19-.05-.33-.04-.42.02-.18.22-.31.59-.38l.86-.17c1.24-.25,1.95.08,2.13.98Zm-3.98-3.53c.14-.12.57-.26,1.27-.4,1.01-.2,1.58.06,1.73.8.16.8-.37,1.33-1.59,1.57l-.58.12c-.3.06-.49.05-.57-.02-.08-.07-.16-.3-.23-.67l-.13-.65c-.07-.38-.04-.63.11-.75Z"/>
  <path class="cls-6" d="m361.23,236.11s.1-.06.18-.12c.08-.05.13-.09.17-.11.18-.1.5.27.98,1.12l.43.77c.23.42.38.69.46.81.16.26.36.45.59.58.53.29,1.16.24,1.89-.18.64-.36.99-.86,1.07-1.5l.16.29c.1.18.24.22.41.12.06-.03.11-.08.18-.14.1-.08.16-.12.18-.13.04-.02.14-.07.3-.13.11-.05.19-.09.25-.12.26-.15.33-.32.21-.54-.11-.2-.27-.25-.48-.13-.04.02-.1.07-.17.13-.07.06-.13.1-.17.13-.14.08-.32-.04-.53-.35-.03-.04-.15-.25-.36-.63l-.8-1.44c-.25-.46-.43-.82-.53-1.07-.02-.06-.05-.13-.09-.22-.11-.2-.26-.25-.44-.14-.05.03-.12.08-.21.14-.09.07-.16.12-.21.14-.06.03-.14.07-.26.12-.12.05-.21.09-.26.12-.24.14-.3.31-.18.52.1.19.26.22.48.1l.11-.06s.1-.06.17-.09c.13-.07.29.03.49.31.02.03.13.23.33.61l.28.51c.37.68.58,1.16.62,1.46.03.24-.02.48-.16.72-.14.24-.34.43-.6.58-.53.3-.98.3-1.34-.01-.22-.19-.47-.55-.77-1.09l-.33-.61-.35-.7-.33-.61-.11-.2c-.13-.24-.29-.3-.48-.19-.01,0-.06.04-.15.11-.12.1-.21.16-.27.19-.06.03-.16.08-.28.13-.13.05-.22.1-.28.13-.26.15-.34.32-.23.52.11.2.28.24.49.12Z"/>
  <path class="cls-6" d="m371.29,322.26c-.73-.27-1.4-.24-2.02.09-.62.34-1.08.92-1.39,1.76-.31.84-.34,1.59-.1,2.25.24.66.72,1.13,1.44,1.4.73.28,1.42.24,2.05-.1.63-.34,1.1-.93,1.41-1.77.31-.84.34-1.59.09-2.24-.25-.65-.74-1.12-1.49-1.4Zm.56,3.34c-.24.65-.57,1.11-.99,1.37-.42.26-.88.3-1.37.11-.48-.18-.79-.51-.92-.98-.13-.47-.08-1.03.16-1.68l.05-.13c.26-.61.58-1.03.98-1.27.4-.23.83-.26,1.31-.08,1.03.39,1.3,1.27.79,2.65Z"/>
  <path class="cls-6" d="m385.43,233.18c.59-.03,1.11-.25,1.55-.63.44-.39.65-.81.62-1.27-.02-.27-.15-.4-.41-.38-.18.01-.29.1-.33.28l-.08.31c-.06.27-.22.49-.46.68s-.52.29-.83.31c-.47.03-.87-.13-1.21-.46-.34-.34-.52-.77-.55-1.3,0-.06,0-.1.04-.13.03-.03.09-.04.18-.05l3.35-.2c.17,0,.27-.05.3-.11.03-.06.04-.23.02-.5-.04-.69-.29-1.24-.74-1.67-.45-.42-1.01-.61-1.67-.58-.74.04-1.33.35-1.76.92-.43.57-.62,1.28-.57,2.15.05.85.3,1.51.77,1.98.46.48,1.06.69,1.8.65Zm-1.23-4.5c.31-.31.66-.47,1.05-.5.38-.02.72.1,1.01.36.3.26.46.58.48.96,0,.1-.07.15-.21.16l-2.52.15c-.15,0-.23-.04-.24-.14-.02-.36.12-.69.43-.99Z"/>
  <path class="cls-6" d="m343.42,256.53c.03-.05.05-.12.08-.22.03-.1.06-.17.08-.22.09-.17.32-.16.7.02l2.12,1.12.47.26c.28.17.38.33.29.49-.01.03-.04.07-.09.12l-.1.13s-.05.07-.08.14c-.13.24-.1.41.1.52.22.12.39.05.53-.21l.23-.55c.06-.15.16-.35.29-.6.05-.09.14-.23.26-.41.12-.18.21-.32.26-.41l.02-.04c.14-.26.1-.44-.12-.56-.2-.11-.35-.06-.45.14-.03.05-.05.11-.07.19-.03.1-.06.19-.1.27-.09.16-.31.16-.68,0-.05-.02-.29-.14-.7-.37l-.61-.33c-.54-.29-.91-.56-1.13-.81-.35-.4-.39-.84-.13-1.33.13-.24.29-.4.5-.5.21-.09.4-.09.58,0,.06.03.12.09.17.17-.05.05-.08.09-.09.11-.05.1-.06.21-.02.33.04.12.11.2.2.26.12.07.26.07.4.02.14-.05.25-.15.32-.3.12-.23.13-.45.03-.68-.1-.23-.28-.42-.55-.57-.38-.21-.77-.24-1.16-.1-.39.14-.7.43-.93.87-.29.55-.29,1.1-.01,1.68l-.26-.14c-.18-.1-.31-.06-.39.1-.04.07-.06.13-.07.19-.04.12-.08.21-.11.26-.03.06-.09.15-.17.27-.08.12-.14.21-.17.27-.14.27-.11.46.11.58.2.11.35.06.46-.15Z"/>
  <path class="cls-6" d="m390.77,233.2c.59.04,1.13-.11,1.61-.44.49-.33.74-.73.77-1.19.02-.27-.11-.41-.36-.43-.18-.01-.3.07-.36.23l-.11.3c-.09.26-.27.46-.54.62-.27.15-.55.22-.86.2-.47-.03-.85-.23-1.15-.61-.29-.37-.42-.83-.39-1.36,0-.06.02-.1.05-.12.03-.02.09-.03.18-.03l3.35.21c.17.01.27-.01.31-.07.04-.06.07-.22.08-.49.04-.69-.14-1.27-.54-1.74-.4-.47-.93-.73-1.59-.77-.74-.05-1.36.19-1.86.7-.5.51-.77,1.2-.82,2.07-.05.85.12,1.53.53,2.06.4.53.98.81,1.71.86Zm-.69-4.62c.34-.27.71-.39,1.1-.36.38.02.7.18.96.48.26.29.38.63.36,1.01,0,.1-.08.14-.23.14l-2.52-.16c-.15,0-.23-.06-.22-.16.02-.35.2-.67.54-.93Z"/>
  <path class="cls-6" d="m393.9,233.33l.59.05c.16.01.38.05.66.1.1.02.26.06.46.12.21.06.36.1.46.12h.04c.28.06.45-.04.49-.28.04-.22-.05-.35-.27-.39-.06-.01-.12-.01-.2,0-.1,0-.2,0-.29-.02-.18-.03-.25-.25-.22-.66,0-.06.05-.32.13-.79l.12-.69c.11-.61.24-1.05.41-1.34.27-.46.67-.64,1.21-.54.26.05.47.16.62.33.15.17.21.36.17.56-.01.07-.05.14-.1.22-.07-.03-.11-.05-.13-.06-.11-.02-.22,0-.31.08-.1.07-.16.16-.18.28-.02.14,0,.27.1.39.09.12.22.19.38.22.25.05.47-.01.65-.18.19-.16.31-.4.36-.71.08-.43-.01-.82-.26-1.15-.25-.33-.62-.54-1.1-.63-.6-.11-1.13.06-1.58.5l.05-.29c.04-.2-.04-.32-.22-.35-.08-.01-.14-.02-.2,0-.13,0-.22-.01-.27-.02-.07-.01-.17-.04-.31-.08-.13-.04-.24-.07-.31-.08-.3-.05-.47.04-.51.29-.04.22.05.36.28.4.06.01.13.01.23.01.1,0,.18,0,.23.01.19.03.25.26.2.68l-.39,2.39-.09.54c-.07.32-.19.46-.37.43-.03,0-.08-.02-.14-.05l-.15-.06s-.09-.03-.16-.04c-.27-.05-.42.04-.46.25-.04.25.08.39.36.44Z"/>
  <path class="cls-6" d="m359.24,242.62c.66.14,1.29,0,1.88-.45.61-.46.94-1.04.99-1.74.05-.7-.18-1.4-.69-2.09-.51-.7-1.1-1.11-1.75-1.25-.65-.14-1.29.03-1.9.49-.6.46-.93,1.03-.98,1.71-.05.68.18,1.37.69,2.07.51.7,1.1,1.12,1.76,1.26Zm-1.04-4.49c.86-.65,1.7-.4,2.55.74.4.54.6,1.05.59,1.53,0,.48-.22.88-.63,1.19-.4.3-.82.39-1.27.25-.45-.14-.87-.47-1.27-1.01l-.08-.11c-.36-.53-.53-1.02-.51-1.47.02-.45.23-.82.62-1.12Z"/>
  <path class="cls-6" d="m347.66,252.9c.69.48,1.36.69,2.02.61.66-.08,1.19-.42,1.61-1.04.34-.49.49-1.03.46-1.62-.03-.59-.23-1.02-.6-1.28-.22-.15-.4-.12-.55.09-.1.15-.1.3,0,.44l.2.26c.17.21.25.48.24.79,0,.31-.1.59-.28.85-.27.39-.64.62-1.11.68s-.92-.06-1.35-.37c-.05-.03-.07-.07-.08-.1,0-.04.02-.09.07-.17l1.91-2.79c.1-.14.13-.24.1-.31-.03-.06-.15-.17-.37-.33-.56-.39-1.15-.54-1.75-.44-.61.1-1.1.43-1.48.98-.43.62-.55,1.28-.38,1.97s.61,1.29,1.32,1.78Zm-.37-3.36c.22-.32.52-.51.9-.59.39-.08.73,0,1.04.21.08.06.08.15,0,.27l-1.44,2.1c-.09.13-.17.16-.25.11-.29-.2-.46-.52-.51-.95-.05-.43.04-.81.26-1.14Z"/>
  <path class="cls-6" d="m349.98,243.39s.04-.04.08-.07c.03-.03.05-.05.07-.07.01-.05.05-.1.11-.16.11-.11.24-.16.39-.16.05,0,.2.03.44.09l3.73.94c.05.06.12.12.21.2.07.08.12.13.14.15.39.41.6.64.64.69.21.32.21.58,0,.79-.04.04-.11.09-.2.15-.09.06-.16.11-.2.15-.16.16-.16.32,0,.49.17.18.37.16.6-.06.01,0,.03-.03.05-.05.02-.02.03-.04.04-.05l.34-.43c.13-.16.27-.32.44-.48.15-.15.32-.29.49-.42l.47-.35s.04-.03.06-.04c.03-.02.04-.04.05-.04.23-.22.25-.43.08-.61-.16-.16-.31-.17-.47-.02-.04.04-.1.11-.17.2-.07.09-.13.16-.17.2-.17.17-.34.21-.51.12-.16-.09-.5-.39-.99-.92l-.31-.32-.76-3.84-.05-.29c-.04-.2.01-.37.14-.5.03-.03.09-.08.18-.15.05-.03.11-.08.19-.15.19-.18.2-.36.05-.52-.17-.18-.35-.18-.54.01-.07.07-.15.16-.24.27-.22.3-.45.55-.66.76-.21.2-.47.42-.8.66-.12.09-.22.17-.3.24-.2.2-.22.39-.05.57.17.18.36.17.57-.03.05-.04.11-.11.19-.2l.18-.21.12-.16h.02c.07-.08.12-.09.16-.04.04.04.06.09.08.16l.72,3.15-3.06-.87c-.05-.02-.09-.03-.1-.03-.01,0-.03-.01-.05-.04-.04-.05-.03-.1.03-.15l.15-.15.19-.18.08-.07c.25-.24.29-.45.13-.62-.17-.17-.35-.16-.56.04-.08.07-.16.17-.25.29-.27.35-.49.6-.64.76-.21.21-.46.41-.74.6-.14.1-.25.19-.33.26-.2.2-.22.39-.04.57.17.18.37.16.61-.07Z"/>
  <path class="cls-6" d="m383.43,325.27c.09-.55-.05-1.01-.41-1.39-.36-.37-.9-.62-1.62-.73-.39-.06-.75-.1-1.09-.13-.51-.04-.9-.08-1.17-.12-.26-.04-.46-.08-.61-.13l-.52-.16-.14-.02c-.33-.05-.51.05-.55.3-.04.23.06.37.28.4.06.01.16.01.3.01.09,0,.16,0,.23.01.37.06.51.36.42.9l-.68,4.38c-.08.54-.31.78-.67.72-.06,0-.13-.03-.22-.06-.13-.04-.23-.07-.29-.08-.22-.04-.35.06-.39.3-.04.25.09.41.4.47.01,0,.04,0,.08.01.04,0,.06,0,.08,0l.52.02c.18,0,.36.02.55.05.22.04.57.11,1.04.22.47.11.86.19,1.16.24.85.14,1.57.05,2.14-.27.57-.31.91-.81,1.01-1.47.11-.68-.1-1.24-.63-1.68-.18-.15-.41-.29-.69-.43.88-.17,1.38-.63,1.49-1.37Zm-1.11,3.31c-.16,1.02-.91,1.42-2.25,1.2-.7-.11-1.13-.24-1.27-.37-.14-.13-.17-.44-.1-.91l.19-1.21c.03-.2.07-.34.11-.42.08-.17.32-.22.71-.15l.89.14c1.29.21,1.86.78,1.72,1.71Zm-1.95-2.44l-.6-.1c-.31-.05-.49-.12-.54-.23-.05-.1-.05-.34,0-.73l.11-.68c.06-.39.18-.62.37-.69.18-.07.64-.04,1.37.07,1.05.17,1.51.63,1.39,1.39-.13.84-.83,1.15-2.1.95Z"/>
  <path class="cls-6" d="m417.7,316.18c-.67-.16-1.33-.02-1.98.44-.64.45-1,1.03-1.07,1.73-.08.7.14,1.42.64,2.16.51.74,1.1,1.19,1.77,1.36.68.17,1.33.04,1.95-.4.64-.45,1.01-1.04,1.09-1.76.08-.72-.13-1.45-.64-2.18-.51-.74-1.09-1.19-1.76-1.35Zm.91,4.69c-.42.3-.86.37-1.32.21-.46-.16-.88-.52-1.27-1.09l-.08-.12c-.35-.56-.51-1.07-.47-1.54.04-.46.26-.84.68-1.14.91-.64,1.77-.35,2.6.85.39.57.58,1.11.55,1.61-.03.5-.26.9-.69,1.2Z"/>
  <path class="cls-6" d="m435.16,273.36c-.84.05-1.49.3-1.96.77-.47.47-.69,1.07-.65,1.82.03.6.24,1.12.62,1.57.38.45.8.66,1.25.64.27-.01.39-.15.38-.42,0-.18-.1-.3-.27-.34l-.31-.08c-.26-.06-.49-.22-.67-.47-.18-.25-.28-.53-.3-.84-.03-.48.13-.88.46-1.22.33-.34.76-.52,1.29-.55.06,0,.1,0,.12.04.03.03.04.09.05.18l.18,3.39c0,.17.04.27.11.3.06.03.23.04.49.03.68-.04,1.23-.29,1.65-.74.42-.46.61-1.02.57-1.69-.04-.75-.34-1.35-.9-1.79-.56-.44-1.27-.64-2.12-.59Zm1.97,3.45c-.26.3-.57.46-.95.48-.1,0-.15-.07-.16-.22l-.14-2.55c0-.16.04-.24.13-.24.35-.02.68.13.98.44.3.31.46.67.49,1.06.02.38-.1.73-.36,1.02Z"/>
  <polygon class="cls-6" points="435.26 292.77 433.44 288.85 431.62 292.77 427.56 293.39 430.5 296.45 429.8 300.75 433.44 298.72 437.07 300.75 436.38 296.45 439.32 293.39 435.26 292.77"/>
  <path class="cls-6" d="m422.69,317.1c-.19-.02-.35.03-.5.16-.14.12-.22.28-.24.47-.01.19.04.36.16.5.12.15.28.23.46.25.19.02.35-.03.5-.16.14-.12.22-.28.24-.47.01-.19-.04-.36-.16-.5-.12-.15-.28-.23-.46-.25Z"/>
  <path class="cls-6" d="m436.03,266.33s.03.12.05.21c.03.09.04.16.05.2.04.21-.42.4-1.36.57l-.86.16c-.46.09-.77.15-.91.18-.29.07-.54.2-.74.38-.45.42-.59,1.04-.44,1.86.13.73.49,1.23,1.06,1.51l-.32.06c-.2.04-.28.15-.25.35.01.06.04.13.07.21.04.12.06.2.06.22,0,.04.02.15.03.33,0,.12.02.21.03.28.05.29.2.42.43.37.23-.04.32-.18.28-.42,0-.05-.03-.12-.06-.21-.03-.09-.06-.16-.06-.21-.03-.16.14-.29.5-.4.05-.02.28-.06.7-.14l1.6-.3c.51-.1.9-.15,1.17-.17.06,0,.14,0,.23-.02.22-.04.31-.17.27-.38-.01-.06-.03-.14-.07-.25-.03-.11-.06-.19-.07-.25-.01-.06-.02-.16-.03-.29-.01-.13-.02-.23-.03-.29-.05-.27-.19-.39-.43-.34-.21.04-.29.18-.24.43l.02.13s.02.11.03.19c.03.15-.12.27-.45.37-.03,0-.26.05-.67.13l-.57.11c-.75.14-1.28.18-1.57.12-.24-.05-.45-.18-.62-.38s-.29-.46-.35-.76c-.11-.61.04-1.03.44-1.28.24-.15.67-.28,1.27-.39l.67-.13.77-.11.67-.13.22-.04c.26-.05.37-.18.33-.4,0-.01-.02-.07-.05-.17-.05-.15-.08-.26-.09-.32-.01-.07-.02-.17-.03-.31,0-.14-.02-.24-.03-.31-.06-.3-.19-.43-.41-.39-.22.04-.31.19-.27.43Z"/>
  <path class="cls-6" d="m416.91,242.69s-.02-.03-.02-.04l-.16-.23s-.02-.03-.04-.05c-.02-.02-.04-.04-.05-.05-.19-.19-.37-.21-.52-.05-.17.17-.15.36.05.56.05.04.19.16.42.36.18.14.29.25.35.31.12.12.26.27.41.46.11.14.21.25.3.34.23.22.42.25.58.09.16-.17.14-.35-.05-.54-.02-.01-.03-.03-.05-.05-.03-.01-.05-.02-.06-.03-.11-.05-.17-.09-.2-.11-.09-.09-.06-.23.09-.43.03-.04.14-.16.34-.37l.98-1.02c.48-.5.89-.77,1.23-.83.41-.07.79.06,1.12.38.3.3.43.59.38.88-.05.29-.29.66-.72,1.1l-.61.64s-.05.05-.14.15c-.1.11-.21.22-.32.33l-.37.34c-.26.26-.45.32-.57.21-.04-.03-.08-.1-.13-.19-.02-.04-.05-.09-.11-.15-.15-.15-.3-.14-.45.01-.17.17-.15.36.06.57.1.09.22.19.36.3.15.1.27.21.38.31.08.07.18.2.31.36s.23.29.31.36c.24.23.43.27.59.1.07-.07.1-.15.1-.25,0-.1-.04-.18-.11-.25-.03-.03-.08-.07-.15-.12-.07-.05-.12-.09-.15-.12-.1-.09-.1-.21,0-.35.09-.14.37-.45.83-.93l.52-.54c.48-.49.87-.79,1.17-.88.38-.11.75,0,1.11.36.19.18.31.39.36.63s.03.46-.07.67c-.1.21-.32.49-.66.85l-.49.5-.45.47c-.34.34-.56.54-.67.61-.11.06-.2.05-.29-.03-.05-.05-.09-.09-.11-.13-.07-.09-.12-.14-.14-.16-.16-.16-.32-.16-.46,0-.17.18-.15.37.06.58.09.08.22.2.4.34.18.14.31.26.4.34.08.08.19.2.33.37.14.17.24.29.32.37.2.2.39.21.56.03.15-.15.13-.32-.04-.49-.04-.03-.1-.08-.18-.13-.09-.05-.15-.09-.18-.13-.1-.1-.08-.26.07-.47.04-.05.16-.18.36-.39l.55-.57.72-.74c.35-.36.57-.66.67-.89.15-.34.16-.71.04-1.1-.11-.35-.31-.66-.59-.94-.28-.27-.54-.45-.8-.54-.26-.09-.58-.11-.96-.06.14-.62-.03-1.17-.53-1.65-.24-.24-.48-.4-.73-.47-.24-.08-.56-.09-.95-.05l.21-.22c.14-.15.15-.28.03-.4l-.02-.02-.21-.15s-.02-.02-.05-.05c-.03-.03-.06-.06-.08-.08-.07-.07-.15-.16-.23-.26-.09-.1-.16-.18-.21-.24-.21-.2-.39-.22-.56-.05-.16.16-.14.34.04.52.03.03.08.06.14.1.15.09.23.15.25.17.1.1.11.21.03.34-.08.13-.33.41-.75.84l-1.13,1.17-.42.44c-.25.24-.45.29-.58.15Z"/>
  <path class="cls-4" d="m446.62,396.58c0-5.44-.3-189.02-1.2-201.42-.9-12.4-8.67-26.31-17.63-37.2-2.39-58.67-11.93-116.69-13.42-125.46,3.53-.98,5.62-11.38-.48-17.23-1.28-1.95-1.28-4.23.64-5.2.8-1.79,2.41-6.83-4.82-8.94-4.03-.52-14.74-.71-24.27-.6-7.7.01-15.13.22-18.33.63-7.23,2.11-5.62,7.15-4.82,8.94,1.93.98,1.93,3.25.64,5.2-6.1,5.85-4.02,16.26-.48,17.23-1.49,8.77-11.03,66.79-13.42,125.46-8.96,10.89-16.73,24.8-17.63,37.2-.9,12.4-1.2,195.97-1.2,201.42s-.3,9.98,2.39,20.26c19.08,11.59,95.98,11.96,111.64-.03,2.69-10.28,2.39-14.82,2.39-20.26Zm-58-62.4c-30.45,0-55.13-24.98-55.13-55.79s24.68-55.79,55.13-55.79,55.13,24.98,55.13,55.79-24.68,55.79-55.13,55.79Z"/>
  <path class="cls-6" d="m434.87,262.29l.28-.09c.19-.06.26-.18.2-.36-.02-.07-.05-.14-.09-.18-.06-.12-.09-.2-.11-.26-.02-.07-.05-.17-.07-.31-.03-.14-.05-.25-.07-.31-.09-.29-.26-.4-.49-.32-.21.07-.29.22-.21.44.02.05.05.13.1.21.05.09.08.16.1.21.06.18-.11.35-.49.5l-2.27.78-.51.17c-.31.09-.5.05-.55-.12,0-.03-.02-.08-.03-.15l-.02-.16s-.02-.09-.04-.16c-.08-.26-.23-.36-.44-.29-.23.08-.31.25-.22.53l.23.55c.06.15.14.36.22.63.03.1.07.26.11.47.04.21.08.37.11.47v.04c.1.28.26.38.49.3.21-.07.28-.21.21-.43-.02-.05-.05-.12-.09-.18-.05-.09-.09-.17-.12-.26-.06-.18.1-.34.47-.5.05-.02.3-.11.75-.26l.66-.22c.58-.19,1.03-.28,1.36-.27.52.02.87.3,1.04.83.08.26.08.49,0,.71-.08.22-.21.36-.41.42-.07.02-.15.03-.24.01,0-.07,0-.12-.01-.14-.03-.11-.11-.19-.22-.24-.11-.05-.22-.06-.33-.03-.13.04-.23.14-.29.27-.06.14-.06.29-.01.44.08.24.23.41.46.5.23.09.49.08.79-.01.41-.14.71-.39.88-.78.17-.38.18-.81.03-1.28-.19-.59-.58-.98-1.18-1.17Z"/>
  <path class="cls-6" d="m428.55,257.63c-.02-.05-.05-.13-.08-.24-.03-.11-.06-.19-.09-.24-.1-.21-.25-.26-.45-.16-.22.11-.27.3-.13.58,0,.01.02.04.03.07.02.02.03.04.04.06l.29.45c.11.17.23.38.34.63.11.22.19.43.25.63l.16.5s.01.04.02.07c.01.03.02.04.03.06.14.29.31.38.54.27.08-.04.14-.1.17-.19.03-.09.03-.18-.01-.26-.02-.05-.07-.12-.13-.22-.06-.1-.11-.17-.13-.22-.15-.33,0-.61.48-.84l3.24-1.56.68-.28c.23-.1.43-.12.57-.06.15.06.28.2.39.44l.13.27c.24.51.14.87-.3,1.08-.11.06-.29.13-.53.22-.24.09-.41.16-.53.22-.32.15-.42.35-.31.6.12.25.31.31.57.19.06-.03.22-.12.48-.28.19-.12.34-.2.43-.24l.1-.05c.21-.08.4-.15.58-.21.18-.07.3-.11.36-.15h.02c.26-.13.31-.36.16-.68-.07-.15-.17-.35-.31-.6-.16-.29-.26-.49-.32-.61-.27-.55-.44-.89-.5-1.02l-.52-1.1c-.21-.51-.32-.78-.33-.81-.13-.34-.22-.55-.27-.64-.11-.24-.31-.3-.57-.17.05-.02-.09.05-.41.24-.17.09-.33.18-.49.25-.08.04-.28.12-.59.25-.21.08-.36.15-.44.19-.29.14-.38.33-.27.57.12.25.38.28.78.09.1-.05.18-.09.23-.12l.33-.21c.05-.03.16-.09.32-.17.44-.21.78-.09.99.37l.14.3c.22.47.1.81-.35,1.03l-1.55.75-.81.39-.84.4-.67.32c-.48.23-.79.18-.94-.14Z"/>
  <path class="cls-6" d="m424.79,248.02c-.68.5-1.08,1.08-1.23,1.73-.14.65,0,1.28.44,1.88.35.48.8.81,1.36.97.56.17,1.03.11,1.39-.16.22-.16.25-.35.09-.56-.11-.15-.24-.19-.41-.13l-.3.11c-.26.09-.53.08-.81-.02-.29-.11-.52-.29-.71-.54-.28-.38-.37-.81-.27-1.28.1-.47.36-.86.78-1.18.05-.03.09-.05.12-.04.04,0,.08.05.14.12l1.98,2.74c.1.14.18.2.25.2.07,0,.21-.09.43-.25.55-.41.88-.92.98-1.53.1-.62-.04-1.19-.43-1.73-.44-.61-1.01-.94-1.72-1-.71-.06-1.4.17-2.1.68Zm3.26.75c.22.31.31.66.25,1.06-.06.39-.23.7-.53.92-.08.06-.16.03-.25-.09l-1.49-2.06c-.09-.13-.1-.22-.02-.28.28-.21.64-.27,1.06-.17.42.09.75.3.98.62Z"/>
  <path class="cls-6" d="m388.06,325.34c-.63-.01-1.14.25-1.53.77v-.3c.01-.21-.08-.32-.27-.32-.08,0-.15,0-.21.02-.13.02-.23.02-.28.02-.07,0-.18-.01-.33-.03-.14-.02-.25-.03-.33-.03-.31,0-.47.12-.48.38,0,.24.11.36.35.36.06,0,.14,0,.24-.03.1-.02.18-.03.24-.03.2,0,.3.22.31.66l-.02,2.5v.56c-.03.34-.13.5-.32.5-.03,0-.08,0-.15-.03l-.16-.04s-.09-.01-.16-.01c-.28,0-.42.11-.42.33,0,.26.14.39.44.39l.61-.04c.17-.01.39-.01.68,0,.11,0,.27.02.49.05.22.03.38.05.49.05h.04c.3,0,.45-.12.45-.37,0-.23-.11-.35-.34-.35-.06,0-.13,0-.21.02-.1.02-.2.03-.3.03-.19,0-.3-.22-.33-.64,0-.06,0-.33,0-.83v-.73c.03-.64.09-1.12.22-1.43.2-.51.58-.76,1.15-.75.28,0,.51.08.69.23.18.15.27.33.27.55,0,.07-.02.15-.07.24-.07-.02-.12-.04-.14-.04-.12,0-.22.04-.31.13-.09.09-.13.19-.14.31,0,.15.05.27.17.38.11.11.25.16.42.16.26,0,.47-.09.64-.29.16-.2.25-.46.26-.78,0-.46-.14-.83-.45-1.13-.31-.3-.72-.45-1.23-.46Z"/>
  <path class="cls-6" d="m395.13,328.53c-.19.02-.3.12-.33.3l-.07.33c-.05.28-.2.52-.45.72s-.53.32-.85.35c-.48.05-.91-.09-1.27-.43-.36-.33-.57-.77-.62-1.32,0-.06,0-.1.03-.13.03-.03.09-.05.18-.06l3.45-.35c.17-.02.27-.06.31-.12.03-.07.03-.24,0-.52-.07-.71-.35-1.27-.83-1.69-.49-.42-1.07-.59-1.75-.52-.77.08-1.36.42-1.78,1.02-.42.6-.59,1.35-.5,2.24.09.87.38,1.54.88,2.01.5.47,1.13.67,1.89.59.61-.06,1.13-.3,1.57-.72.44-.42.64-.86.59-1.34-.03-.28-.17-.4-.44-.38Zm-3.18-2.16c.3-.33.66-.51,1.06-.56.39-.04.74.07,1.06.33.32.26.49.58.53.97.01.1-.06.16-.21.18l-2.59.26c-.16.02-.24-.03-.25-.13-.04-.37.1-.71.4-1.04Z"/>
  <path class="cls-6" d="m412.99,237.42c-.49.71-.7,1.41-.62,2.09.07.68.41,1.23,1.02,1.66.62.44,1.27.57,1.94.4.67-.17,1.25-.61,1.74-1.32.49-.71.69-1.41.61-2.08-.08-.67-.43-1.23-1.07-1.67-.62-.43-1.26-.57-1.91-.4-.66.17-1.23.61-1.72,1.32Zm2.01-.57c.43-.12.84-.05,1.25.24.88.62.92,1.51.12,2.68-.38.56-.8.91-1.25,1.05-.45.14-.89.07-1.31-.23-.41-.29-.62-.67-.64-1.14-.01-.47.17-.98.54-1.53l.08-.11c.38-.51.79-.83,1.22-.95Z"/>
  <path class="cls-6" d="m408.39,238.19c.74.37,1.44.46,2.12.26.68-.2,1.18-.64,1.52-1.32.14-.29.09-.5-.17-.63-.24-.12-.43-.03-.57.26-.15.31-.31.54-.48.69-.25.22-.56.35-.92.38-.36.03-.72-.04-1.08-.22-.65-.33-1.03-.82-1.16-1.49-.12-.67.03-1.44.46-2.31.42-.85.92-1.44,1.51-1.74.59-.31,1.19-.31,1.82,0,.48.24.79.58.95,1.01.16.43.12.87-.12,1.32l-.17.34c-.14.27-.09.46.16.59.23.11.41.03.55-.26l.05-.1.13-.39c.07-.19.14-.37.23-.54.06-.12.19-.33.38-.63.14-.25.22-.4.24-.45.13-.27.09-.45-.12-.56-.2-.1-.35-.04-.46.19,0-.01-.02.06-.08.21,0,0,0,.03-.01.08-.02.04-.04.08-.05.11l-.05.11c-.18-.76-.61-1.32-1.31-1.67-.85-.43-1.69-.45-2.52-.08-.83.38-1.5,1.09-2.01,2.12-.49,1.01-.64,1.94-.42,2.8.21.86.74,1.5,1.59,1.93Z"/>
  <path class="cls-6" d="m404.04,322.88c-.05.01-.09.03-.12.04l-.35.14c-.18.07-.36.13-.56.18-.25.06-.43.1-.56.12l-.47.05c-.06,0-.12.02-.17.03-.36.09-.51.27-.44.53.06.24.23.33.5.26.07-.02.16-.05.28-.11.12-.06.21-.1.28-.11.17-.04.28.04.33.24v.02c.04.16.07.35.07.58l.03,3.6-1.8-3.71c-.19-.39-.35-.63-.5-.75-.14-.11-.33-.14-.55-.08-.22.06-.37.17-.44.33-.07.16-.1.47-.08.9l.12,4.13-1.65-3.19c-.11-.2-.18-.38-.21-.53-.06-.22.01-.36.2-.41.09-.02.18-.03.29-.02.14-.02.23-.03.28-.04.27-.07.38-.23.31-.48-.06-.26-.26-.34-.58-.26-.05.01-.24.08-.56.21-.26.1-.49.18-.69.23-.17.04-.31.07-.41.08l-.49.05s-.07,0-.12.02c-.33.08-.46.26-.4.52.06.24.21.33.45.27.04-.01.12-.04.23-.09.08-.05.14-.09.19-.1.14-.04.27.06.4.28l2.06,3.74c.23.43.52.6.86.51.21-.05.36-.17.45-.36.09-.18.12-.47.11-.86l-.11-4.1,1.81,3.75c.29.59.62.83,1.01.74.21-.05.35-.16.43-.33.08-.17.12-.44.12-.81l.03-3.07c0-.88.11-1.35.31-1.4.01,0,.08,0,.21-.01.05.01.12.01.2,0,.24-.06.33-.22.27-.47-.06-.26-.25-.34-.57-.26Z"/>
  <path class="cls-6" d="m413.66,321.28c-.25.13-.29.34-.14.64.16.32.25.6.27.83.03.35-.06.69-.26,1.01-.2.33-.48.58-.84.77-.67.34-1.31.36-1.94.05-.62-.31-1.16-.91-1.61-1.81-.44-.88-.61-1.66-.5-2.34.11-.68.49-1.19,1.13-1.52.49-.25.96-.31,1.41-.18s.79.44,1.01.92l.18.35c.13.28.33.36.58.23.23-.12.28-.33.13-.62l-.05-.1-.23-.35c-.11-.17-.22-.35-.31-.52-.06-.12-.16-.36-.28-.71-.12-.27-.19-.43-.22-.48-.14-.27-.31-.36-.53-.25-.2.1-.24.27-.13.5,0-.01.03.05.12.19,0,0,.02.03.05.06.02.04.04.08.06.11l.06.11c-.73-.32-1.46-.3-2.18.07-.87.45-1.41,1.14-1.62,2.07-.2.93-.04,1.93.5,3,.52,1.04,1.2,1.73,2.03,2.08.83.35,1.69.31,2.56-.15.76-.39,1.26-.93,1.52-1.62.25-.69.21-1.39-.15-2.09-.15-.3-.36-.38-.63-.25Z"/>
  <path class="cls-7" d="m69.24,233.51c-.16.39-.23.56-.22.51-.08.28,0,.46.25.53.23.07.38-.02.45-.26.02-.06.04-.13.06-.19.32.44.75.75,1.31.92.6.18,1.13.17,1.59-.02.46-.19.76-.53.91-1.02.24-.8-.19-1.46-1.29-1.96l-.56-.26c-.57-.26-.79-.61-.66-1.05.07-.24.23-.41.49-.5.26-.1.54-.1.85,0,.3.09.55.24.73.46.18.21.25.43.19.63l-.1.34c-.06.22.02.36.23.43.22.07.37-.03.44-.29.02-.08.05-.2.08-.37.03-.16.06-.28.08-.37.04-.14.09-.27.15-.4.06-.16.1-.26.11-.3.06-.22-.01-.36-.24-.43-.22-.06-.36.03-.44.28v.04c-.24-.33-.58-.56-1.03-.7-.57-.17-1.08-.16-1.52.03-.44.19-.74.52-.88,1-.15.5-.07.91.23,1.22.3.31.79.61,1.46.89.71.29.99.67.85,1.14-.08.26-.25.44-.51.55-.27.11-.56.11-.89,0-.46-.14-.81-.34-1.05-.62-.24-.27-.32-.56-.24-.85.08-.3.11-.48.09-.56-.02-.08-.1-.14-.24-.18-.22-.06-.36.02-.43.26-.02.08-.04.2-.06.35-.02.15-.05.31-.1.47-.03.1-.06.19-.1.28Z"/>
  <polygon class="cls-7" points="15.56 292.77 13.74 288.85 11.93 292.77 7.86 293.39 10.8 296.45 10.11 300.75 13.74 298.72 17.38 300.75 16.69 296.45 19.63 293.39 15.56 292.77"/>
  <path class="cls-7" d="m13.29,262.89c.78.31,1.48.36,2.1.13.62-.22,1.07-.68,1.34-1.38.22-.56.25-1.12.09-1.69-.16-.57-.45-.94-.87-1.11-.25-.1-.42-.03-.52.22-.07.17-.03.31.11.42l.25.2c.21.17.35.41.41.71.06.3.04.6-.08.89-.17.44-.48.75-.93.91-.44.17-.91.15-1.4-.05-.05-.02-.08-.05-.1-.09-.01-.04,0-.1.03-.18l1.24-3.15c.06-.16.07-.27.03-.32-.04-.06-.19-.13-.44-.23-.63-.25-1.24-.26-1.81-.03-.57.24-.98.67-1.22,1.29-.28.7-.25,1.37.08,2.01.33.64.89,1.11,1.68,1.44Zm-1.11-3.19c.14-.36.39-.62.75-.78.36-.16.71-.17,1.06-.03.09.04.11.12.06.26l-.93,2.37c-.06.15-.13.2-.22.16-.33-.13-.56-.4-.71-.81-.15-.41-.15-.8,0-1.17Z"/>
  <path class="cls-7" d="m7.33,268.83c.22.06.36-.03.42-.27.01-.06.02-.13.03-.24,0-.1.01-.18.02-.23.04-.15.2-.21.48-.19.28.03.93.17,1.95.43l1.83.47c.64.17,1.06.3,1.26.39.2.09.28.19.26.31-.01.05-.05.13-.11.24-.03.04-.06.1-.08.19-.07.27,0,.43.22.48.25.06.42-.05.49-.33.02-.08.05-.26.09-.54.03-.21.06-.38.09-.5.05-.19.12-.41.21-.67.07-.19.12-.33.14-.43.08-.31,0-.49-.25-.55-.22-.06-.35.03-.41.26-.01.05-.02.13-.01.24,0,.11,0,.19-.01.25-.04.17-.24.23-.58.18-.06,0-.29-.06-.68-.16-.04-.01-.11-.03-.19-.05-.09-.05-.15-.08-.19-.09l-.74-.19c-.56-.15-.94-.34-1.15-.58-.31-.34-.39-.79-.26-1.34.13-.51.39-.81.8-.92.27-.08.76-.03,1.45.15l.55.14.44.11c.24.07.39.12.48.14.44.12.64.28.59.49-.01.06-.04.11-.07.17-.06.09-.1.18-.12.26-.02.1-.01.19.03.28.04.09.11.14.2.17.11.03.21,0,.3-.06.09-.06.15-.16.18-.28.02-.07.04-.25.07-.55.01-.1.04-.24.08-.42.04-.18.12-.41.23-.69.06-.17.11-.3.13-.39.08-.33,0-.53-.22-.59-.23-.06-.38.04-.44.29-.02.07-.03.13-.03.17.01.11.01.2,0,.25-.04.15-.23.2-.58.14-.04,0-.27-.06-.67-.16l-1.71-.43c-.55-.14-1.03-.07-1.45.2-.42.28-.71.71-.86,1.31-.08.31-.1.59-.05.85.04.25.16.55.35.89l-1.98-.55h-.02c-.23-.06-.36-.01-.4.15-.01.05-.02.13-.03.24-.01.11-.02.2-.04.27-.04.15-.08.29-.13.42-.07.19-.11.31-.12.34-.03.12-.02.23.03.33.05.1.12.16.21.19Z"/>
  <path class="cls-7" d="m13.52,276.98c.02-.33-.15-.54-.53-.65l-5.63-1.58,5.64-.69c.48-.06.74-.27.76-.64.02-.35-.16-.58-.53-.7l-4.94-1.54c-.39-.12-.63-.22-.74-.29-.11-.08-.16-.19-.15-.34,0-.04.02-.11.04-.19.02-.08.04-.15.04-.19.02-.26-.09-.39-.32-.41-.25-.02-.39.11-.41.37,0,.14,0,.35.02.64.02.28.03.5.02.64-.01.18-.07.57-.18,1.14-.02.12-.04.24-.05.35-.02.3.09.46.33.47.25.02.38-.13.4-.43,0-.06,0-.16,0-.28,0-.12,0-.21,0-.28.02-.3.17-.44.46-.42.16.01.39.06.7.14l4.31,1.21-5.7.68c-.43.05-.65.28-.68.68-.03.38.2.64.67.76l5.4,1.47-4.51.57-.34.04c-.11.01-.21.02-.3.01-.23-.02-.34-.15-.32-.4,0-.06.02-.16.04-.29.02-.13.04-.23.04-.29.02-.31-.09-.48-.35-.49-.23-.02-.36.1-.37.36,0,.1,0,.2,0,.31.03.62.04,1.01.03,1.18-.02.36-.08.73-.17,1.11-.03.13-.05.24-.05.34-.02.25.1.38.35.4.23.02.36-.09.38-.32l-.02-.24v-.07c.02-.21.08-.35.18-.44.1-.09.29-.16.56-.2l5.33-.91c.39-.07.6-.27.62-.6Z"/>
  <path class="cls-7" d="m36.46,319.96c-.69-.36-1.37-.41-2.03-.14-.67.27-1.21.81-1.62,1.62-.39.76-.51,1.49-.34,2.17.16.68.57,1.19,1.23,1.54.61.32,1.2.37,1.8.16.22-.08.44-.2.66-.37.22-.17.37-.34.46-.51.06-.11.07-.22.03-.33s-.11-.19-.22-.25c-.14-.07-.27-.06-.41.03-.03.03-.14.14-.32.33-.22.25-.48.4-.78.45-.29.05-.58,0-.87-.14-.45-.24-.72-.6-.79-1.08-.08-.48.04-1.03.36-1.64.3-.59.68-1,1.14-1.22.45-.22.9-.21,1.35.03.29.15.49.34.61.57.12.23.13.46.05.71-.34-.13-.58-.06-.71.2-.07.14-.08.29-.03.45.06.15.16.27.33.36.21.11.42.12.63.03.21-.09.38-.25.5-.49.22-.44.24-.89.04-1.35-.2-.46-.55-.83-1.07-1.1Z"/>
  <path class="cls-7" d="m32.42,317.85s-.13-.07-.24-.12c-.11-.05-.19-.09-.24-.12-.05-.04-.17-.13-.35-.28-.05-.04-.13-.09-.24-.17-.27-.18-.47-.16-.6.05-.13.2-.08.37.14.51.04.03.12.06.22.1.1.04.18.07.23.1.15.1.12.36-.09.76-.02.02-.19.29-.51.81l-.48.76c-.33.51-.5.78-.51.81-.28.38-.5.51-.65.42-.05-.03-.12-.09-.2-.17-.08-.08-.15-.14-.2-.17-.21-.14-.38-.1-.51.1-.13.21-.08.39.17.55.08.05.25.14.51.27.21.1.4.21.56.31.1.06.24.17.42.33.18.16.32.27.42.33.12.08.23.11.35.1.12-.01.2-.06.26-.15.13-.2.08-.38-.15-.53-.06-.04-.11-.06-.15-.07-.14-.05-.23-.08-.26-.1-.13-.09-.13-.28.02-.58.03-.06.14-.24.34-.55l.77-1.2c.17-.27.34-.52.5-.77.22-.33.34-.52.38-.57.02-.02.04-.06.08-.11.04-.05.06-.08.08-.11.15-.24.14-.42-.04-.53Z"/>
  <path class="cls-7" d="m32.3,316.34c-.09.14-.12.3-.08.46.04.17.12.3.26.39.14.09.29.12.46.08.17-.04.29-.13.38-.27.09-.14.12-.3.08-.46-.04-.16-.13-.29-.27-.38-.14-.09-.29-.12-.46-.09-.16.03-.29.12-.38.26Z"/>
  <path class="cls-7" d="m29.42,316.16l.4-.48c.22-.24.38-.37.49-.4.11-.03.25.03.42.17l.08.07s.05.05.09.08c.23.19.42.19.57,0,.16-.19.12-.39-.12-.6-.02-.01-.04-.03-.06-.05-.03-.02-.05-.03-.06-.04-.12-.08-.23-.15-.32-.21-.27-.17-.47-.32-.62-.44-.15-.12-.29-.27-.44-.43l-.33-.37s-.05-.06-.1-.1c-.25-.21-.46-.22-.63-.01-.06.07-.09.16-.08.26,0,.1.05.18.12.24.04.04.12.09.22.15.1.06.17.11.22.15.23.19.25.46.06.79-.03.05-.23.3-.59.74l-2.81,3.41,1.65-6.63.08-.28c.04-.17-.02-.32-.2-.47-.08-.07-.22-.17-.4-.29-.18-.12-.31-.22-.4-.29-.15-.13-.35-.32-.61-.59-.05-.05-.09-.09-.13-.12-.24-.2-.44-.2-.6,0-.15.19-.14.35.04.5.05.04.13.1.25.17.08.05.14.09.18.12.29.24.26.58-.09,1l-1.1,1.34-.6.73-.61.75-.49.59c-.35.42-.67.52-.95.27-.06-.05-.11-.11-.15-.17-.11-.11-.18-.18-.21-.21-.18-.15-.34-.14-.48.04-.16.2-.12.4.12.6.02.01.04.03.07.06.03.02.05.03.07.04l.45.3c.25.16.45.31.6.43.17.14.33.31.5.49l.3.34s.03.03.05.06c.02.02.04.03.05.04.25.21.46.22.61.03.15-.18.13-.35-.04-.5-.04-.04-.12-.09-.21-.16-.1-.07-.17-.12-.21-.16-.28-.24-.25-.57.1-1l3.25-3.94-1.6,6.47c-.13.56-.07.95.21,1.18.21.18.43.23.64.14.22-.08.49-.32.81-.71l1.86-2.26.71-.86Z"/>
  <path class="cls-7" d="m59.06,319.22c22.35,0,40.47-18.34,40.47-40.96s-18.12-40.96-40.47-40.96-40.47,18.34-40.47,40.96,18.12,40.96,40.47,40.96Zm-10.12-14.49c0-.78.04-27.19.17-28.97.13-1.78,1.25-3.78,2.54-5.35.34-8.44,1.72-16.78,1.93-18.05-.51-.14-.81-1.64.07-2.48.18-.28.18-.61-.09-.75-.12-.26-.35-.98.69-1.29.46-.06,1.53-.09,2.64-.09,1.37-.02,2.91.01,3.49.09,1.04.3.81,1.03.69,1.29-.28.14-.28.47-.09.75.88.84.58,2.34.07,2.48.22,1.26,1.59,9.61,1.93,18.05,1.29,1.57,2.41,3.57,2.54,5.35s.17,28.19.17,28.97.04,1.44-.34,2.91c-2.25,1.72-13.31,1.67-16.06,0-.39-1.48-.34-2.13-.34-2.91Z"/>
  <path class="cls-7" d="m37.75,232.78c.05-.02.12-.06.2-.12.08-.06.15-.1.2-.12.18-.07.35.08.53.46l.93,2.23.2.5c.11.31.08.5-.08.56-.03.01-.07.02-.15.04l-.16.03s-.09.02-.15.05c-.25.1-.33.26-.25.46.09.23.27.29.54.18l.53-.27c.14-.07.35-.17.61-.27.1-.04.25-.09.46-.15.21-.06.36-.11.46-.15l.04-.02c.27-.11.35-.28.26-.51-.08-.21-.23-.27-.44-.18-.05.02-.11.06-.18.1-.08.06-.17.11-.25.14-.17.07-.35-.08-.53-.44-.03-.05-.13-.3-.31-.74l-.26-.65c-.23-.57-.35-1.02-.36-1.35-.02-.53.23-.9.74-1.11.25-.1.48-.12.7-.06.22.06.37.19.44.38.03.07.04.15.03.24-.07,0-.12.01-.14.02-.1.04-.18.12-.22.24-.05.11-.05.22,0,.33.05.13.15.22.29.27.14.05.29.04.44-.02.23-.1.39-.26.46-.5.07-.24.05-.51-.07-.8-.16-.41-.44-.69-.83-.83-.39-.14-.81-.12-1.27.06-.57.23-.92.66-1.07,1.28l-.11-.27c-.08-.19-.2-.25-.37-.18-.07.03-.13.06-.18.1-.11.06-.19.11-.24.13-.07.03-.17.06-.3.1-.14.04-.24.07-.3.1-.28.12-.37.29-.28.52.08.21.23.27.45.18Z"/>
  <path class="cls-7" d="m45.26,228.09c.06-.01.15-.04.27-.09.08-.03.15-.05.21-.06.35-.07.58.16.68.68l.83,4.21c.1.52-.02.81-.38.88-.06.01-.13.02-.22.02-.13,0-.23.01-.29.02-.21.04-.3.18-.25.4.05.24.22.34.52.29.01,0,.04,0,.07-.01.03-.01.06-.02.07-.02l.47-.16c.16-.05.34-.1.52-.14.21-.04.55-.09,1.01-.15.46-.06.84-.11,1.14-.17.82-.16,1.44-.49,1.85-.97.42-.48.56-1.04.43-1.68-.13-.66-.5-1.09-1.13-1.31-.21-.07-.47-.13-.77-.16.74-.45,1.04-1.04.9-1.75-.1-.53-.38-.9-.83-1.12-.45-.22-1.02-.26-1.72-.12-.37.07-.72.16-1.04.25-.47.14-.84.23-1.1.29-.25.05-.45.08-.6.09l-.52.03-.13.03c-.32.06-.45.22-.4.46.04.22.17.31.39.27Zm6.04,3.21c.19.98-.36,1.6-1.65,1.85-.68.14-1.1.17-1.27.09-.17-.07-.3-.34-.39-.79l-.23-1.16c-.04-.19-.05-.33-.04-.42.02-.18.22-.31.59-.38l.86-.17c1.24-.25,1.95.08,2.13.98Zm-3.98-3.53c.14-.12.57-.26,1.27-.4,1.01-.2,1.58.06,1.73.8.16.8-.37,1.33-1.59,1.57l-.58.12c-.3.06-.49.05-.57-.02-.08-.07-.16-.3-.23-.67l-.13-.65c-.07-.38-.04-.63.11-.75Z"/>
  <path class="cls-7" d="m31.54,236.11s.1-.06.18-.12c.08-.05.13-.09.17-.11.18-.1.5.27.98,1.12l.43.77c.23.42.38.69.46.81.16.26.36.45.59.58.53.29,1.16.24,1.89-.18.64-.36.99-.86,1.07-1.5l.16.29c.1.18.24.22.41.12.06-.03.11-.08.18-.14.1-.08.16-.12.18-.13.04-.02.14-.07.3-.13.11-.05.19-.09.25-.12.26-.15.33-.32.21-.54-.11-.2-.27-.25-.48-.13-.04.02-.1.07-.17.13-.07.06-.13.1-.17.13-.14.08-.32-.04-.53-.35-.03-.04-.15-.25-.36-.63l-.8-1.44c-.25-.46-.43-.82-.53-1.07-.02-.06-.05-.13-.09-.22-.11-.2-.26-.25-.44-.14-.05.03-.12.08-.21.14-.09.07-.16.12-.21.14-.06.03-.14.07-.26.12-.12.05-.21.09-.26.12-.24.14-.3.31-.18.52.1.19.26.22.48.1l.11-.06s.1-.06.17-.09c.13-.07.29.03.49.31.02.03.13.23.33.61l.28.51c.37.68.58,1.16.62,1.46.03.24-.02.48-.16.72-.14.24-.34.43-.6.58-.53.3-.98.3-1.34-.01-.22-.19-.47-.55-.77-1.09l-.33-.61-.35-.7-.33-.61-.11-.2c-.13-.24-.29-.3-.48-.19-.01,0-.06.04-.15.11-.12.1-.21.16-.27.19-.06.03-.16.08-.28.13-.13.05-.22.1-.28.13-.26.15-.34.32-.23.52.11.2.28.24.49.12Z"/>
  <path class="cls-7" d="m41.61,322.26c-.73-.27-1.4-.24-2.02.09-.62.34-1.08.92-1.39,1.76-.31.84-.34,1.59-.1,2.25.24.66.72,1.13,1.44,1.4.73.28,1.42.24,2.05-.1.63-.34,1.1-.93,1.41-1.77.31-.84.34-1.59.09-2.24-.25-.65-.74-1.12-1.49-1.4Zm.56,3.34c-.24.65-.57,1.11-.99,1.37-.42.26-.88.3-1.37.11-.48-.18-.79-.51-.92-.98-.13-.47-.08-1.03.16-1.68l.05-.13c.26-.61.58-1.03.98-1.27.4-.23.83-.26,1.31-.08,1.03.39,1.3,1.27.79,2.65Z"/>
  <path class="cls-7" d="m55.74,233.18c.59-.03,1.11-.25,1.55-.63.44-.39.65-.81.62-1.27-.02-.27-.15-.4-.41-.38-.18.01-.29.1-.33.28l-.08.31c-.06.27-.22.49-.46.68s-.52.29-.83.31c-.47.03-.87-.13-1.21-.46-.34-.34-.52-.77-.55-1.3,0-.06,0-.1.04-.13.03-.03.09-.04.18-.05l3.35-.2c.17,0,.27-.05.3-.11.03-.06.04-.23.02-.5-.04-.69-.29-1.24-.74-1.67-.45-.42-1.01-.61-1.67-.58-.74.04-1.33.35-1.76.92-.43.57-.62,1.28-.57,2.15.05.85.3,1.51.77,1.98.46.48,1.06.69,1.8.65Zm-1.23-4.5c.31-.31.66-.47,1.05-.5.38-.02.72.1,1.01.36.3.26.46.58.48.96,0,.1-.07.15-.21.16l-2.52.15c-.15,0-.23-.04-.24-.14-.02-.36.12-.69.43-.99Z"/>
  <path class="cls-7" d="m13.73,256.53c.03-.05.05-.12.08-.22.03-.1.06-.17.08-.22.09-.17.32-.16.7.02l2.12,1.12.47.26c.28.17.38.33.29.49-.01.03-.04.07-.09.12l-.1.13s-.05.07-.08.14c-.13.24-.1.41.1.52.22.12.39.05.53-.21l.23-.55c.06-.15.16-.35.29-.6.05-.09.14-.23.26-.41.12-.18.21-.32.26-.41l.02-.04c.14-.26.1-.44-.12-.56-.2-.11-.35-.06-.45.14-.03.05-.05.11-.07.19-.03.1-.06.19-.1.27-.09.16-.31.16-.68,0-.05-.02-.29-.14-.7-.37l-.61-.33c-.54-.29-.91-.56-1.13-.81-.35-.4-.39-.84-.13-1.33.13-.24.29-.4.5-.5.21-.09.4-.09.58,0,.06.03.12.09.17.17-.05.05-.08.09-.09.11-.05.1-.06.21-.02.33.04.12.11.2.2.26.12.07.26.07.4.02.14-.05.25-.15.32-.3.12-.23.13-.45.03-.68-.1-.23-.28-.42-.55-.57-.38-.21-.77-.24-1.16-.1-.39.14-.7.43-.93.87-.29.55-.29,1.1-.01,1.68l-.26-.14c-.18-.1-.31-.06-.39.1-.04.07-.06.13-.07.19-.04.12-.08.21-.11.26-.03.06-.09.15-.17.27-.08.12-.14.21-.17.27-.14.27-.11.46.11.58.2.11.35.06.46-.15Z"/>
  <path class="cls-7" d="m61.08,233.2c.59.04,1.13-.11,1.61-.44.49-.33.74-.73.77-1.19.02-.27-.11-.41-.36-.43-.18-.01-.3.07-.36.23l-.11.3c-.09.26-.27.46-.54.62-.27.15-.55.22-.86.2-.47-.03-.85-.23-1.15-.61-.29-.37-.42-.83-.39-1.36,0-.06.02-.1.05-.12.03-.02.09-.03.18-.03l3.35.21c.17.01.27-.01.31-.07.04-.06.07-.22.08-.49.04-.69-.14-1.27-.54-1.74-.4-.47-.93-.73-1.59-.77-.74-.05-1.36.19-1.86.7-.5.51-.77,1.2-.82,2.07-.05.85.12,1.53.53,2.06.4.53.98.81,1.71.86Zm-.69-4.62c.34-.27.71-.39,1.1-.36.38.02.7.18.96.48.26.29.38.63.36,1.01,0,.1-.08.14-.23.14l-2.52-.16c-.15,0-.23-.06-.22-.16.02-.35.2-.67.54-.93Z"/>
  <path class="cls-7" d="m64.21,233.33l.59.05c.16.01.38.05.66.1.1.02.26.06.46.12.21.06.36.1.46.12h.04c.28.06.45-.04.49-.28.04-.22-.05-.35-.27-.39-.06-.01-.12-.01-.2,0-.1,0-.2,0-.29-.02-.18-.03-.25-.25-.22-.66,0-.06.05-.32.13-.79l.12-.69c.11-.61.24-1.05.41-1.34.27-.46.67-.64,1.21-.54.26.05.47.16.62.33.15.17.21.36.17.56-.01.07-.05.14-.1.22-.07-.03-.11-.05-.13-.06-.11-.02-.22,0-.31.08-.1.07-.16.16-.18.28-.02.14,0,.27.1.39.09.12.22.19.38.22.25.05.47-.01.65-.18.19-.16.31-.4.36-.71.08-.43-.01-.82-.26-1.15-.25-.33-.62-.54-1.1-.63-.6-.11-1.13.06-1.58.5l.05-.29c.04-.2-.04-.32-.22-.35-.08-.01-.14-.02-.2,0-.13,0-.22-.01-.27-.02-.07-.01-.17-.04-.31-.08-.13-.04-.24-.07-.31-.08-.3-.05-.47.04-.51.29-.04.22.05.36.28.4.06.01.13.01.23.01.1,0,.18,0,.23.01.19.03.25.26.2.68l-.39,2.39-.09.54c-.07.32-.19.46-.37.43-.03,0-.08-.02-.14-.05l-.15-.06s-.09-.03-.16-.04c-.27-.05-.42.04-.46.25-.04.25.08.39.36.44Z"/>
  <path class="cls-7" d="m29.55,242.62c.66.14,1.29,0,1.88-.45.61-.46.94-1.04.99-1.74.05-.7-.18-1.4-.69-2.09-.51-.7-1.1-1.11-1.75-1.25-.65-.14-1.29.03-1.9.49-.6.46-.93,1.03-.98,1.71-.05.68.18,1.37.69,2.07.51.7,1.1,1.12,1.76,1.26Zm-1.04-4.49c.86-.65,1.7-.4,2.55.74.4.54.6,1.05.59,1.53,0,.48-.22.88-.63,1.19-.4.3-.82.39-1.27.25-.45-.14-.87-.47-1.27-1.01l-.08-.11c-.36-.53-.53-1.02-.51-1.47.02-.45.23-.82.62-1.12Z"/>
  <path class="cls-7" d="m17.97,252.9c.69.48,1.36.69,2.02.61.66-.08,1.19-.42,1.61-1.04.34-.49.49-1.03.46-1.62-.03-.59-.23-1.02-.6-1.28-.22-.15-.4-.12-.55.09-.1.15-.1.3,0,.44l.2.26c.17.21.25.48.24.79,0,.31-.1.59-.28.85-.27.39-.64.62-1.11.68s-.92-.06-1.35-.37c-.05-.03-.07-.07-.08-.1,0-.04.02-.09.07-.17l1.91-2.79c.1-.14.13-.24.1-.31-.03-.06-.15-.17-.37-.33-.56-.39-1.15-.54-1.75-.44-.61.1-1.1.43-1.48.98-.43.62-.55,1.28-.38,1.97s.61,1.29,1.32,1.78Zm-.37-3.36c.22-.32.52-.51.9-.59.39-.08.73,0,1.04.21.08.06.08.15,0,.27l-1.44,2.1c-.09.13-.17.16-.25.11-.29-.2-.46-.52-.51-.95-.05-.43.04-.81.26-1.14Z"/>
  <path class="cls-7" d="m20.3,243.39s.04-.04.08-.07c.03-.03.05-.05.07-.07.01-.05.05-.1.11-.16.11-.11.24-.16.39-.16.05,0,.2.03.44.09l3.73.94c.05.06.12.12.21.2.07.08.12.13.14.15.39.41.6.64.64.69.21.32.21.58,0,.79-.04.04-.11.09-.2.15-.09.06-.16.11-.2.15-.16.16-.16.32,0,.49.17.18.37.16.6-.06.01,0,.03-.03.05-.05.02-.02.03-.04.04-.05l.34-.43c.13-.16.27-.32.44-.48.15-.15.32-.29.49-.42l.47-.35s.04-.03.06-.04c.03-.02.04-.04.05-.04.23-.22.25-.43.08-.61-.16-.16-.31-.17-.47-.02-.04.04-.1.11-.17.2-.07.09-.13.16-.17.2-.17.17-.34.21-.51.12-.16-.09-.5-.39-.99-.92l-.31-.32-.76-3.84-.05-.29c-.04-.2.01-.37.14-.5.03-.03.09-.08.18-.15.05-.03.11-.08.19-.15.19-.18.2-.36.05-.52-.17-.18-.35-.18-.54.01-.07.07-.15.16-.24.27-.22.3-.45.55-.66.76-.21.2-.47.42-.8.66-.12.09-.22.17-.3.24-.2.2-.22.39-.05.57.17.18.36.17.57-.03.05-.04.11-.11.19-.2l.18-.21.12-.16h.02c.07-.08.12-.09.16-.04.04.04.06.09.08.16l.72,3.15-3.06-.87c-.05-.02-.09-.03-.1-.03-.01,0-.03-.01-.05-.04-.04-.05-.03-.1.03-.15l.15-.15.19-.18.08-.07c.25-.24.29-.45.13-.62-.17-.17-.35-.16-.56.04-.08.07-.16.17-.25.29-.27.35-.49.6-.64.76-.21.21-.46.41-.74.6-.14.1-.25.19-.33.26-.2.2-.22.39-.04.57.17.18.37.16.61-.07Z"/>
  <path class="cls-7" d="m53.74,325.27c.09-.55-.05-1.01-.41-1.39-.36-.37-.9-.62-1.62-.73-.39-.06-.75-.1-1.09-.13-.51-.04-.9-.08-1.17-.12-.26-.04-.46-.08-.61-.13l-.52-.16-.14-.02c-.33-.05-.51.05-.55.3-.04.23.06.37.28.4.06.01.16.01.3.01.09,0,.16,0,.23.01.37.06.51.36.42.9l-.68,4.38c-.08.54-.31.78-.67.72-.06,0-.13-.03-.22-.06-.13-.04-.23-.07-.29-.08-.22-.04-.35.06-.39.3-.04.25.09.41.4.47.01,0,.04,0,.08.01.04,0,.06,0,.08,0l.52.02c.18,0,.36.02.55.05.22.04.57.11,1.04.22.47.11.86.19,1.16.24.85.14,1.57.05,2.14-.27.57-.31.91-.81,1.01-1.47.11-.68-.1-1.24-.63-1.68-.18-.15-.41-.29-.69-.43.88-.17,1.38-.63,1.49-1.37Zm-1.11,3.31c-.16,1.02-.91,1.42-2.25,1.2-.7-.11-1.13-.24-1.27-.37-.14-.13-.17-.44-.1-.91l.19-1.21c.03-.2.07-.34.11-.42.08-.17.32-.22.71-.15l.89.14c1.29.21,1.86.78,1.72,1.71Zm-1.95-2.44l-.6-.1c-.31-.05-.49-.12-.54-.23-.05-.1-.05-.34,0-.73l.11-.68c.06-.39.18-.62.37-.69.18-.07.64-.04,1.37.07,1.05.17,1.51.63,1.39,1.39-.13.84-.83,1.15-2.1.95Z"/>
  <path class="cls-7" d="m88.01,316.18c-.67-.16-1.33-.02-1.98.44-.64.45-1,1.03-1.07,1.73-.08.7.14,1.42.64,2.16.51.74,1.1,1.19,1.77,1.36.68.17,1.33.04,1.95-.4.64-.45,1.01-1.04,1.09-1.76.08-.72-.13-1.45-.64-2.18-.51-.74-1.09-1.19-1.76-1.35Zm.91,4.69c-.42.3-.86.37-1.32.21-.46-.16-.88-.52-1.27-1.09l-.08-.12c-.35-.56-.51-1.07-.47-1.54.04-.46.26-.84.68-1.14.91-.64,1.77-.35,2.6.85.39.57.58,1.11.55,1.61-.03.5-.26.9-.69,1.2Z"/>
  <path class="cls-7" d="m105.48,273.36c-.84.05-1.49.3-1.96.77-.47.47-.69,1.07-.65,1.82.03.6.24,1.12.62,1.57.38.45.8.66,1.25.64.27-.01.39-.15.38-.42,0-.18-.1-.3-.27-.34l-.31-.08c-.26-.06-.49-.22-.67-.47-.18-.25-.28-.53-.3-.84-.03-.48.13-.88.46-1.22.33-.34.76-.52,1.29-.55.06,0,.1,0,.12.04.03.03.04.09.05.18l.18,3.39c0,.17.04.27.11.3.06.03.23.04.49.03.68-.04,1.23-.29,1.65-.74.42-.46.61-1.02.57-1.69-.04-.75-.34-1.35-.9-1.79-.56-.44-1.27-.64-2.12-.59Zm1.97,3.45c-.26.3-.57.46-.95.48-.1,0-.15-.07-.16-.22l-.14-2.55c0-.16.04-.24.13-.24.35-.02.68.13.98.44.3.31.46.67.49,1.06.02.38-.1.73-.36,1.02Z"/>
  <polygon class="cls-7" points="105.57 292.77 103.75 288.85 101.94 292.77 97.87 293.39 100.81 296.45 100.12 300.75 103.75 298.72 107.39 300.75 106.69 296.45 109.64 293.39 105.57 292.77"/>
  <path class="cls-7" d="m93,317.1c-.19-.02-.35.03-.5.16-.14.12-.22.28-.24.47-.01.19.04.36.16.5.12.15.28.23.46.25.19.02.35-.03.5-.16.14-.12.22-.28.24-.47.01-.19-.04-.36-.16-.5-.12-.15-.28-.23-.46-.25Z"/>
  <path class="cls-7" d="m106.35,266.33s.03.12.05.21c.03.09.04.16.05.2.04.21-.42.4-1.36.57l-.86.16c-.46.09-.77.15-.91.18-.29.07-.54.2-.74.38-.45.42-.59,1.04-.44,1.86.13.73.49,1.23,1.06,1.51l-.32.06c-.2.04-.28.15-.25.35.01.06.04.13.07.21.04.12.06.2.06.22,0,.04.02.15.03.33,0,.12.02.21.03.28.05.29.2.42.43.37.23-.04.32-.18.28-.42,0-.05-.03-.12-.06-.21-.03-.09-.06-.16-.06-.21-.03-.16.14-.29.5-.4.05-.02.28-.06.7-.14l1.6-.3c.51-.1.9-.15,1.17-.17.06,0,.14,0,.23-.02.22-.04.31-.17.27-.38-.01-.06-.03-.14-.07-.25-.03-.11-.06-.19-.07-.25-.01-.06-.02-.16-.03-.29-.01-.13-.02-.23-.03-.29-.05-.27-.19-.39-.43-.34-.21.04-.29.18-.24.43l.02.13s.02.11.03.19c.03.15-.12.27-.45.37-.03,0-.26.05-.67.13l-.57.11c-.75.14-1.28.18-1.57.12-.24-.05-.45-.18-.62-.38s-.29-.46-.35-.76c-.11-.61.04-1.03.44-1.28.24-.15.67-.28,1.27-.39l.67-.13.77-.11.67-.13.22-.04c.26-.05.37-.18.33-.4,0-.01-.02-.07-.05-.17-.05-.15-.08-.26-.09-.32-.01-.07-.02-.17-.03-.31,0-.14-.02-.24-.03-.31-.06-.3-.19-.43-.41-.39-.22.04-.31.19-.27.43Z"/>
  <path class="cls-7" d="m87.22,242.69s-.02-.03-.02-.04l-.16-.23s-.02-.03-.04-.05c-.02-.02-.04-.04-.05-.05-.19-.19-.37-.21-.52-.05-.17.17-.15.36.05.56.05.04.19.16.42.36.18.14.29.25.35.31.12.12.26.27.41.46.11.14.21.25.3.34.23.22.42.25.58.09.16-.17.14-.35-.05-.54-.02-.01-.03-.03-.05-.05-.03-.01-.05-.02-.06-.03-.11-.05-.17-.09-.2-.11-.09-.09-.06-.23.09-.43.03-.04.14-.16.34-.37l.98-1.02c.48-.5.89-.77,1.23-.83.41-.07.79.06,1.12.38.3.3.43.59.38.88-.05.29-.29.66-.72,1.1l-.61.64s-.05.05-.14.15c-.1.11-.21.22-.32.33l-.37.34c-.26.26-.45.32-.57.21-.04-.03-.08-.1-.13-.19-.02-.04-.05-.09-.11-.15-.15-.15-.3-.14-.45.01-.17.17-.15.36.06.57.1.09.22.19.36.3.15.1.27.21.38.31.08.07.18.2.31.36s.23.29.31.36c.24.23.43.27.59.1.07-.07.1-.15.1-.25,0-.1-.04-.18-.11-.25-.03-.03-.08-.07-.15-.12-.07-.05-.12-.09-.15-.12-.1-.09-.1-.21,0-.35.09-.14.37-.45.83-.93l.52-.54c.48-.49.87-.79,1.17-.88.38-.11.75,0,1.11.36.19.18.31.39.36.63s.03.46-.07.67c-.1.21-.32.49-.66.85l-.49.5-.45.47c-.34.34-.56.54-.67.61-.11.06-.2.05-.29-.03-.05-.05-.09-.09-.11-.13-.07-.09-.12-.14-.14-.16-.16-.16-.32-.16-.46,0-.17.18-.15.37.06.58.09.08.22.2.4.34.18.14.31.26.4.34.08.08.19.2.33.37.14.17.24.29.32.37.2.2.39.21.56.03.15-.15.13-.32-.04-.49-.04-.03-.1-.08-.18-.13-.09-.05-.15-.09-.18-.13-.1-.1-.08-.26.07-.47.04-.05.16-.18.36-.39l.55-.57.72-.74c.35-.36.57-.66.67-.89.15-.34.16-.71.04-1.1-.11-.35-.31-.66-.59-.94-.28-.27-.54-.45-.8-.54-.26-.09-.58-.11-.96-.06.14-.62-.03-1.17-.53-1.65-.24-.24-.48-.4-.73-.47-.24-.08-.56-.09-.95-.05l.21-.22c.14-.15.15-.28.03-.4l-.02-.02-.21-.15s-.02-.02-.05-.05c-.03-.03-.06-.06-.08-.08-.07-.07-.15-.16-.23-.26-.09-.1-.16-.18-.21-.24-.21-.2-.39-.22-.56-.05-.16.16-.14.34.04.52.03.03.08.06.14.1.15.09.23.15.25.17.1.1.11.21.03.34-.08.13-.33.41-.75.84l-1.13,1.17-.42.44c-.25.24-.45.29-.58.15Z"/>
  <path class="cls-5" d="m116.93,396.58c0-5.44-.3-189.02-1.2-201.42-.9-12.4-8.67-26.31-17.63-37.2-2.39-58.67-11.93-116.69-13.42-125.46,3.53-.98,5.62-11.38-.48-17.23-1.28-1.95-1.28-4.23.64-5.2.8-1.79,2.41-6.83-4.82-8.94-4.03-.52-14.74-.71-24.27-.6-7.7.01-15.13.22-18.33.63-7.23,2.11-5.62,7.15-4.82,8.94,1.93.98,1.93,3.25.64,5.2-6.1,5.85-4.02,16.26-.48,17.23-1.49,8.77-11.03,66.79-13.42,125.46-8.96,10.89-16.73,24.8-17.63,37.2-.9,12.4-1.2,195.97-1.2,201.42s-.3,9.98,2.39,20.26c19.08,11.59,95.98,11.96,111.64-.03,2.69-10.28,2.39-14.82,2.39-20.26Zm-58-62.4c-30.45,0-55.13-24.98-55.13-55.79s24.68-55.79,55.13-55.79,55.13,24.98,55.13,55.79-24.68,55.79-55.13,55.79Z"/>
  <path class="cls-7" d="m105.19,262.29l.28-.09c.19-.06.26-.18.2-.36-.02-.07-.05-.14-.09-.18-.06-.12-.09-.2-.11-.26-.02-.07-.05-.17-.07-.31-.03-.14-.05-.25-.07-.31-.09-.29-.26-.4-.49-.32-.21.07-.29.22-.21.44.02.05.05.13.1.21.05.09.08.16.1.21.06.18-.11.35-.49.5l-2.27.78-.51.17c-.31.09-.5.05-.55-.12,0-.03-.02-.08-.03-.15l-.02-.16s-.02-.09-.04-.16c-.08-.26-.23-.36-.44-.29-.23.08-.31.25-.22.53l.23.55c.06.15.14.36.22.63.03.1.07.26.11.47.04.21.08.37.11.47v.04c.1.28.26.38.49.3.21-.07.28-.21.21-.43-.02-.05-.05-.12-.09-.18-.05-.09-.09-.17-.12-.26-.06-.18.1-.34.47-.5.05-.02.3-.11.75-.26l.66-.22c.58-.19,1.03-.28,1.36-.27.52.02.87.3,1.04.83.08.26.08.49,0,.71-.08.22-.21.36-.41.42-.07.02-.15.03-.24.01,0-.07,0-.12-.01-.14-.03-.11-.11-.19-.22-.24-.11-.05-.22-.06-.33-.03-.13.04-.23.14-.29.27-.06.14-.06.29-.01.44.08.24.23.41.46.5.23.09.49.08.79-.01.41-.14.71-.39.88-.78.17-.38.18-.81.03-1.28-.19-.59-.58-.98-1.18-1.17Z"/>
  <path class="cls-7" d="m98.86,257.63c-.02-.05-.05-.13-.08-.24-.03-.11-.06-.19-.09-.24-.1-.21-.25-.26-.45-.16-.22.11-.27.3-.13.58,0,.01.02.04.03.07.02.02.03.04.04.06l.29.45c.11.17.23.38.34.63.11.22.19.43.25.63l.16.5s.01.04.02.07c.01.03.02.04.03.06.14.29.31.38.54.27.08-.04.14-.1.17-.19.03-.09.03-.18-.01-.26-.02-.05-.07-.12-.13-.22-.06-.1-.11-.17-.13-.22-.15-.33,0-.61.48-.84l3.24-1.56.68-.28c.23-.1.43-.12.57-.06.15.06.28.2.39.44l.13.27c.24.51.14.87-.3,1.08-.11.06-.29.13-.53.22-.24.09-.41.16-.53.22-.32.15-.42.35-.31.6.12.25.31.31.57.19.06-.03.22-.12.48-.28.19-.12.34-.2.43-.24l.1-.05c.21-.08.4-.15.58-.21.18-.07.3-.11.36-.15h.02c.26-.13.31-.36.16-.68-.07-.15-.17-.35-.31-.6-.16-.29-.26-.49-.32-.61-.27-.55-.44-.89-.5-1.02l-.52-1.1c-.21-.51-.32-.78-.33-.81-.13-.34-.22-.55-.27-.64-.11-.24-.31-.3-.57-.17.05-.02-.09.05-.41.24-.17.09-.33.18-.49.25-.08.04-.28.12-.59.25-.21.08-.36.15-.44.19-.29.14-.38.33-.27.57.12.25.38.28.78.09.1-.05.18-.09.23-.12l.33-.21c.05-.03.16-.09.32-.17.44-.21.78-.09.99.37l.14.3c.22.47.1.81-.35,1.03l-1.55.75-.81.39-.84.4-.67.32c-.48.23-.79.18-.94-.14Z"/>
  <path class="cls-7" d="m95.1,248.02c-.68.5-1.08,1.08-1.23,1.73-.14.65,0,1.28.44,1.88.35.48.8.81,1.36.97.56.17,1.03.11,1.39-.16.22-.16.25-.35.09-.56-.11-.15-.24-.19-.41-.13l-.3.11c-.26.09-.53.08-.81-.02-.29-.11-.52-.29-.71-.54-.28-.38-.37-.81-.27-1.28.1-.47.36-.86.78-1.18.05-.03.09-.05.12-.04.04,0,.08.05.14.12l1.98,2.74c.1.14.18.2.25.2.07,0,.21-.09.43-.25.55-.41.88-.92.98-1.53.1-.62-.04-1.19-.43-1.73-.44-.61-1.01-.94-1.72-1-.71-.06-1.4.17-2.1.68Zm3.26.75c.22.31.31.66.25,1.06-.06.39-.23.7-.53.92-.08.06-.16.03-.25-.09l-1.49-2.06c-.09-.13-.1-.22-.02-.28.28-.21.64-.27,1.06-.17.42.09.75.3.98.62Z"/>
  <path class="cls-7" d="m58.38,325.34c-.63-.01-1.14.25-1.53.77v-.3c.01-.21-.08-.32-.27-.32-.08,0-.15,0-.21.02-.13.02-.23.02-.28.02-.07,0-.18-.01-.33-.03-.14-.02-.25-.03-.33-.03-.31,0-.47.12-.48.38,0,.24.11.36.35.36.06,0,.14,0,.24-.03.1-.02.18-.03.24-.03.2,0,.3.22.31.66l-.02,2.5v.56c-.03.34-.13.5-.32.5-.03,0-.08,0-.15-.03l-.16-.04s-.09-.01-.16-.01c-.28,0-.42.11-.42.33,0,.26.14.39.44.39l.61-.04c.17-.01.39-.01.68,0,.11,0,.27.02.49.05.22.03.38.05.49.05h.04c.3,0,.45-.12.45-.37,0-.23-.11-.35-.34-.35-.06,0-.13,0-.21.02-.1.02-.2.03-.3.03-.19,0-.3-.22-.33-.64,0-.06,0-.33,0-.83v-.73c.03-.64.09-1.12.22-1.43.2-.51.58-.76,1.15-.75.28,0,.51.08.69.23.18.15.27.33.27.55,0,.07-.02.15-.07.24-.07-.02-.12-.04-.14-.04-.12,0-.22.04-.31.13-.09.09-.13.19-.14.31,0,.15.05.27.17.38.11.11.25.16.42.16.26,0,.47-.09.64-.29.16-.2.25-.46.26-.78,0-.46-.14-.83-.45-1.13-.31-.3-.72-.45-1.23-.46Z"/>
  <path class="cls-7" d="m65.44,328.53c-.19.02-.3.12-.33.3l-.07.33c-.05.28-.2.52-.45.72s-.53.32-.85.35c-.48.05-.91-.09-1.27-.43-.36-.33-.57-.77-.62-1.32,0-.06,0-.1.03-.13.03-.03.09-.05.18-.06l3.45-.35c.17-.02.27-.06.31-.12.03-.07.03-.24,0-.52-.07-.71-.35-1.27-.83-1.69-.49-.42-1.07-.59-1.75-.52-.77.08-1.36.42-1.78,1.02-.42.6-.59,1.35-.5,2.24.09.87.38,1.54.88,2.01.5.47,1.13.67,1.89.59.61-.06,1.13-.3,1.57-.72.44-.42.64-.86.59-1.34-.03-.28-.17-.4-.44-.38Zm-3.18-2.16c.3-.33.66-.51,1.06-.56.39-.04.74.07,1.06.33.32.26.49.58.53.97.01.1-.06.16-.21.18l-2.59.26c-.16.02-.24-.03-.25-.13-.04-.37.1-.71.4-1.04Z"/>
  <path class="cls-7" d="m83.3,237.42c-.49.71-.7,1.41-.62,2.09.07.68.41,1.23,1.02,1.66.62.44,1.27.57,1.94.4.67-.17,1.25-.61,1.74-1.32.49-.71.69-1.41.61-2.08-.08-.67-.43-1.23-1.07-1.67-.62-.43-1.26-.57-1.91-.4-.66.17-1.23.61-1.72,1.32Zm2.01-.57c.43-.12.84-.05,1.25.24.88.62.92,1.51.12,2.68-.38.56-.8.91-1.25,1.05-.45.14-.89.07-1.31-.23-.41-.29-.62-.67-.64-1.14-.01-.47.17-.98.54-1.53l.08-.11c.38-.51.79-.83,1.22-.95Z"/>
  <path class="cls-7" d="m78.71,238.19c.74.37,1.44.46,2.12.26.68-.2,1.18-.64,1.52-1.32.14-.29.09-.5-.17-.63-.24-.12-.43-.03-.57.26-.15.31-.31.54-.48.69-.25.22-.56.35-.92.38-.36.03-.72-.04-1.08-.22-.65-.33-1.03-.82-1.16-1.49-.12-.67.03-1.44.46-2.31.42-.85.92-1.44,1.51-1.74.59-.31,1.19-.31,1.82,0,.48.24.79.58.95,1.01.16.43.12.87-.12,1.32l-.17.34c-.14.27-.09.46.16.59.23.11.41.03.55-.26l.05-.1.13-.39c.07-.19.14-.37.23-.54.06-.12.19-.33.38-.63.14-.25.22-.4.24-.45.13-.27.09-.45-.12-.56-.2-.1-.35-.04-.46.19,0-.01-.02.06-.08.21,0,0,0,.03-.01.08-.02.04-.04.08-.05.11l-.05.11c-.18-.76-.61-1.32-1.31-1.67-.85-.43-1.69-.45-2.52-.08-.83.38-1.5,1.09-2.01,2.12-.49,1.01-.64,1.94-.42,2.8.21.86.74,1.5,1.59,1.93Z"/>
  <path class="cls-7" d="m74.36,322.88c-.05.01-.09.03-.12.04l-.35.14c-.18.07-.36.13-.56.18-.25.06-.43.1-.56.12l-.47.05c-.06,0-.12.02-.17.03-.36.09-.51.27-.44.53.06.24.23.33.5.26.07-.02.16-.05.28-.11.12-.06.21-.1.28-.11.17-.04.28.04.33.24v.02c.04.16.07.35.07.58l.03,3.6-1.8-3.71c-.19-.39-.35-.63-.5-.75-.14-.11-.33-.14-.55-.08-.22.06-.37.17-.44.33-.07.16-.1.47-.08.9l.12,4.13-1.65-3.19c-.11-.2-.18-.38-.21-.53-.06-.22.01-.36.2-.41.09-.02.18-.03.29-.02.14-.02.23-.03.28-.04.27-.07.38-.23.31-.48-.06-.26-.26-.34-.58-.26-.05.01-.24.08-.56.21-.26.1-.49.18-.69.23-.17.04-.31.07-.41.08l-.49.05s-.07,0-.12.02c-.33.08-.46.26-.4.52.06.24.21.33.45.27.04-.01.12-.04.23-.09.08-.05.14-.09.19-.1.14-.04.27.06.4.28l2.06,3.74c.23.43.52.6.86.51.21-.05.36-.17.45-.36.09-.18.12-.47.11-.86l-.11-4.1,1.81,3.75c.29.59.62.83,1.01.74.21-.05.35-.16.43-.33.08-.17.12-.44.12-.81l.03-3.07c0-.88.11-1.35.31-1.4.01,0,.08,0,.21-.01.05.01.12.01.2,0,.24-.06.33-.22.27-.47-.06-.26-.25-.34-.57-.26Z"/>
  <path class="cls-7" d="m83.98,321.28c-.25.13-.29.34-.14.64.16.32.25.6.27.83.03.35-.06.69-.26,1.01-.2.33-.48.58-.84.77-.67.34-1.31.36-1.94.05-.62-.31-1.16-.91-1.61-1.81-.44-.88-.61-1.66-.5-2.34.11-.68.49-1.19,1.13-1.52.49-.25.96-.31,1.41-.18s.79.44,1.01.92l.18.35c.13.28.33.36.58.23.23-.12.28-.33.13-.62l-.05-.1-.23-.35c-.11-.17-.22-.35-.31-.52-.06-.12-.16-.36-.28-.71-.12-.27-.19-.43-.22-.48-.14-.27-.31-.36-.53-.25-.2.1-.24.27-.13.5,0-.01.03.05.12.19,0,0,.02.03.05.06.02.04.04.08.06.11l.06.11c-.73-.32-1.46-.3-2.18.07-.87.45-1.41,1.14-1.62,2.07-.2.93-.04,1.93.5,3,.52,1.04,1.2,1.73,2.03,2.08.83.35,1.69.31,2.56-.15.76-.39,1.26-.93,1.52-1.62.25-.69.21-1.39-.15-2.09-.15-.3-.36-.38-.63-.25Z"/>
  <g>
    <path class="cls-1" d="m24.28,455.59c-.89.43-2.02.79-3.4,1.1,1.79.34,3.02,1.01,3.71,2.01.68,1.01,1.02,2.67,1.02,4.99v2.65c0,2.2.7,3.29,2.09,3.29s2.13-1.3,2.13-3.91v-3.14c0-.88.06-1.49.18-1.82.24-.52.72-.77,1.42-.77,1.1,0,1.65.64,1.65,1.93,0,.03-.02.37-.05,1.01v3.35c-.03.18-.05.46-.05.83,0,1.77-.5,3.16-1.49,4.15-.99.99-2.38,1.49-4.15,1.49-3.61,0-5.42-1.82-5.42-5.46v-3.95c0-2.05-.39-3.4-1.17-4.06-.78-.66-2.38-.99-4.82-.99h-4.25c-.97,0-1.46.6-1.46,1.79v3.53c0,2.26.03,3.55.09,3.86.28,1.53,1.04,2.29,2.3,2.29.43,0,.75-.02.96-.05.52-.06.92-.08,1.19-.08.98,0,1.47.51,1.47,1.52,0,1.07-.66,1.61-1.97,1.61l-.69-.09-2.48-.32c-.95-.12-1.79-.18-2.52-.18-.92,0-1.99.08-3.21.23l-2.2.28c-.49.06-.72.09-.69.09-1.32,0-1.97-.55-1.97-1.65,0-.98.47-1.47,1.42-1.47.15,0,.57.03,1.24.09.34.09.66.14.96.14,1.56,0,2.34-1.15,2.34-3.44v-18.41c0-2.29-.78-3.44-2.34-3.44-.25,0-.61.04-1.1.11-.49.08-.86.12-1.1.12-.4,0-.73-.15-1.01-.44-.28-.29-.41-.63-.41-1.03,0-1.07.67-1.61,2.02-1.61.12,0,.34.02.64.05l2.34.23c.61.06,1.38.09,2.3.09s2-.03,3.17-.09l3.49-.18c1.16-.06,2.23-.09,3.21-.09,6.73,0,10.1,2.56,10.1,7.69,0,3.02-1.16,5.08-3.49,6.18Zm-12.72-.37h4.32c2.57,0,4.5-.37,5.78-1.1,1.56-.89,2.34-2.37,2.34-4.45,0-3.49-2.39-5.23-7.18-5.23-2.55,0-4.28.19-5.18.57-.91.38-1.37,1.14-1.4,2.27v6.75c0,.52.09.85.28.99s.53.21,1.06.21Z"/>
    <path class="cls-1" d="m46.13,473.31c-3.21,0-5.78-1.11-7.71-3.33-1.93-2.22-2.89-5.19-2.89-8.93s.97-6.71,2.91-8.93c1.94-2.22,4.55-3.33,7.83-3.33s5.97,1.09,7.9,3.26c1.93,2.17,2.89,5.13,2.89,8.86s-.99,6.73-2.98,9c-1.99,2.26-4.64,3.4-7.94,3.4Zm.23-21.48c-2.14,0-3.83.75-5.05,2.25-1.22,1.5-1.9,3.63-2.02,6.38v.6c0,2.88.6,5.13,1.81,6.77,1.21,1.64,2.9,2.46,5.07,2.46s3.99-.82,5.26-2.46c1.27-1.64,1.91-3.91,1.91-6.82,0-6.12-2.33-9.18-6.98-9.18Z"/>
    <path class="cls-1" d="m79.41,471.38v-1.42c-1.62,2.23-4.02,3.35-7.21,3.35-3.61,0-6.12-1.12-7.53-3.35-.61-.98-.95-2.13-1.01-3.44-.03-.64-.05-1.99-.05-4.04v-3.81c0-4.19-.45-6.29-1.34-6.29-.19,0-.48.02-.88.07-.4.05-.71.07-.93.07-1.08,0-1.62-.5-1.62-1.49s.66-1.45,1.97-1.45c.31,0,.76.04,1.35.11.6.08,1.05.12,1.35.12.28,0,.75-.05,1.42-.14.46-.06.72-.09.78-.09.95,0,1.42.58,1.42,1.74v3.95l-.14,3.4v2.98c0,2.66.21,4.58.64,5.74.7,1.93,2.39,2.89,5.05,2.89,1.32,0,2.48-.3,3.49-.89s1.71-1.38,2.11-2.36c.49-1.19.73-3.46.73-6.79v-5.51c-.15-1.47-.55-2.2-1.19-2.2h-1.38c-1.07,0-1.61-.46-1.61-1.38,0-1.04.6-1.56,1.79-1.56.28,0,.7.03,1.26.09.57.06.99.09,1.26.09.24,0,.61-.03,1.1-.09.49-.06.86-.09,1.1-.09.92,0,1.38.49,1.38,1.47,0,.43-.03.77-.09,1.01-.15,1.17-.23,2.88-.23,5.15v7.08c0,1.87.01,2.91.05,3.13.15,1.63.58,2.44,1.29,2.44.21,0,.52-.04.92-.11.4-.08.7-.12.92-.12,1.04,0,1.56.5,1.56,1.52s-.64,1.56-1.93,1.56c-.28,0-.67-.03-1.19-.09-.77-.09-1.24-.14-1.42-.14-.09,0-.41.03-.96.09-.37.09-.69.14-.96.14-.86,0-1.29-.44-1.29-1.33Z"/>
    <path class="cls-1" d="m96.07,450.98v1.31c1.84-2.32,4.28-3.49,7.34-3.49,1.65,0,3.21.42,4.68,1.26,1.47.84,2.46,1.89,2.98,3.14.43,1.04.64,2.4.64,4.09v8.72c0,1.32.01,2.1.05,2.34.15,1.04.57,1.56,1.24,1.56.28,0,.63-.04,1.08-.11.44-.08.76-.12.94-.12.4,0,.74.14,1.03.41.29.28.44.61.44,1.01,0,.46-.18.84-.55,1.15-.37.31-.81.46-1.33.46-.43,0-1.13-.06-2.11-.18-.98-.12-1.9-.18-2.75-.18-.8,0-1.45.03-1.97.09-1.53.18-2.34.28-2.43.28-1.22,0-1.84-.54-1.84-1.61,0-.95.53-1.42,1.59-1.42.25,0,.53.03.84.09.59.12.97.18,1.12.18.75,0,1.15-.84,1.22-2.52v-8.63c0-1.62-.08-2.74-.23-3.35-.27-1.16-.87-2.07-1.78-2.71-1.01-.7-2.15-1.06-3.43-1.06-2.44,0-4.19.87-5.26,2.62-.73,1.19-1.1,3.23-1.1,6.11v6.11c0,1.35.09,2.26.28,2.75.18.49.52.73,1.01.73.24,0,.58-.05,1.01-.16.43-.11.78-.16,1.06-.16.95,0,1.42.51,1.42,1.54s-.61,1.49-1.84,1.49c-.24,0-1.04-.09-2.39-.28-.67-.09-1.42-.14-2.25-.14-.64,0-1.5.06-2.57.18-1.35.15-2.11.23-2.3.23-1.29,0-1.93-.52-1.93-1.56,0-.98.5-1.47,1.5-1.47.16,0,.44.05.87.14.42.09.83.14,1.24.14.93,0,1.42-.89,1.45-2.66v-12.26c-.06-1.04-.2-1.75-.4-2.13-.2-.38-.55-.57-1.05-.57-.22,0-.54.04-.96.12-.42.08-.74.11-.96.11-1.12,0-1.68-.49-1.68-1.47s.69-1.51,2.07-1.51c.18,0,.34.02.46.05l1.7.18c.49,0,.92-.04,1.29-.12.8-.08,1.21-.11,1.24-.11.89,0,1.33.47,1.33,1.4Z"/>
    <path class="cls-1" d="m128.57,448.8c3.03,0,5.29,1.18,6.79,3.53v-4.64c0-1.22-.03-1.97-.09-2.25-.15-.95-.58-1.42-1.29-1.42-.25,0-.59.05-1.03.14s-.79.14-1.03.14c-1.13,0-1.7-.49-1.7-1.47s.77-1.52,2.3-1.52c.24,0,.69.03,1.33.09.98.09,1.48.14,1.51.14.28,0,.67-.04,1.19-.11.52-.08.92-.12,1.19-.12.86,0,1.29.61,1.29,1.84v.51c-.03.09-.06.91-.09,2.44,0,.18-.05,1.36-.14,3.54-.06,1.53-.09,2.7-.09,3.49v12.18c.03,2.02.12,3.28.28,3.77.15.49.53.74,1.12.74.4,0,.72-.03.93-.09.5-.06.84-.09,1.03-.09,1.15,0,1.73.5,1.73,1.52s-.69,1.56-2.07,1.56c-.31,0-.77-.04-1.4-.12-.63-.08-1.1-.11-1.4-.11-.09,0-.44.03-1.06.09-.37.09-.69.14-.96.14-.83,0-1.24-.55-1.24-1.65v-1.01c-1.62,2.17-3.97,3.26-7.05,3.26s-5.62-1.13-7.51-3.4c-1.89-2.26-2.84-5.23-2.84-8.9s.93-6.66,2.8-8.88c1.87-2.22,4.36-3.33,7.48-3.33Zm6.61,16.2c.12-1.01.18-2.31.18-3.9,0-2.05-.08-3.44-.23-4.18-.28-1.53-.94-2.72-1.99-3.58-1.23-1.01-2.65-1.51-4.25-1.51-2.16,0-3.84.81-5.06,2.43-1.22,1.62-1.83,3.84-1.83,6.66s.63,5.19,1.9,6.86c1.26,1.67,2.99,2.5,5.18,2.5,1.66,0,3.05-.48,4.16-1.45,1.11-.96,1.76-2.24,1.94-3.83Z"/>
    <path class="cls-1" d="m167.86,473.31c-3.21,0-5.78-1.11-7.71-3.33-1.93-2.22-2.89-5.19-2.89-8.93s.97-6.71,2.91-8.93,4.55-3.33,7.83-3.33,5.97,1.09,7.9,3.26c1.93,2.17,2.89,5.13,2.89,8.86s-.99,6.73-2.98,9c-1.99,2.26-4.64,3.4-7.94,3.4Zm.23-21.48c-2.14,0-3.83.75-5.05,2.25s-1.9,3.63-2.02,6.38v.6c0,2.88.6,5.13,1.81,6.77,1.21,1.64,2.9,2.46,5.07,2.46s3.99-.82,5.26-2.46c1.27-1.64,1.9-3.91,1.9-6.82,0-6.12-2.33-9.18-6.98-9.18Z"/>
    <path class="cls-1" d="m189.39,450.98v1.31c1.84-2.32,4.28-3.49,7.34-3.49,1.65,0,3.21.42,4.68,1.26,1.47.84,2.46,1.89,2.98,3.14.43,1.04.64,2.4.64,4.09v8.72c0,1.32.01,2.1.05,2.34.15,1.04.57,1.56,1.24,1.56.28,0,.64-.04,1.08-.11.44-.08.76-.12.94-.12.4,0,.74.14,1.03.41.29.28.44.61.44,1.01,0,.46-.18.84-.55,1.15-.37.31-.81.46-1.33.46-.43,0-1.13-.06-2.11-.18s-1.9-.18-2.75-.18c-.8,0-1.45.03-1.97.09-1.53.18-2.34.28-2.43.28-1.22,0-1.84-.54-1.84-1.61,0-.95.53-1.42,1.59-1.42.25,0,.53.03.84.09.59.12.97.18,1.12.18.75,0,1.15-.84,1.22-2.52v-8.63c0-1.62-.08-2.74-.23-3.35-.27-1.16-.87-2.07-1.78-2.71-1.01-.7-2.15-1.06-3.43-1.06-2.44,0-4.19.87-5.26,2.62-.73,1.19-1.1,3.23-1.1,6.11v6.11c0,1.35.09,2.26.28,2.75.18.49.52.73,1.01.73.24,0,.58-.05,1.01-.16.43-.11.78-.16,1.06-.16.95,0,1.42.51,1.42,1.54s-.61,1.49-1.84,1.49c-.25,0-1.04-.09-2.39-.28-.67-.09-1.42-.14-2.25-.14-.64,0-1.5.06-2.57.18-1.35.15-2.11.23-2.3.23-1.29,0-1.93-.52-1.93-1.56,0-.98.5-1.47,1.5-1.47.16,0,.44.05.86.14s.83.14,1.24.14c.93,0,1.42-.89,1.45-2.66v-12.26c-.06-1.04-.2-1.75-.4-2.13-.2-.38-.55-.57-1.05-.57-.22,0-.54.04-.96.12-.42.08-.74.11-.96.11-1.12,0-1.68-.49-1.68-1.47s.69-1.51,2.07-1.51c.18,0,.34.02.46.05l1.7.18c.49,0,.92-.04,1.29-.12.8-.08,1.21-.11,1.24-.11.89,0,1.33.47,1.33,1.4Z"/>
    <path class="cls-1" d="m235.84,466.2v-2.94c.03-1.25.58-1.88,1.65-1.88s1.61.7,1.61,2.11c0,3.34-.43,5.66-1.28,6.98-1.15,1.78-3.05,2.66-5.7,2.66-2.43,0-4.16-.78-5.2-2.34-.76-1.13-1.14-3.06-1.14-5.78v-11.02c0-.64-.3-.96-.89-.96h-1.5c-.5,0-.92-.16-1.24-.48s-.49-.71-.49-1.17c0-.43.16-.81.48-1.15.32-.34.68-.5,1.08-.5h1.79c.52,0,.78-.29.78-.87v-4.73c0-1.16.6-1.75,1.79-1.75,1.1,0,1.65.58,1.65,1.75v4.91c0,.46.28.69.83.69h5c1.16,0,1.75.54,1.75,1.61,0,1.13-.63,1.7-1.88,1.7h-5.05c-.43,0-.64.32-.64.96v11.29c0,3.21,1.07,4.82,3.21,4.82s3.3-1.3,3.4-3.9Z"/>
    <path class="cls-1" d="m248.6,442.93l-.18,8.94c1.23-1.16,2.35-1.97,3.36-2.41,1.01-.44,2.21-.66,3.59-.66,2.64,0,4.76.75,6.35,2.25,1.6,1.5,2.39,3.47,2.39,5.92v7.67c0,1.81.01,2.8.05,2.98.12,1.53.52,2.29,1.19,2.29.25,0,.6-.09,1.06-.26.18-.04.43-.07.73-.07,1.13,0,1.7.52,1.7,1.56s-.73,1.56-2.2,1.56c-.4,0-.98-.05-1.75-.14-1.29-.15-2.33-.23-3.12-.23s-1.41.03-1.84.09c-1.29.18-2.08.28-2.39.28-.55,0-1.01-.16-1.38-.48s-.55-.73-.55-1.22c0-.4.16-.73.48-1.01s.7-.41,1.12-.41c.34,0,.73.08,1.19.23.28.09.54.14.78.14.92,0,1.39-.99,1.42-2.98,0-.37.03-1.09.09-2.16v-4.45c0-3.12-.31-5.22-.92-6.29-.89-1.59-2.46-2.39-4.7-2.39-2.43,0-4.19.83-5.3,2.48-.77,1.13-1.17,2.95-1.2,5.46v3.3c0,.18-.06.49-.18.92v.87c0,1.75.01,2.75.05,3.03.16,1.5.61,2.25,1.37,2.25.25,0,.61-.07,1.06-.21.46-.14.79-.21,1.02-.21,1.01,0,1.51.49,1.51,1.47,0,1.1-.68,1.66-2.03,1.66-.43,0-1.08-.05-1.94-.14-1.17-.12-2.17-.18-3-.18-.52,0-1.25.05-2.17.14-1.23.12-2.02.18-2.36.18-1.26,0-1.89-.57-1.89-1.7,0-.94.59-1.42,1.78-1.42.4,0,.7.04.89.13.53.13.9.19,1.12.19.5,0,.83-.47,1-1.4.17-.93.27-2.84.3-5.72v-8.22c0-4.59-.09-7.49-.28-8.7s-.61-1.81-1.29-1.81c-.21,0-.54.05-.96.14-.43.09-.77.14-1.01.14-1.04,0-1.56-.49-1.56-1.47,0-.43.18-.8.55-1.1.37-.31.81-.46,1.33-.46.15,0,.67.05,1.56.14.58.06,1.21.09,1.88.09.28,0,.66-.04,1.15-.11.49-.08.84-.12,1.06-.12.7,0,1.06.51,1.06,1.52v.09Z"/>
    <path class="cls-1" d="m291.52,459.04c0,1.16-.08,1.88-.23,2.13-.15.26-.6.39-1.33.39h-14.6c-.4,0-.66.05-.78.16-.12.11-.18.28-.18.53,0,2.29.69,4.21,2.07,5.74,1.38,1.53,3.09,2.29,5.14,2.29,1.35,0,2.58-.37,3.7-1.1s1.84-1.67,2.18-2.8l.41-1.33c.21-.73.72-1.1,1.52-1.1,1.13,0,1.7.58,1.7,1.75,0,1.99-1.01,3.76-3.03,5.3-2.02,1.54-4.31,2.32-6.89,2.32-3.21,0-5.77-1.08-7.67-3.24-1.9-2.16-2.85-5.06-2.85-8.7s1.01-6.76,3.03-9.09c2.02-2.32,4.65-3.49,7.89-3.49,2.88,0,5.25.96,7.11,2.89s2.8,4.38,2.8,7.34Zm-16.66-1.19c0,.43.34.64,1.01.64h10.97c.64,0,.96-.21.96-.64,0-1.62-.61-3.03-1.84-4.22-1.22-1.19-2.66-1.79-4.32-1.79s-3.27.62-4.68,1.86-2.11,2.62-2.11,4.15Z"/>
    <path class="cls-1" d="m313.56,442.93l-.18,8.94c1.23-1.16,2.35-1.97,3.36-2.41,1.01-.44,2.21-.66,3.59-.66,2.64,0,4.76.75,6.35,2.25,1.6,1.5,2.39,3.47,2.39,5.92v7.67c0,1.81.01,2.8.05,2.98.12,1.53.52,2.29,1.19,2.29.25,0,.6-.09,1.06-.26.18-.04.43-.07.73-.07,1.13,0,1.7.52,1.7,1.56s-.73,1.56-2.2,1.56c-.4,0-.98-.05-1.75-.14-1.29-.15-2.33-.23-3.12-.23s-1.41.03-1.84.09c-1.29.18-2.08.28-2.39.28-.55,0-1.01-.16-1.38-.48s-.55-.73-.55-1.22c0-.4.16-.73.48-1.01s.7-.41,1.12-.41c.34,0,.73.08,1.19.23.28.09.54.14.78.14.92,0,1.39-.99,1.42-2.98,0-.37.03-1.09.09-2.16v-4.45c0-3.12-.31-5.22-.92-6.29-.89-1.59-2.46-2.39-4.7-2.39-2.43,0-4.19.83-5.3,2.48-.77,1.13-1.17,2.95-1.2,5.46v3.3c0,.18-.06.49-.18.92v.87c0,1.75.01,2.75.05,3.03.16,1.5.61,2.25,1.37,2.25.25,0,.61-.07,1.06-.21.46-.14.79-.21,1.02-.21,1.01,0,1.51.49,1.51,1.47,0,1.1-.68,1.66-2.03,1.66-.43,0-1.08-.05-1.94-.14-1.17-.12-2.17-.18-3-.18-.52,0-1.25.05-2.17.14-1.23.12-2.02.18-2.36.18-1.26,0-1.89-.57-1.89-1.7,0-.94.59-1.42,1.78-1.42.4,0,.7.04.89.13.53.13.9.19,1.12.19.5,0,.83-.47,1-1.4.17-.93.27-2.84.3-5.72v-8.22c0-4.59-.09-7.49-.28-8.7s-.61-1.81-1.29-1.81c-.21,0-.54.05-.96.14-.43.09-.77.14-1.01.14-1.04,0-1.56-.49-1.56-1.47,0-.43.18-.8.55-1.1.37-.31.81-.46,1.33-.46.15,0,.67.05,1.56.14.58.06,1.21.09,1.88.09.28,0,.66-.04,1.15-.11.49-.08.84-.12,1.06-.12.7,0,1.06.51,1.06,1.52v.09Z"/>
    <path class="cls-1" d="m346.19,473.31c-3.21,0-5.78-1.11-7.71-3.33-1.93-2.22-2.89-5.19-2.89-8.93s.97-6.71,2.91-8.93c1.94-2.22,4.55-3.33,7.83-3.33s5.97,1.09,7.9,3.26c1.93,2.17,2.89,5.13,2.89,8.86s-.99,6.73-2.98,9c-1.99,2.26-4.64,3.4-7.94,3.4Zm.23-21.48c-2.14,0-3.83.75-5.05,2.25s-1.9,3.63-2.02,6.38v.6c0,2.88.6,5.13,1.81,6.77,1.21,1.64,2.9,2.46,5.07,2.46s3.99-.82,5.26-2.46c1.27-1.64,1.9-3.91,1.9-6.82,0-6.12-2.33-9.18-6.98-9.18Z"/>
    <path class="cls-1" d="m379.47,471.38v-1.42c-1.62,2.23-4.02,3.35-7.21,3.35-3.61,0-6.12-1.12-7.53-3.35-.61-.98-.95-2.13-1.01-3.44-.03-.64-.05-1.99-.05-4.04v-3.81c0-4.19-.45-6.29-1.34-6.29-.19,0-.48.02-.88.07-.4.05-.71.07-.93.07-1.08,0-1.62-.5-1.62-1.49s.66-1.45,1.97-1.45c.31,0,.76.04,1.35.11.6.08,1.05.12,1.35.12.28,0,.75-.05,1.42-.14.46-.06.72-.09.78-.09.95,0,1.42.58,1.42,1.74v3.95l-.14,3.4v2.98c0,2.66.21,4.58.64,5.74.7,1.93,2.39,2.89,5.05,2.89,1.32,0,2.48-.3,3.49-.89s1.71-1.38,2.11-2.36c.49-1.19.74-3.46.74-6.79v-5.51c-.15-1.47-.55-2.2-1.19-2.2h-1.38c-1.07,0-1.61-.46-1.61-1.38,0-1.04.6-1.56,1.79-1.56.28,0,.7.03,1.26.09.57.06.99.09,1.26.09.24,0,.61-.03,1.1-.09.49-.06.86-.09,1.1-.09.92,0,1.38.49,1.38,1.47,0,.43-.03.77-.09,1.01-.15,1.17-.23,2.88-.23,5.15v7.08c0,1.87.01,2.91.05,3.13.15,1.63.58,2.44,1.29,2.44.21,0,.52-.04.92-.11.4-.08.7-.12.92-.12,1.04,0,1.56.5,1.56,1.52s-.64,1.56-1.93,1.56c-.28,0-.67-.03-1.19-.09-.77-.09-1.24-.14-1.42-.14-.09,0-.41.03-.96.09-.37.09-.69.14-.96.14-.86,0-1.29-.44-1.29-1.33Z"/>
    <path class="cls-1" d="m398.77,448.8c2.04,0,3.75.54,5.12,1.61v-.18c0-1.13.49-1.7,1.47-1.7s1.51.49,1.51,1.47c0,.18-.03.64-.08,1.38-.1.61-.15,1.22-.15,1.84,0,.37.04.9.12,1.61.08.7.11,1.24.11,1.61,0,1.16-.5,1.74-1.49,1.74s-1.46-.49-1.49-1.47v-1.51c-.03-.92-.56-1.71-1.58-2.36-1.03-.66-2.23-.99-3.6-.99s-2.59.36-3.53,1.08-1.42,1.61-1.42,2.69c0,1.96,1.35,3.12,4.04,3.49l2.66.37c5.2.7,7.8,2.86,7.8,6.47,0,2.2-.84,3.99-2.52,5.35-1.68,1.36-3.88,2.04-6.59,2.04-2.53,0-4.73-.72-6.59-2.16v.87c0,1.1-.52,1.65-1.56,1.65-1.13,0-1.7-.63-1.7-1.88,0,.21.09-.58.28-2.39.06-.43.09-.86.09-1.29,0-.73-.06-1.42-.18-2.07s-.18-1.15-.18-1.52c0-1.07.49-1.61,1.47-1.61.64,0,1.05.15,1.22.46.17.31.27,1.12.3,2.43.03,1.32.72,2.39,2.07,3.21s3.06,1.24,5.14,1.24c1.5,0,2.74-.38,3.72-1.15.98-.76,1.47-1.73,1.47-2.89,0-2.08-1.65-3.29-4.96-3.63-3.15-.34-5.55-.96-7.21-1.86-1.65-.9-2.48-2.49-2.48-4.75,0-2.14.81-3.88,2.43-5.21,1.62-1.33,3.72-2,6.31-2Z"/>
    <path class="cls-1" d="m432.53,459.04c0,1.16-.08,1.88-.23,2.13-.15.26-.6.39-1.33.39h-14.6c-.4,0-.66.05-.78.16-.12.11-.18.28-.18.53,0,2.29.69,4.21,2.07,5.74,1.38,1.53,3.09,2.29,5.14,2.29,1.35,0,2.58-.37,3.7-1.1s1.84-1.67,2.18-2.8l.41-1.33c.21-.73.72-1.1,1.52-1.1,1.13,0,1.7.58,1.7,1.75,0,1.99-1.01,3.76-3.03,5.3-2.02,1.54-4.31,2.32-6.89,2.32-3.21,0-5.77-1.08-7.67-3.24-1.9-2.16-2.85-5.06-2.85-8.7s1.01-6.76,3.03-9.09c2.02-2.32,4.65-3.49,7.89-3.49,2.88,0,5.25.96,7.11,2.89s2.8,4.38,2.8,7.34Zm-16.66-1.19c0,.43.34.64,1.01.64h10.97c.64,0,.96-.21.96-.64,0-1.62-.61-3.03-1.84-4.22-1.22-1.19-2.66-1.79-4.32-1.79s-3.27.62-4.68,1.86-2.11,2.62-2.11,4.15Z"/>
    <path class="cls-1" d="m443.73,473.31c-.8,0-1.47-.28-2.02-.85s-.83-1.25-.83-2.04.28-1.48.83-2.04c.55-.57,1.22-.85,2.02-.85s1.48.28,2.04.85.85,1.25.85,2.04-.28,1.48-.85,2.04c-.57.57-1.25.85-2.04.85Zm-1.7-19.74v-5.05c0-1.26-.03-2.68-.09-4.27-.03-.24-.05-.53-.05-.87,0-1.65.64-2.48,1.93-2.48s1.97.89,1.97,2.66c0,.34-.02.64-.05.92-.03.15-.08,1.5-.14,4.04l-.23,4.96v8.63c0,1.07-.02,1.73-.05,1.97-.12.86-.44,1.33-.96,1.42-.18.03-.41.05-.69.05-1.1,0-1.65-.77-1.65-2.3v-9.69Z"/>
  </g>
</svg>